<?xml version="1.0" standalone="no"?>
<!DOCTYPE svg PUBLIC "-//W3C//DTD SVG 1.1//EN" "http://www.w3.org/Graphics/SVG/1.1/DTD/svg11.dtd" >
<svg xmlns="http://www.w3.org/2000/svg" xmlns:xlink="http://www.w3.org/1999/xlink" version="1.1">
<metadata>
Created by FontForge 20170731 at Sun May 18 09:36:15 2014
 By Aleksey,,,
Published by Die Gestalten Verlag GmbH &#38; Co. KG, 2012
Copyright (c) by Binnenland, 2006, Designed by Mika Mischler / 2002-2006, revised and extended 2012 All rights reserved. This software may not be reproduced, used, displayed, modified, disclosed or transferred without the express written approval of (Binnenland).
</metadata>
<defs>
<font id="T-StarProBold" horiz-adv-x="535" >
  <font-face 
    font-family="T-Star Pro Bold"
    font-weight="700"
    font-stretch="normal"
    units-per-em="1000"
    panose-1="2 0 8 6 3 0 0 2 0 4"
    ascent="774"
    descent="-226"
    x-height="525"
    cap-height="713"
    bbox="-59 -226 1096 1041.03"
    underline-thickness="51"
    underline-position="-239"
    unicode-range="U+0020-FB02"
  />
<missing-glyph horiz-adv-x="1000" 
 />
    <glyph glyph-name=".notdef" horiz-adv-x="1000" 
 />
    <glyph glyph-name=".null" horiz-adv-x="0" 
 />
    <glyph glyph-name="nonmarkingreturn" horiz-adv-x="333" 
 />
    <glyph glyph-name="space" unicode=" " horiz-adv-x="250" 
 />
    <glyph glyph-name="exclam" unicode="!" horiz-adv-x="262" 
d="M179 188h-95v525h95v-525zM191 0h-120v120h120v-120z" />
    <glyph glyph-name="quotedbl" unicode="&#x22;" horiz-adv-x="368" 
d="M156 547h-85v206h85v-206zM297 547h-85v206h85v-206z" />
    <glyph glyph-name="numbersign" unicode="#" horiz-adv-x="648" 
d="M577 406h-108l-17 -103h96v-86h-108l-33 -198h-88l29 198h-100l-34 -198h-89l31 198h-85v86h99l17 103h-86v85h97l32 182h90l-28 -182h100l32 182h88l-30 -182h95v-85zM379 406h-101l-18 -103h102z" />
    <glyph glyph-name="dollar" unicode="$" horiz-adv-x="514" 
d="M472 188q0 -73 -47 -126t-122 -67v-90h-93v89q-77 12 -122.5 65.5t-45.5 128.5h98q1 -48 31.5 -74.5t81.5 -26.5q56 1 88.5 29t33.5 74q0 61 -61 97q-57 33 -163 85q-43 22 -63 54q-34 54 -34 108q0 69 43 119t113 62v90h93v-90q72 -14 116 -65.5t44 -123.5h-97
q-1 47 -31.5 73t-79.5 26q-46 0 -74.5 -24.5t-29.5 -68.5q0 -51 54 -80q149 -76 155 -79q112 -61 112 -185z" />
    <glyph glyph-name="percent" unicode="%" horiz-adv-x="835" 
d="M764 231v-97q0 -61 -38 -97.5t-100 -36.5q-63 0 -100.5 36.5t-37.5 97.5v97q0 62 38 99t100 37q63 0 100.5 -36.5t37.5 -99.5zM673 134v97q5 40 -47 47q-45 -2 -47 -47v-97q-6 -37 47 -45q46 2 47 45zM346 577v-97q0 -61 -38 -97.5t-100 -36.5q-63 0 -100.5 36.5
t-37.5 97.5v97q0 62 38 99t100 37q63 0 100.5 -36.5t37.5 -99.5zM255 480v97q5 40 -47 47q-45 -2 -47 -47v-97q-6 -37 47 -45q46 2 47 45zM584 756l-263 -807h-77l265 807h75z" />
    <glyph glyph-name="ampersand" unicode="&#x26;" horiz-adv-x="642" 
d="M571 173l-60 -75l-32 28q-47 -135 -202 -135q-79 0 -143 48q-43 37 -57 75t-16 86q0 58 31.5 106.5t84.5 79.5l-15 12q-70 60 -70 142q2 90 60.5 134t132.5 44q90 0 147.5 -56t57.5 -151h-96q-1 53 -30.5 82.5t-78.5 29.5q-36 1 -67 -17q-30 -17 -31 -68q1 -45 54 -87z
M277 86q118 4 120 110l-150 127q-10 -3 -26 -14q-64 -40 -64 -110q0 -33 12 -55q13 -24 42.5 -41.5t65.5 -16.5z" />
    <glyph glyph-name="quotesingle" unicode="'" horiz-adv-x="227" 
d="M156 547h-85v206h85v-206z" />
    <glyph glyph-name="parenleft" unicode="(" horiz-adv-x="299" 
d="M231 -21l-59 -69q-61 60 -75 82q-2 4 -4 7q-21 44 -19 95v500q-3 50 19 94q3 6 7 12.5t9.5 13.5t9.5 11.5t12.5 12.5t12 11.5l14 14l14.5 14.5l58 -68q-44 -49 -51 -64q-11 -24 -11 -57v-490q0 -35 11 -59q10 -22 52 -61z" />
    <glyph glyph-name="parenright" unicode=")" horiz-adv-x="301" 
d="M230 594v-500q0 -57 -19 -95q-12 -23 -78 -89l-62 71q43 36 54 59q11 22 11 59v490q-2 40 -11 57q-14 26 -52 63l60 67q63 -62 78 -88q21 -44 19 -94z" />
    <glyph glyph-name="asterisk" unicode="*" horiz-adv-x="577" 
d="M454 466l-44 -73l-84 51l4 -99h-85l2 98l-82 -50l-42 72l84 46l-84 47l42 73l82 -50l-2 98h85l-4 -100l84 52l42 -74l-83 -45z" />
    <glyph glyph-name="plus" unicode="+" horiz-adv-x="550" 
d="M485 236h-165v-170h-91v170h-164v90h164v159h91v-159h165v-90z" />
    <glyph glyph-name="comma" unicode="," horiz-adv-x="312" 
d="M117 -103h-95l89 222h111z" />
    <glyph glyph-name="hyphen" unicode="-" horiz-adv-x="449" 
d="M378 236h-307v90h307v-90z" />
    <glyph glyph-name="period" unicode="." horiz-adv-x="262" 
d="M195 0h-128v128h128v-128z" />
    <glyph glyph-name="slash" unicode="/" horiz-adv-x="497" 
d="M426 747l-260 -797h-95l261 797h94z" />
    <glyph glyph-name="zero" unicode="0" horiz-adv-x="504" 
d="M443 529v-347q0 -66 -36 -119q-32 -42 -70 -56t-88 -16q-57 0 -105 26q-41 21 -64 73.5t-20 92.5v347q0 64 36 117q32 42 69 56t88 16q58 0 106 -26q41 -20 64 -72t20 -92zM347 184v344q-3 62 -34 80q-30 19 -60 17q-31 2 -62 -17q-32 -18 -35 -80v-344q3 -62 35 -82
q31 -19 62 -17q30 -2 60 17q31 19 34 82z" />
    <glyph glyph-name="one" unicode="1" horiz-adv-x="508" 
d="M441 0h-371v95h136v523l-99 -8v92l195 16v-623h139v-95z" />
    <glyph glyph-name="two" unicode="2" horiz-adv-x="499" 
d="M451 0h-403v149q1 92 91 162q28 23 88 59t90 60q38 32 38 87q0 52 -27.5 80t-78.5 28q-30 2 -56 -15q-48 -31 -49 -100h-96q0 70 40 131q34 46 72.5 61t88.5 17q89 0 145.5 -56.5t56.5 -144.5q0 -94 -71 -157q-29 -25 -93.5 -64t-93.5 -61q-49 -38 -49 -92v-49h307v-95z
" />
    <glyph glyph-name="three" unicode="3" horiz-adv-x="502" 
d="M436 627l-127 -195q52 -13 86 -45t45 -64.5t11 -66.5v-70q0 -66 -42 -122q-55 -71 -159 -73q-58 0 -109 24q-42 19 -67.5 71t-23.5 97h96q3 -61 37 -80q35 -19 66 -18q33 -2 58 13q26 16 37 36t11 52v68q0 30 -12 50t-39 33t-56 11h-50v75l125 195h-246v95h359v-86z" />
    <glyph glyph-name="four" unicode="4" horiz-adv-x="512" 
d="M455 0h-96v194h-302v87l160 432h95l-156 -424h203v256h96v-545z" />
    <glyph glyph-name="five" unicode="5" horiz-adv-x="500" 
d="M455 255v-65q0 -85 -60.5 -142t-145.5 -57q-86 0 -145.5 53.5t-59.5 135.5h96q0 -43 29 -68.5t80 -26.5q46 0 77 27.5t33 76.5v64q0 45 -28 75t-80 31h-179v82l20 272h329v-95h-240l-12 -166h84q82 0 142 -55.5t60 -141.5z" />
    <glyph glyph-name="six" unicode="6" horiz-adv-x="502" 
d="M451 269v-89q0 -64 -41 -118q-23 -30 -52 -45q-52 -26 -110 -26q-55 0 -106 26q-43 20 -70 72t-24 90v348q0 63 43 118q35 42 73 56t88 16q58 0 105 -29q40 -21 63.5 -79t21.5 -103h-94q-2 40 -11 60q-10 25 -33 42t-52 15q-33 2 -59 -13q-27 -14 -38 -33.5t-11 -51.5
v-101q50 36 108 36q56 0 107 -26q42 -19 68.5 -71.5t23.5 -93.5zM355 183v85q0 32 -12 51q-12 21 -39 35.5t-56 12.5q-30 2 -55 -13q-27 -15 -38 -34.5t-11 -51.5v-85q0 -31 11 -51q13 -20 39 -34.5t54 -12.5q30 -1 57 12q27 15 38.5 34.5t11.5 51.5z" />
    <glyph glyph-name="seven" unicode="7" horiz-adv-x="500" 
d="M460 633l-228 -633h-100l225 618h-317v95h420v-80z" />
    <glyph glyph-name="eight" unicode="8" horiz-adv-x="510" 
d="M469 203q0 -76 -43 -135q-21 -31 -55 -49q-55 -28 -115 -28q-59 0 -114 28q-46 22 -73.5 79.5t-25.5 104.5q-1 37 15 72q28 62 76 91q-39 27 -61.5 69.5t-22.5 83.5q0 70 41 128q35 42 74 55.5t91 15.5q58 0 110 -26q44 -20 71 -74t25 -99q0 -37 -17 -71q-31 -58 -72 -82
q27 -14 46 -35q51 -56 50 -128zM373 203q0 27 -9 49q-28 68 -108 68q-52 -1 -84 -32t-33 -85q0 -38 13 -61q13 -25 43 -42t61 -15q33 -2 61 16q30 18 43 41t13 61zM366 519q0 35 -12 54q-13 22 -41 37.5t-57 13.5q-31 2 -58 -14q-28 -16 -40 -36.5t-12 -54.5q1 -50 31 -79
t79 -30q50 1 79.5 30t30.5 79z" />
    <glyph glyph-name="nine" unicode="9" horiz-adv-x="502" 
d="M451 531v-349q0 -62 -40 -119q-33 -42 -71.5 -56t-89.5 -16q-56 0 -105 28q-41 23 -66 81t-22 103h96q0 -38 10 -61q10 -25 34.5 -42t53.5 -15q32 -2 57 13q26 15 36.5 34.5t10.5 51.5v102q-51 -35 -108 -36q-56 0 -107 26q-41 22 -67 74.5t-23 91.5v87q0 62 40 117
q35 42 73 56t88 16q56 0 107 -26q42 -19 69 -71t24 -90zM355 443v84q0 31 -11 51q-12 20 -38.5 34t-54.5 12q-30 2 -56 -13q-27 -14 -38 -33t-11 -51v-84q0 -32 11 -52q13 -21 39.5 -35.5t54.5 -12.5q30 -2 55 13q49 27 49 87z" />
    <glyph glyph-name="colon" unicode=":" horiz-adv-x="262" 
d="M195 0h-128v128h128v-128zM195 302h-128v128h128v-128z" />
    <glyph glyph-name="semicolon" unicode=";" horiz-adv-x="277" 
d="M204 302h-128v128h128v-128zM92 -103h-95l89 222h111z" />
    <glyph glyph-name="less" unicode="&#x3c;" 
d="M465 0h-131l-263 263l260 262h131l-260 -262z" />
    <glyph glyph-name="equal" unicode="=" horiz-adv-x="584" 
d="M477 333h-370v90h370v-90zM477 158h-370v90h370v-90z" />
    <glyph glyph-name="greater" unicode="&#x3e;" horiz-adv-x="537" 
d="M466 262l-265 -262h-130l263 263l-260 262h130z" />
    <glyph glyph-name="question" unicode="?" horiz-adv-x="433" 
d="M417 521q0 -73 -45 -121q-17 -19 -54.5 -51t-52.5 -47q-20 -20 -21 -67v-47h-97v44q1 76 48 129q13 14 50 44.5t54 50.5q20 23 21 64q0 103 -102 103q-28 1 -54 -15q-47 -28 -51 -100h-97q0 72 42 132q34 46 72 61t88 17q88 0 143.5 -54.5t55.5 -142.5zM257 0h-119v120
h119v-120z" />
    <glyph glyph-name="at" unicode="@" horiz-adv-x="1039" 
d="M655 -80l30 -78q-95 -33 -175 -33q-47 0 -92 9q-46 9 -105 34q-61 26 -105 70q-72 72 -109 157q-34 89 -34 178q0 139 80 257q25 38 74 86q47 47 110 76q107 47 200 47q94 0 172 -31q122 -46 196 -150q77 -105 77 -243q0 -99 -43 -171q-21 -43 -75 -86.5t-117 -41.5
q-47 0 -82.5 19t-50.5 54q-24 -30 -65.5 -47t-84.5 -17q-83 0 -126.5 53t-27.5 134l29 153q16 80 75.5 129t144.5 49q59 -2 94 -38l6 30h89l-66 -334q-9 -38 2 -70q12 -31 61 -32q65 0 107.5 62.5t42.5 153.5q0 110 -60 195q-20 28 -56 61q-38 36 -104 60t-138 24
q-36 0 -74 -8q-109 -25 -177 -93q-67 -67 -96 -135q-30 -71 -30 -146q0 -116 60 -208q22 -32 55 -65q39 -39 105 -65t138 -26q58 0 145 27zM588 197l29 153q7 41 -13 66.5t-63 26.5q-47 -1 -79.5 -28t-42.5 -73l-29 -153q-9 -43 10.5 -69t65.5 -27q47 1 79.5 29t42.5 75z
" />
    <glyph glyph-name="A" unicode="A" horiz-adv-x="547" 
d="M531 0h-99l-50 194h-215l-51 -194h-100l186 713h140zM357 290l-82 322l-85 -322h167z" />
    <glyph glyph-name="B" unicode="B" horiz-adv-x="544" 
d="M488 218v-24q0 -64 -37 -121q-20 -30 -51 -47q-51 -26 -109 -26h-220v713h215q58 0 109 -26q41 -20 63 -72t20 -93v-12q1 -34 -15.5 -74.5t-51.5 -67.5q22 -13 38 -34q16 -19 28 -53t11 -63zM379 512v9q-3 62 -34 80t-61 16h-116v-202h122q33 -2 59 16q29 19 30 81z
M391 196v21q1 46 -23.5 74t-73.5 28h-126v-223h121q31 -1 56 13q46 28 46 87z" />
    <glyph glyph-name="C" unicode="C" horiz-adv-x="518" 
d="M377 188h97q0 -65 -42 -123q-60 -72 -165 -74q-56 0 -110 27q-44 22 -71.5 76.5t-24.5 94.5v337q0 66 41 120q35 43 75 57.5t91 15.5q58 0 109 -27q43 -20 71.5 -74t25.5 -93h-97q0 31 -12 51q-12 21 -40.5 35.5t-56.5 12.5q-30 2 -58 -13q-52 -28 -52 -87v-335
q0 -33 12 -54q13 -21 41 -36t57 -13q29 -2 57 13q28 16 40 36.5t12 52.5z" />
    <glyph glyph-name="D" unicode="D" horiz-adv-x="544" 
d="M483 519v-323q0 -67 -36 -122q-32 -44 -69.5 -58.5t-87.5 -15.5h-219v713h215q60 0 110 -27q41 -20 65 -73.5t22 -93.5zM386 197v319q2 46 -24.5 73t-75.5 28h-118v-521h120q47 0 73.5 28t24.5 73z" />
    <glyph glyph-name="E" unicode="E" horiz-adv-x="508" 
d="M467 0h-396v713h396v-96h-299v-194h277v-96h-277v-231h299v-96z" />
    <glyph glyph-name="F" unicode="F" horiz-adv-x="498" 
d="M467 617h-299v-194h277v-96h-277v-327h-97v713h396v-96z" />
    <glyph glyph-name="G" unicode="G" 
d="M474 403v-215q0 -64 -44 -123q-59 -72 -164 -74q-56 0 -110 27q-43 22 -70.5 76.5t-24.5 94.5v337q0 66 41 120q35 43 75 57.5t91 15.5q57 0 109 -26q44 -20 71.5 -73t25.5 -95h-98q0 31 -12 51q-13 21 -40.5 35.5t-55.5 12.5q-30 2 -58 -13q-52 -28 -52 -87v-335
q0 -32 12 -53q13 -21 41 -36.5t57 -13.5q30 -2 57 14q28 16 40 36.5t12 52.5v118h-123v96h220z" />
    <glyph glyph-name="H" unicode="H" horiz-adv-x="568" 
d="M497 0h-97v326h-232v-326h-97v713h97v-291h232v291h97v-713z" />
    <glyph glyph-name="I" unicode="I" horiz-adv-x="240" 
d="M71 713h97v-713h-97v713z" />
    <glyph glyph-name="J" unicode="J" horiz-adv-x="451" 
d="M385 713v-526q0 -93 -49 -144.5t-138 -51.5q-87 0 -137 54t-50 142h97q1 -60 31 -82q28 -21 60 -19q31 -1 59 18t30 77v436h-205v96h302z" />
    <glyph glyph-name="K" unicode="K" horiz-adv-x="524" 
d="M508 0h-111l-183 307l-46 -69v-238h-97v713h97v-302l215 302h113l-225 -321z" />
    <glyph glyph-name="L" unicode="L" horiz-adv-x="472" 
d="M466 0h-395v713h97v-617h298v-96z" />
    <glyph glyph-name="M" unicode="M" horiz-adv-x="654" 
d="M168 0h-97v713h112l144 -357l142 357h114v-713h-97v511l-120 -299h-78l-120 300v-512z" />
    <glyph glyph-name="N" unicode="N" horiz-adv-x="559" 
d="M488 0h-109l-211 495v-495h-97v713h107l213 -503v503h97v-713z" />
    <glyph glyph-name="O" unicode="O" 
d="M474 525v-337q0 -65 -42 -123q-60 -72 -165 -74q-56 0 -110 27q-44 22 -71.5 76.5t-24.5 94.5v337q0 66 41 120q35 43 75 57.5t91 15.5q58 0 109 -27q43 -20 71.5 -74t25.5 -93zM377 189v335q0 32 -12 52q-12 21 -40.5 35.5t-56.5 12.5q-30 2 -58 -13q-52 -28 -52 -87
v-335q0 -33 12 -54q13 -21 41 -36t57 -13q29 -2 57 13q28 16 40 36.5t12 53.5z" />
    <glyph glyph-name="P" unicode="P" horiz-adv-x="519" 
d="M483 518v-50q0 -68 -36 -123q-32 -43 -69.5 -57.5t-87.5 -15.5h-122v-272h-97v713h215q60 0 110 -27q41 -20 65 -74t22 -94zM386 469v47q2 45 -26 73t-76 28h-116v-249h118q49 1 75.5 28t24.5 73z" />
    <glyph glyph-name="Q" unicode="Q" 
d="M221 -104v99q-44 8 -77 31t-50 52.5t-25 57.5t-8 53v336q0 66 41 120q35 43 75 57.5t91 15.5q58 0 109 -27q43 -20 71.5 -74t25.5 -93v-336q0 -25 -8 -52.5t-25 -57.5t-51 -53t-79 -30v-99h-90zM377 189v334q0 33 -12 52q-12 21 -40.5 35.5t-56.5 12.5q-30 2 -58 -13
q-52 -28 -52 -87v-334q1 -75 63 -96v128h90v-129q65 20 66 97z" />
    <glyph glyph-name="R" unicode="R" horiz-adv-x="551" 
d="M508 0h-110l-136 291h-94v-291h-97v713h215q60 0 110 -27q43 -20 67.5 -74t21.5 -93v-33q0 -32 -9 -64t-37.5 -67t-73.5 -53zM388 487v29q3 44 -26 72.5t-78 28.5h-116v-230h118q31 -1 56 13q46 28 46 87z" />
    <glyph glyph-name="S" unicode="S" horiz-adv-x="514" 
d="M472 188q0 -86 -62 -141.5t-156 -55.5q-96 0 -154 55.5t-58 141.5h97q1 -48 32 -75t82 -27q56 1 88.5 29.5t33.5 74.5q0 62 -62 96q-47 27 -162 85q-43 23 -63 54q-34 55 -34 109q0 81 56.5 133t144.5 52q91 0 149.5 -54.5t58.5 -138.5h-98q-1 46 -31 72t-79 26
q-46 0 -74.5 -24.5t-29.5 -67.5q0 -50 55 -80q140 -71 154 -79q112 -61 112 -185z" />
    <glyph glyph-name="T" unicode="T" horiz-adv-x="468" 
d="M451 617h-169v-617h-97v617h-168v96h434v-96z" />
    <glyph glyph-name="U" unicode="U" 
d="M474 713v-525q0 -68 -41 -125q-34 -42 -73.5 -56t-91.5 -16q-60 0 -113 26q-44 22 -70.5 75.5t-23.5 96.5v524h97v-524q0 -33 12 -54q13 -21 41 -36t57 -13q31 -2 57 13q28 16 40 36.5t12 53.5v524h97z" />
    <glyph glyph-name="V" unicode="V" horiz-adv-x="530" 
d="M415 713h98l-177 -713h-140l-179 713h99l148 -616z" />
    <glyph glyph-name="W" unicode="W" horiz-adv-x="781" 
d="M764 713l-149 -713h-99l-125 511l-128 -511h-98l-148 713h98l106 -539l129 539h81l127 -537l107 537h99z" />
    <glyph glyph-name="X" unicode="X" horiz-adv-x="513" 
d="M496 0h-112l-128 257l-127 -257h-112l184 357l-183 356h110l127 -257l131 257h108l-184 -354z" />
    <glyph glyph-name="Y" unicode="Y" horiz-adv-x="506" 
d="M489 713l-188 -455v-258h-97v260l-187 453h106l130 -327l131 327h105z" />
    <glyph glyph-name="Z" unicode="Z" horiz-adv-x="450" 
d="M429 0h-408v83l281 534h-267v96h379v-81l-280 -537h295v-95z" />
    <glyph glyph-name="bracketleft" unicode="[" horiz-adv-x="313" 
d="M242 -77h-171v828h171v-89h-81v-650h81v-89z" />
    <glyph glyph-name="backslash" unicode="\" horiz-adv-x="496" 
d="M425 -52h-93l-261 796h94z" />
    <glyph glyph-name="bracketright" unicode="]" horiz-adv-x="313" 
d="M242 -77h-171v89h81v650h-81v89h171v-828z" />
    <glyph glyph-name="asciicircum" unicode="^" horiz-adv-x="513" 
d="M442 438h-102l-83 153l-81 -153h-105l148 275h79z" />
    <glyph glyph-name="underscore" unicode="_" horiz-adv-x="502" 
d="M515 -150h-528v85h528v-85z" />
    <glyph glyph-name="grave" unicode="`" horiz-adv-x="341" 
d="M266 593h-92l-100 169h109z" />
    <glyph glyph-name="a" unicode="a" horiz-adv-x="509" 
d="M442 359v-359h-95v40q-38 -49 -122 -49q-70 0 -124.5 45t-54.5 128q0 74 51 113t135 39h115v40q-1 85 -94 83q-82 2 -94 -71h-95q9 85 64 124.5t124 39.5q79 0 134.5 -42t55.5 -131zM347 185v46h-114q-44 0 -68 -18t-24 -48q1 -43 27.5 -63t68.5 -19q43 1 75.5 29.5
t34.5 72.5z" />
    <glyph glyph-name="b" unicode="b" horiz-adv-x="522" 
d="M461 341v-158q0 -87 -53.5 -140t-140.5 -53q-27 0 -56 12.5t-45 31.5v-34h-95v713h95v-224q37 43 101 43q89 0 141.5 -51.5t52.5 -139.5zM366 183v158q2 36 -19 65q-19 31 -80 33q-48 0 -74.5 -25.5t-26.5 -72.5v-158q-2 -36 19 -67q21 -32 82 -33q48 1 73.5 27.5
t25.5 72.5z" />
    <glyph glyph-name="c" unicode="c" horiz-adv-x="499" 
d="M260 532q82 0 134.5 -48.5t62.5 -132.5h-97q-6 38 -30.5 62.5t-69.5 25.5q-49 0 -76.5 -25.5t-27.5 -72.5v-158q-1 -36 21 -67q23 -32 83 -33q41 0 66.5 23.5t32.5 65.5h98q-10 -84 -63 -133t-134 -49q-90 0 -144.5 52.5t-54.5 140.5v158q0 86 55.5 138.5t143.5 52.5z
" />
    <glyph glyph-name="d" unicode="d" horiz-adv-x="525" 
d="M156 341v-158q0 -46 26.5 -72.5t74.5 -27.5q61 1 81 33q21 32 20 67v158q0 47 -26.5 72.5t-74.5 25.5q-60 -1 -81 -33q-21 -31 -20 -65zM61 183v158q0 88 53 139.5t143 51.5q67 -2 101 -43v224h95v-713h-95v32q-13 -16 -42 -28.5t-59 -13.5q-88 0 -142 53t-54 140z" />
    <glyph glyph-name="e" unicode="e" horiz-adv-x="520" 
d="M459 341v-113h-303v-45q-1 -36 21 -67q23 -32 83 -33q41 0 67 23.5t33 65.5h97q-10 -84 -63 -133t-134 -49q-90 0 -144.5 52.5t-54.5 140.5v158q0 86 55.5 138.5t143.5 52.5q90 0 144.5 -51.5t54.5 -139.5zM364 320v21q1 34 -22 65q-23 32 -82 33q-49 0 -76.5 -25.5
t-27.5 -72.5v-21h208z" />
    <glyph glyph-name="f" unicode="f" horiz-adv-x="323" 
d="M311 432h-118v-432h-95v432h-86v93h86v34q0 72 37 113t109 41h57v-93h-65q-18 2 -28.5 -10.5t-14.5 -38.5v-46h118v-93z" />
    <glyph glyph-name="g" unicode="g" horiz-adv-x="523" 
d="M356 -39v71q-37 -40 -99 -42q-90 0 -143 52.5t-53 140.5v158q0 87 54 139t142 52q64 -2 99 -40v33h95v-564q0 -101 -54.5 -144t-139.5 -43q-70 0 -120 38t-64 106h99q9 -27 32 -43t53 -16q40 -2 68 19q29 21 31 83zM356 183v158q2 36 -19 65q-19 31 -80 33
q-48 0 -74.5 -25.5t-26.5 -72.5v-158q-1 -34 19 -67q21 -32 82 -33q47 1 73 27.5t26 72.5z" />
    <glyph glyph-name="h" unicode="h" horiz-adv-x="529" 
d="M462 0h-95v341q2 35 -15 65q-17 32 -76 33q-47 -1 -78 -27.5t-32 -68.5v-343h-95v713h95v-218q43 37 110 37q91 0 138.5 -50t47.5 -141v-341z" />
    <glyph glyph-name="i" unicode="i" horiz-adv-x="253" 
d="M174 0h-95v525h95v-525zM180 594h-107v122h107v-122z" />
    <glyph glyph-name="j" unicode="j" horiz-adv-x="241" 
d="M162 525v-609q0 -72 -36.5 -107t-94.5 -35h-40v93h35q36 -3 41 44v614h95zM168 594h-107v122h107v-122z" />
    <glyph glyph-name="k" unicode="k" horiz-adv-x="511" 
d="M487 0h-113l-147 232l-61 -66v-166h-95v713h95v-411l203 223h125l-204 -224z" />
    <glyph glyph-name="l" unicode="l" horiz-adv-x="255" 
d="M69 141v572h95v-576q5 -47 41 -44h35v-93h-40q-58 0 -94.5 35t-36.5 106z" />
    <glyph glyph-name="m" unicode="m" horiz-adv-x="728" 
d="M661 376v-376h-95v369q0 69 -60 70q-93 0 -93 -109v-330h-94v366q0 31 -15 51.5t-44 21.5q-94 0 -94 -110v-329h-95v525h95v-29q39 36 99 36q70 0 109 -54q52 56 136 54q76 0 113.5 -47.5t37.5 -108.5z" />
    <glyph glyph-name="n" unicode="n" horiz-adv-x="529" 
d="M462 0h-95v341q2 35 -15 65q-17 32 -76 33q-47 -1 -78 -27.5t-32 -68.5v-343h-95v525h95v-30q48 37 110 37q90 0 138 -50.5t48 -140.5v-341z" />
    <glyph glyph-name="o" unicode="o" horiz-adv-x="520" 
d="M459 341v-158q0 -87 -55.5 -140t-143.5 -53q-90 0 -144.5 52.5t-54.5 140.5v158q0 86 55.5 138.5t143.5 52.5q90 0 144.5 -51.5t54.5 -139.5zM364 183v158q1 34 -22 65q-23 32 -82 33q-49 0 -76.5 -25.5t-27.5 -72.5v-158q-1 -36 21 -67q23 -32 83 -33q49 1 76.5 27.5
t27.5 72.5z" />
    <glyph glyph-name="p" unicode="p" horiz-adv-x="523" 
d="M462 341v-158q0 -88 -52.5 -140.5t-142.5 -52.5q-63 2 -101 43v-259h-95v751h95v-34q36 41 101 41q88 0 141.5 -52t53.5 -139zM367 183v158q0 47 -26 72.5t-74 25.5q-61 -1 -82 -33q-20 -31 -19 -65v-158q0 -46 26.5 -72.5t74.5 -27.5q61 1 81 33q21 31 19 67z" />
    <glyph glyph-name="q" unicode="q" horiz-adv-x="523" 
d="M156 341v-158q-1 -34 19 -67q21 -32 82 -33q47 1 73 27.5t26 72.5v158q2 36 -19 65q-19 31 -80 33q-48 0 -74.5 -25.5t-26.5 -72.5zM61 183v158q0 87 54 139t142 52q56 0 99 -32v25h95v-751h-95v257q-31 -40 -99 -41q-90 0 -143 52.5t-53 140.5z" />
    <glyph glyph-name="r" unicode="r" horiz-adv-x="318" 
d="M296 432h-53q-29 1 -52 -25t-25 -77v-330h-95v525h95v-47q24 47 90 47h40v-93z" />
    <glyph glyph-name="s" unicode="s" horiz-adv-x="479" 
d="M439 161q0 -87 -56.5 -128t-144.5 -41q-85 0 -139 48.5t-58 131.5h96q11 -88 102 -88q43 0 73.5 17.5t32.5 53.5q-5 44 -53 54q-14 4 -125 34q-52 14 -76 38q-42 43 -42 96q0 76 53.5 115t133.5 39q82 0 134.5 -44t60.5 -124h-98q-13 76 -99 76q-87 0 -91 -60
q1 -35 49 -46q117 -32 133 -37q51 -16 82 -50t32 -85z" />
    <glyph glyph-name="t" unicode="t" horiz-adv-x="350" 
d="M12 432v93h95v188h95v-188h109v-93h-109v-295q5 -47 41 -44h70v-93h-74q-60 0 -96 34.5t-36 106.5v291h-95z" />
    <glyph glyph-name="u" unicode="u" horiz-adv-x="532" 
d="M460 0h-95v34q-40 -42 -102 -43q-90 0 -143 52t-53 140v342h95v-342q-1 -34 19 -67q21 -31 82 -32q46 1 73.5 26t28.5 68v347h95v-525z" />
    <glyph glyph-name="v" unicode="v" horiz-adv-x="456" 
d="M15 525h100l113 -411l114 411h99l-153 -525h-120z" />
    <glyph glyph-name="w" unicode="w" horiz-adv-x="684" 
d="M655 525l-124 -525h-90l-99 379l-100 -379h-88l-125 525h98l78 -382l96 382h82l96 -382l78 382h98z" />
    <glyph glyph-name="x" unicode="x" horiz-adv-x="470" 
d="M458 0h-112l-110 178l-114 -178h-110l168 262l-168 263h110l113 -181l112 181h108l-167 -264z" />
    <glyph glyph-name="y" unicode="y" horiz-adv-x="450" 
d="M12 525h100l113 -411l114 411h99l-181 -622q-22 -79 -59.5 -104t-107.5 -25h-35v93h54q45 -5 59 44l24 89h-27z" />
    <glyph glyph-name="z" unicode="z" horiz-adv-x="437" 
d="M405 0h-373v80l237 352h-229v93h345v-80l-237 -352h257v-93z" />
    <glyph glyph-name="braceleft" unicode="{" horiz-adv-x="312" 
d="M161 618v-549q-5 -42 40 -45h40v-89h-44q-61 0 -93.5 32t-32.5 94v565q0 62 32.5 94t93.5 32h44v-89h-40q-45 -3 -40 -45z" />
    <glyph glyph-name="bar" unicode="|" horiz-adv-x="232" 
d="M161 -52h-90v798h90v-798z" />
    <glyph glyph-name="braceright" unicode="}" horiz-adv-x="315" 
d="M244 626v-567q0 -66 -30.5 -95.5t-96.5 -29.5h-46v89h42q46 1 41 45v549q5 44 -41 45h-42v89h46q66 0 96.5 -29.5t30.5 -95.5z" />
    <glyph glyph-name="asciitilde" unicode="~" horiz-adv-x="545" 
d="M406 334l68 -53q-48 -45 -75.5 -60.5t-57.5 -14.5q-36 3 -71 21q-32 19 -71 22q-18 6 -64 -42l-64 53q44 44 72.5 60.5t57.5 15.5q38 -3 70 -22q33 -19 72 -22q15 -6 63 42z" />
    <glyph glyph-name="exclamdown" unicode="&#xa1;" horiz-adv-x="262" 
d="M83 352h95v-525h-95v525zM71 540h120v-120h-120v120z" />
    <glyph glyph-name="cent" unicode="&#xa2;" horiz-adv-x="499" 
d="M305 -137h-90v131q-72 12 -113 62t-41 127v158q0 74 42 124.5t112 62.5v133h90v-133q63 -12 103.5 -59t48.5 -118h-97q-6 38 -30.5 62.5t-69.5 25.5q-49 0 -76.5 -25.5t-27.5 -72.5v-158q-1 -36 21 -67q23 -32 83 -33q41 0 66.5 23.5t32.5 65.5h98q-11 -73 -50 -119.5
t-102 -58.5v-131z" />
    <glyph glyph-name="sterling" unicode="&#xa3;" horiz-adv-x="500" 
d="M458 529h-95q-3 59 -36 77q-30 19 -62 17q-31 1 -61 -18q-30 -20 -31 -75v-114h189v-94h-189v-227h284v-95h-380v322h-35v94h35v113q0 83 51.5 135.5t136.5 52.5t139 -53t54 -135z" />
    <glyph glyph-name="yen" unicode="&#xa5;" horiz-adv-x="530" 
d="M446 101h-133v-101h-95v101h-134v88h134v54h-134v88h103l-155 382h101l131 -330l133 330h101l-157 -382h105v-88h-133v-54h133v-88z" />
    <glyph glyph-name="brokenbar" unicode="&#xa6;" horiz-adv-x="232" 
d="M164 393h-95v326h95v-326zM164 -26h-95v327h95v-327z" />
    <glyph glyph-name="section" unicode="&#xa7;" horiz-adv-x="544" 
d="M78 375q0 57 29 91q-22 31 -23 74q0 79 53.5 118.5t133.5 39.5q88 0 141 -46t53 -126h-93q0 37 -26 57.5t-77 20.5q-39 1 -65.5 -14.5t-28.5 -49.5q3 -32 41 -44q75 -18 140 -30q52 -13 84.5 -49.5t32.5 -90.5q0 -51 -28 -92q23 -29 21 -74q0 -87 -55.5 -127.5
t-142.5 -40.5q-88 0 -142.5 46t-54.5 126h95q1 -80 102 -78q39 -1 70 14q32 15 33 60q-3 39 -40 49q-78 20 -145 32q-47 9 -70 35q-38 47 -38 99zM210 331l141 -31q19 -5 23 -8q7 14 7 34q-4 38 -44 49q-31 6 -47 10q-64 15 -111 25q-8 -13 -10 -35q2 -34 41 -44z" />
    <glyph glyph-name="dieresis" unicode="&#xa8;" horiz-adv-x="449" 
d="M379 608h-103v119h103v-119zM173 608h-103v119h103v-119z" />
    <glyph glyph-name="copyright" unicode="&#xa9;" horiz-adv-x="839" 
d="M448 255h87q2 -34 -17 -64q-35 -58 -107 -58q-38 0 -61 13q-25 15 -42.5 46.5t-15.5 62.5v177q-2 33 17 63q19 31 42.5 44t61.5 13q37 0 62 -14q25 -13 43.5 -44t16.5 -63h-87q-4 21 -13 30t-22 5q-14 2 -22.5 -7t-12.5 -29v-174q4 -21 12.5 -30t22.5 -7q27 -6 35 36z
M68 348q0 109 60 197q22 32 55 65q38 39 102 65.5t135 26.5q75 0 137 -28q99 -42 155 -129q60 -88 60 -197q0 -106 -60 -198q-18 -27 -55 -65q-39 -39 -102.5 -65t-134.5 -26q-74 0 -138 27q-95 42 -154 129q-60 92 -60 198zM156 348q0 -82 44 -151q22 -41 81 -80.5
t137 -38.5q56 0 104 21q74 32 117 98q45 71 45 151t-45 151q-12 20 -41 49q-29 30 -77.5 50t-102.5 20q-78 1 -137 -38.5t-81 -80.5q-44 -69 -44 -151z" />
    <glyph glyph-name="ordfeminine" unicode="&#xaa;" horiz-adv-x="403" 
d="M336 580v-240h-71v24q-29 -28 -75 -30q-49 -1 -77 20q-46 38 -46 99q1 51 33 78t85 27h80v20q-1 53 -56 53q-22 0 -38 -13.5t-20 -39.5h-72q5 35 17 55q15 27 44.5 47t67.5 19q48 1 77 -20q51 -35 51 -99zM265 463v28h-79q-46 1 -49 -38q1 -53 59 -51q28 0 48 17t21 44z
" />
    <glyph glyph-name="guillemotleft" unicode="&#xab;" horiz-adv-x="483" 
d="M422 47l-216 216l216 218v-126l-91 -92l91 -91v-125zM238 46l-217 217l217 218v-125l-92 -93l92 -92v-125z" />
    <glyph glyph-name="logicalnot" unicode="&#xac;" horiz-adv-x="550" 
d="M483 161h-96v156h-320v93h416v-249z" />
    <glyph glyph-name="uni00AD" unicode="&#xad;" horiz-adv-x="569" 
d="M498 236h-427v90h427v-90z" />
    <glyph glyph-name="registered" unicode="&#xae;" horiz-adv-x="839" 
d="M555 424v-22q1 -24 -14 -59q-13 -33 -57 -53l78 -155h-96l-74 147h-3v-147h-85v408h130q39 0 62 -13q25 -13 43 -44t16 -62zM470 402v20q-8 40 -36 36h-45v-92h46q14 -2 22.5 7t12.5 29zM68 348q0 109 60 197q22 32 55 65q38 39 102 65.5t135 26.5q75 0 137 -28
q99 -42 155 -129q60 -88 60 -197q0 -106 -60 -198q-18 -27 -55 -65q-39 -39 -102.5 -65t-134.5 -26q-74 0 -138 27q-95 42 -154 129q-60 92 -60 198zM156 348q0 -82 44 -151q22 -41 81 -80.5t137 -38.5q56 0 104 21q74 32 117 98q45 71 45 151t-45 151q-12 20 -41 49
q-29 30 -77.5 50t-102.5 20q-78 1 -137 -38.5t-81 -80.5q-44 -69 -44 -151z" />
    <glyph glyph-name="overscore" unicode="&#xaf;" horiz-adv-x="456" 
d="M380 621h-305v81h305v-81z" />
    <glyph glyph-name="degree" unicode="&#xb0;" horiz-adv-x="324" 
d="M287 589q0 -51 -37 -88t-89 -37q-51 0 -87.5 37t-36.5 88q0 52 36.5 88.5t87.5 36.5q52 0 89 -36.5t37 -88.5zM220 589q-1 25 -17.5 41t-41.5 17q-24 -1 -40.5 -17t-17.5 -41q1 -24 17.5 -40t40.5 -17q25 1 41.5 17t17.5 40z" />
    <glyph glyph-name="plusminus" unicode="&#xb1;" horiz-adv-x="553" 
d="M486 237h-164v-114h-91v114h-164v90h164v148h91v-148h164v-90zM486 0h-419v90h419v-90z" />
    <glyph glyph-name="twosuperior" unicode="&#xb2;" horiz-adv-x="360" 
d="M293 603q0 -51 -38 -84q-22 -17 -50 -32q-66 -35 -67 -68v-7h154v-72h-225v82q0 54 50 90l62 38q39 24 43 52q-1 39 -42 41q-36 -1 -41 -60h-72q0 27 8 53q9 24 32 50q22 26 73 28q52 -1 82 -31t31 -80z" />
    <glyph glyph-name="threesuperior" unicode="&#xb3;" horiz-adv-x="358" 
d="M286 649l-56 -83q64 -27 62 -98v-23q1 -30 -17 -59q-34 -51 -94 -51q-34 0 -56 13q-24 14 -41 46.5t-16 71.5h71q5 -34 15 -48.5t26 -10.5q30 -6 41 38v22q-10 43 -41 37h-38v52l53 82h-113v71h204v-60z" />
    <glyph glyph-name="acute" unicode="&#xb4;" horiz-adv-x="340" 
d="M166 593h-92l83 169h109z" />
    <glyph glyph-name="mu" unicode="&#xb5;" 
d="M166 -226h-95v751h95v-342q-1 -36 21 -67q23 -31 81 -32q44 1 72 26.5t29 67.5v347h95v-525h-95v34q-34 -42 -101 -43q-65 1 -102 38v-255z" />
    <glyph glyph-name="paragraph" unicode="&#xb6;" horiz-adv-x="526" 
d="M431 0h-97v602h-77v-602h-97v365q-75 4 -120 50t-45 112q0 86 48 129t138 43h250v-699z" />
    <glyph glyph-name="middot" unicode="&#xb7;" horiz-adv-x="266" 
d="M195 203h-124v125h124v-125z" />
    <glyph glyph-name="cedilla" unicode="&#xb8;" horiz-adv-x="316" 
d="M253 -43l-85 -169h-106l99 169h92z" />
    <glyph glyph-name="onesuperior" unicode="&#xb9;" horiz-adv-x="343" 
d="M276 340h-209v71h67v226l-49 -5v71l120 10v-302h71v-71z" />
    <glyph glyph-name="ordmasculine" unicode="&#xba;" horiz-adv-x="405" 
d="M338 567v-104q0 -60 -37.5 -95.5t-98.5 -35.5q-63 0 -99 35t-36 96v104q0 60 37.5 95.5t97.5 35.5q62 0 99 -35t37 -96zM266 463v104q1 25 -14 42.5t-50 18.5q-30 0 -46.5 -16t-16.5 -45v-104q-2 -60 63 -61q30 0 47 16t17 45z" />
    <glyph glyph-name="guillemotright" unicode="&#xbb;" horiz-adv-x="483" 
d="M462 264l-216 -216v124l92 92l-92 92v126zM277 264l-216 -216v124l93 92l-93 92v126z" />
    <glyph glyph-name="onequarter" unicode="&#xbc;" horiz-adv-x="702" 
d="M276 340h-209v71h69v226l-51 -5v71l122 10v-302h69v-71zM527 756l-264 -807h-76l265 807h75zM635 0h-71v94h-146v56l82 221h71l-75 -206h68v125h71v-290z" />
    <glyph glyph-name="onehalf" unicode="&#xbd;" horiz-adv-x="733" 
d="M276 340h-209v71h68v226l-50 -4v70l121 10v-302h70v-71zM666 263q0 -51 -38 -84q-22 -17 -50 -32q-66 -35 -67 -68v-7h154v-72h-225v82q0 54 50 90l62 38q39 24 43 52q-1 39 -42 41q-36 -1 -41 -60h-72q0 27 8 53q9 24 32 50q22 26 73 28q52 -1 82 -31t31 -80zM526 756
l-263 -807h-77l265 807h75z" />
    <glyph glyph-name="threequarters" unicode="&#xbe;" horiz-adv-x="712" 
d="M646 0h-71v94h-147v56l82 221h72l-75 -206h68v125h71v-290zM286 649l-56 -83q65 -28 63 -98v-23q1 -31 -18 -59q-34 -51 -94 -51q-34 0 -56 13q-24 14 -41 46.5t-16 71.5h71q5 -34 15 -48.5t26 -10.5q30 -6 41 38v22q-10 43 -41 37h-38v52l53 82h-112v71h203v-60z
M537 756l-263 -807h-77l266 807h74z" />
    <glyph glyph-name="questiondown" unicode="&#xbf;" horiz-adv-x="413" 
d="M16 10q0 73 45 121q17 19 54.5 51t52.5 47q20 20 21 67v47h95v-44q-1 -79 -46 -129q-14 -15 -51.5 -45.5t-54.5 -50.5q-20 -22 -21 -63q0 -105 104 -105q31 -1 56 15q26 17 37.5 40t13.5 62h95q0 -72 -42 -132q-34 -46 -72 -61t-88 -17q-88 0 -143.5 54.5t-55.5 142.5z
M175 531h119v-120h-119v120z" />
    <glyph glyph-name="Agrave" unicode="&#xc0;" horiz-adv-x="547" 
d="M531 0h-99l-50 194h-215l-51 -194h-100l186 713h140zM357 290l-82 322l-85 -322h167zM329 780h-92l-100 169h109z" />
    <glyph glyph-name="Aacute" unicode="&#xc1;" horiz-adv-x="547" 
d="M531 0h-99l-50 194h-215l-51 -194h-100l186 713h140zM357 290l-82 322l-85 -322h167zM299 780h-92l83 169h109z" />
    <glyph glyph-name="Acircumflex" unicode="&#xc2;" horiz-adv-x="547" 
d="M531 0h-99l-50 194h-215l-51 -194h-100l186 713h140zM357 290l-82 322l-85 -322h167zM333 780l-60 79l-60 -79h-88l109 161h78l110 -161h-89z" />
    <glyph glyph-name="Atilde" unicode="&#xc3;" horiz-adv-x="547" 
d="M531 0h-99l-50 194h-215l-51 -194h-100l186 713h140zM357 290l-82 322l-85 -322h167zM382 897l57 -56q-66 -63 -109 -61q-30 3 -63 20q-33 19 -52 20q-9 8 -51 -33l-57 55q66 64 111 62q30 -1 61 -20q32 -18 52 -19q10 -6 51 32z" />
    <glyph glyph-name="Adieresis" unicode="&#xc4;" horiz-adv-x="547" 
d="M531 0h-99l-50 194h-215l-51 -194h-100l186 713h140zM357 290l-82 322l-85 -322h167zM428 780h-103v119h103v-119zM222 780h-103v119h103v-119z" />
    <glyph glyph-name="Aring" unicode="&#xc5;" horiz-adv-x="547" 
d="M531 0h-99l-50 194h-215l-51 -194h-100l186 713h140zM357 290l-82 322l-85 -322h167zM225 850q5 -44 48 -48q43 4 48 48q-5 44 -48 48q-43 -4 -48 -48zM160 850q1 48 33 80t80 33q48 -1 80 -33t33 -80q-1 -48 -33 -80t-80 -33q-48 1 -80 33t-33 80z" />
    <glyph glyph-name="AE" unicode="&#xc6;" horiz-adv-x="775" 
d="M734 0h-396v194h-172q-8 -31 -25.5 -97t-25.5 -97h-99l186 713h532v-96h-299v-194h275v-96h-275v-231h299v-96zM276 617l-86 -327h148v327h-62z" />
    <glyph glyph-name="Ccedilla" unicode="&#xc7;" horiz-adv-x="518" 
d="M377 188h97q0 -65 -42 -123q-60 -72 -165 -74q-56 0 -110 27q-44 22 -71.5 76.5t-24.5 94.5v337q0 66 41 120q35 43 75 57.5t91 15.5q58 0 109 -27q43 -20 71.5 -74t25.5 -93h-97q0 31 -12 51q-12 21 -40.5 35.5t-56.5 12.5q-30 2 -58 -13q-52 -28 -52 -87v-335
q0 -33 12 -54q13 -21 41 -36t57 -13q29 -2 57 13q28 16 40 36.5t12 52.5zM314 -43l-85 -169h-106l99 169h92z" />
    <glyph glyph-name="Egrave" unicode="&#xc8;" horiz-adv-x="508" 
d="M467 0h-396v713h396v-96h-299v-194h277v-96h-277v-231h299v-96zM340 780h-92l-100 169h109z" />
    <glyph glyph-name="Eacute" unicode="&#xc9;" horiz-adv-x="508" 
d="M467 0h-396v713h396v-96h-299v-194h277v-96h-277v-231h299v-96zM290 780h-92l83 169h109z" />
    <glyph glyph-name="Ecircumflex" unicode="&#xca;" horiz-adv-x="508" 
d="M467 0h-396v713h396v-96h-299v-194h277v-96h-277v-231h299v-96zM313 780l-60 79l-60 -79h-88l109 161h78l110 -161h-89z" />
    <glyph glyph-name="Edieresis" unicode="&#xcb;" horiz-adv-x="508" 
d="M467 0h-396v713h396v-96h-299v-194h277v-96h-277v-231h299v-96zM408 780h-103v119h103v-119zM202 780h-103v119h103v-119z" />
    <glyph glyph-name="Igrave" unicode="&#xcc;" horiz-adv-x="240" 
d="M71 713h97v-713h-97v713zM165 780h-92l-100 169h109z" />
    <glyph glyph-name="Iacute" unicode="&#xcd;" horiz-adv-x="240" 
d="M71 713h97v-713h-97v713zM166 780h-92l83 169h109z" />
    <glyph glyph-name="Icircumflex" unicode="&#xce;" horiz-adv-x="240" 
d="M71 713h97v-713h-97v713zM180 780l-60 79l-60 -79h-88l109 161h78l110 -161h-89z" />
    <glyph glyph-name="Idieresis" unicode="&#xcf;" horiz-adv-x="240" 
d="M71 713h97v-713h-97v713zM275 780h-103v119h103v-119zM69 780h-103v119h103v-119z" />
    <glyph glyph-name="Eth" unicode="&#xd0;" horiz-adv-x="579" 
d="M512 518v-322q0 -67 -36 -122q-32 -44 -69.5 -58.5t-87.5 -15.5h-219v328h-75v91h75v294h215q60 0 110 -27q41 -20 65 -74t22 -94zM322 328h-125v-232h120q47 0 73.5 28t24.5 73v318q2 45 -25 73t-75 29h-118v-198h125v-91z" />
    <glyph glyph-name="Ntilde" unicode="&#xd1;" horiz-adv-x="559" 
d="M488 0h-109l-211 495v-495h-97v713h107l213 -503v503h97v-713zM388 897l57 -56q-66 -63 -109 -61q-30 3 -63 20q-33 19 -52 20q-9 8 -51 -33l-57 55q66 64 111 62q30 -1 61 -20q32 -18 52 -19q10 -6 51 32z" />
    <glyph glyph-name="Ograve" unicode="&#xd2;" 
d="M474 525v-337q0 -65 -42 -123q-60 -72 -165 -74q-56 0 -110 27q-44 22 -71.5 76.5t-24.5 94.5v337q0 66 41 120q35 43 75 57.5t91 15.5q58 0 109 -27q43 -20 71.5 -74t25.5 -93zM377 189v335q0 32 -12 52q-12 21 -40.5 35.5t-56.5 12.5q-30 2 -58 -13q-52 -28 -52 -87
v-335q0 -33 12 -54q13 -21 41 -36t57 -13q29 -2 57 13q28 16 40 36.5t12 53.5zM323 780h-92l-100 169h109z" />
    <glyph glyph-name="Oacute" unicode="&#xd3;" 
d="M474 525v-337q0 -65 -42 -123q-60 -72 -165 -74q-56 0 -110 27q-44 22 -71.5 76.5t-24.5 94.5v337q0 66 41 120q35 43 75 57.5t91 15.5q58 0 109 -27q43 -20 71.5 -74t25.5 -93zM377 189v335q0 32 -12 52q-12 21 -40.5 35.5t-56.5 12.5q-30 2 -58 -13q-52 -28 -52 -87
v-335q0 -33 12 -54q13 -21 41 -36t57 -13q29 -2 57 13q28 16 40 36.5t12 53.5zM303 780h-92l83 169h109z" />
    <glyph glyph-name="Ocircumflex" unicode="&#xd4;" 
d="M474 525v-337q0 -65 -42 -123q-60 -72 -165 -74q-56 0 -110 27q-44 22 -71.5 76.5t-24.5 94.5v337q0 66 41 120q35 43 75 57.5t91 15.5q58 0 109 -27q43 -20 71.5 -74t25.5 -93zM377 189v335q0 32 -12 52q-12 21 -40.5 35.5t-56.5 12.5q-30 2 -58 -13q-52 -28 -52 -87
v-335q0 -33 12 -54q13 -21 41 -36t57 -13q29 -2 57 13q28 16 40 36.5t12 53.5zM327 780l-60 79l-60 -79h-88l109 161h78l110 -161h-89z" />
    <glyph glyph-name="Otilde" unicode="&#xd5;" 
d="M474 525v-337q0 -65 -42 -123q-60 -72 -165 -74q-56 0 -110 27q-44 22 -71.5 76.5t-24.5 94.5v337q0 66 41 120q35 43 75 57.5t91 15.5q58 0 109 -27q43 -20 71.5 -74t25.5 -93zM377 189v335q0 32 -12 52q-12 21 -40.5 35.5t-56.5 12.5q-30 2 -58 -13q-52 -28 -52 -87
v-335q0 -33 12 -54q13 -21 41 -36t57 -13q29 -2 57 13q28 16 40 36.5t12 53.5zM376 897l57 -56q-66 -63 -109 -61q-30 3 -63 20q-33 19 -52 20q-9 8 -51 -33l-57 55q66 64 111 62q30 -1 61 -20q32 -18 52 -19q10 -6 51 32z" />
    <glyph glyph-name="Odieresis" unicode="&#xd6;" 
d="M474 525v-337q0 -65 -42 -123q-60 -72 -165 -74q-56 0 -110 27q-44 22 -71.5 76.5t-24.5 94.5v337q0 66 41 120q35 43 75 57.5t91 15.5q58 0 109 -27q43 -20 71.5 -74t25.5 -93zM377 189v335q0 32 -12 52q-12 21 -40.5 35.5t-56.5 12.5q-30 2 -58 -13q-52 -28 -52 -87
v-335q0 -33 12 -54q13 -21 41 -36t57 -13q29 -2 57 13q28 16 40 36.5t12 53.5zM422 780h-103v119h103v-119zM216 780h-103v119h103v-119z" />
    <glyph glyph-name="multiply" unicode="&#xd7;" horiz-adv-x="572" 
d="M472 143l-63 -60l-124 123l-123 -123l-62 61l124 124l-124 124l62 62l123 -124l124 124l62 -62l-124 -124z" />
    <glyph glyph-name="Oslash" unicode="&#xd8;" 
d="M474 524v-336q0 -65 -42 -123q-60 -72 -165 -74q-76 0 -126 37l-38 -82h-57l56 121q-41 61 -41 122v336q0 66 41 120q35 43 75 57.5t91 15.5q70 0 123 -36l35 75h56l-52 -112q44 -56 44 -121zM377 189v334v9l-194 -414q44 -37 85 -32q29 -2 57 13q28 16 40 36.5t12 53.5z
M158 189v-4l192 409q-44 34 -82 29q-30 2 -58 -13q-52 -28 -52 -87v-334z" />
    <glyph glyph-name="Ugrave" unicode="&#xd9;" 
d="M474 713v-525q0 -68 -41 -125q-34 -42 -73.5 -56t-91.5 -16q-60 0 -113 26q-44 22 -70.5 75.5t-23.5 96.5v524h97v-524q0 -33 12 -54q13 -21 41 -36t57 -13q31 -2 57 13q28 16 40 36.5t12 53.5v524h97zM343 780h-92l-100 169h109z" />
    <glyph glyph-name="Uacute" unicode="&#xda;" 
d="M474 713v-525q0 -68 -41 -125q-34 -42 -73.5 -56t-91.5 -16q-60 0 -113 26q-44 22 -70.5 75.5t-23.5 96.5v524h97v-524q0 -33 12 -54q13 -21 41 -36t57 -13q31 -2 57 13q28 16 40 36.5t12 53.5v524h97zM283 780h-92l83 169h109z" />
    <glyph glyph-name="Ucircumflex" unicode="&#xdb;" 
d="M474 713v-525q0 -68 -41 -125q-34 -42 -73.5 -56t-91.5 -16q-60 0 -113 26q-44 22 -70.5 75.5t-23.5 96.5v524h97v-524q0 -33 12 -54q13 -21 41 -36t57 -13q31 -2 57 13q28 16 40 36.5t12 53.5v524h97zM327 780l-60 79l-60 -79h-88l109 161h78l110 -161h-89z" />
    <glyph glyph-name="Udieresis" unicode="&#xdc;" 
d="M474 713v-525q0 -68 -41 -125q-34 -42 -73.5 -56t-91.5 -16q-60 0 -113 26q-44 22 -70.5 75.5t-23.5 96.5v524h97v-524q0 -33 12 -54q13 -21 41 -36t57 -13q31 -2 57 13q28 16 40 36.5t12 53.5v524h97zM422 780h-103v119h103v-119zM216 780h-103v119h103v-119z" />
    <glyph glyph-name="Yacute" unicode="&#xdd;" horiz-adv-x="506" 
d="M489 713l-188 -455v-258h-97v260l-187 453h106l130 -327l131 327h105zM279 780h-92l83 169h109z" />
    <glyph glyph-name="Thorn" unicode="&#xde;" horiz-adv-x="558" 
d="M71 713h97v-151h137q90 0 143.5 -55t53.5 -147q0 -93 -53.5 -149t-143.5 -56h-137v-155h-97v713zM303 467h-135v-217h135q104 4 102 110q0 50 -27 78.5t-75 28.5z" />
    <glyph glyph-name="germandbls" unicode="&#xdf;" horiz-adv-x="542" 
d="M221 96h69q32 -2 55 13q45 27 45 87v48q2 46 -22 74t-69 28h-44v96h43q68 0 68 80q3 45 -24 71.5t-74 27.5q-48 -1 -75 -27.5t-25 -71.5v-522h-97v525q0 66 37 119q20 30 50 46q51 27 110 27q58 0 108 -27q42 -20 65.5 -73t20.5 -94q0 -36 -16.5 -70.5t-43.5 -51.5
q23 -11 41 -32q17 -22 30.5 -57.5t12.5 -64.5v-51q0 -68 -36 -123q-32 -43 -70.5 -57.5t-87.5 -15.5h-71v96z" />
    <glyph glyph-name="agrave" unicode="&#xe0;" horiz-adv-x="509" 
d="M442 359v-359h-95v40q-38 -49 -122 -49q-70 0 -124.5 45t-54.5 128q0 74 51 113t135 39h115v40q-1 85 -94 83q-82 2 -94 -71h-95q9 85 64 124.5t124 39.5q79 0 134.5 -42t55.5 -131zM347 185v46h-114q-44 0 -68 -18t-24 -48q1 -43 27.5 -63t68.5 -19q43 1 75.5 29.5
t34.5 72.5zM330 593h-92l-100 169h109z" />
    <glyph glyph-name="aacute" unicode="&#xe1;" horiz-adv-x="509" 
d="M442 359v-359h-95v40q-38 -49 -122 -49q-70 0 -124.5 45t-54.5 128q0 74 51 113t135 39h115v40q-1 85 -94 83q-82 2 -94 -71h-95q9 85 64 124.5t124 39.5q79 0 134.5 -42t55.5 -131zM347 185v46h-114q-44 0 -68 -18t-24 -48q1 -43 27.5 -63t68.5 -19q43 1 75.5 29.5
t34.5 72.5zM270 593h-92l83 169h109z" />
    <glyph glyph-name="acircumflex" unicode="&#xe2;" horiz-adv-x="509" 
d="M442 359v-359h-95v40q-38 -49 -122 -49q-70 0 -124.5 45t-54.5 128q0 74 51 113t135 39h115v40q-1 85 -94 83q-82 2 -94 -71h-95q9 85 64 124.5t124 39.5q79 0 134.5 -42t55.5 -131zM347 185v46h-114q-44 0 -68 -18t-24 -48q1 -43 27.5 -63t68.5 -19q43 1 75.5 29.5
t34.5 72.5zM314 596l-60 79l-60 -79h-88l109 161h78l110 -161h-89z" />
    <glyph glyph-name="atilde" unicode="&#xe3;" horiz-adv-x="509" 
d="M442 359v-359h-95v40q-38 -49 -122 -49q-70 0 -124.5 45t-54.5 128q0 74 51 113t135 39h115v40q-1 85 -94 83q-82 2 -94 -71h-95q9 85 64 124.5t124 39.5q79 0 134.5 -42t55.5 -131zM347 185v46h-114q-44 0 -68 -18t-24 -48q1 -43 27.5 -63t68.5 -19q43 1 75.5 29.5
t34.5 72.5zM363 713l57 -56q-66 -63 -109 -61q-30 3 -63 20q-33 19 -52 20q-9 8 -51 -33l-57 55q66 64 111 62q30 -1 61 -20q32 -18 52 -19q10 -6 51 32z" />
    <glyph glyph-name="adieresis" unicode="&#xe4;" horiz-adv-x="509" 
d="M442 359v-359h-95v40q-38 -49 -122 -49q-70 0 -124.5 45t-54.5 128q0 74 51 113t135 39h115v40q-1 85 -94 83q-82 2 -94 -71h-95q9 85 64 124.5t124 39.5q79 0 134.5 -42t55.5 -131zM347 185v46h-114q-44 0 -68 -18t-24 -48q1 -43 27.5 -63t68.5 -19q43 1 75.5 29.5
t34.5 72.5zM409 608h-103v119h103v-119zM203 608h-103v119h103v-119z" />
    <glyph glyph-name="aring" unicode="&#xe5;" horiz-adv-x="509" 
d="M442 359v-359h-95v40q-38 -49 -122 -49q-70 0 -124.5 45t-54.5 128q0 74 51 113t135 39h115v40q-1 85 -94 83q-82 2 -94 -71h-95q9 85 64 124.5t124 39.5q79 0 134.5 -42t55.5 -131zM347 185v46h-114q-44 0 -68 -18t-24 -48q1 -43 27.5 -63t68.5 -19q43 1 75.5 29.5
t34.5 72.5zM206 666q4 -44 48 -48q44 4 48 48q-4 44 -48 48q-44 -4 -48 -48zM141 666q1 48 33 80t80 33q48 -1 80 -33t33 -80q-1 -48 -33 -80t-80 -33q-48 1 -80 33t-33 80z" />
    <glyph glyph-name="ae" unicode="&#xe6;" horiz-adv-x="801" 
d="M645 320v21q1 34 -20 65q-19 32 -81 33q-99 0 -101 -93v-26h202zM348 316v41q-1 84 -94 82q-81 2 -95 -71h-96q9 85 66.5 124.5t124.5 39.5q95 0 144 -63q53 61 146 63q90 0 143 -51.5t53 -139.5v-113h-297v-45q-1 -34 19 -67q21 -31 82 -32q81 0 98 88h96
q-10 -84 -62 -132.5t-132 -48.5q-45 1 -86.5 21t-65.5 54q-26 -34 -70.5 -54t-95.5 -21q-70 0 -124.5 45t-54.5 128q0 74 51 113t135 39h115zM348 185v46h-114q-44 0 -68 -18t-24 -48q1 -43 27.5 -63t68.5 -19q43 1 75.5 29.5t34.5 72.5z" />
    <glyph glyph-name="ccedilla" unicode="&#xe7;" horiz-adv-x="499" 
d="M260 532q82 0 134.5 -48.5t62.5 -132.5h-97q-6 38 -30.5 62.5t-69.5 25.5q-49 0 -76.5 -25.5t-27.5 -72.5v-158q-1 -36 21 -67q23 -32 83 -33q41 0 66.5 23.5t32.5 65.5h98q-10 -84 -63 -133t-134 -49q-90 0 -144.5 52.5t-54.5 140.5v158q0 86 55.5 138.5t143.5 52.5z
M320 -43l-85 -169h-106l99 169h92z" />
    <glyph glyph-name="egrave" unicode="&#xe8;" horiz-adv-x="520" 
d="M459 341v-113h-303v-45q-1 -36 21 -67q23 -32 83 -33q41 0 67 23.5t33 65.5h97q-10 -84 -63 -133t-134 -49q-90 0 -144.5 52.5t-54.5 140.5v158q0 86 55.5 138.5t143.5 52.5q90 0 144.5 -51.5t54.5 -139.5zM364 320v21q1 34 -22 65q-23 32 -82 33q-49 0 -76.5 -25.5
t-27.5 -72.5v-21h208zM330 593h-92l-100 169h109z" />
    <glyph glyph-name="eacute" unicode="&#xe9;" horiz-adv-x="520" 
d="M459 341v-113h-303v-45q-1 -36 21 -67q23 -32 83 -33q41 0 67 23.5t33 65.5h97q-10 -84 -63 -133t-134 -49q-90 0 -144.5 52.5t-54.5 140.5v158q0 86 55.5 138.5t143.5 52.5q90 0 144.5 -51.5t54.5 -139.5zM364 320v21q1 34 -22 65q-23 32 -82 33q-49 0 -76.5 -25.5
t-27.5 -72.5v-21h208zM270 593h-92l83 169h109z" />
    <glyph glyph-name="ecircumflex" unicode="&#xea;" horiz-adv-x="520" 
d="M459 341v-113h-303v-45q-1 -36 21 -67q23 -32 83 -33q41 0 67 23.5t33 65.5h97q-10 -84 -63 -133t-134 -49q-90 0 -144.5 52.5t-54.5 140.5v158q0 86 55.5 138.5t143.5 52.5q90 0 144.5 -51.5t54.5 -139.5zM364 320v21q1 34 -22 65q-23 32 -82 33q-49 0 -76.5 -25.5
t-27.5 -72.5v-21h208zM317 596l-60 79l-60 -79h-88l109 161h78l110 -161h-89z" />
    <glyph glyph-name="edieresis" unicode="&#xeb;" horiz-adv-x="520" 
d="M459 341v-113h-303v-45q-1 -36 21 -67q23 -32 83 -33q41 0 67 23.5t33 65.5h97q-10 -84 -63 -133t-134 -49q-90 0 -144.5 52.5t-54.5 140.5v158q0 86 55.5 138.5t143.5 52.5q90 0 144.5 -51.5t54.5 -139.5zM364 320v21q1 34 -22 65q-23 32 -82 33q-49 0 -76.5 -25.5
t-27.5 -72.5v-21h208zM412 608h-103v119h103v-119zM206 608h-103v119h103v-119z" />
    <glyph glyph-name="igrave" unicode="&#xec;" horiz-adv-x="236" 
d="M165 0h-94v525h94v-525zM162 593h-92l-100 169h109z" />
    <glyph glyph-name="iacute" unicode="&#xed;" horiz-adv-x="236" 
d="M165 0h-94v525h94v-525zM164 593h-92l83 169h109z" />
    <glyph glyph-name="icircumflex" unicode="&#xee;" horiz-adv-x="236" 
d="M165 0h-94v525h94v-525zM178 596l-60 79l-60 -79h-88l109 161h78l110 -161h-89z" />
    <glyph glyph-name="idieresis" unicode="&#xef;" horiz-adv-x="236" 
d="M165 0h-94v525h94v-525zM273 608h-103v119h103v-119zM67 608h-103v119h103v-119z" />
    <glyph glyph-name="eth" unicode="&#xf0;" horiz-adv-x="555" 
d="M532 693l-84 -85q17 -32 17 -80v-350q0 -63 -41 -116q-33 -41 -70.5 -54.5t-86.5 -15.5q-57 0 -109 26q-42 20 -68.5 72t-23.5 90v78q0 62 40 119q33 42 70.5 56t86.5 16q69 0 114 -33v52q1 38 -1 69l-50 -51l-59 58l67 66q-32 25 -89 22v86q100 0 152 -45l76 78z
M377 182v75q0 35 -12 54q-13 22 -41 37.5t-57 13.5q-33 2 -60 -14q-29 -16 -41 -36.5t-12 -54.5v-75q0 -33 12 -54q13 -21 42 -36t59 -13q32 -2 58 13q28 16 40 36.5t12 53.5z" />
    <glyph glyph-name="ntilde" unicode="&#xf1;" horiz-adv-x="529" 
d="M462 0h-95v341q2 35 -15 65q-17 32 -76 33q-47 -1 -78 -27.5t-32 -68.5v-343h-95v525h95v-30q48 37 110 37q90 0 138 -50.5t48 -140.5v-341zM373 713l57 -56q-66 -63 -109 -61q-30 3 -63 20q-33 19 -52 20q-9 8 -51 -33l-57 55q66 64 111 62q30 -1 61 -20q32 -18 52 -19
q10 -6 51 32z" />
    <glyph glyph-name="ograve" unicode="&#xf2;" horiz-adv-x="520" 
d="M459 341v-158q0 -87 -55.5 -140t-143.5 -53q-90 0 -144.5 52.5t-54.5 140.5v158q0 86 55.5 138.5t143.5 52.5q90 0 144.5 -51.5t54.5 -139.5zM364 183v158q1 34 -22 65q-23 32 -82 33q-49 0 -76.5 -25.5t-27.5 -72.5v-158q-1 -36 21 -67q23 -32 83 -33q49 1 76.5 27.5
t27.5 72.5zM320 593h-92l-100 169h109z" />
    <glyph glyph-name="oacute" unicode="&#xf3;" horiz-adv-x="520" 
d="M459 341v-158q0 -87 -55.5 -140t-143.5 -53q-90 0 -144.5 52.5t-54.5 140.5v158q0 86 55.5 138.5t143.5 52.5q90 0 144.5 -51.5t54.5 -139.5zM364 183v158q1 34 -22 65q-23 32 -82 33q-49 0 -76.5 -25.5t-27.5 -72.5v-158q-1 -36 21 -67q23 -32 83 -33q49 1 76.5 27.5
t27.5 72.5zM280 593h-92l83 169h109z" />
    <glyph glyph-name="ocircumflex" unicode="&#xf4;" horiz-adv-x="520" 
d="M459 341v-158q0 -87 -55.5 -140t-143.5 -53q-90 0 -144.5 52.5t-54.5 140.5v158q0 86 55.5 138.5t143.5 52.5q90 0 144.5 -51.5t54.5 -139.5zM364 183v158q1 34 -22 65q-23 32 -82 33q-49 0 -76.5 -25.5t-27.5 -72.5v-158q-1 -36 21 -67q23 -32 83 -33q49 1 76.5 27.5
t27.5 72.5zM319 596l-60 79l-60 -79h-88l109 161h78l110 -161h-89z" />
    <glyph glyph-name="otilde" unicode="&#xf5;" horiz-adv-x="520" 
d="M459 341v-158q0 -87 -55.5 -140t-143.5 -53q-90 0 -144.5 52.5t-54.5 140.5v158q0 86 55.5 138.5t143.5 52.5q90 0 144.5 -51.5t54.5 -139.5zM364 183v158q1 34 -22 65q-23 32 -82 33q-49 0 -76.5 -25.5t-27.5 -72.5v-158q-1 -36 21 -67q23 -32 83 -33q49 1 76.5 27.5
t27.5 72.5zM369 713l57 -56q-66 -63 -109 -61q-30 3 -63 20q-33 19 -52 20q-9 8 -51 -33l-57 55q66 64 111 62q30 -1 61 -20q32 -18 52 -19q10 -6 51 32z" />
    <glyph glyph-name="odieresis" unicode="&#xf6;" horiz-adv-x="520" 
d="M459 341v-158q0 -87 -55.5 -140t-143.5 -53q-90 0 -144.5 52.5t-54.5 140.5v158q0 86 55.5 138.5t143.5 52.5q90 0 144.5 -51.5t54.5 -139.5zM364 183v158q1 34 -22 65q-23 32 -82 33q-49 0 -76.5 -25.5t-27.5 -72.5v-158q-1 -36 21 -67q23 -32 83 -33q49 1 76.5 27.5
t27.5 72.5zM414 608h-103v119h103v-119zM208 608h-103v119h103v-119z" />
    <glyph glyph-name="divide" unicode="&#xf7;" horiz-adv-x="525" 
d="M323 0h-129v128h129v-128zM323 302h-129v128h129v-128zM450 171h-382v91h382v-91z" />
    <glyph glyph-name="oslash" unicode="&#xf8;" horiz-adv-x="520" 
d="M459 341v-158q0 -87 -55.5 -140t-143.5 -53q-54 2 -94 18l-29 -60h-58l42 89q-60 51 -60 146v158q0 86 55.5 138.5t143.5 52.5q48 0 90 -17l30 62h57l-42 -89q64 -53 64 -147zM364 183v158q1 28 -14 54l-144 -302q20 -10 54 -10q49 1 76.5 27.5t27.5 72.5zM156 341v-158
q0 -24 11 -51l143 298q-20 9 -50 9q-49 0 -76.5 -25.5t-27.5 -72.5z" />
    <glyph glyph-name="ugrave" unicode="&#xf9;" horiz-adv-x="532" 
d="M460 0h-95v34q-40 -42 -102 -43q-90 0 -143 52t-53 140v342h95v-342q-1 -34 19 -67q21 -31 82 -32q46 1 73.5 26t28.5 68v347h95v-525zM332 593h-92l-100 169h109z" />
    <glyph glyph-name="uacute" unicode="&#xfa;" horiz-adv-x="532" 
d="M460 0h-95v34q-40 -42 -102 -43q-90 0 -143 52t-53 140v342h95v-342q-1 -34 19 -67q21 -31 82 -32q46 1 73.5 26t28.5 68v347h95v-525zM282 593h-92l83 169h109z" />
    <glyph glyph-name="ucircumflex" unicode="&#xfb;" horiz-adv-x="532" 
d="M460 0h-95v34q-40 -42 -102 -43q-90 0 -143 52t-53 140v342h95v-342q-1 -34 19 -67q21 -31 82 -32q46 1 73.5 26t28.5 68v347h95v-525zM325 596l-60 79l-60 -79h-88l109 161h78l110 -161h-89z" />
    <glyph glyph-name="udieresis" unicode="&#xfc;" horiz-adv-x="532" 
d="M460 0h-95v34q-40 -42 -102 -43q-90 0 -143 52t-53 140v342h95v-342q-1 -34 19 -67q21 -31 82 -32q46 1 73.5 26t28.5 68v347h95v-525zM420 608h-103v119h103v-119zM214 608h-103v119h103v-119z" />
    <glyph glyph-name="yacute" unicode="&#xfd;" horiz-adv-x="450" 
d="M12 525h100l113 -411l114 411h99l-181 -622q-22 -79 -59.5 -104t-107.5 -25h-35v93h54q45 -5 59 44l24 89h-27zM245 593h-92l83 169h109z" />
    <glyph glyph-name="thorn" unicode="&#xfe;" horiz-adv-x="522" 
d="M461 341v-158q0 -87 -53.5 -140t-140.5 -53q-27 0 -56 12.5t-45 31.5v-260h-95v919h95v-204q37 43 101 43q89 0 141.5 -51.5t52.5 -139.5zM366 183v158q2 36 -19 65q-19 31 -80 33q-48 0 -74.5 -25.5t-26.5 -72.5v-158q-2 -36 19 -67q21 -32 82 -33q48 1 73.5 27.5
t25.5 72.5z" />
    <glyph glyph-name="ydieresis" unicode="&#xff;" horiz-adv-x="450" 
d="M12 525h100l113 -411l114 411h99l-181 -622q-22 -79 -59.5 -104t-107.5 -25h-35v93h54q45 -5 59 44l24 89h-27zM377 608h-103v119h103v-119zM171 608h-103v119h103v-119z" />
    <glyph glyph-name="Amacron" unicode="&#x100;" horiz-adv-x="547" 
d="M531 0h-99l-50 194h-215l-51 -194h-100l186 713h140zM357 290l-82 322l-85 -322h167zM426 800h-305v81h305v-81z" />
    <glyph glyph-name="amacron" unicode="&#x101;" horiz-adv-x="509" 
d="M442 359v-359h-95v40q-38 -49 -122 -49q-70 0 -124.5 45t-54.5 128q0 74 51 113t135 39h115v40q-1 85 -94 83q-82 2 -94 -71h-95q9 85 64 124.5t124 39.5q79 0 134.5 -42t55.5 -131zM347 185v46h-114q-44 0 -68 -18t-24 -48q1 -43 27.5 -63t68.5 -19q43 1 75.5 29.5
t34.5 72.5zM407 621h-305v81h305v-81z" />
    <glyph glyph-name="Abreve" unicode="&#x102;" horiz-adv-x="547" 
d="M531 0h-99l-50 194h-215l-51 -194h-100l186 713h140zM357 290l-82 322l-85 -322h167zM273 780q-65 0 -106.5 38t-47.5 114h78q3 -39 22.5 -60t53.5 -21t53.5 21t22.5 60h78q-6 -76 -47.5 -114t-106.5 -38z" />
    <glyph glyph-name="abreve" unicode="&#x103;" horiz-adv-x="509" 
d="M442 359v-359h-95v40q-38 -49 -122 -49q-70 0 -124.5 45t-54.5 128q0 74 51 113t135 39h115v40q-1 85 -94 83q-82 2 -94 -71h-95q9 85 64 124.5t124 39.5q79 0 134.5 -42t55.5 -131zM347 185v46h-114q-44 0 -68 -18t-24 -48q1 -43 27.5 -63t68.5 -19q43 1 75.5 29.5
t34.5 72.5zM254 592q-65 0 -106.5 38t-47.5 114h78q3 -39 22.5 -60t53.5 -21t53.5 21t22.5 60h78q-6 -76 -47.5 -114t-106.5 -38z" />
    <glyph glyph-name="Aogonek" unicode="&#x104;" horiz-adv-x="547" 
d="M531 0h-99l-50 194h-215l-51 -194h-100l186 713h140zM357 290l-82 322l-85 -322h167zM535 -212l-85 169h92l99 -169h-106z" />
    <glyph glyph-name="aogonek" unicode="&#x105;" horiz-adv-x="509" 
d="M442 359v-359h-95v40q-38 -49 -122 -49q-70 0 -124.5 45t-54.5 128q0 74 51 113t135 39h115v40q-1 85 -94 83q-82 2 -94 -71h-95q9 85 64 124.5t124 39.5q79 0 134.5 -42t55.5 -131zM347 185v46h-114q-44 0 -68 -18t-24 -48q1 -43 27.5 -63t68.5 -19q43 1 75.5 29.5
t34.5 72.5zM435 -212l-85 169h92l99 -169h-106z" />
    <glyph glyph-name="Cacute" unicode="&#x106;" horiz-adv-x="518" 
d="M377 188h97q0 -65 -42 -123q-60 -72 -165 -74q-56 0 -110 27q-44 22 -71.5 76.5t-24.5 94.5v337q0 66 41 120q35 43 75 57.5t91 15.5q58 0 109 -27q43 -20 71.5 -74t25.5 -93h-97q0 31 -12 51q-12 21 -40.5 35.5t-56.5 12.5q-30 2 -58 -13q-52 -28 -52 -87v-335
q0 -33 12 -54q13 -21 41 -36t57 -13q29 -2 57 13q28 16 40 36.5t12 52.5zM305 780h-92l83 169h109z" />
    <glyph glyph-name="cacute" unicode="&#x107;" horiz-adv-x="499" 
d="M260 532q82 0 134.5 -48.5t62.5 -132.5h-97q-6 38 -30.5 62.5t-69.5 25.5q-49 0 -76.5 -25.5t-27.5 -72.5v-158q-1 -36 21 -67q23 -32 83 -33q41 0 66.5 23.5t32.5 65.5h98q-10 -84 -63 -133t-134 -49q-90 0 -144.5 52.5t-54.5 140.5v158q0 86 55.5 138.5t143.5 52.5z
M270 593h-92l83 169h109z" />
    <glyph glyph-name="Ccircumflex" unicode="&#x108;" horiz-adv-x="518" 
d="M377 188h97q0 -65 -42 -123q-60 -72 -165 -74q-56 0 -110 27q-44 22 -71.5 76.5t-24.5 94.5v337q0 66 41 120q35 43 75 57.5t91 15.5q58 0 109 -27q43 -20 71.5 -74t25.5 -93h-97q0 31 -12 51q-12 21 -40.5 35.5t-56.5 12.5q-30 2 -58 -13q-52 -28 -52 -87v-335
q0 -33 12 -54q13 -21 41 -36t57 -13q29 -2 57 13q28 16 40 36.5t12 52.5zM328 780l-60 79l-60 -79h-88l109 161h78l110 -161h-89z" />
    <glyph glyph-name="ccircumflex" unicode="&#x109;" horiz-adv-x="499" 
d="M260 532q82 0 134.5 -48.5t62.5 -132.5h-97q-6 38 -30.5 62.5t-69.5 25.5q-49 0 -76.5 -25.5t-27.5 -72.5v-158q-1 -36 21 -67q23 -32 83 -33q41 0 66.5 23.5t32.5 65.5h98q-10 -84 -63 -133t-134 -49q-90 0 -144.5 52.5t-54.5 140.5v158q0 86 55.5 138.5t143.5 52.5z
M309 596l-60 79l-60 -79h-88l109 161h78l110 -161h-89z" />
    <glyph glyph-name="Cdotaccent" unicode="&#x10a;" horiz-adv-x="518" 
d="M377 188h97q0 -65 -42 -123q-60 -72 -165 -74q-56 0 -110 27q-44 22 -71.5 76.5t-24.5 94.5v337q0 66 41 120q35 43 75 57.5t91 15.5q58 0 109 -27q43 -20 71.5 -74t25.5 -93h-97q0 31 -12 51q-12 21 -40.5 35.5t-56.5 12.5q-30 2 -58 -13q-52 -28 -52 -87v-335
q0 -33 12 -54q13 -21 41 -36t57 -13q29 -2 57 13q28 16 40 36.5t12 52.5zM310 780h-103v119h103v-119z" />
    <glyph glyph-name="cdotaccent" unicode="&#x10b;" horiz-adv-x="499" 
d="M260 532q82 0 134.5 -48.5t62.5 -132.5h-97q-6 38 -30.5 62.5t-69.5 25.5q-49 0 -76.5 -25.5t-27.5 -72.5v-158q-1 -36 21 -67q23 -32 83 -33q41 0 66.5 23.5t32.5 65.5h98q-10 -84 -63 -133t-134 -49q-90 0 -144.5 52.5t-54.5 140.5v158q0 86 55.5 138.5t143.5 52.5z
M301 608h-103v119h103v-119z" />
    <glyph glyph-name="Ccaron" unicode="&#x10c;" horiz-adv-x="518" 
d="M377 188h97q0 -65 -42 -123q-60 -72 -165 -74q-56 0 -110 27q-44 22 -71.5 76.5t-24.5 94.5v337q0 66 41 120q35 43 75 57.5t91 15.5q58 0 109 -27q43 -20 71.5 -74t25.5 -93h-97q0 31 -12 51q-12 21 -40.5 35.5t-56.5 12.5q-30 2 -58 -13q-52 -28 -52 -87v-335
q0 -33 12 -54q13 -21 41 -36t57 -13q29 -2 57 13q28 16 40 36.5t12 52.5zM209 941l60 -79l60 79h88l-109 -161h-78l-110 161h89z" />
    <glyph glyph-name="ccaron" unicode="&#x10d;" horiz-adv-x="499" 
d="M260 532q82 0 134.5 -48.5t62.5 -132.5h-97q-6 38 -30.5 62.5t-69.5 25.5q-49 0 -76.5 -25.5t-27.5 -72.5v-158q-1 -36 21 -67q23 -32 83 -33q41 0 66.5 23.5t32.5 65.5h98q-10 -84 -63 -133t-134 -49q-90 0 -144.5 52.5t-54.5 140.5v158q0 86 55.5 138.5t143.5 52.5z
M190 757l60 -79l60 79h88l-109 -161h-78l-110 161h89z" />
    <glyph glyph-name="Dcaron" unicode="&#x10e;" horiz-adv-x="544" 
d="M483 519v-323q0 -67 -36 -122q-32 -44 -69.5 -58.5t-87.5 -15.5h-219v713h215q60 0 110 -27q41 -20 65 -73.5t22 -93.5zM386 197v319q2 46 -24.5 73t-75.5 28h-118v-521h120q47 0 73.5 28t24.5 73zM212 941l60 -79l60 79h88l-109 -161h-78l-110 161h89z" />
    <glyph glyph-name="dcaron" unicode="&#x10f;" horiz-adv-x="633" 
d="M156 341v-158q0 -46 26.5 -72.5t74.5 -27.5q61 1 81 33q21 32 20 67v158q0 47 -26.5 72.5t-74.5 25.5q-60 -1 -81 -33q-21 -31 -20 -65zM61 183v158q0 88 53 139.5t143 51.5q67 -2 101 -43v224h95v-713h-95v32q-13 -16 -42 -28.5t-59 -13.5q-88 0 -142 53t-54 140z
M618 547h-85v206h85v-206z" />
    <glyph glyph-name="Dcroat" unicode="&#x110;" horiz-adv-x="573" 
d="M512 518v-322q0 -67 -36 -122q-32 -44 -69.5 -58.5t-87.5 -15.5h-219v328h-75v91h75v294h215q60 0 110 -27q41 -20 65 -74t22 -94zM322 328h-125v-232h120q47 0 73.5 28t24.5 73v318q2 45 -25 73t-75 29h-118v-198h125v-91z" />
    <glyph glyph-name="dslash" unicode="&#x111;" horiz-adv-x="517" 
d="M217 564v86h141v63h95v-63h70v-86h-70v-564h-95v32q-39 -42 -101 -42q-88 0 -142 53t-54 140v158q0 88 53 139.5t143 51.5q61 0 101 -42v74h-141zM156 341v-158q0 -46 26.5 -72.5t74.5 -27.5q61 1 81 33q21 32 20 67v158q0 47 -26.5 72.5t-74.5 25.5q-61 -1 -82 -33
q-20 -31 -19 -65z" />
    <glyph glyph-name="Emacron" unicode="&#x112;" horiz-adv-x="508" 
d="M467 0h-396v713h396v-96h-299v-194h277v-96h-277v-231h299v-96zM416 800h-305v81h305v-81z" />
    <glyph glyph-name="emacron" unicode="&#x113;" horiz-adv-x="520" 
d="M459 341v-113h-303v-45q-1 -36 21 -67q23 -32 83 -33q41 0 67 23.5t33 65.5h97q-10 -84 -63 -133t-134 -49q-90 0 -144.5 52.5t-54.5 140.5v158q0 86 55.5 138.5t143.5 52.5q90 0 144.5 -51.5t54.5 -139.5zM364 320v21q1 34 -22 65q-23 32 -82 33q-49 0 -76.5 -25.5
t-27.5 -72.5v-21h208zM410 621h-305v81h305v-81z" />
    <glyph glyph-name="Ebreve" unicode="&#x114;" horiz-adv-x="508" 
d="M467 0h-396v713h396v-96h-299v-194h277v-96h-277v-231h299v-96zM254 780q-65 0 -106.5 38t-47.5 114h78q3 -39 22.5 -60t53.5 -21t53.5 21t22.5 60h78q-6 -76 -47.5 -114t-106.5 -38z" />
    <glyph glyph-name="ebreve" unicode="&#x115;" horiz-adv-x="520" 
d="M459 341v-113h-303v-45q-1 -36 21 -67q23 -32 83 -33q41 0 67 23.5t33 65.5h97q-10 -84 -63 -133t-134 -49q-90 0 -144.5 52.5t-54.5 140.5v158q0 86 55.5 138.5t143.5 52.5q90 0 144.5 -51.5t54.5 -139.5zM364 320v21q1 34 -22 65q-23 32 -82 33q-49 0 -76.5 -25.5
t-27.5 -72.5v-21h208zM257 592q-65 0 -106.5 38t-47.5 114h78q3 -39 22.5 -60t53.5 -21t53.5 21t22.5 60h78q-6 -76 -47.5 -114t-106.5 -38z" />
    <glyph glyph-name="Edotaccent" unicode="&#x116;" horiz-adv-x="508" 
d="M467 0h-396v713h396v-96h-299v-194h277v-96h-277v-231h299v-96zM305 780h-103v119h103v-119z" />
    <glyph glyph-name="edotaccent" unicode="&#x117;" horiz-adv-x="520" 
d="M459 341v-113h-303v-45q-1 -36 21 -67q23 -32 83 -33q41 0 67 23.5t33 65.5h97q-10 -84 -63 -133t-134 -49q-90 0 -144.5 52.5t-54.5 140.5v158q0 86 55.5 138.5t143.5 52.5q90 0 144.5 -51.5t54.5 -139.5zM364 320v21q1 34 -22 65q-23 32 -82 33q-49 0 -76.5 -25.5
t-27.5 -72.5v-21h208zM309 608h-103v119h103v-119z" />
    <glyph glyph-name="Eogonek" unicode="&#x118;" horiz-adv-x="508" 
d="M467 0h-396v713h396v-96h-299v-194h277v-96h-277v-231h299v-96zM291 -212l-85 169h92l99 -169h-106z" />
    <glyph glyph-name="eogonek" unicode="&#x119;" horiz-adv-x="520" 
d="M459 341v-113h-303v-45q-1 -36 21 -67q23 -32 83 -33q41 0 67 23.5t33 65.5h97q-10 -84 -63 -133t-134 -49q-90 0 -144.5 52.5t-54.5 140.5v158q0 86 55.5 138.5t143.5 52.5q90 0 144.5 -51.5t54.5 -139.5zM364 320v21q1 34 -22 65q-23 32 -82 33q-49 0 -76.5 -25.5
t-27.5 -72.5v-21h208zM296 -212l-85 169h92l99 -169h-106z" />
    <glyph glyph-name="Ecaron" unicode="&#x11a;" horiz-adv-x="508" 
d="M467 0h-396v713h396v-96h-299v-194h277v-96h-277v-231h299v-96zM194 941l60 -79l60 79h88l-109 -161h-78l-110 161h89z" />
    <glyph glyph-name="ecaron" unicode="&#x11b;" horiz-adv-x="520" 
d="M459 341v-113h-303v-45q-1 -36 21 -67q23 -32 83 -33q41 0 67 23.5t33 65.5h97q-10 -84 -63 -133t-134 -49q-90 0 -144.5 52.5t-54.5 140.5v158q0 86 55.5 138.5t143.5 52.5q90 0 144.5 -51.5t54.5 -139.5zM364 320v21q1 34 -22 65q-23 32 -82 33q-49 0 -76.5 -25.5
t-27.5 -72.5v-21h208zM198 757l60 -79l60 79h88l-109 -161h-78l-110 161h89z" />
    <glyph glyph-name="Gcircumflex" unicode="&#x11c;" 
d="M474 403v-215q0 -64 -44 -123q-59 -72 -164 -74q-56 0 -110 27q-43 22 -70.5 76.5t-24.5 94.5v337q0 66 41 120q35 43 75 57.5t91 15.5q57 0 109 -26q44 -20 71.5 -73t25.5 -95h-98q0 31 -12 51q-13 21 -40.5 35.5t-55.5 12.5q-30 2 -58 -13q-52 -28 -52 -87v-335
q0 -32 12 -53q13 -21 41 -36.5t57 -13.5q30 -2 57 14q28 16 40 36.5t12 52.5v118h-123v96h220zM327 780l-60 79l-60 -79h-88l109 161h78l110 -161h-89z" />
    <glyph glyph-name="gcircumflex" unicode="&#x11d;" horiz-adv-x="523" 
d="M356 -39v71q-37 -40 -99 -42q-90 0 -143 52.5t-53 140.5v158q0 87 54 139t142 52q64 -2 99 -40v33h95v-564q0 -101 -54.5 -144t-139.5 -43q-70 0 -120 38t-64 106h99q9 -27 32 -43t53 -16q40 -2 68 19q29 21 31 83zM356 183v158q2 36 -19 65q-19 31 -80 33
q-48 0 -74.5 -25.5t-26.5 -72.5v-158q-1 -34 19 -67q21 -32 82 -33q47 1 73 27.5t26 72.5zM321 596l-60 79l-60 -79h-88l109 161h78l110 -161h-89z" />
    <glyph glyph-name="Gbreve" unicode="&#x11e;" 
d="M474 403v-215q0 -64 -44 -123q-59 -72 -164 -74q-56 0 -110 27q-43 22 -70.5 76.5t-24.5 94.5v337q0 66 41 120q35 43 75 57.5t91 15.5q57 0 109 -26q44 -20 71.5 -73t25.5 -95h-98q0 31 -12 51q-13 21 -40.5 35.5t-55.5 12.5q-30 2 -58 -13q-52 -28 -52 -87v-335
q0 -32 12 -53q13 -21 41 -36.5t57 -13.5q30 -2 57 14q28 16 40 36.5t12 52.5v118h-123v96h220zM267 780q-65 0 -106.5 38t-47.5 114h78q3 -39 22.5 -60t53.5 -21t53.5 21t22.5 60h78q-6 -76 -47.5 -114t-106.5 -38z" />
    <glyph glyph-name="gbreve" unicode="&#x11f;" horiz-adv-x="523" 
d="M356 -39v71q-37 -40 -99 -42q-90 0 -143 52.5t-53 140.5v158q0 87 54 139t142 52q64 -2 99 -40v33h95v-564q0 -101 -54.5 -144t-139.5 -43q-70 0 -120 38t-64 106h99q9 -27 32 -43t53 -16q40 -2 68 19q29 21 31 83zM356 183v158q2 36 -19 65q-19 31 -80 33
q-48 0 -74.5 -25.5t-26.5 -72.5v-158q-1 -34 19 -67q21 -32 82 -33q47 1 73 27.5t26 72.5zM261 592q-65 0 -106.5 38t-47.5 114h78q3 -39 22.5 -60t53.5 -21t53.5 21t22.5 60h78q-6 -76 -47.5 -114t-106.5 -38z" />
    <glyph glyph-name="Gdotaccent" unicode="&#x120;" 
d="M474 403v-215q0 -64 -44 -123q-59 -72 -164 -74q-56 0 -110 27q-43 22 -70.5 76.5t-24.5 94.5v337q0 66 41 120q35 43 75 57.5t91 15.5q57 0 109 -26q44 -20 71.5 -73t25.5 -95h-98q0 31 -12 51q-13 21 -40.5 35.5t-55.5 12.5q-30 2 -58 -13q-52 -28 -52 -87v-335
q0 -32 12 -53q13 -21 41 -36.5t57 -13.5q30 -2 57 14q28 16 40 36.5t12 52.5v118h-123v96h220zM319 780h-103v119h103v-119z" />
    <glyph glyph-name="gdotaccent" unicode="&#x121;" horiz-adv-x="523" 
d="M356 -39v71q-37 -40 -99 -42q-90 0 -143 52.5t-53 140.5v158q0 87 54 139t142 52q64 -2 99 -40v33h95v-564q0 -101 -54.5 -144t-139.5 -43q-70 0 -120 38t-64 106h99q9 -27 32 -43t53 -16q40 -2 68 19q29 21 31 83zM356 183v158q2 36 -19 65q-19 31 -80 33
q-48 0 -74.5 -25.5t-26.5 -72.5v-158q-1 -34 19 -67q21 -32 82 -33q47 1 73 27.5t26 72.5zM313 608h-103v119h103v-119z" />
    <glyph glyph-name="Gcommaaccent" unicode="&#x122;" 
d="M474 403v-215q0 -64 -44 -123q-59 -72 -164 -74q-56 0 -110 27q-43 22 -70.5 76.5t-24.5 94.5v337q0 66 41 120q35 43 75 57.5t91 15.5q57 0 109 -26q44 -20 71.5 -73t25.5 -95h-98q0 31 -12 51q-13 21 -40.5 35.5t-55.5 12.5q-30 2 -58 -13q-52 -28 -52 -87v-335
q0 -32 12 -53q13 -21 41 -36.5t57 -13.5q30 -2 57 14q28 16 40 36.5t12 52.5v118h-123v96h220zM325 -43l-85 -169h-106l99 169h92z" />
    <glyph glyph-name="gcommaaccent" unicode="&#x123;" horiz-adv-x="523" 
d="M356 -39v71q-37 -40 -99 -42q-90 0 -143 52.5t-53 140.5v158q0 87 54 139t142 52q64 -2 99 -40v33h95v-564q0 -101 -54.5 -144t-139.5 -43q-70 0 -120 38t-64 106h99q9 -27 32 -43t53 -16q40 -2 68 19q29 21 31 83zM356 183v158q2 36 -19 65q-19 31 -80 33
q-48 0 -74.5 -25.5t-26.5 -72.5v-158q-1 -34 19 -67q21 -32 82 -33q47 1 73 27.5t26 72.5zM287 593h-92l83 169h109z" />
    <glyph glyph-name="Hcircumflex" unicode="&#x124;" horiz-adv-x="568" 
d="M497 0h-97v326h-232v-326h-97v713h97v-291h232v291h97v-713zM343 780l-60 79l-60 -79h-88l109 161h78l110 -161h-89z" />
    <glyph glyph-name="hcircumflex" unicode="&#x125;" horiz-adv-x="529" 
d="M462 0h-95v341q2 35 -15 65q-17 32 -76 33q-47 -1 -78 -27.5t-32 -68.5v-343h-95v713h95v-218q43 37 110 37q91 0 138.5 -50t47.5 -141v-341zM324 780l-60 79l-60 -79h-88l109 161h78l110 -161h-89z" />
    <glyph glyph-name="Hbar" unicode="&#x126;" horiz-adv-x="565" 
d="M498 0h-97v326h-232v-326h-97v538h-71v88h71v87h97v-87h232v87h97v-87h67v-88h-67v-538zM169 422h232v116h-232v-116z" />
    <glyph glyph-name="hbar" unicode="&#x127;" horiz-adv-x="517" 
d="M159 564v-69q48 37 110 37q90 0 138 -50.5t48 -140.5v-341h-95v341q2 35 -15 65q-17 32 -76 33q-47 -1 -78 -27.5t-32 -68.5v-343h-95v564h-63v86h63v63h95v-63h148v-86h-148z" />
    <glyph glyph-name="Itilde" unicode="&#x128;" horiz-adv-x="240" 
d="M71 713h97v-713h-97v713zM229 897l57 -56q-66 -63 -109 -61q-30 3 -63 20q-33 19 -52 20q-9 8 -51 -33l-57 55q66 64 111 62q30 -1 61 -20q32 -18 52 -19q10 -6 51 32z" />
    <glyph glyph-name="itilde" unicode="&#x129;" horiz-adv-x="236" 
d="M165 0h-94v525h94v-525zM227 713l57 -56q-66 -63 -109 -61q-30 3 -63 20q-33 19 -52 20q-9 8 -51 -33l-57 55q66 64 111 62q30 -1 61 -20q32 -18 52 -19q10 -6 51 32z" />
    <glyph glyph-name="Imacron" unicode="&#x12a;" horiz-adv-x="240" 
d="M71 713h97v-713h-97v713zM273 800h-305v81h305v-81z" />
    <glyph glyph-name="imacron" unicode="&#x12b;" horiz-adv-x="236" 
d="M165 0h-94v525h94v-525zM271 621h-305v81h305v-81z" />
    <glyph glyph-name="Ibreve" unicode="&#x12c;" horiz-adv-x="240" 
d="M71 713h97v-713h-97v713zM120 780q-65 0 -106.5 38t-47.5 114h78q3 -39 22.5 -60t53.5 -21t53.5 21t22.5 60h78q-6 -76 -47.5 -114t-106.5 -38z" />
    <glyph glyph-name="ibreve" unicode="&#x12d;" horiz-adv-x="236" 
d="M165 0h-94v525h94v-525zM118 592q-65 0 -106.5 38t-47.5 114h78q3 -39 22.5 -60t53.5 -21t53.5 21t22.5 60h78q-6 -76 -47.5 -114t-106.5 -38z" />
    <glyph glyph-name="Iogonek" unicode="&#x12e;" horiz-adv-x="240" 
d="M71 713h97v-713h-97v713zM160 -212l-85 169h92l99 -169h-106z" />
    <glyph glyph-name="iogonek" unicode="&#x12f;" horiz-adv-x="253" 
d="M174 0h-95v525h95v-525zM180 594h-107v122h107v-122zM166 -212l-85 169h92l99 -169h-106z" />
    <glyph glyph-name="Idot" unicode="&#x130;" horiz-adv-x="240" 
d="M71 713h97v-713h-97v713zM172 780h-103v119h103v-119z" />
    <glyph glyph-name="dotlessi" unicode="&#x131;" horiz-adv-x="236" 
d="M165 0h-94v525h94v-525z" />
    <glyph glyph-name="IJ" unicode="&#x132;" horiz-adv-x="657" 
d="M70 713h97v-713h-97v713zM591 713v-526q0 -93 -49 -144.5t-138 -51.5q-87 0 -137 54t-50 142h97q1 -60 31 -82q28 -21 60 -19q31 -1 59 18t30 77v436h-205v96h302z" />
    <glyph glyph-name="ij" unicode="&#x133;" horiz-adv-x="488" 
d="M174 0h-95v525h95v-525zM180 594h-107v122h107v-122zM409 525v-609q0 -72 -36.5 -107t-94.5 -35h-40v93h35q36 -3 41 44v614h95zM415 594h-107v122h107v-122z" />
    <glyph glyph-name="Jcircumflex" unicode="&#x134;" horiz-adv-x="451" 
d="M385 713v-526q0 -93 -49 -144.5t-138 -51.5q-87 0 -137 54t-50 142h97q1 -60 31 -82q28 -21 60 -19q31 -1 59 18t30 77v436h-205v96h302zM288 780l-60 79l-60 -79h-88l109 161h78l110 -161h-89z" />
    <glyph glyph-name="jcircumflex" unicode="&#x135;" horiz-adv-x="241" 
d="M162 525v-609q0 -72 -36.5 -107t-94.5 -35h-40v93h35q36 -3 41 44v614h95zM180 596l-60 79l-60 -79h-88l109 161h78l110 -161h-89z" />
    <glyph glyph-name="Kcommaaccent" unicode="&#x136;" horiz-adv-x="524" 
d="M508 0h-111l-183 307l-46 -69v-238h-97v713h97v-302l215 302h113l-225 -321zM315 -43l-85 -169h-106l99 169h92z" />
    <glyph glyph-name="kcommaaccent" unicode="&#x137;" horiz-adv-x="511" 
d="M487 0h-113l-147 232l-61 -66v-166h-95v713h95v-411l203 223h125l-204 -224zM314 -43l-85 -169h-106l99 169h92z" />
    <glyph glyph-name="Lacute" unicode="&#x139;" horiz-adv-x="472" 
d="M466 0h-395v713h97v-617h298v-96zM242 780h-92l83 169h109z" />
    <glyph glyph-name="lacute" unicode="&#x13a;" horiz-adv-x="255" 
d="M69 141v572h95v-576q5 -47 41 -44h35v-93h-40q-58 0 -94.5 35t-36.5 106zM162 780h-92l83 169h109z" />
    <glyph glyph-name="Lcommaaccent" unicode="&#x13b;" horiz-adv-x="472" 
d="M466 0h-395v713h97v-617h298v-96zM311 -43l-85 -169h-106l99 169h92z" />
    <glyph glyph-name="lcommaaccent" unicode="&#x13c;" horiz-adv-x="255" 
d="M69 141v572h95v-576q5 -47 41 -44h35v-93h-40q-58 0 -94.5 35t-36.5 106zM236 -43l-85 -169h-106l99 169h92z" />
    <glyph glyph-name="Lcaron" unicode="&#x13d;" horiz-adv-x="497" 
d="M466 0h-395v713h97v-617h298v-96zM407 547h-85v206h85v-206z" />
    <glyph glyph-name="lcaron" unicode="&#x13e;" horiz-adv-x="347" 
d="M69 141v572h95v-576q5 -47 41 -44h35v-93h-40q-58 0 -94.5 35t-36.5 106zM329 547h-85v206h85v-206z" />
    <glyph glyph-name="Ldot" unicode="&#x13f;" horiz-adv-x="472" 
d="M466 0h-395v713h97v-617h298v-96zM368 203h-124v125h124v-125z" />
    <glyph glyph-name="ldot" unicode="&#x140;" horiz-adv-x="461" 
d="M69 141v572h95v-576q5 -47 41 -44h35v-93h-40q-58 0 -94.5 35t-36.5 106zM417 203h-124v125h124v-125z" />
    <glyph glyph-name="Lslash" unicode="&#x141;" horiz-adv-x="471" 
d="M465 0h-393v242h-72v93h72v378h97v-378h200v-93h-200v-146h296v-96z" />
    <glyph glyph-name="lslash" unicode="&#x142;" horiz-adv-x="276" 
d="M78 141v104h-85v90h85v378h95v-378h85v-90h-85v-108q5 -47 41 -44h35v-93h-39q-59 0 -95.5 35t-36.5 106z" />
    <glyph glyph-name="Nacute" unicode="&#x143;" horiz-adv-x="559" 
d="M488 0h-109l-211 495v-495h-97v713h107l213 -503v503h97v-713zM295 780h-92l83 169h109z" />
    <glyph glyph-name="nacute" unicode="&#x144;" horiz-adv-x="529" 
d="M462 0h-95v341q2 35 -15 65q-17 32 -76 33q-47 -1 -78 -27.5t-32 -68.5v-343h-95v525h95v-30q48 37 110 37q90 0 138 -50.5t48 -140.5v-341zM290 593h-92l83 169h109z" />
    <glyph glyph-name="Ncommaaccent" unicode="&#x145;" horiz-adv-x="559" 
d="M488 0h-109l-211 495v-495h-97v713h107l213 -503v503h97v-713zM322 -43l-85 -169h-106l99 169h92z" />
    <glyph glyph-name="ncommaaccent" unicode="&#x146;" horiz-adv-x="529" 
d="M462 0h-95v341q2 35 -15 65q-17 32 -76 33q-47 -1 -78 -27.5t-32 -68.5v-343h-95v525h95v-30q48 37 110 37q90 0 138 -50.5t48 -140.5v-341zM307 -43l-85 -169h-106l99 169h92z" />
    <glyph glyph-name="Ncaron" unicode="&#x147;" horiz-adv-x="559" 
d="M488 0h-109l-211 495v-495h-97v713h107l213 -503v503h97v-713zM220 941l60 -79l60 79h88l-109 -161h-78l-110 161h89z" />
    <glyph glyph-name="ncaron" unicode="&#x148;" horiz-adv-x="529" 
d="M462 0h-95v341q2 35 -15 65q-17 32 -76 33q-47 -1 -78 -27.5t-32 -68.5v-343h-95v525h95v-30q48 37 110 37q90 0 138 -50.5t48 -140.5v-341zM205 757l60 -79l60 79h88l-109 -161h-78l-110 161h89z" />
    <glyph glyph-name="napostrophe" unicode="&#x149;" horiz-adv-x="575" 
d="M511 0h-95v341q2 35 -15 65q-17 32 -76 33q-47 -1 -78 -27.5t-32 -68.5v-343h-95v525h95v-30q48 37 110 37q90 0 138 -50.5t48 -140.5v-341zM80 547h-85v206h85v-206z" />
    <glyph glyph-name="Eng" unicode="&#x14a;" horiz-adv-x="559" 
d="M301 -212v95q32 -1 60 19q29 20 30 76v22h-12l-211 495v-495h-97v713h107l213 -503v503h97v-729q0 -93 -49 -144.5t-138 -51.5z" />
    <glyph glyph-name="eng" unicode="&#x14b;" horiz-adv-x="529" 
d="M367 -89v430q2 35 -15 65q-17 32 -76 33q-47 -1 -78 -27.5t-32 -68.5v-343h-95v525h95v-30q48 37 110 37q90 0 138 -50.5t48 -140.5v-425q0 -72 -36.5 -107t-94.5 -35h-40v93h35q36 -3 41 44z" />
    <glyph glyph-name="Omacron" unicode="&#x14c;" 
d="M474 525v-337q0 -65 -42 -123q-60 -72 -165 -74q-56 0 -110 27q-44 22 -71.5 76.5t-24.5 94.5v337q0 66 41 120q35 43 75 57.5t91 15.5q58 0 109 -27q43 -20 71.5 -74t25.5 -93zM377 189v335q0 32 -12 52q-12 21 -40.5 35.5t-56.5 12.5q-30 2 -58 -13q-52 -28 -52 -87
v-335q0 -33 12 -54q13 -21 41 -36t57 -13q29 -2 57 13q28 16 40 36.5t12 53.5zM420 800h-305v81h305v-81z" />
    <glyph glyph-name="omacron" unicode="&#x14d;" horiz-adv-x="520" 
d="M459 341v-158q0 -87 -55.5 -140t-143.5 -53q-90 0 -144.5 52.5t-54.5 140.5v158q0 86 55.5 138.5t143.5 52.5q90 0 144.5 -51.5t54.5 -139.5zM364 183v158q1 34 -22 65q-23 32 -82 33q-49 0 -76.5 -25.5t-27.5 -72.5v-158q-1 -36 21 -67q23 -32 83 -33q49 1 76.5 27.5
t27.5 72.5zM412 621h-305v81h305v-81z" />
    <glyph glyph-name="Obreve" unicode="&#x14e;" 
d="M474 525v-337q0 -65 -42 -123q-60 -72 -165 -74q-56 0 -110 27q-44 22 -71.5 76.5t-24.5 94.5v337q0 66 41 120q35 43 75 57.5t91 15.5q58 0 109 -27q43 -20 71.5 -74t25.5 -93zM377 189v335q0 32 -12 52q-12 21 -40.5 35.5t-56.5 12.5q-30 2 -58 -13q-52 -28 -52 -87
v-335q0 -33 12 -54q13 -21 41 -36t57 -13q29 -2 57 13q28 16 40 36.5t12 53.5zM267 780q-65 0 -106.5 38t-47.5 114h78q3 -39 22.5 -60t53.5 -21t53.5 21t22.5 60h78q-6 -76 -47.5 -114t-106.5 -38z" />
    <glyph glyph-name="obreve" unicode="&#x14f;" horiz-adv-x="520" 
d="M459 341v-158q0 -87 -55.5 -140t-143.5 -53q-90 0 -144.5 52.5t-54.5 140.5v158q0 86 55.5 138.5t143.5 52.5q90 0 144.5 -51.5t54.5 -139.5zM364 183v158q1 34 -22 65q-23 32 -82 33q-49 0 -76.5 -25.5t-27.5 -72.5v-158q-1 -36 21 -67q23 -32 83 -33q49 1 76.5 27.5
t27.5 72.5zM260 592q-65 0 -106.5 38t-47.5 114h78q3 -39 22.5 -60t53.5 -21t53.5 21t22.5 60h78q-6 -76 -47.5 -114t-106.5 -38z" />
    <glyph glyph-name="Ohungarumlaut" unicode="&#x150;" 
d="M474 525v-337q0 -65 -42 -123q-60 -72 -165 -74q-56 0 -110 27q-44 22 -71.5 76.5t-24.5 94.5v337q0 66 41 120q35 43 75 57.5t91 15.5q58 0 109 -27q43 -20 71.5 -74t25.5 -93zM377 189v335q0 32 -12 52q-12 21 -40.5 35.5t-56.5 12.5q-30 2 -58 -13q-52 -28 -52 -87
v-335q0 -33 12 -54q13 -21 41 -36t57 -13q29 -2 57 13q28 16 40 36.5t12 53.5zM333 940l-95 -160h-81l78 160h98zM477 940l-95 -160h-81l78 160h98z" />
    <glyph glyph-name="ohungarumlaut" unicode="&#x151;" horiz-adv-x="520" 
d="M459 341v-158q0 -87 -55.5 -140t-143.5 -53q-90 0 -144.5 52.5t-54.5 140.5v158q0 86 55.5 138.5t143.5 52.5q90 0 144.5 -51.5t54.5 -139.5zM364 183v158q1 34 -22 65q-23 32 -82 33q-49 0 -76.5 -25.5t-27.5 -72.5v-158q-1 -36 21 -67q23 -32 83 -33q49 1 76.5 27.5
t27.5 72.5zM316 758l-95 -160h-81l78 160h98zM460 758l-95 -160h-81l78 160h98z" />
    <glyph glyph-name="OE" unicode="&#x152;" horiz-adv-x="814" 
d="M773 0h-396v17q-50 -26 -110 -26q-55 0 -109 27q-43 22 -71.5 77t-25.5 94v336q0 64 42 120q35 43 74.5 57.5t90.5 15.5q62 0 109 -26v21h396v-96h-299v-194h277v-96h-277v-231h299v-96zM268 86q31 -2 57 13q51 28 52 83v341q0 33 -12 52q-13 21 -40.5 35.5t-56.5 12.5
q-30 2 -58 -13q-52 -28 -52 -87v-334q0 -33 12 -54q13 -21 41 -36t57 -13z" />
    <glyph glyph-name="oe" unicode="&#x153;" horiz-adv-x="811" 
d="M453 228v-52q-2 -33 21 -62q23 -30 80 -31q39 0 64 23.5t33 65.5h97q-10 -84 -62 -133t-132 -49q-100 0 -149 58q-51 -58 -147 -58q-89 0 -143 53t-54 140v158q0 85 54.5 138t142.5 53q92 0 148 -59q53 59 148 59q88 0 142 -52.5t54 -138.5v-113h-297zM358 179v168
q-2 88 -100 92q-48 0 -75 -25.5t-27 -72.5v-158q-1 -34 20 -66q23 -33 82 -34q47 0 73.5 25.5t26.5 70.5zM655 320v21q2 35 -21 65q-23 32 -80 33q-99 0 -101 -93v-26h202z" />
    <glyph glyph-name="Racute" unicode="&#x154;" horiz-adv-x="551" 
d="M508 0h-110l-136 291h-94v-291h-97v713h215q60 0 110 -27q43 -20 67.5 -74t21.5 -93v-33q0 -32 -9 -64t-37.5 -67t-73.5 -53zM388 487v29q3 44 -26 72.5t-78 28.5h-116v-230h118q31 -1 56 13q46 28 46 87zM271 780h-92l83 169h109z" />
    <glyph glyph-name="racute" unicode="&#x155;" horiz-adv-x="318" 
d="M296 432h-53q-29 1 -52 -25t-25 -77v-330h-95v525h95v-47q24 47 90 47h40v-93zM167 593h-92l83 169h109z" />
    <glyph glyph-name="Rcommaaccent" unicode="&#x156;" horiz-adv-x="551" 
d="M508 0h-110l-136 291h-94v-291h-97v713h215q60 0 110 -27q43 -20 67.5 -74t21.5 -93v-33q0 -32 -9 -64t-37.5 -67t-73.5 -53zM388 487v29q3 44 -26 72.5t-78 28.5h-116v-230h118q31 -1 56 13q46 28 46 87zM318 -43l-85 -169h-106l99 169h92z" />
    <glyph glyph-name="rcommaaccent" unicode="&#x157;" horiz-adv-x="318" 
d="M296 432h-53q-29 1 -52 -25t-25 -77v-330h-95v525h95v-47q24 47 90 47h40v-93zM163 -43l-85 -169h-106l99 169h92z" />
    <glyph glyph-name="Rcaron" unicode="&#x158;" horiz-adv-x="551" 
d="M508 0h-110l-136 291h-94v-291h-97v713h215q60 0 110 -27q43 -20 67.5 -74t21.5 -93v-33q0 -32 -9 -64t-37.5 -67t-73.5 -53zM388 487v29q3 44 -26 72.5t-78 28.5h-116v-230h118q31 -1 56 13q46 28 46 87zM206 941l60 -79l60 79h88l-109 -161h-78l-110 161h89z" />
    <glyph glyph-name="rcaron" unicode="&#x159;" horiz-adv-x="318" 
d="M296 432h-53q-29 1 -52 -25t-25 -77v-330h-95v525h95v-47q24 47 90 47h40v-93zM100 757l60 -79l60 79h88l-109 -161h-78l-110 161h89z" />
    <glyph glyph-name="Sacute" unicode="&#x15a;" horiz-adv-x="514" 
d="M472 188q0 -86 -62 -141.5t-156 -55.5q-96 0 -154 55.5t-58 141.5h97q1 -48 32 -75t82 -27q56 1 88.5 29.5t33.5 74.5q0 62 -62 96q-47 27 -162 85q-43 23 -63 54q-34 55 -34 109q0 81 56.5 133t144.5 52q91 0 149.5 -54.5t58.5 -138.5h-98q-1 46 -31 72t-79 26
q-46 0 -74.5 -24.5t-29.5 -67.5q0 -50 55 -80q140 -71 154 -79q112 -61 112 -185zM283 780h-92l83 169h109z" />
    <glyph glyph-name="sacute" unicode="&#x15b;" horiz-adv-x="479" 
d="M439 161q0 -87 -56.5 -128t-144.5 -41q-85 0 -139 48.5t-58 131.5h96q11 -88 102 -88q43 0 73.5 17.5t32.5 53.5q-5 44 -53 54q-14 4 -125 34q-52 14 -76 38q-42 43 -42 96q0 76 53.5 115t133.5 39q82 0 134.5 -44t60.5 -124h-98q-13 76 -99 76q-87 0 -91 -60
q1 -35 49 -46q117 -32 133 -37q51 -16 82 -50t32 -85zM270 593h-92l83 169h109z" />
    <glyph glyph-name="Scircumflex" unicode="&#x15c;" horiz-adv-x="514" 
d="M472 188q0 -86 -62 -141.5t-156 -55.5q-96 0 -154 55.5t-58 141.5h97q1 -48 32 -75t82 -27q56 1 88.5 29.5t33.5 74.5q0 62 -62 96q-47 27 -162 85q-43 23 -63 54q-34 55 -34 109q0 81 56.5 133t144.5 52q91 0 149.5 -54.5t58.5 -138.5h-98q-1 46 -31 72t-79 26
q-46 0 -74.5 -24.5t-29.5 -67.5q0 -50 55 -80q140 -71 154 -79q112 -61 112 -185zM316 780l-60 79l-60 -79h-88l109 161h78l110 -161h-89z" />
    <glyph glyph-name="scircumflex" unicode="&#x15d;" horiz-adv-x="479" 
d="M439 161q0 -87 -56.5 -128t-144.5 -41q-85 0 -139 48.5t-58 131.5h96q11 -88 102 -88q43 0 73.5 17.5t32.5 53.5q-5 44 -53 54q-14 4 -125 34q-52 14 -76 38q-42 43 -42 96q0 76 53.5 115t133.5 39q82 0 134.5 -44t60.5 -124h-98q-13 76 -99 76q-87 0 -91 -60
q1 -35 49 -46q117 -32 133 -37q51 -16 82 -50t32 -85zM299 596l-60 79l-60 -79h-88l109 161h78l110 -161h-89z" />
    <glyph glyph-name="Scedilla" unicode="&#x15e;" horiz-adv-x="514" 
d="M472 188q0 -86 -62 -141.5t-156 -55.5q-96 0 -154 55.5t-58 141.5h97q1 -48 32 -75t82 -27q56 1 88.5 29.5t33.5 74.5q0 62 -62 96q-47 27 -162 85q-43 23 -63 54q-34 55 -34 109q0 81 56.5 133t144.5 52q91 0 149.5 -54.5t58.5 -138.5h-98q-1 46 -31 72t-79 26
q-46 0 -74.5 -24.5t-29.5 -67.5q0 -50 55 -80q140 -71 154 -79q112 -61 112 -185zM322 -43l-85 -169h-106l99 169h92z" />
    <glyph glyph-name="scedilla" unicode="&#x15f;" horiz-adv-x="479" 
d="M439 161q0 -87 -56.5 -128t-144.5 -41q-85 0 -139 48.5t-58 131.5h96q11 -88 102 -88q43 0 73.5 17.5t32.5 53.5q-5 44 -53 54q-14 4 -125 34q-52 14 -76 38q-42 43 -42 96q0 76 53.5 115t133.5 39q82 0 134.5 -44t60.5 -124h-98q-13 76 -99 76q-87 0 -91 -60
q1 -35 49 -46q117 -32 133 -37q51 -16 82 -50t32 -85zM305 -43l-85 -169h-106l99 169h92z" />
    <glyph glyph-name="Scaron" unicode="&#x160;" horiz-adv-x="514" 
d="M472 188q0 -86 -62 -141.5t-156 -55.5q-96 0 -154 55.5t-58 141.5h97q1 -48 32 -75t82 -27q56 1 88.5 29.5t33.5 74.5q0 62 -62 96q-47 27 -162 85q-43 23 -63 54q-34 55 -34 109q0 81 56.5 133t144.5 52q91 0 149.5 -54.5t58.5 -138.5h-98q-1 46 -31 72t-79 26
q-46 0 -74.5 -24.5t-29.5 -67.5q0 -50 55 -80q140 -71 154 -79q112 -61 112 -185zM197 941l60 -79l60 79h88l-109 -161h-78l-110 161h89z" />
    <glyph glyph-name="scaron" unicode="&#x161;" horiz-adv-x="479" 
d="M439 161q0 -87 -56.5 -128t-144.5 -41q-85 0 -139 48.5t-58 131.5h96q11 -88 102 -88q43 0 73.5 17.5t32.5 53.5q-5 44 -53 54q-14 4 -125 34q-52 14 -76 38q-42 43 -42 96q0 76 53.5 115t133.5 39q82 0 134.5 -44t60.5 -124h-98q-13 76 -99 76q-87 0 -91 -60
q1 -35 49 -46q117 -32 133 -37q51 -16 82 -50t32 -85zM180 757l60 -79l60 79h88l-109 -161h-78l-110 161h89z" />
    <glyph glyph-name="Tcommaaccent" unicode="&#x162;" horiz-adv-x="468" 
d="M451 617h-169v-617h-97v617h-168v96h434v-96zM278 -43l-85 -169h-106l99 169h92z" />
    <glyph glyph-name="tcommaaccent" unicode="&#x163;" horiz-adv-x="350" 
d="M12 432v93h95v188h95v-188h109v-93h-109v-295q5 -47 41 -44h70v-93h-74q-60 0 -96 34.5t-36 106.5v291h-95zM305 -43l-85 -169h-106l99 169h92z" />
    <glyph glyph-name="Tcaron" unicode="&#x164;" horiz-adv-x="468" 
d="M451 617h-169v-617h-97v617h-168v96h434v-96zM174 941l60 -79l60 79h88l-109 -161h-78l-110 161h89z" />
    <glyph glyph-name="tcaron" unicode="&#x165;" horiz-adv-x="468" 
d="M12 432v93h95v188h95v-188h109v-93h-109v-295q5 -47 41 -44h70v-93h-74q-60 0 -96 34.5t-36 106.5v291h-95zM443 547h-85v206h85v-206z" />
    <glyph glyph-name="Tbar" unicode="&#x166;" horiz-adv-x="468" 
d="M451 617h-169v-197h111v-93h-111v-327h-97v327h-107v93h107v197h-168v96h434v-96z" />
    <glyph glyph-name="tbar" unicode="&#x167;" horiz-adv-x="354" 
d="M13 432v91h95v190h95v-190h110v-91h-110v-105h114v-91h-114v-99q5 -47 42 -44h69v-93h-74q-59 0 -95.5 35t-36.5 106v95h-96v91h96v105h-95z" />
    <glyph glyph-name="Utilde" unicode="&#x168;" 
d="M474 713v-525q0 -68 -41 -125q-34 -42 -73.5 -56t-91.5 -16q-60 0 -113 26q-44 22 -70.5 75.5t-23.5 96.5v524h97v-524q0 -33 12 -54q13 -21 41 -36t57 -13q31 -2 57 13q28 16 40 36.5t12 53.5v524h97zM376 897l57 -56q-66 -63 -109 -61q-30 3 -63 20q-33 19 -52 20
q-9 8 -51 -33l-57 55q66 64 111 62q30 -1 61 -20q32 -18 52 -19q10 -6 51 32z" />
    <glyph glyph-name="utilde" unicode="&#x169;" horiz-adv-x="532" 
d="M460 0h-95v34q-40 -42 -102 -43q-90 0 -143 52t-53 140v342h95v-342q-1 -34 19 -67q21 -31 82 -32q46 1 73.5 26t28.5 68v347h95v-525zM375 713l57 -56q-66 -63 -109 -61q-30 3 -63 20q-33 19 -52 20q-9 8 -51 -33l-57 55q66 64 111 62q30 -1 61 -20q32 -18 52 -19
q10 -6 51 32z" />
    <glyph glyph-name="Umacron" unicode="&#x16a;" 
d="M474 713v-525q0 -68 -41 -125q-34 -42 -73.5 -56t-91.5 -16q-60 0 -113 26q-44 22 -70.5 75.5t-23.5 96.5v524h97v-524q0 -33 12 -54q13 -21 41 -36t57 -13q31 -2 57 13q28 16 40 36.5t12 53.5v524h97zM420 800h-305v81h305v-81z" />
    <glyph glyph-name="umacron" unicode="&#x16b;" horiz-adv-x="532" 
d="M460 0h-95v34q-40 -42 -102 -43q-90 0 -143 52t-53 140v342h95v-342q-1 -34 19 -67q21 -31 82 -32q46 1 73.5 26t28.5 68v347h95v-525zM418 621h-305v81h305v-81z" />
    <glyph glyph-name="Ubreve" unicode="&#x16c;" 
d="M474 713v-525q0 -68 -41 -125q-34 -42 -73.5 -56t-91.5 -16q-60 0 -113 26q-44 22 -70.5 75.5t-23.5 96.5v524h97v-524q0 -33 12 -54q13 -21 41 -36t57 -13q31 -2 57 13q28 16 40 36.5t12 53.5v524h97zM267 780q-65 0 -106.5 38t-47.5 114h78q3 -39 22.5 -60t53.5 -21
t53.5 21t22.5 60h78q-6 -76 -47.5 -114t-106.5 -38z" />
    <glyph glyph-name="ubreve" unicode="&#x16d;" horiz-adv-x="532" 
d="M460 0h-95v34q-40 -42 -102 -43q-90 0 -143 52t-53 140v342h95v-342q-1 -34 19 -67q21 -31 82 -32q46 1 73.5 26t28.5 68v347h95v-525zM266 592q-65 0 -106.5 38t-47.5 114h78q3 -39 22.5 -60t53.5 -21t53.5 21t22.5 60h78q-6 -76 -47.5 -114t-106.5 -38z" />
    <glyph glyph-name="Uring" unicode="&#x16e;" 
d="M474 713v-525q0 -68 -41 -125q-34 -42 -73.5 -56t-91.5 -16q-60 0 -113 26q-44 22 -70.5 75.5t-23.5 96.5v524h97v-524q0 -33 12 -54q13 -21 41 -36t57 -13q31 -2 57 13q28 16 40 36.5t12 53.5v524h97zM219 851q5 -43 48 -48q43 5 48 48q-5 43 -48 48q-43 -5 -48 -48z
M154 851q1 48 33 80t80 33q48 -1 80 -33t33 -80q-1 -48 -33 -80t-80 -33q-48 1 -80 33t-33 80z" />
    <glyph glyph-name="uring" unicode="&#x16f;" horiz-adv-x="532" 
d="M460 0h-95v34q-40 -42 -102 -43q-90 0 -143 52t-53 140v342h95v-342q-1 -34 19 -67q21 -31 82 -32q46 1 73.5 26t28.5 68v347h95v-525zM218 666q4 -44 48 -48q44 4 48 48q-4 44 -48 48q-44 -4 -48 -48zM153 666q1 48 33 80t80 33q48 -1 80 -33t33 -80q-1 -48 -33 -80
t-80 -33q-48 1 -80 33t-33 80z" />
    <glyph glyph-name="Uhungarumlaut" unicode="&#x170;" 
d="M474 713v-525q0 -68 -41 -125q-34 -42 -73.5 -56t-91.5 -16q-60 0 -113 26q-44 22 -70.5 75.5t-23.5 96.5v524h97v-524q0 -33 12 -54q13 -21 41 -36t57 -13q31 -2 57 13q28 16 40 36.5t12 53.5v524h97zM333 940l-95 -160h-81l78 160h98zM477 940l-95 -160h-81l78 160h98z
" />
    <glyph glyph-name="uhungarumlaut" unicode="&#x171;" horiz-adv-x="532" 
d="M460 0h-95v34q-40 -42 -102 -43q-90 0 -143 52t-53 140v342h95v-342q-1 -34 19 -67q21 -31 82 -32q46 1 73.5 26t28.5 68v347h95v-525zM322 758l-95 -160h-81l78 160h98zM466 758l-95 -160h-81l78 160h98z" />
    <glyph glyph-name="Uogonek" unicode="&#x172;" 
d="M474 713v-525q0 -68 -41 -125q-34 -42 -73.5 -56t-91.5 -16q-60 0 -113 26q-44 22 -70.5 75.5t-23.5 96.5v524h97v-524q0 -33 12 -54q13 -21 41 -36t57 -13q31 -2 57 13q28 16 40 36.5t12 53.5v524h97zM308 -212l-85 169h92l99 -169h-106z" />
    <glyph glyph-name="uogonek" unicode="&#x173;" horiz-adv-x="532" 
d="M460 0h-95v34q-40 -42 -102 -43q-90 0 -143 52t-53 140v342h95v-342q-1 -34 19 -67q21 -31 82 -32q46 1 73.5 26t28.5 68v347h95v-525zM454 -212l-85 169h92l99 -169h-106z" />
    <glyph glyph-name="Wcircumflex" unicode="&#x174;" horiz-adv-x="781" 
d="M764 713l-149 -713h-99l-125 511l-128 -511h-98l-148 713h98l106 -539l129 539h81l127 -537l107 537h99zM450 780l-60 79l-60 -79h-88l109 161h78l110 -161h-89z" />
    <glyph glyph-name="wcircumflex" unicode="&#x175;" horiz-adv-x="680" 
d="M653 525l-124 -525h-90l-99 379l-100 -379h-88l-125 525h98l78 -382l96 382h82l96 -382l78 382h98zM399 596l-60 79l-60 -79h-88l109 161h78l110 -161h-89z" />
    <glyph glyph-name="Ycircumflex" unicode="&#x176;" horiz-adv-x="506" 
d="M489 713l-188 -455v-258h-97v260l-187 453h106l130 -327l131 327h105zM312 780l-60 79l-60 -79h-88l109 161h78l110 -161h-89z" />
    <glyph glyph-name="ycircumflex" unicode="&#x177;" horiz-adv-x="450" 
d="M12 525h100l113 -411l114 411h99l-181 -622q-22 -79 -59.5 -104t-107.5 -25h-35v93h54q45 -5 59 44l24 89h-27zM282 596l-60 79l-60 -79h-88l109 161h78l110 -161h-89z" />
    <glyph glyph-name="Ydieresis" unicode="&#x178;" horiz-adv-x="506" 
d="M489 713l-188 -455v-258h-97v260l-187 453h106l130 -327l131 327h105zM407 780h-103v119h103v-119zM201 780h-103v119h103v-119z" />
    <glyph glyph-name="Zacute" unicode="&#x179;" horiz-adv-x="450" 
d="M429 0h-408v83l281 534h-267v96h379v-81l-280 -537h295v-95zM241 780h-92l83 169h109z" />
    <glyph glyph-name="zacute" unicode="&#x17a;" horiz-adv-x="437" 
d="M405 0h-373v80l237 352h-229v93h345v-80l-237 -352h257v-93zM244 593h-92l83 169h109z" />
    <glyph glyph-name="Zdotaccent" unicode="&#x17b;" horiz-adv-x="450" 
d="M429 0h-408v83l281 534h-267v96h379v-81l-280 -537h295v-95zM276 780h-103v119h103v-119z" />
    <glyph glyph-name="zdotaccent" unicode="&#x17c;" horiz-adv-x="437" 
d="M405 0h-373v80l237 352h-229v93h345v-80l-237 -352h257v-93zM270 608h-103v119h103v-119z" />
    <glyph glyph-name="Zcaron" unicode="&#x17d;" horiz-adv-x="450" 
d="M429 0h-408v83l281 534h-267v96h379v-81l-280 -537h295v-95zM166 941l60 -79l60 79h88l-109 -161h-78l-110 161h89z" />
    <glyph glyph-name="zcaron" unicode="&#x17e;" horiz-adv-x="437" 
d="M405 0h-373v80l237 352h-229v93h345v-80l-237 -352h257v-93zM159 757l60 -79l60 79h88l-109 -161h-78l-110 161h89z" />
    <glyph glyph-name="longs" unicode="&#x17f;" horiz-adv-x="324" 
d="M193 571v-571h-95v432h-86v92h86v35q0 72 37 113t109 41h57v-93h-65q-18 2 -28.5 -10.5t-14.5 -38.5z" />
    <glyph glyph-name="uni018F" unicode="&#x18f;" 
d="M61 188v215h316v121q0 32 -12 52q-13 21 -40.5 35.5t-57.5 12.5q-29 2 -57 -13q-51 -28 -51 -86h-98q0 68 43 123q36 42 74.5 55.5t88.5 15.5q61 0 112 -27q45 -20 71.5 -73.5t23.5 -92.5v-337q0 -66 -42 -124q-59 -72 -163 -74q-57 0 -111 27q-43 22 -71.5 76.5
t-25.5 93.5zM158 307v-118q0 -32 12 -53q13 -21 41 -36.5t56 -13.5q33 -2 58 14q28 16 40 36.5t12 52.5v118h-219z" />
    <glyph glyph-name="florin" unicode="&#x192;" horiz-adv-x="321" 
d="M193 432v-496q0 -72 -36 -107t-96 -35h-38v94h34q19 -1 29 9.5t12 33.5v501h-86v92h86v16q0 72 37 113t109 41h57v-94h-65q-18 2 -28.5 -10t-14.5 -38v-28h118v-92h-118z" />
    <glyph glyph-name="Ohorn" unicode="&#x1a0;" horiz-adv-x="587" 
d="M478 504v-306q0 -65 -42 -123q-60 -72 -165 -74q-56 0 -110 27q-44 22 -71.5 76.5t-24.5 94.5v337q0 66 41 120q35 43 75 57.5t91 15.5q81 0 130 -41t66 -98q38 6 38 47v76h86v-73q0 -124 -114 -136zM381 199v335q0 32 -12 52q-12 21 -40.5 35.5t-56.5 12.5
q-30 2 -58 -13q-52 -28 -52 -87v-335q0 -33 12 -54q13 -21 41 -36t57 -13q29 -2 57 13q28 16 40 36.5t12 53.5z" />
    <glyph glyph-name="ohorn" unicode="&#x1a1;" horiz-adv-x="551" 
d="M459 330v-147q0 -87 -55.5 -140t-143.5 -53q-90 0 -144.5 52.5t-54.5 140.5v158q0 86 55.5 138.5t143.5 52.5q70 0 106 -24q62 -40 81 -95q25 6 25 38v74h84v-75q2 -103 -97 -120zM364 183v158q1 34 -22 65q-23 32 -82 33q-49 0 -76.5 -25.5t-27.5 -72.5v-158
q-1 -36 21 -67q23 -32 83 -33q49 1 76.5 27.5t27.5 72.5z" />
    <glyph glyph-name="Uhorn" unicode="&#x1af;" horiz-adv-x="618" 
d="M474 503v-315q0 -68 -41 -125q-34 -42 -73.5 -56t-91.5 -16q-60 0 -113 26q-44 22 -70.5 75.5t-23.5 96.5v524h97v-524q0 -33 12 -54q13 -21 41 -36t57 -13q31 -2 57 13q28 16 40 36.5t12 53.5v524h97v-124h15q43 1 43 46v78h86v-75q0 -135 -136 -135h-8z" />
    <glyph glyph-name="uhorn" unicode="&#x1b0;" horiz-adv-x="599" 
d="M460 0h-95v34q-40 -42 -102 -43q-90 0 -143 52t-53 140v342h95v-342q-1 -34 19 -67q21 -31 82 -32q46 1 73.5 26t28.5 68v347h95v-114h20q40 0 40 41v73h84v-74q0 -124 -136 -124h-8v-327z" />
    <glyph glyph-name="uni01CD" unicode="&#x1cd;" horiz-adv-x="547" 
d="M531 0h-99l-50 194h-215l-51 -194h-100l186 713h140zM357 290l-82 322l-85 -322h167zM216 941l60 -79l60 79h88l-109 -161h-78l-110 161h89z" />
    <glyph glyph-name="uni01CE" unicode="&#x1ce;" horiz-adv-x="509" 
d="M442 359v-359h-95v40q-38 -49 -122 -49q-70 0 -124.5 45t-54.5 128q0 74 51 113t135 39h115v40q-1 85 -94 83q-82 2 -94 -71h-95q9 85 64 124.5t124 39.5q79 0 134.5 -42t55.5 -131zM347 185v46h-114q-44 0 -68 -18t-24 -48q1 -43 27.5 -63t68.5 -19q43 1 75.5 29.5
t34.5 72.5zM195 757l60 -79l60 79h88l-109 -161h-78l-110 161h89z" />
    <glyph glyph-name="uni01CF" unicode="&#x1cf;" horiz-adv-x="240" 
d="M71 713h97v-713h-97v713zM61 941l60 -79l60 79h88l-109 -161h-78l-110 161h89z" />
    <glyph glyph-name="uni01D0" unicode="&#x1d0;" horiz-adv-x="236" 
d="M165 0h-94v525h94v-525zM59 757l60 -79l60 79h88l-109 -161h-78l-110 161h89z" />
    <glyph glyph-name="uni01D1" unicode="&#x1d1;" 
d="M474 525v-337q0 -65 -42 -123q-60 -72 -165 -74q-56 0 -110 27q-44 22 -71.5 76.5t-24.5 94.5v337q0 66 41 120q35 43 75 57.5t91 15.5q58 0 109 -27q43 -20 71.5 -74t25.5 -93zM377 189v335q0 32 -12 52q-12 21 -40.5 35.5t-56.5 12.5q-30 2 -58 -13q-52 -28 -52 -87
v-335q0 -33 12 -54q13 -21 41 -36t57 -13q29 -2 57 13q28 16 40 36.5t12 53.5zM208 941l60 -79l60 79h88l-109 -161h-78l-110 161h89z" />
    <glyph glyph-name="uni01D2" unicode="&#x1d2;" horiz-adv-x="520" 
d="M459 341v-158q0 -87 -55.5 -140t-143.5 -53q-90 0 -144.5 52.5t-54.5 140.5v158q0 86 55.5 138.5t143.5 52.5q90 0 144.5 -51.5t54.5 -139.5zM364 183v158q1 34 -22 65q-23 32 -82 33q-49 0 -76.5 -25.5t-27.5 -72.5v-158q-1 -36 21 -67q23 -32 83 -33q49 1 76.5 27.5
t27.5 72.5zM200 757l60 -79l60 79h88l-109 -161h-78l-110 161h89z" />
    <glyph glyph-name="uni01D3" unicode="&#x1d3;" 
d="M474 713v-525q0 -68 -41 -125q-34 -42 -73.5 -56t-91.5 -16q-60 0 -113 26q-44 22 -70.5 75.5t-23.5 96.5v524h97v-524q0 -33 12 -54q13 -21 41 -36t57 -13q31 -2 57 13q28 16 40 36.5t12 53.5v524h97zM208 941l60 -79l60 79h88l-109 -161h-78l-110 161h89z" />
    <glyph glyph-name="uni01D4" unicode="&#x1d4;" horiz-adv-x="532" 
d="M460 0h-95v34q-40 -42 -102 -43q-90 0 -143 52t-53 140v342h95v-342q-1 -34 19 -67q21 -31 82 -32q46 1 73.5 26t28.5 68v347h95v-525zM206 757l60 -79l60 79h88l-109 -161h-78l-110 161h89z" />
    <glyph glyph-name="uni01D5" unicode="&#x1d5;" 
d="M474 713v-525q0 -68 -41 -125q-34 -42 -73.5 -56t-91.5 -16q-60 0 -113 26q-44 22 -70.5 75.5t-23.5 96.5v524h97v-524q0 -33 12 -54q13 -21 41 -36t57 -13q31 -2 57 13q28 16 40 36.5t12 53.5v524h97zM408 931h-279v62h279v-62zM423 767h-103v107h103v-107zM217 767
h-103v107h103v-107z" />
    <glyph glyph-name="uni01D6" unicode="&#x1d6;" horiz-adv-x="532" 
d="M460 0h-95v34q-40 -42 -102 -43q-90 0 -143 52t-53 140v342h95v-342q-1 -34 19 -67q21 -31 82 -32q46 1 73.5 26t28.5 68v347h95v-525zM403 780h-279v62h279v-62zM418 616h-103v107h103v-107zM212 616h-103v107h103v-107z" />
    <glyph glyph-name="uni01D7" unicode="&#x1d7;" 
d="M474 713v-525q0 -68 -41 -125q-34 -42 -73.5 -56t-91.5 -16q-60 0 -113 26q-44 22 -70.5 75.5t-23.5 96.5v524h97v-524q0 -33 12 -54q13 -21 41 -36t57 -13q31 -2 57 13q28 16 40 36.5t12 53.5v524h97zM421 767h-103v107h103v-107zM215 767h-103v107h103v-107zM409 986
l-104 -84h-87l90 84h101z" />
    <glyph glyph-name="uni01D8" unicode="&#x1d8;" horiz-adv-x="532" 
d="M460 0h-95v34q-40 -42 -102 -43q-90 0 -143 52t-53 140v342h95v-342q-1 -34 19 -67q21 -31 82 -32q46 1 73.5 26t28.5 68v347h95v-525zM416 616h-103v107h103v-107zM210 616h-103v107h103v-107zM404 835l-104 -84h-87l90 84h101z" />
    <glyph glyph-name="uni01D9" unicode="&#x1d9;" 
d="M474 713v-525q0 -68 -41 -125q-34 -42 -73.5 -56t-91.5 -16q-60 0 -113 26q-44 22 -70.5 75.5t-23.5 96.5v524h97v-524q0 -33 12 -54q13 -21 41 -36t57 -13q31 -2 57 13q28 16 40 36.5t12 53.5v524h97zM422 767h-103v108h103v-108zM216 767h-103v108h103v-108zM122 1015
h96l50 -45l50 45h95l-113 -113h-63z" />
    <glyph glyph-name="uni01DA" unicode="&#x1da;" horiz-adv-x="532" 
d="M460 0h-95v34q-40 -42 -102 -43q-90 0 -143 52t-53 140v342h95v-342q-1 -34 19 -67q21 -31 82 -32q46 1 73.5 26t28.5 68v347h95v-525zM420 616h-103v108h103v-108zM214 616h-103v108h103v-108zM120 864h96l50 -45l50 45h95l-113 -113h-63z" />
    <glyph glyph-name="uni01DB" unicode="&#x1db;" 
d="M474 713v-525q0 -68 -41 -125q-34 -42 -73.5 -56t-91.5 -16q-60 0 -113 26q-44 22 -70.5 75.5t-23.5 96.5v524h97v-524q0 -33 12 -54q13 -21 41 -36t57 -13q31 -2 57 13q28 16 40 36.5t12 53.5v524h97zM421 767h-103v107h103v-107zM215 767h-103v107h103v-107zM229 902
l-104 84h101l90 -84h-87z" />
    <glyph glyph-name="uni01DC" unicode="&#x1dc;" horiz-adv-x="532" 
d="M460 0h-95v34q-40 -42 -102 -43q-90 0 -143 52t-53 140v342h95v-342q-1 -34 19 -67q21 -31 82 -32q46 1 73.5 26t28.5 68v347h95v-525zM419 616h-103v107h103v-107zM213 616h-103v107h103v-107zM227 751l-104 84h101l90 -84h-87z" />
    <glyph glyph-name="uni01DD" unicode="&#x1dd;" horiz-adv-x="520" 
d="M61 181v113h303v45q1 36 -21 67q-23 32 -83 33q-41 0 -67 -23.5t-33 -65.5h-97q10 84 63 133t134 49q90 0 144.5 -52.5t54.5 -140.5v-158q0 -86 -55.5 -138.5t-143.5 -52.5q-90 0 -144.5 51.5t-54.5 139.5zM156 202v-21q-2 -35 21 -66q23 -30 83 -32q49 0 76.5 25.5
t27.5 72.5v21h-208z" />
    <glyph glyph-name="AEacute" unicode="&#x1fc;" horiz-adv-x="775" 
d="M734 0h-396v194h-172q-8 -31 -25.5 -97t-25.5 -97h-99l186 713h532v-96h-299v-194h275v-96h-275v-231h299v-96zM276 617l-86 -327h148v327h-62zM433 780h-92l83 169h109z" />
    <glyph glyph-name="aeacute" unicode="&#x1fd;" horiz-adv-x="801" 
d="M645 320v21q1 34 -20 65q-19 32 -81 33q-99 0 -101 -93v-26h202zM348 316v41q-1 84 -94 82q-81 2 -95 -71h-96q9 85 66.5 124.5t124.5 39.5q95 0 144 -63q53 61 146 63q90 0 143 -51.5t53 -139.5v-113h-297v-45q-1 -34 19 -67q21 -31 82 -32q81 0 98 88h96
q-10 -84 -62 -132.5t-132 -48.5q-45 1 -86.5 21t-65.5 54q-26 -34 -70.5 -54t-95.5 -21q-70 0 -124.5 45t-54.5 128q0 74 51 113t135 39h115zM348 185v46h-114q-44 0 -68 -18t-24 -48q1 -43 27.5 -63t68.5 -19q43 1 75.5 29.5t34.5 72.5zM433 593h-92l83 169h109z" />
    <glyph glyph-name="Oslashacute" unicode="&#x1fe;" 
d="M474 524v-336q0 -65 -42 -123q-60 -72 -165 -74q-76 0 -126 37l-38 -82h-57l56 121q-41 61 -41 122v336q0 66 41 120q35 43 75 57.5t91 15.5q70 0 123 -36l35 75h56l-52 -112q44 -56 44 -121zM377 189v334v9l-194 -414q44 -37 85 -32q29 -2 57 13q28 16 40 36.5t12 53.5z
M158 189v-4l192 409q-44 34 -82 29q-30 2 -58 -13q-52 -28 -52 -87v-334zM303 780h-92l83 169h109z" />
    <glyph glyph-name="oslashacute" unicode="&#x1ff;" horiz-adv-x="520" 
d="M459 341v-158q0 -87 -55.5 -140t-143.5 -53q-54 2 -94 18l-29 -60h-58l42 89q-60 51 -60 146v158q0 86 55.5 138.5t143.5 52.5q48 0 90 -17l30 62h57l-42 -89q64 -53 64 -147zM364 183v158q1 28 -14 54l-144 -302q20 -10 54 -10q49 1 76.5 27.5t27.5 72.5zM156 341v-158
q0 -24 11 -51l143 298q-20 9 -50 9q-49 0 -76.5 -25.5t-27.5 -72.5zM280 593h-92l83 169h109z" />
    <glyph glyph-name="Scommaaccent" unicode="&#x218;" horiz-adv-x="514" 
d="M472 188q0 -86 -62 -141.5t-156 -55.5q-96 0 -154 55.5t-58 141.5h97q1 -48 32 -75t82 -27q56 1 88.5 29.5t33.5 74.5q0 62 -62 96q-47 27 -162 85q-43 23 -63 54q-34 55 -34 109q0 81 56.5 133t144.5 52q91 0 149.5 -54.5t58.5 -138.5h-98q-1 46 -31 72t-79 26
q-46 0 -74.5 -24.5t-29.5 -67.5q0 -50 55 -80q140 -71 154 -79q112 -61 112 -185zM322 -43l-85 -169h-106l99 169h92z" />
    <glyph glyph-name="scommaaccent" unicode="&#x219;" horiz-adv-x="479" 
d="M439 161q0 -87 -56.5 -128t-144.5 -41q-85 0 -139 48.5t-58 131.5h96q11 -88 102 -88q43 0 73.5 17.5t32.5 53.5q-5 44 -53 54q-14 4 -125 34q-52 14 -76 38q-42 43 -42 96q0 76 53.5 115t133.5 39q82 0 134.5 -44t60.5 -124h-98q-13 76 -99 76q-87 0 -91 -60
q1 -35 49 -46q117 -32 133 -37q51 -16 82 -50t32 -85zM305 -43l-85 -169h-106l99 169h92z" />
    <glyph glyph-name="uni021A" unicode="&#x21a;" horiz-adv-x="468" 
d="M451 617h-169v-617h-97v617h-168v96h434v-96zM279 -43l-85 -169h-106l99 169h92z" />
    <glyph glyph-name="uni021B" unicode="&#x21b;" horiz-adv-x="350" 
d="M12 432v93h95v188h95v-188h109v-93h-109v-295q5 -47 41 -44h70v-93h-74q-60 0 -96 34.5t-36 106.5v291h-95zM306 -43l-85 -169h-106l99 169h92z" />
    <glyph glyph-name="circumflex" unicode="&#x2c6;" horiz-adv-x="466" 
d="M292 596l-60 79l-60 -79h-88l109 161h78l110 -161h-89z" />
    <glyph glyph-name="caron" unicode="&#x2c7;" horiz-adv-x="466" 
d="M173 757l60 -79l60 79h88l-109 -161h-78l-110 161h89z" />
    <glyph glyph-name="breve" unicode="&#x2d8;" horiz-adv-x="485" 
d="M242 592q-65 0 -106.5 38t-47.5 114h78q3 -39 22.5 -60t53.5 -21t53.5 21t22.5 60h78q-6 -76 -47.5 -114t-106.5 -38z" />
    <glyph glyph-name="dotaccent" unicode="&#x2d9;" horiz-adv-x="254" 
d="M178 608h-103v119h103v-119z" />
    <glyph glyph-name="ring" unicode="&#x2da;" horiz-adv-x="370" 
d="M137 666q5 -44 48 -48q43 4 48 48q-5 44 -48 48q-43 -4 -48 -48zM72 666q1 48 33 80t80 33q48 -1 80 -33t33 -80q-1 -48 -33 -80t-80 -33q-48 1 -80 33t-33 80z" />
    <glyph glyph-name="ogonek" unicode="&#x2db;" horiz-adv-x="332" 
d="M155 -212l-85 169h92l99 -169h-106z" />
    <glyph glyph-name="tilde" unicode="&#x2dc;" horiz-adv-x="486" 
d="M352 713l57 -56q-66 -63 -109 -61q-30 3 -63 20q-33 19 -52 20q-9 8 -51 -33l-57 55q66 64 111 62q30 -1 61 -20q32 -18 52 -19q10 -6 51 32z" />
    <glyph glyph-name="hungarumlaut" unicode="&#x2dd;" horiz-adv-x="488" 
d="M260 758l-95 -160h-81l78 160h98zM404 758l-95 -160h-81l78 160h98z" />
    <glyph glyph-name="hookabovecomb" unicode="&#x309;" horiz-adv-x="331" 
d="M151 579v71q37 3 39 36q-1 30 -36 35q-32 -9 -34 -18l-53 41q0 2 23 22t65 23q45 -1 74.5 -30t30.5 -74q-1 -43 -31 -73t-78 -33z" />
    <glyph glyph-name="dotbelowcomb" unicode="&#x323;" horiz-adv-x="254" 
d="M178 -197h-103v119h103v-119z" />
    <glyph glyph-name="tonos" unicode="&#x384;" horiz-adv-x="340" 
d="M187 579h-82l37 187h92z" />
    <glyph glyph-name="dieresistonos" unicode="&#x385;" horiz-adv-x="449" 
d="M242 607h-81l37 187h92zM415 608h-110v127h110v-127zM137 608h-109v127h109v-127z" />
    <glyph glyph-name="Alphatonos" unicode="&#x386;" horiz-adv-x="558" 
d="M542 0h-99l-50 194h-215l-51 -194h-100l186 713h140zM368 290l-82 322l-85 -322h167zM85 598h-82l37 187h92z" />
    <glyph glyph-name="Epsilontonos" unicode="&#x388;" horiz-adv-x="581" 
d="M540 0h-396v713h396v-96h-299v-194h277v-96h-277v-231h299v-96zM55 598h-82l37 187h92z" />
    <glyph glyph-name="Etatonos" unicode="&#x389;" horiz-adv-x="641" 
d="M570 0h-97v326h-232v-326h-97v713h97v-291h232v291h97v-713zM55 598h-82l37 187h92z" />
    <glyph glyph-name="Iotatonos" unicode="&#x38a;" horiz-adv-x="311" 
d="M142 713h97v-713h-97v713zM55 598h-82l37 187h92z" />
    <glyph glyph-name="Omicrontonos" unicode="&#x38c;" horiz-adv-x="608" 
d="M547 525v-337q0 -65 -42 -123q-60 -72 -165 -74q-56 0 -110 27q-44 22 -71.5 76.5t-24.5 94.5v337q0 66 41 120q35 43 75 57.5t91 15.5q58 0 109 -27q43 -20 71.5 -74t25.5 -93zM450 189v335q0 32 -12 52q-12 21 -40.5 35.5t-56.5 12.5q-30 2 -58 -13q-52 -28 -52 -87
v-335q0 -33 12 -54q13 -21 41 -36t57 -13q29 -2 57 13q28 16 40 36.5t12 53.5zM55 598h-82l37 187h92z" />
    <glyph glyph-name="Upsilontonos" unicode="&#x38e;" horiz-adv-x="609" 
d="M592 713l-188 -455v-258h-97v260l-187 453h106l130 -327l131 327h105zM55 598h-82l37 187h92z" />
    <glyph glyph-name="Omegatonos" unicode="&#x38f;" horiz-adv-x="605" 
d="M355 0v80q95 9 99 106v339q0 35 -13 55q-12 22 -41.5 37.5t-59.5 13.5q-34 2 -62 -14q-54 -28 -54 -92v-339q1 -55 32 -79q32 -23 67 -27v-80h-226v82h67q-30 53 -30 104v341q0 63 42 119q35 43 74.5 57.5t89.5 15.5q58 0 109 -27q43 -20 70.5 -74t24.5 -92v-341
q0 -52 -30 -103h68v-82h-227zM55 579h-82l37 187h92z" />
    <glyph glyph-name="iotadieresistonos" unicode="&#x390;" horiz-adv-x="267" 
d="M71 137v388h95v-392q5 -47 42 -44h36v-94h-41q-59 0 -95.5 34t-36.5 108zM155 607h-81l37 187h92zM328 608h-110v127h110v-127zM50 608h-109v127h109v-127z" />
    <glyph glyph-name="Alpha" unicode="&#x391;" horiz-adv-x="547" 
d="M531 0h-99l-50 194h-215l-51 -194h-100l186 713h140zM357 290l-82 322l-85 -322h167z" />
    <glyph glyph-name="Beta" unicode="&#x392;" horiz-adv-x="544" 
d="M488 218v-24q0 -64 -37 -121q-20 -30 -51 -47q-51 -26 -109 -26h-220v713h215q58 0 109 -26q41 -20 63 -72t20 -93v-12q1 -34 -15.5 -74.5t-51.5 -67.5q22 -13 38 -34q16 -19 28 -53t11 -63zM379 512v9q-3 62 -34 80t-61 16h-116v-202h122q33 -2 59 16q29 19 30 81z
M391 196v21q1 46 -23.5 74t-73.5 28h-126v-223h121q31 -1 56 13q46 28 46 87z" />
    <glyph glyph-name="Gamma" unicode="&#x393;" horiz-adv-x="472" 
d="M71 713h394v-96h-297v-617h-97v713z" />
    <glyph glyph-name="uni0394" unicode="&#x394;" horiz-adv-x="529" 
d="M13 0l183 713h135l184 -713h-502zM264 618l-133 -524h265z" />
    <glyph glyph-name="Epsilon" unicode="&#x395;" horiz-adv-x="508" 
d="M467 0h-396v713h396v-96h-299v-194h277v-96h-277v-231h299v-96z" />
    <glyph glyph-name="Zeta" unicode="&#x396;" horiz-adv-x="450" 
d="M429 0h-408v83l281 534h-267v96h379v-81l-280 -537h295v-95z" />
    <glyph glyph-name="Eta" unicode="&#x397;" horiz-adv-x="568" 
d="M497 0h-97v326h-232v-326h-97v713h97v-291h232v291h97v-713z" />
    <glyph glyph-name="Theta" unicode="&#x398;" 
d="M343 314h-150v92h150v-92zM474 525v-337q0 -65 -42 -123q-60 -72 -165 -74q-56 0 -110 27q-44 22 -71.5 76.5t-24.5 94.5v337q0 66 41 120q35 43 75 57.5t91 15.5q58 0 109 -27q43 -20 71.5 -74t25.5 -93zM377 189v335q0 32 -12 52q-12 21 -40.5 35.5t-56.5 12.5
q-30 2 -58 -13q-52 -28 -52 -87v-335q0 -33 12 -54q13 -21 41 -36t57 -13q29 -2 57 13q28 16 40 36.5t12 53.5z" />
    <glyph glyph-name="Iota" unicode="&#x399;" horiz-adv-x="240" 
d="M71 713h97v-713h-97v713z" />
    <glyph glyph-name="Kappa" unicode="&#x39a;" horiz-adv-x="524" 
d="M168 713v-291h13l208 291h115l-238 -334l244 -379h-115l-208 325h-19v-325h-97v713h97z" />
    <glyph glyph-name="Lambda" unicode="&#x39b;" horiz-adv-x="528" 
d="M114 0h-98l177 713h140l179 -713h-99l-148 616z" />
    <glyph glyph-name="Mu" unicode="&#x39c;" horiz-adv-x="654" 
d="M168 0h-97v713h112l144 -357l142 357h114v-713h-97v511l-120 -299h-78l-120 300v-512z" />
    <glyph glyph-name="Nu" unicode="&#x39d;" horiz-adv-x="559" 
d="M488 0h-109l-211 495v-495h-97v713h107l213 -503v503h97v-713z" />
    <glyph glyph-name="Xi" unicode="&#x39e;" horiz-adv-x="507" 
d="M446 617h-385v96h385v-96zM61 96h385v-96h-385v96zM445 327h-384v95h384v-95z" />
    <glyph glyph-name="Omicron" unicode="&#x39f;" 
d="M474 525v-337q0 -65 -42 -123q-60 -72 -165 -74q-56 0 -110 27q-44 22 -71.5 76.5t-24.5 94.5v337q0 66 41 120q35 43 75 57.5t91 15.5q58 0 109 -27q43 -20 71.5 -74t25.5 -93zM377 189v335q0 32 -12 52q-12 21 -40.5 35.5t-56.5 12.5q-30 2 -58 -13q-52 -28 -52 -87
v-335q0 -33 12 -54q13 -21 41 -36t57 -13q29 -2 57 13q28 16 40 36.5t12 53.5z" />
    <glyph glyph-name="Pi" unicode="&#x3a0;" horiz-adv-x="569" 
d="M498 0h-97v617h-233v-617h-97v713h427v-713z" />
    <glyph glyph-name="Rho" unicode="&#x3a1;" horiz-adv-x="519" 
d="M483 518v-50q0 -68 -36 -123q-32 -43 -69.5 -57.5t-87.5 -15.5h-122v-272h-97v713h215q60 0 110 -27q41 -20 65 -74t22 -94zM386 469v47q2 45 -26 73t-76 28h-116v-249h118q49 1 75.5 28t24.5 73z" />
    <glyph glyph-name="Sigma" unicode="&#x3a3;" horiz-adv-x="481" 
d="M460 621h-296l222 -229v-54l-225 -246h299v-92h-439v75l262 288l-262 275v75h439v-92z" />
    <glyph glyph-name="Tau" unicode="&#x3a4;" horiz-adv-x="468" 
d="M451 617h-169v-617h-97v617h-168v96h434v-96z" />
    <glyph glyph-name="Upsilon" unicode="&#x3a5;" horiz-adv-x="506" 
d="M489 713l-188 -455v-258h-97v260l-187 453h106l130 -327l131 327h105z" />
    <glyph glyph-name="Phi" unicode="&#x3a6;" horiz-adv-x="598" 
d="M251 739h95v-71q101 -13 146.5 -70t45.5 -122v-218q0 -69 -45.5 -126.5t-146.5 -68.5v-72h-95v72q-69 7 -114.5 41t-61 72.5t-15.5 81.5v218q0 29 9.5 57.5t30 57t59.5 49.5t92 28v71zM441 258v216q-1 47 -32 70q-29 22 -63 27v-412q34 5 63 27q31 23 32 72zM157 474
v-216q4 -84 94 -99v411q-39 -4 -65.5 -27.5t-28.5 -68.5z" />
    <glyph glyph-name="Chi" unicode="&#x3a7;" horiz-adv-x="513" 
d="M496 0h-112l-128 257l-127 -257h-112l184 357l-183 356h110l127 -257l131 257h108l-184 -354z" />
    <glyph glyph-name="Psi" unicode="&#x3a8;" horiz-adv-x="593" 
d="M345 713v-447q79 20 80 95v352h97v-353q0 -75 -48 -127t-129 -64v-169h-97v169q-82 12 -129.5 63.5t-47.5 126.5v354h97v-352q1 -75 80 -95v447h97z" />
    <glyph glyph-name="uni03A9" unicode="&#x3a9;" horiz-adv-x="527" 
d="M279 0v80q95 9 99 106v339q0 35 -13 55q-12 22 -41.5 37.5t-59.5 13.5q-34 2 -62 -14q-54 -28 -54 -92v-339q1 -55 32 -79q32 -23 67 -27v-80h-226v82h67q-30 53 -30 104v341q0 63 42 119q35 43 74.5 57.5t89.5 15.5q58 0 109 -27q43 -20 70.5 -74t24.5 -92v-341
q0 -52 -30 -103h68v-82h-227z" />
    <glyph glyph-name="Iotadieresis" unicode="&#x3aa;" horiz-adv-x="240" 
d="M71 713h97v-713h-97v713zM274 780h-103v119h103v-119zM68 780h-103v119h103v-119z" />
    <glyph glyph-name="Upsilondieresis" unicode="&#x3ab;" horiz-adv-x="506" 
d="M489 713l-188 -455v-258h-97v260l-187 453h106l130 -327l131 327h105zM406 780h-103v119h103v-119zM200 780h-103v119h103v-119z" />
    <glyph glyph-name="alphatonos" unicode="&#x3ac;" horiz-adv-x="539" 
d="M60 183v157q0 91 53.5 142t145.5 51q53 0 100 -35v27h95v-390q2 -24 12.5 -35.5t29.5 -10.5h26v-94h-31q-29 0 -58 13t-43 40q-62 -57 -134 -57q-91 0 -143.5 51t-52.5 141zM155 340v-157q-1 -35 20 -67q21 -31 81 -32q102 0 103 99v157q-1 48 -27.5 74t-72.5 26
q-106 -4 -104 -100zM295 598h-82l37 187h92z" />
    <glyph glyph-name="epsilontonos" unicode="&#x3ad;" horiz-adv-x="488" 
d="M297 315v-89h-63q-38 0 -58.5 -18.5t-20.5 -49.5q1 -35 29 -54.5t71 -19.5q41 0 70 23.5t33 65.5h97q-6 -88 -65 -135t-133 -47q-88 0 -141.5 43.5t-55.5 120.5q0 74 53 117q-42 36 -42 106t55.5 112t132.5 42q32 0 60.5 -7t58 -25t49 -54.5t25.5 -89.5h-95
q-16 85 -97 83q-41 0 -67.5 -16.5t-27.5 -48.5q0 -59 70 -59h62zM285 598h-82l37 187h92z" />
    <glyph glyph-name="etatonos" unicode="&#x3ae;" horiz-adv-x="529" 
d="M462 -226h-95v567q2 35 -15 65q-17 32 -76 33q-47 -1 -78 -27.5t-32 -68.5v-343h-95v525h95v-30q48 37 110 37q90 0 138 -50.5t48 -140.5v-567zM309 598h-82l37 187h92z" />
    <glyph glyph-name="iotatonos" unicode="&#x3af;" horiz-adv-x="267" 
d="M71 137v388h95v-392q5 -47 42 -44h36v-94h-41q-59 0 -95.5 34t-36.5 108zM161 598h-82l37 187h92z" />
    <glyph glyph-name="upsilondieresistonos" unicode="&#x3b0;" horiz-adv-x="528" 
d="M461 392v-208q0 -88 -53.5 -140.5t-142.5 -52.5q-92 0 -145 51.5t-53 141.5v341h95v-341q-2 -36 19 -67q23 -31 84 -33q48 0 74.5 26t26.5 74v213q-2 24 -12.5 35t-29.5 9h-43v93h48q58 0 95 -35t37 -107zM279 607h-81l37 187h92zM452 608h-110v127h110v-127zM174 608
h-109v127h109v-127z" />
    <glyph glyph-name="alpha" unicode="&#x3b1;" horiz-adv-x="539" 
d="M60 183v157q0 91 53.5 142t145.5 51q53 0 100 -35v27h95v-390q2 -24 12.5 -35.5t29.5 -10.5h26v-94h-31q-29 0 -58 13t-43 40q-62 -57 -134 -57q-91 0 -143.5 51t-52.5 141zM155 340v-157q-1 -35 20 -67q21 -31 81 -32q102 0 103 99v157q-1 48 -27.5 74t-72.5 26
q-106 -4 -104 -100z" />
    <glyph glyph-name="beta" unicode="&#x3b2;" horiz-adv-x="520" 
d="M460 237v-53q0 -89 -56 -141t-148 -52q-55 0 -101 30v-247h-94v733q0 80 37 137q32 44 69.5 58.5t87.5 15.5q99 0 147.5 -57.5t48.5 -137.5q2 -86 -72 -141q25 -14 39 -32q17 -20 30 -52t12 -61zM254 624q-30 1 -55 -15q-44 -32 -44 -102v-323q0 -48 26.5 -74t74.5 -26
q32 0 53 9q24 10 40.5 34t15.5 57v51q-2 33 -14 51q-13 19 -44 33t-60 12h-49v91h50q30 -2 57 12q52 28 52 89q2 45 -25.5 72.5t-77.5 28.5z" />
    <glyph glyph-name="gamma" unicode="&#x3b3;" horiz-adv-x="484" 
d="M291 -226h-95v229l-178 522h103l124 -371l121 371h100l-175 -523v-228z" />
    <glyph glyph-name="delta" unicode="&#x3b4;" horiz-adv-x="522" 
d="M79 561q0 70 53 113.5t130 43.5q45 0 85 -17.5t69.5 -63t29.5 -112.5h-94q-1 52 -25.5 76t-64.5 23q-38 0 -63 -17t-26 -48q0 -52 53 -65q15 -4 51 -12.5t57 -13.5q127 -34 127 -181v-103q0 -87 -55.5 -140t-143.5 -53q-93 0 -147 51.5t-54 141.5v105q0 100 78 152
q-60 37 -60 120zM366 184v111q0 58 -45 80q-26 12 -60 14q-49 0 -77 -27t-28 -75v-103q4 -102 106 -100q49 0 76.5 26t27.5 74z" />
    <glyph glyph-name="epsilon" unicode="&#x3b5;" horiz-adv-x="488" 
d="M297 315v-89h-63q-38 0 -58.5 -18.5t-20.5 -49.5q1 -35 29 -54.5t71 -19.5q41 0 70 23.5t33 65.5h97q-6 -88 -65 -135t-133 -47q-88 0 -141.5 43.5t-55.5 120.5q0 74 53 117q-42 36 -42 106t55.5 112t132.5 42q32 0 60.5 -7t58 -25t49 -54.5t25.5 -89.5h-95
q-16 85 -97 83q-41 0 -67.5 -16.5t-27.5 -48.5q0 -59 70 -59h62z" />
    <glyph glyph-name="zeta" unicode="&#x3b6;" horiz-adv-x="429" 
d="M382 -151h-99l34 93q15 41 -28 48h-40q-95 0 -144 54.5t-49 148.5q0 117 59.5 227t157.5 200h-174v93h332v-83q-114 -78 -197.5 -192.5t-83.5 -234.5q0 -55 25.5 -87t73.5 -33h50q64 0 98 -45.5t13 -109.5z" />
    <glyph glyph-name="eta" unicode="&#x3b7;" horiz-adv-x="529" 
d="M462 -226h-95v567q2 35 -15 65q-17 32 -76 33q-47 -1 -78 -27.5t-32 -68.5v-343h-95v525h95v-30q48 37 110 37q90 0 138 -50.5t48 -140.5v-567z" />
    <glyph glyph-name="theta" unicode="&#x3b8;" 
d="M474 524v-336q0 -65 -42 -123q-60 -72 -165 -74q-56 0 -110 27q-44 22 -71.5 76.5t-24.5 94.5v336q0 66 41 120q35 43 75 57.5t91 15.5q58 0 109 -27q43 -20 71.5 -74t25.5 -93zM379 188v127h-223v-127q0 -33 12 -54q13 -21 42 -36.5t58 -13.5q30 -2 57 14
q29 16 41.5 36.5t12.5 53.5zM156 524v-118h223v118q0 33 -13 52q-12 22 -40.5 36.5t-57.5 12.5q-32 2 -60 -13q-52 -28 -52 -88z" />
    <glyph glyph-name="iota" unicode="&#x3b9;" horiz-adv-x="267" 
d="M71 137v388h95v-392q5 -47 42 -44h36v-94h-41q-59 0 -95.5 34t-36.5 108z" />
    <glyph glyph-name="kappa" unicode="&#x3ba;" horiz-adv-x="515" 
d="M493 0h-113l-154 238l-60 -65v-173h-95v525h95v-220l207 220h122l-203 -217z" />
    <glyph glyph-name="lambda" unicode="&#x3bb;" horiz-adv-x="498" 
d="M314 129l-79 278l-117 -407h-98l152 525h30l-12 49q-11 50 -56 45h-48v94h36q66 0 102.5 -27t57.5 -103l127 -445q11 -50 55 -45h38v-93h-26q-70 0 -104.5 24.5t-57.5 104.5z" />
    <glyph glyph-name="uni03BC" unicode="&#x3bc;" 
d="M166 -226h-95v751h95v-342q-1 -36 21 -67q23 -31 81 -32q44 1 72 26.5t29 67.5v347h95v-525h-95v34q-34 -42 -101 -43q-65 1 -102 38v-255z" />
    <glyph glyph-name="nu" unicode="&#x3bd;" horiz-adv-x="456" 
d="M15 525h100l113 -411l114 411h99l-153 -525h-120z" />
    <glyph glyph-name="xi" unicode="&#x3be;" horiz-adv-x="443" 
d="M460 525h-95q-7 62 -39 82q-30 19 -59 17q-50 -1 -77.5 -28.5t-25.5 -72.5q0 -33 12 -54t40 -35t57 -12h50v-91h-49q-28 1 -60 -12q-31 -14 -44 -33t-14 -51v-51q-1 -33 19 -66q21 -31 80 -34h36q73 0 108 -46.5t16 -100.5l-31 -88h-97q38 105 38 108q3 14 -6 23t-29 11
h-28q-92 0 -146 51.5t-54 141.5v53q-2 31 12 60q25 53 68 85q-74 63 -72 141q0 80 48.5 137.5t147.5 57.5q53 -1 92 -19t60 -47t31 -60.5t11 -66.5z" />
    <glyph glyph-name="omicron" unicode="&#x3bf;" horiz-adv-x="520" 
d="M459 341v-158q0 -87 -55.5 -140t-143.5 -53q-90 0 -144.5 52.5t-54.5 140.5v158q0 86 55.5 138.5t143.5 52.5q90 0 144.5 -51.5t54.5 -139.5zM364 183v158q1 34 -22 65q-23 32 -82 33q-49 0 -76.5 -25.5t-27.5 -72.5v-158q-1 -36 21 -67q23 -32 83 -33q49 1 76.5 27.5
t27.5 72.5z" />
    <glyph glyph-name="pi" unicode="&#x3c0;" horiz-adv-x="622" 
d="M390 137v295h-170v-432h-95v432h-88v93h533v-93h-85v-299q5 -47 42 -44h36v-94h-41q-59 0 -95.5 34t-36.5 108z" />
    <glyph glyph-name="rho" unicode="&#x3c1;" horiz-adv-x="525" 
d="M464 340v-156q0 -89 -55.5 -141t-147.5 -52q-55 0 -101 30v-247h-94v566q0 87 54.5 139.5t144.5 52.5q91 0 145 -51.5t54 -140.5zM370 184v156q2 36 -21 66q-23 32 -84 33q-49 0 -77 -25.5t-28 -73.5v-156q0 -48 26.5 -74t74.5 -26q32 0 53 9q24 10 40.5 34t15.5 57z" />
    <glyph glyph-name="sigma1" unicode="&#x3c2;" horiz-adv-x="500" 
d="M457 351h-97q-13 87 -99 88q-49 0 -77 -25.5t-28 -73.5v-156q4 -102 105 -100h45q64 0 98.5 -46.5t12.5 -109.5l-28 -79h-99l34 93q15 41 -28 48h-35q-92 0 -146 52t-54 142v156q0 87 55 139.5t145 52.5q82 0 134 -47.5t62 -133.5z" />
    <glyph glyph-name="sigma" unicode="&#x3c3;" horiz-adv-x="531" 
d="M494 438h-63q28 -46 28 -101v-153q0 -87 -56 -140t-145 -53q-92 0 -144.5 51.5t-52.5 141.5v153q0 88 53.5 140t143.5 52h236v-91zM365 184v153q-2 52 -31.5 76.5t-75.5 23.5q-49 0 -76 -26t-27 -74v-153q-1 -35 20 -67q21 -31 83 -33q49 0 77.5 26t29.5 74z" />
    <glyph glyph-name="tau" unicode="&#x3c4;" horiz-adv-x="458" 
d="M276 0h-95v432h-160v93h416v-93h-161v-432z" />
    <glyph glyph-name="upsilon" unicode="&#x3c5;" horiz-adv-x="528" 
d="M461 392v-208q0 -88 -53.5 -140.5t-142.5 -52.5q-92 0 -145 51.5t-53 141.5v341h95v-341q-2 -36 19 -67q23 -31 84 -33q48 0 74.5 26t26.5 74v213q-2 24 -12.5 35t-29.5 9h-43v93h48q58 0 95 -35t37 -107z" />
    <glyph glyph-name="phi" unicode="&#x3c6;" horiz-adv-x="598" 
d="M255 -226v219q-87 10 -137.5 61t-50.5 127v344h94v-344q1 -36 26 -61t68 -34v303q0 71 40.5 107t99.5 36t100 -36t41 -107v-208q0 -75 -50.5 -125.5t-136.5 -62.5v-219h-94zM349 394v-307q43 9 68 33.5t25 60.5v213q-5 48 -47 45q-41 3 -46 -45z" />
    <glyph glyph-name="chi" unicode="&#x3c7;" horiz-adv-x="528" 
d="M45 530h45q82 0 111 -64l74 -164l106 223h105l-159 -326l104 -240q9 -18 39 -16h34v-91h-45q-81 -2 -111 63l-79 177l-116 -240h-108l173 352l-100 218q-4 18 -39 16h-34v92z" />
    <glyph glyph-name="psi" unicode="&#x3c8;" horiz-adv-x="593" 
d="M250 -226v221q-86 8 -135 58.5t-49 139.5v332h95v-332q0 -94 89 -105v625h93v-625q89 11 89 105v332h95v-332q0 -89 -49 -139.5t-135 -58.5v-221h-93z" />
    <glyph glyph-name="omega" unicode="&#x3c9;" horiz-adv-x="653" 
d="M219 84q60 1 60 67v242h95v-242q0 -67 62 -67q55 1 55 87v224q-2 24 -11.5 35t-28.5 9h-33v93h39q58 0 93.5 -35t35.5 -107v-221q0 -79 -38.5 -128.5t-114.5 -49.5q-69 0 -107 41q-38 -41 -107 -41q-77 0 -114.5 49.5t-37.5 128.5v221q0 72 35.5 107t94.5 35h38v-93h-34
q-18 2 -27.5 -9t-11.5 -35v-224q0 -83 57 -87z" />
    <glyph glyph-name="iotadieresis" unicode="&#x3ca;" horiz-adv-x="267" 
d="M71 137v388h95v-392q5 -47 42 -44h36v-94h-41q-59 0 -95.5 34t-36.5 108zM272 608h-103v119h103v-119zM66 608h-103v119h103v-119z" />
    <glyph glyph-name="upsilondieresis" unicode="&#x3cb;" horiz-adv-x="528" 
d="M461 392v-208q0 -88 -53.5 -140.5t-142.5 -52.5q-92 0 -145 51.5t-53 141.5v341h95v-341q-2 -36 19 -67q23 -31 84 -33q48 0 74.5 26t26.5 74v213q-2 24 -12.5 35t-29.5 9h-43v93h48q58 0 95 -35t37 -107zM397 608h-103v119h103v-119zM191 608h-103v119h103v-119z" />
    <glyph glyph-name="omicrontonos" unicode="&#x3cc;" horiz-adv-x="520" 
d="M459 341v-158q0 -87 -55.5 -140t-143.5 -53q-90 0 -144.5 52.5t-54.5 140.5v158q0 86 55.5 138.5t143.5 52.5q90 0 144.5 -51.5t54.5 -139.5zM364 183v158q1 34 -22 65q-23 32 -82 33q-49 0 -76.5 -25.5t-27.5 -72.5v-158q-1 -36 21 -67q23 -32 83 -33q49 1 76.5 27.5
t27.5 72.5zM298 598h-82l37 187h92z" />
    <glyph glyph-name="upsilontonos" unicode="&#x3cd;" horiz-adv-x="528" 
d="M461 392v-208q0 -88 -53.5 -140.5t-142.5 -52.5q-92 0 -145 51.5t-53 141.5v341h95v-341q-2 -36 19 -67q23 -31 84 -33q48 0 74.5 26t26.5 74v213q-2 24 -12.5 35t-29.5 9h-43v93h48q58 0 95 -35t37 -107zM284 598h-82l37 187h92z" />
    <glyph glyph-name="omegatonos" unicode="&#x3ce;" horiz-adv-x="653" 
d="M219 84q60 1 60 67v242h95v-242q0 -67 62 -67q55 1 55 87v224q-2 24 -11.5 35t-28.5 9h-33v93h39q58 0 93.5 -35t35.5 -107v-221q0 -79 -38.5 -128.5t-114.5 -49.5q-69 0 -107 41q-38 -41 -107 -41q-77 0 -114.5 49.5t-37.5 128.5v221q0 72 35.5 107t94.5 35h38v-93h-34
q-18 2 -27.5 -9t-11.5 -35v-224q0 -83 57 -87zM367 597h-82l37 187h92z" />
    <glyph glyph-name="afii10023" unicode="&#x401;" horiz-adv-x="508" 
d="M467 0h-396v713h396v-96h-299v-194h277v-96h-277v-231h299v-96zM423 780h-103v119h103v-119zM217 780h-103v119h103v-119z" />
    <glyph glyph-name="afii10051" unicode="&#x402;" horiz-adv-x="656" 
d="M283 0h-97v616h-169v97h434v-97h-168v-123q52 39 114 39q93 0 142.5 -52t49.5 -145v-194q0 -74 -37.5 -110t-97.5 -36h-39v96h34q20 -2 30.5 9t12.5 36v199q2 38 -17 68q-20 33 -78 34q-47 -1 -79 -26t-35 -66v-345z" />
    <glyph glyph-name="afii10052" unicode="&#x403;" horiz-adv-x="472" 
d="M71 713h394v-96h-297v-617h-97v713zM259 780h-92l83 169h109z" />
    <glyph glyph-name="afii10053" unicode="&#x404;" horiz-adv-x="521" 
d="M377 188h97q0 -65 -42 -123q-60 -72 -165 -74q-56 0 -110 27q-44 22 -71.5 76.5t-24.5 94.5v336q0 66 41 120q35 43 75 57.5t91 15.5q58 0 109 -27q43 -20 71.5 -74t25.5 -93h-97q0 32 -12 51q-12 21 -40.5 35.5t-56.5 12.5q-30 2 -58 -13q-52 -28 -52 -87v-106h168v-96
h-168v-132q0 -33 12 -54q13 -21 41 -36t57 -13q29 -2 57 13q28 16 40 36.5t12 52.5z" />
    <glyph glyph-name="afii10054" unicode="&#x405;" horiz-adv-x="514" 
d="M472 188q0 -86 -62 -141.5t-156 -55.5q-96 0 -154 55.5t-58 141.5h97q1 -48 32 -75t82 -27q56 1 88.5 29.5t33.5 74.5q0 62 -62 96q-47 27 -162 85q-43 23 -63 54q-34 55 -34 109q0 81 56.5 133t144.5 52q91 0 149.5 -54.5t58.5 -138.5h-98q-1 46 -31 72t-79 26
q-46 0 -74.5 -24.5t-29.5 -67.5q0 -50 55 -80q140 -71 154 -79q112 -61 112 -185z" />
    <glyph glyph-name="afii10055" unicode="&#x406;" horiz-adv-x="240" 
d="M71 713h97v-713h-97v713z" />
    <glyph glyph-name="afii10056" unicode="&#x407;" horiz-adv-x="240" 
d="M71 713h97v-713h-97v713zM274 780h-103v119h103v-119zM68 780h-103v119h103v-119z" />
    <glyph glyph-name="afii10057" unicode="&#x408;" horiz-adv-x="451" 
d="M385 713v-526q0 -93 -49 -144.5t-138 -51.5q-87 0 -137 54t-50 142h97q1 -60 31 -82q28 -21 60 -19q31 -1 59 18t30 77v436h-205v96h302z" />
    <glyph glyph-name="afii10058" unicode="&#x409;" horiz-adv-x="809" 
d="M772 245v-51q0 -64 -37 -121q-33 -43 -71.5 -57.5t-89.5 -15.5h-188v617h-165v-431q0 -91 -56 -142.5t-155 -51.5v95q40 -1 76 18q37 20 38 76v532h359v-273h95q58 0 108 -27q42 -21 65.5 -74t20.5 -94zM675 196v48q3 44 -25.5 72.5t-75.5 28.5h-91v-249h89q31 -1 56 13
q26 15 36.5 34.5t10.5 52.5z" />
    <glyph glyph-name="afii10059" unicode="&#x40a;" horiz-adv-x="808" 
d="M771 235v-41q0 -64 -37 -121q-33 -43 -71.5 -57.5t-89.5 -15.5h-199v335h-206v-335h-97v713h97v-282h206v282h97v-282h106q58 0 108 -27q42 -20 65.5 -74t20.5 -95zM674 196v38q3 44 -25.5 72.5t-75.5 28.5h-102v-239h100q31 -1 56 13q26 15 36.5 34.5t10.5 52.5z" />
    <glyph glyph-name="afii10060" unicode="&#x40b;" horiz-adv-x="656" 
d="M283 0h-97v616h-169v97h434v-97h-168v-123q52 39 114 39q93 0 142.5 -52t49.5 -145v-335h-97v335q2 38 -17 68q-20 33 -78 34q-47 -1 -79 -26t-35 -66v-345z" />
    <glyph glyph-name="afii10061" unicode="&#x40c;" horiz-adv-x="527" 
d="M168 713v-291h13l208 291h115l-238 -334l244 -379h-115l-208 325h-19v-325h-97v713h97zM306 780h-92l83 169h109z" />
    <glyph glyph-name="afii10062" unicode="&#x40e;" horiz-adv-x="502" 
d="M84 87h48q56 0 75 62l11 36h-30l-167 528h102l128 -411l129 411h101l-179 -576q-43 -145 -182 -145h-36v95zM253 782q-65 0 -106.5 38t-47.5 114h78q3 -39 22.5 -60t53.5 -21t53.5 21t22.5 60h78q-6 -76 -47.5 -114t-106.5 -38z" />
    <glyph glyph-name="afii10145" unicode="&#x40f;" horiz-adv-x="568" 
d="M333 -116h-97v116h-165v713h97v-617h233v617h97v-713h-165v-116z" />
    <glyph glyph-name="afii10017" unicode="&#x410;" horiz-adv-x="547" 
d="M531 0h-99l-50 194h-215l-51 -194h-100l186 713h140zM357 290l-82 322l-85 -322h167z" />
    <glyph glyph-name="afii10018" unicode="&#x411;" horiz-adv-x="521" 
d="M466 617h-298v-177h122q58 0 108 -27q42 -21 65.5 -74t20.5 -94v-51q0 -64 -37 -121q-20 -30 -51 -47q-51 -26 -109 -26h-216v713h395v-96zM388 196v48q0 32 -11 52q-10 22 -36 36.5t-54 12.5h-119v-249h117q48 0 77 28t26 72z" />
    <glyph glyph-name="afii10019" unicode="&#x412;" horiz-adv-x="544" 
d="M488 218v-24q0 -64 -37 -121q-20 -30 -51 -47q-51 -26 -109 -26h-220v713h215q58 0 109 -26q41 -20 63 -72t20 -93v-12q1 -34 -15.5 -74.5t-51.5 -67.5q22 -13 38 -34q16 -19 28 -53t11 -63zM379 512v9q-3 62 -34 80t-61 16h-116v-202h122q33 -2 59 16q29 19 30 81z
M391 196v21q1 46 -23.5 74t-73.5 28h-126v-223h121q31 -1 56 13q46 28 46 87z" />
    <glyph glyph-name="afii10020" unicode="&#x413;" horiz-adv-x="472" 
d="M71 713h394v-96h-297v-617h-97v713z" />
    <glyph glyph-name="afii10021" unicode="&#x414;" horiz-adv-x="620" 
d="M596 -116h-96v116h-385v-116h-97v212h68q54 27 59 90l44 527h340v-617h67v-212zM280 617l-39 -429q-6 -61 -32 -92h223v521h-152z" />
    <glyph glyph-name="afii10022" unicode="&#x415;" horiz-adv-x="508" 
d="M467 0h-396v713h396v-96h-299v-194h277v-96h-277v-231h299v-96z" />
    <glyph glyph-name="afii10024" unicode="&#x416;" horiz-adv-x="815" 
d="M456 713v-291h13l208 291h114l-237 -334l244 -379h-115l-208 326h-19v-326h-97v326h-19l-208 -326h-115l244 379l-237 334h113l207 -291h15v291h97z" />
    <glyph glyph-name="afii10025" unicode="&#x417;" horiz-adv-x="502" 
d="M34 188h97q5 -33 16 -51q14 -21 41.5 -36t57.5 -13q55 1 87.5 28t29.5 75v31q-2 33 -15 52q-13 20 -44.5 34t-61.5 12h-50v93h52q32 -2 59 14q52 30 52 93q0 33 -11 53q-12 23 -39.5 38t-59.5 13q-28 1 -62 -20q-33 -20 -44 -79h-98q3 35 15 66.5t34.5 61.5t62.5 48
t93 19q100 0 153 -59t53 -141t-76 -148q21 -14 40 -37q45 -54 44 -111v-34q0 -74 -42 -128q-35 -41 -76 -54.5t-95 -15.5q-57 0 -108 24q-44 19 -74 71.5t-31 100.5z" />
    <glyph glyph-name="afii10026" unicode="&#x418;" horiz-adv-x="559" 
d="M180 0h-109v713h97v-503l213 503h107v-713h-97v495z" />
    <glyph glyph-name="afii10027" unicode="&#x419;" horiz-adv-x="559" 
d="M180 0h-109v713h97v-503l213 503h107v-713h-97v495zM281 782q-65 0 -106.5 38t-47.5 114h78q3 -39 22.5 -60t53.5 -21t53.5 21t22.5 60h78q-6 -76 -47.5 -114t-106.5 -38z" />
    <glyph glyph-name="afii10028" unicode="&#x41a;" horiz-adv-x="527" 
d="M168 713v-291h13l208 291h115l-238 -334l244 -379h-115l-208 325h-19v-325h-97v713h97z" />
    <glyph glyph-name="afii10029" unicode="&#x41b;" horiz-adv-x="592" 
d="M221 617v-431q0 -91 -56 -142.5t-155 -51.5v95q39 -1 75 18q36 20 39 76v532h397v-713h-97v617h-203z" />
    <glyph glyph-name="afii10030" unicode="&#x41c;" horiz-adv-x="654" 
d="M168 0h-97v713h112l144 -357l142 357h114v-713h-97v511l-120 -299h-78l-120 300v-512z" />
    <glyph glyph-name="afii10031" unicode="&#x41d;" horiz-adv-x="568" 
d="M497 0h-97v326h-232v-326h-97v713h97v-291h232v291h97v-713z" />
    <glyph glyph-name="afii10032" unicode="&#x41e;" 
d="M474 525v-337q0 -65 -42 -123q-60 -72 -165 -74q-56 0 -110 27q-44 22 -71.5 76.5t-24.5 94.5v337q0 66 41 120q35 43 75 57.5t91 15.5q58 0 109 -27q43 -20 71.5 -74t25.5 -93zM377 189v335q0 32 -12 52q-12 21 -40.5 35.5t-56.5 12.5q-30 2 -58 -13q-52 -28 -52 -87
v-335q0 -33 12 -54q13 -21 41 -36t57 -13q29 -2 57 13q28 16 40 36.5t12 53.5z" />
    <glyph glyph-name="afii10033" unicode="&#x41f;" horiz-adv-x="569" 
d="M498 0h-97v617h-233v-617h-97v713h427v-713z" />
    <glyph glyph-name="afii10034" unicode="&#x420;" horiz-adv-x="519" 
d="M483 518v-50q0 -68 -36 -123q-32 -43 -69.5 -57.5t-87.5 -15.5h-122v-272h-97v713h215q60 0 110 -27q41 -20 65 -74t22 -94zM386 469v47q2 45 -26 73t-76 28h-116v-249h118q49 1 75.5 28t24.5 73z" />
    <glyph glyph-name="afii10035" unicode="&#x421;" horiz-adv-x="518" 
d="M377 188h97q0 -65 -42 -123q-60 -72 -165 -74q-56 0 -110 27q-44 22 -71.5 76.5t-24.5 94.5v337q0 66 41 120q35 43 75 57.5t91 15.5q58 0 109 -27q43 -20 71.5 -74t25.5 -93h-97q0 31 -12 51q-12 21 -40.5 35.5t-56.5 12.5q-30 2 -58 -13q-52 -28 -52 -87v-335
q0 -33 12 -54q13 -21 41 -36t57 -13q29 -2 57 13q28 16 40 36.5t12 52.5z" />
    <glyph glyph-name="afii10036" unicode="&#x422;" horiz-adv-x="468" 
d="M451 617h-169v-617h-97v617h-168v96h434v-96z" />
    <glyph glyph-name="afii10037" unicode="&#x423;" horiz-adv-x="502" 
d="M84 87h48q56 0 75 62l11 36h-30l-167 528h102l128 -411l129 411h101l-179 -576q-43 -145 -182 -145h-36v95z" />
    <glyph glyph-name="afii10038" unicode="&#x424;" horiz-adv-x="578" 
d="M242 739h95v-73q50 -7 87 -28t56.5 -49.5t28.5 -56.5t9 -56v-218q0 -31 -9 -60t-29 -57t-56.5 -48.5t-86.5 -28.5v-73h-95v73q-50 8 -87 28.5t-57 48.5t-29 57t-9 60v218q0 28 9 56t28.5 56.5t56.5 49.5t88 28v73zM421 258v216q-1 41 -24.5 64t-59.5 30v-406
q36 8 59.5 31.5t24.5 64.5zM158 474v-216q1 -41 24.5 -64.5t59.5 -31.5v406q-36 -7 -59.5 -30t-24.5 -64z" />
    <glyph glyph-name="afii10039" unicode="&#x425;" horiz-adv-x="513" 
d="M496 0h-112l-128 257l-127 -257h-112l184 357l-183 356h110l127 -257l131 257h108l-184 -354z" />
    <glyph glyph-name="afii10040" unicode="&#x426;" horiz-adv-x="589" 
d="M564 -116h-97v116h-396v713h97v-617h233v617h97v-617h66v-212z" />
    <glyph glyph-name="afii10041" unicode="&#x427;" horiz-adv-x="526" 
d="M358 368v345h97v-713h-97v273h-123q-57 0 -108 26q-42 22 -65.5 75t-20.5 94v245h97v-244q-3 -44 25.5 -72.5t75.5 -28.5h119z" />
    <glyph glyph-name="afii10042" unicode="&#x428;" horiz-adv-x="655" 
d="M376 96h111v617h97v-713h-513v713h97v-617h111v617h97v-617z" />
    <glyph glyph-name="afii10043" unicode="&#x429;" horiz-adv-x="673" 
d="M649 -116h-96v116h-482v713h97v-617h111v617h97v-617h111v617h97v-617h65v-212z" />
    <glyph glyph-name="afii10044" unicode="&#x42a;" horiz-adv-x="556" 
d="M519 245v-51q0 -65 -38 -121q-20 -30 -51 -47q-51 -26 -109 -26h-216v617h-105v96h202v-273h122q58 0 108 -27q41 -21 65 -74t22 -94zM422 196v48q0 32 -11 52q-10 22 -36 36.5t-54 12.5h-119v-249h117q48 0 77 28t26 72z" />
    <glyph glyph-name="afii10045" unicode="&#x42b;" horiz-adv-x="718" 
d="M550 713h97v-713h-97v713zM485 245v-51q0 -65 -38 -121q-20 -30 -51 -47q-51 -26 -109 -26h-216v713h97v-273h122q58 0 108 -27q41 -21 65 -74t22 -94zM388 196v48q0 32 -11 52q-10 22 -36 36.5t-54 12.5h-119v-249h117q48 0 77 28t26 72z" />
    <glyph glyph-name="afii10046" unicode="&#x42c;" horiz-adv-x="522" 
d="M485 245v-51q0 -65 -38 -121q-20 -30 -51 -47q-51 -26 -109 -26h-216v713h97v-273h122q58 0 108 -27q41 -21 65 -74t22 -94zM388 196v48q0 32 -11 52q-10 22 -36 36.5t-54 12.5h-119v-249h117q48 0 77 28t26 72z" />
    <glyph glyph-name="afii10047" unicode="&#x42d;" horiz-adv-x="521" 
d="M48 188h97q0 -32 12 -53q13 -21 41 -36t56 -13q32 -2 58 13q28 16 40 36.5t12 53.5v132h-168v96h168v106q0 33 -12 52q-13 21 -40.5 35.5t-57.5 12.5q-29 2 -57 -13t-40 -34.5t-12 -51.5h-97q0 64 43 121q37 43 75.5 57.5t87.5 15.5q61 0 112 -27q45 -20 71.5 -73.5
t23.5 -92.5v-336q0 -66 -43 -124q-59 -72 -163 -74q-57 0 -112 27q-43 22 -70.5 76t-24.5 94z" />
    <glyph glyph-name="afii10048" unicode="&#x42e;" horiz-adv-x="722" 
d="M71 713h97v-291h80v103q0 66 41 120q35 43 75 57.5t91 15.5q58 0 109 -27q43 -20 71.5 -74t25.5 -93v-336q0 -65 -42 -123q-60 -72 -165 -74q-56 0 -110 27q-44 22 -71.5 76.5t-24.5 94.5v137h-80v-326h-97v713zM564 189v334q0 33 -12 52q-12 21 -40.5 35.5t-56.5 12.5
q-30 2 -58 -13q-52 -28 -52 -87v-334q0 -33 12 -54q13 -21 41 -36t57 -13q29 -2 57 13q28 16 40 36.5t12 53.5z" />
    <glyph glyph-name="afii10049" unicode="&#x42f;" horiz-adv-x="551" 
d="M153 0h-110l143 302q-45 18 -73.5 53t-37.5 67t-9 64v33q0 66 37 120q33 44 72 58.5t90 15.5h215v-713h-97v291h-94zM163 516v-29q-3 -44 25 -72t77 -28h118v230h-116q-49 0 -78 -28.5t-26 -72.5z" />
    <glyph glyph-name="afii10065" unicode="&#x430;" horiz-adv-x="509" 
d="M442 359v-359h-95v40q-38 -49 -122 -49q-70 0 -124.5 45t-54.5 128q0 74 51 113t135 39h115v40q-1 85 -94 83q-82 2 -94 -71h-95q9 85 64 124.5t124 39.5q79 0 134.5 -42t55.5 -131zM347 185v46h-114q-44 0 -68 -18t-24 -48q1 -43 27.5 -63t68.5 -19q43 1 75.5 29.5
t34.5 72.5z" />
    <glyph glyph-name="afii10066" unicode="&#x431;" horiz-adv-x="520" 
d="M412 756v-26q0 -32 -10 -52q-25 -58 -105 -57h-31q-33 2 -57 -14q-48 -27 -48 -87v-17q48 29 103 29q90 0 143 -52t53 -140v-156q0 -90 -52.5 -141.5t-143.5 -51.5q-89 0 -143 52.5t-54 140.5v337q0 65 39 120q22 31 51 46q52 26 109 26h24q32 -1 30 18v25h92zM161 340
v-156q0 -48 27.5 -74t75.5 -26q61 1 82 33q21 31 19 67v156q0 48 -26 73.5t-75 25.5q-62 -2 -83 -33t-20 -66z" />
    <glyph glyph-name="afii10067" unicode="&#x432;" horiz-adv-x="527" 
d="M71 525h208q82 0 130.5 -36.5t46.5 -114.5q-1 -66 -41 -102q52 -41 52 -114q0 -78 -49 -118t-142 -40h-205v525zM165 226v-133h108q100 0 100 65q0 33 -21.5 50.5t-59.5 17.5h-127zM165 317h127q70 0 71 58q0 59 -87 57h-111v-115z" />
    <glyph glyph-name="afii10068" unicode="&#x433;" horiz-adv-x="431" 
d="M71 0v525h337v-93h-242v-432h-95z" />
    <glyph glyph-name="afii10069" unicode="&#x434;" horiz-adv-x="566" 
d="M26 93h64q20 15 22 42l31 392h329v-434h63v-209h-95v116h-319v-116h-95v209zM230 434l-24 -298q-1 -20 -9 -43h180v341h-147z" />
    <glyph glyph-name="afii10070" unicode="&#x435;" horiz-adv-x="515" 
d="M459 341v-113h-303v-45q-1 -36 21 -67q23 -32 83 -33q41 0 67 23.5t33 65.5h97q-10 -84 -63 -133t-134 -49q-90 0 -144.5 52.5t-54.5 140.5v158q0 86 55.5 138.5t143.5 52.5q90 0 144.5 -51.5t54.5 -139.5zM364 320v21q1 34 -22 65q-23 32 -82 33q-49 0 -76.5 -25.5
t-27.5 -72.5v-21h208z" />
    <glyph glyph-name="afii10072" unicode="&#x436;" horiz-adv-x="752" 
d="M424 525v-213h17l173 213h118l-203 -253l205 -272h-117l-166 219h-27v-219h-95v219h-28l-167 -219h-116l205 272l-203 253h118l171 -213h20v213h95z" />
    <glyph glyph-name="afii10073" unicode="&#x437;" horiz-adv-x="484" 
d="M198 226v88l62 1q70 0 70 59q-1 32 -27.5 48.5t-67.5 16.5q-81 2 -97 -83h-95q6 53 25.5 89.5t49 54.5t58 25t60.5 7q77 0 132.5 -42t55.5 -112t-42 -106q53 -43 53 -117q-2 -77 -55.5 -120.5t-141.5 -43.5q-74 0 -133 47t-65 135h97q4 -42 33 -65.5t70 -23.5
q43 0 71 19.5t29 54.5q0 31 -20.5 49.5t-58.5 18.5h-63z" />
    <glyph glyph-name="afii10074" unicode="&#x438;" horiz-adv-x="532" 
d="M177 0h-106v525h95v-355l191 355h104v-525h-95v347z" />
    <glyph glyph-name="afii10075" unicode="&#x439;" horiz-adv-x="532" 
d="M177 0h-106v525h95v-355l191 355h104v-525h-95v347zM268 592q-65 0 -106.5 38t-47.5 114h78q3 -39 22.5 -60t53.5 -21t53.5 21t22.5 60h78q-6 -76 -47.5 -114t-106.5 -38z" />
    <glyph glyph-name="afii10076" unicode="&#x43a;" horiz-adv-x="512" 
d="M166 525v-213h35l173 213h118l-203 -253l205 -272h-117l-166 219h-45v-219h-95v525h95z" />
    <glyph glyph-name="afii10077" unicode="&#x43b;" horiz-adv-x="525" 
d="M188 431v-294q0 -71 -37 -106.5t-95 -35.5h-39v94h34q37 -3 42 44v392h361v-525h-95v431h-171z" />
    <glyph glyph-name="afii10078" unicode="&#x43c;" horiz-adv-x="589" 
d="M166 0h-95v525h110l112 -274l113 274h112v-525h-95v322l-90 -218h-77l-90 218v-322z" />
    <glyph glyph-name="afii10079" unicode="&#x43d;" horiz-adv-x="531" 
d="M71 0v525h95v-208h199v208h95v-525h-95v223h-199v-223h-95z" />
    <glyph glyph-name="afii10080" unicode="&#x43e;" horiz-adv-x="520" 
d="M459 341v-158q0 -87 -55.5 -140t-143.5 -53q-90 0 -144.5 52.5t-54.5 140.5v158q0 86 55.5 138.5t143.5 52.5q90 0 144.5 -51.5t54.5 -139.5zM364 183v158q1 34 -22 65q-23 32 -82 33q-49 0 -76.5 -25.5t-27.5 -72.5v-158q-1 -36 21 -67q23 -32 83 -33q49 1 76.5 27.5
t27.5 72.5z" />
    <glyph glyph-name="afii10081" unicode="&#x43f;" horiz-adv-x="531" 
d="M71 0v525h389v-525h-95v431h-199v-431h-95z" />
    <glyph glyph-name="afii10082" unicode="&#x440;" horiz-adv-x="523" 
d="M462 341v-158q0 -88 -52.5 -140.5t-142.5 -52.5q-63 2 -101 43v-259h-95v751h95v-34q36 41 101 41q88 0 141.5 -52t53.5 -139zM367 183v158q0 47 -26 72.5t-74 25.5q-61 -1 -82 -33q-20 -31 -19 -65v-158q0 -46 26.5 -72.5t74.5 -27.5q61 1 81 33q21 31 19 67z" />
    <glyph glyph-name="afii10083" unicode="&#x441;" horiz-adv-x="499" 
d="M260 532q82 0 134.5 -48.5t62.5 -132.5h-97q-6 38 -30.5 62.5t-69.5 25.5q-49 0 -76.5 -25.5t-27.5 -72.5v-158q-1 -36 21 -67q23 -32 83 -33q41 0 66.5 23.5t32.5 65.5h98q-10 -84 -63 -133t-134 -49q-90 0 -144.5 52.5t-54.5 140.5v158q0 86 55.5 138.5t143.5 52.5z
" />
    <glyph glyph-name="afii10084" unicode="&#x442;" horiz-adv-x="468" 
d="M21 432v93h426v-93h-165v-432h-95v432h-166z" />
    <glyph glyph-name="afii10085" unicode="&#x443;" horiz-adv-x="444" 
d="M195 0h-36l-147 525h100l113 -413l107 413h100l-165 -622q-21 -79 -58.5 -104t-108.5 -25h-45v93h57q45 -5 59 44z" />
    <glyph glyph-name="afii10086" unicode="&#x444;" horiz-adv-x="577" 
d="M243 -226v219q-85 10 -133.5 60t-48.5 131v159q0 78 49 128.5t133 60.5v181h91v-181q83 -10 132.5 -60.5t49.5 -128.5v-159q0 -81 -49 -131t-133 -60v-219h-91zM156 343v-159q-2 -77 87 -97v351q-87 -17 -87 -95zM421 184v159q0 78 -87 95v-351q89 20 87 97z" />
    <glyph glyph-name="afii10087" unicode="&#x445;" horiz-adv-x="470" 
d="M458 0h-112l-110 178l-114 -178h-110l168 262l-168 263h110l113 -181l112 181h108l-167 -264z" />
    <glyph glyph-name="afii10088" unicode="&#x446;" horiz-adv-x="537" 
d="M71 0v525h95v-431h180v431h95v-431h64v-210h-95v116h-339z" />
    <glyph glyph-name="afii10089" unicode="&#x447;" horiz-adv-x="509" 
d="M45 525h95v-135q-1 -33 20 -61q23 -28 82 -29h101v225h95v-525h-95v206h-101q-90 0 -143.5 49t-53.5 135v135z" />
    <glyph glyph-name="afii10090" unicode="&#x448;" horiz-adv-x="598" 
d="M71 0v525h95v-431h85v431h95v-431h86v431h95v-525h-456z" />
    <glyph glyph-name="afii10091" unicode="&#x449;" horiz-adv-x="621" 
d="M71 0v525h95v-431h85v431h95v-431h85v431h95v-431h63v-210h-94v116h-424z" />
    <glyph glyph-name="afii10092" unicode="&#x44a;" horiz-adv-x="540" 
d="M497 183q0 -85 -54 -134t-142 -49h-196v432h-86v93h180v-158h102q89 0 142.5 -49t53.5 -135zM403 183q1 33 -21 61q-21 28 -81 30h-102v-181h102q47 0 74 23.5t28 66.5z" />
    <glyph glyph-name="afii10093" unicode="&#x44b;" horiz-adv-x="709" 
d="M462 183q0 -85 -54 -134t-142 -49h-195v525h94v-158h101q89 0 142.5 -49t53.5 -135zM368 183q1 33 -21 61q-21 28 -81 30h-101v-181h101q48 0 74.5 23t27.5 67zM638 0h-94v525h94v-525z" />
    <glyph glyph-name="afii10094" unicode="&#x44c;" horiz-adv-x="505" 
d="M462 183q0 -85 -54 -134t-142 -49h-195v525h94v-158h101q89 0 142.5 -49t53.5 -135zM368 183q1 33 -21 61q-21 28 -81 30h-101v-181h101q48 0 74.5 23t27.5 67z" />
    <glyph glyph-name="afii10095" unicode="&#x44d;" horiz-adv-x="502" 
d="M243 532q88 0 143.5 -52.5t55.5 -138.5v-158q0 -88 -54.5 -140.5t-144.5 -52.5q-81 0 -134 49t-63 133h98q7 -42 32.5 -65.5t66.5 -23.5q60 1 83 33q22 31 21 67v36h-163v93h163v29q0 47 -27.5 72.5t-76.5 25.5q-45 -1 -69.5 -25.5t-30.5 -62.5h-97q10 84 62.5 132.5
t134.5 48.5z" />
    <glyph glyph-name="afii10096" unicode="&#x44e;" horiz-adv-x="706" 
d="M165 0h-94v525h94v-212h82v28q0 86 55.5 138.5t143.5 52.5q90 0 144.5 -51.5t54.5 -139.5v-158q0 -87 -55.5 -140t-143.5 -53q-90 0 -144.5 52.5t-54.5 140.5v37h-82v-220zM550 183v158q1 34 -22 65q-23 32 -82 33q-49 0 -76.5 -25.5t-27.5 -72.5v-158q-1 -36 21 -67
q23 -32 83 -33q49 1 76.5 27.5t27.5 72.5z" />
    <glyph glyph-name="afii10097" unicode="&#x44f;" horiz-adv-x="553" 
d="M166 0h-113l139 214q-47 15 -70 44q-38 52 -38 108q0 81 55 120t147 39h196v-525h-95v205h-88zM263 298h124v134h-99q-108 2 -109 -67q1 -32 23.5 -49.5t60.5 -17.5z" />
    <glyph glyph-name="afii10071" unicode="&#x451;" horiz-adv-x="515" 
d="M411 608h-103v119h103v-119zM205 608h-103v119h103v-119zM459 341v-113h-303v-45q-1 -36 21 -67q23 -32 83 -33q41 0 67 23.5t33 65.5h97q-10 -84 -63 -133t-134 -49q-90 0 -144.5 52.5t-54.5 140.5v158q0 86 55.5 138.5t143.5 52.5q90 0 144.5 -51.5t54.5 -139.5z
M364 320v21q1 34 -22 65q-23 32 -82 33q-49 0 -76.5 -25.5t-27.5 -72.5v-21h208z" />
    <glyph glyph-name="afii10099" unicode="&#x452;" horiz-adv-x="542" 
d="M170 564v-71q50 39 113 39q93 0 142.5 -52t49.5 -145v-396q0 -74 -37.5 -110t-97.5 -36h-39v96h34q20 -2 30.5 9t12.5 36v401q2 38 -17 68q-20 33 -78 34q-45 -1 -76 -23.5t-37 -60.5v-353h-95v564h-63v86h63v63h95v-63h131v-86h-131z" />
    <glyph glyph-name="afii10100" unicode="&#x453;" horiz-adv-x="431" 
d="M71 0v525h337v-93h-242v-432h-95zM245 593h-92l83 169h109z" />
    <glyph glyph-name="afii10101" unicode="&#x454;" horiz-adv-x="503" 
d="M260 532q82 0 134.5 -48.5t62.5 -132.5h-97q-6 38 -30.5 62.5t-69.5 25.5q-49 0 -76.5 -25.5t-27.5 -72.5v-29h163v-93h-163v-36q-1 -36 21 -67q23 -32 83 -33q41 0 66.5 23.5t32.5 65.5h98q-10 -84 -63 -133t-134 -49q-90 0 -144.5 52.5t-54.5 140.5v158
q0 86 55.5 138.5t143.5 52.5z" />
    <glyph glyph-name="afii10102" unicode="&#x455;" horiz-adv-x="479" 
d="M439 161q0 -87 -56.5 -128t-144.5 -41q-85 0 -139 48.5t-58 131.5h96q11 -88 102 -88q43 0 73.5 17.5t32.5 53.5q-5 44 -53 54q-14 4 -125 34q-52 14 -76 38q-42 43 -42 96q0 76 53.5 115t133.5 39q82 0 134.5 -44t60.5 -124h-98q-13 76 -99 76q-87 0 -91 -60
q1 -35 49 -46q117 -32 133 -37q51 -16 82 -50t32 -85z" />
    <glyph glyph-name="afii10103" unicode="&#x456;" horiz-adv-x="253" 
d="M174 0h-95v525h95v-525zM180 594h-107v122h107v-122z" />
    <glyph glyph-name="afii10104" unicode="&#x457;" horiz-adv-x="253" 
d="M271 608h-103v119h103v-119zM65 608h-103v119h103v-119zM165 0h-94v525h94v-525z" />
    <glyph glyph-name="afii10105" unicode="&#x458;" horiz-adv-x="241" 
d="M162 525v-609q0 -72 -36.5 -107t-94.5 -35h-40v93h35q36 -3 41 44v614h95zM168 594h-107v122h107v-122z" />
    <glyph glyph-name="afii10106" unicode="&#x459;" horiz-adv-x="760" 
d="M717 183q0 -85 -54.5 -134t-142.5 -49h-178v432h-154v-295q0 -71 -37 -106.5t-95 -35.5h-39v94h34q37 -3 42 44v392h344v-158h83q90 0 143.5 -49t53.5 -135zM622 183q2 33 -21 60q-21 29 -81 30h-83v-180h83q48 0 74.5 23t27.5 67z" />
    <glyph glyph-name="afii10107" unicode="&#x45a;" horiz-adv-x="758" 
d="M721 183q0 -85 -54.5 -134t-142.5 -49h-178v273h-180v-273h-95v525h95v-158h180v158h95v-158h83q89 0 143 -49t54 -135zM626 183q1 33 -21 61q-21 28 -81 30h-83v-181h83q47 0 74 23.5t28 66.5z" />
    <glyph glyph-name="afii10108" unicode="&#x45b;" horiz-adv-x="542" 
d="M170 564v-71q50 39 113 39q93 0 142.5 -52t49.5 -145v-335h-97v335q2 38 -17 68q-20 33 -78 34q-45 -1 -76 -23.5t-37 -60.5v-353h-95v564h-63v86h63v63h95v-63h131v-86h-131z" />
    <glyph glyph-name="afii10109" unicode="&#x45c;" horiz-adv-x="512" 
d="M166 525v-213h35l173 213h118l-203 -253l205 -272h-117l-166 219h-45v-219h-95v525h95zM278 593h-92l83 169h109z" />
    <glyph glyph-name="afii10110" unicode="&#x45e;" horiz-adv-x="450" 
d="M195 0h-36l-147 525h100l113 -413l107 413h100l-165 -622q-21 -79 -58.5 -104t-108.5 -25h-45v93h57q45 -5 59 44zM224 592q-65 0 -106.5 38t-47.5 114h78q3 -39 22.5 -60t53.5 -21t53.5 21t22.5 60h78q-6 -76 -47.5 -114t-106.5 -38z" />
    <glyph glyph-name="afii10193" unicode="&#x45f;" horiz-adv-x="532" 
d="M71 0v525h95v-431h200v431h95v-525h-148v-116h-95v116h-147z" />
    <glyph glyph-name="afii10050" unicode="&#x490;" horiz-adv-x="473" 
d="M370 819h96v-202h-298v-617h-97v713h299v106z" />
    <glyph glyph-name="afii10098" unicode="&#x491;" horiz-adv-x="432" 
d="M314 629h95v-197h-242v-432h-95v525h242v104z" />
    <glyph glyph-name="ddotbelow" unicode="&#x1e0d;" horiz-adv-x="525" 
d="M156 341v-158q0 -46 26.5 -72.5t74.5 -27.5q61 1 81 33q21 32 20 67v158q0 47 -26.5 72.5t-74.5 25.5q-60 -1 -81 -33q-21 -31 -20 -65zM61 183v158q0 88 53 139.5t143 51.5q67 -2 101 -43v224h95v-713h-95v32q-13 -16 -42 -28.5t-59 -13.5q-88 0 -142 53t-54 140z
M316 -197h-103v119h103v-119z" />
    <glyph glyph-name="hdotbelow" unicode="&#x1e25;" horiz-adv-x="529" 
d="M462 0h-95v341q2 35 -15 65q-17 32 -76 33q-47 -1 -78 -27.5t-32 -68.5v-343h-95v713h95v-218q43 37 110 37q91 0 138.5 -50t47.5 -141v-341zM314 -197h-103v119h103v-119z" />
    <glyph glyph-name="sdotbelow" unicode="&#x1e63;" horiz-adv-x="479" 
d="M439 161q0 -87 -56.5 -128t-144.5 -41q-85 0 -139 48.5t-58 131.5h96q11 -88 102 -88q43 0 73.5 17.5t32.5 53.5q-5 44 -53 54q-14 4 -125 34q-52 14 -76 38q-42 43 -42 96q0 76 53.5 115t133.5 39q82 0 134.5 -44t60.5 -124h-98q-13 76 -99 76q-87 0 -91 -60
q1 -35 49 -46q117 -32 133 -37q51 -16 82 -50t32 -85zM285 -197h-103v119h103v-119z" />
    <glyph glyph-name="tdotbelow" unicode="&#x1e6d;" horiz-adv-x="350" 
d="M12 432v93h95v188h95v-188h109v-93h-109v-295q5 -47 41 -44h70v-93h-74q-60 0 -96 34.5t-36 106.5v291h-95zM277 -197h-103v119h103v-119z" />
    <glyph glyph-name="Wgrave" unicode="&#x1e80;" horiz-adv-x="781" 
d="M764 713l-149 -713h-99l-125 511l-128 -511h-98l-148 713h98l106 -539l129 539h81l127 -537l107 537h99zM439 780h-92l-100 169h109z" />
    <glyph glyph-name="wgrave" unicode="&#x1e81;" horiz-adv-x="680" 
d="M653 525l-124 -525h-90l-99 379l-100 -379h-88l-125 525h98l78 -382l96 382h82l96 -382l78 382h98zM382 593h-92l-100 169h109z" />
    <glyph glyph-name="Wacute" unicode="&#x1e82;" horiz-adv-x="781" 
d="M764 713l-149 -713h-99l-125 511l-128 -511h-98l-148 713h98l106 -539l129 539h81l127 -537l107 537h99zM438 780h-92l83 169h109z" />
    <glyph glyph-name="wacute" unicode="&#x1e83;" horiz-adv-x="680" 
d="M653 525l-124 -525h-90l-99 379l-100 -379h-88l-125 525h98l78 -382l96 382h82l96 -382l78 382h98zM391 593h-92l83 169h109z" />
    <glyph glyph-name="Wdieresis" unicode="&#x1e84;" horiz-adv-x="781" 
d="M764 713l-149 -713h-99l-125 511l-128 -511h-98l-148 713h98l106 -539l129 539h81l127 -537l107 537h99zM545 780h-103v119h103v-119zM339 780h-103v119h103v-119z" />
    <glyph glyph-name="wdieresis" unicode="&#x1e85;" horiz-adv-x="680" 
d="M653 525l-124 -525h-90l-99 379l-100 -379h-88l-125 525h98l78 -382l96 382h82l96 -382l78 382h98zM494 608h-103v119h103v-119zM288 608h-103v119h103v-119z" />
    <glyph glyph-name="zdotbelow" unicode="&#x1e93;" horiz-adv-x="437" 
d="M405 0h-373v80l237 352h-229v93h345v-80l-237 -352h257v-93zM272 -197h-103v119h103v-119z" />
    <glyph glyph-name="Adotbelow" unicode="&#x1ea0;" horiz-adv-x="547" 
d="M531 0h-99l-50 194h-215l-51 -194h-100l186 713h140zM357 290l-82 322l-85 -322h167zM327 -197h-103v119h103v-119z" />
    <glyph glyph-name="adotbelow" unicode="&#x1ea1;" horiz-adv-x="509" 
d="M442 359v-359h-95v40q-38 -49 -122 -49q-70 0 -124.5 45t-54.5 128q0 74 51 113t135 39h115v40q-1 85 -94 83q-82 2 -94 -71h-95q9 85 64 124.5t124 39.5q79 0 134.5 -42t55.5 -131zM347 185v46h-114q-44 0 -68 -18t-24 -48q1 -43 27.5 -63t68.5 -19q43 1 75.5 29.5
t34.5 72.5zM305 -197h-103v119h103v-119z" />
    <glyph glyph-name="Ahookabove" unicode="&#x1ea2;" horiz-adv-x="547" 
d="M531 0h-99l-50 194h-215l-51 -194h-100l186 713h140zM357 290l-82 322l-85 -322h167zM259 753v71q37 3 39 36q-1 30 -36 35q-32 -9 -34 -18l-53 41q0 2 23 22t65 23q45 -1 74.5 -30t30.5 -74q-1 -43 -31 -73t-78 -33z" />
    <glyph glyph-name="ahookabove" unicode="&#x1ea3;" horiz-adv-x="509" 
d="M442 359v-359h-95v40q-38 -49 -122 -49q-70 0 -124.5 45t-54.5 128q0 74 51 113t135 39h115v40q-1 85 -94 83q-82 2 -94 -71h-95q9 85 64 124.5t124 39.5q79 0 134.5 -42t55.5 -131zM347 185v46h-114q-44 0 -68 -18t-24 -48q1 -43 27.5 -63t68.5 -19q43 1 75.5 29.5
t34.5 72.5zM242 579v71q38 3 39 36q-1 30 -36 35q-32 -9 -34 -18l-53 41q0 2 23 22t65 23q45 -1 74.5 -30t30.5 -74q-1 -43 -31 -73t-78 -33z" />
    <glyph glyph-name="Acircumflexacute" unicode="&#x1ea4;" horiz-adv-x="547" 
d="M531 0h-99l-50 194h-215l-51 -194h-100l186 713h140zM357 290l-82 322l-85 -322h167zM421 739h-96l-50 45l-50 -45h-95l113 113h63zM438 973l-104 -84h-87l90 84h101z" />
    <glyph glyph-name="acircumflexacute" unicode="&#x1ea5;" horiz-adv-x="509" 
d="M442 359v-359h-95v40q-38 -49 -122 -49q-70 0 -124.5 45t-54.5 128q0 74 51 113t135 39h115v40q-1 85 -94 83q-82 2 -94 -71h-95q9 85 64 124.5t124 39.5q79 0 134.5 -42t55.5 -131zM347 185v46h-114q-44 0 -68 -18t-24 -48q1 -43 27.5 -63t68.5 -19q43 1 75.5 29.5
t34.5 72.5zM400 574h-96l-50 45l-50 -45h-95l113 113h63zM417 808l-104 -84h-87l90 84h101z" />
    <glyph glyph-name="Acircumflexgrave" unicode="&#x1ea6;" horiz-adv-x="547" 
d="M531 0h-99l-50 194h-215l-51 -194h-100l186 713h140zM357 290l-82 322l-85 -322h167zM422 739h-96l-50 45l-50 -45h-95l113 113h63zM224 889l-104 84h101l90 -84h-87z" />
    <glyph glyph-name="acircumflexgrave" unicode="&#x1ea7;" horiz-adv-x="509" 
d="M442 359v-359h-95v40q-38 -49 -122 -49q-70 0 -124.5 45t-54.5 128q0 74 51 113t135 39h115v40q-1 85 -94 83q-82 2 -94 -71h-95q9 85 64 124.5t124 39.5q79 0 134.5 -42t55.5 -131zM347 185v46h-114q-44 0 -68 -18t-24 -48q1 -43 27.5 -63t68.5 -19q43 1 75.5 29.5
t34.5 72.5zM401 574h-96l-50 45l-50 -45h-95l113 113h63zM203 724l-104 84h101l90 -84h-87z" />
    <glyph glyph-name="Acircumflexhookabove" unicode="&#x1ea8;" horiz-adv-x="547" 
d="M531 0h-99l-50 194h-215l-51 -194h-100l186 713h140zM357 290l-82 322l-85 -322h167zM263 969l-51 38q34 35 68 34q38 -1 62 -25t25 -61q-1 -36 -26.5 -61t-63.5 -26v65q25 1 26 22q0 21 -24 22q-5 0 -16 -8zM422 739h-96l-50 45l-50 -45h-95l113 113h63z" />
    <glyph glyph-name="acircumflexhookabove" unicode="&#x1ea9;" horiz-adv-x="509" 
d="M442 359v-359h-95v40q-38 -49 -122 -49q-70 0 -124.5 45t-54.5 128q0 74 51 113t135 39h115v40q-1 85 -94 83q-82 2 -94 -71h-95q9 85 64 124.5t124 39.5q79 0 134.5 -42t55.5 -131zM347 185v46h-114q-44 0 -68 -18t-24 -48q1 -43 27.5 -63t68.5 -19q43 1 75.5 29.5
t34.5 72.5zM242 804l-51 38q34 35 68 34q38 -1 62 -25t25 -61q-1 -36 -26.5 -61t-63.5 -26v65q25 1 26 22q0 20 -24 22q-5 0 -16 -8zM401 574h-96l-50 45l-50 -45h-95l113 113h63z" />
    <glyph glyph-name="Acircumflextilde" unicode="&#x1eaa;" horiz-adv-x="547" 
d="M531 0h-99l-50 194h-215l-51 -194h-100l186 713h140zM357 290l-82 322l-85 -322h167zM358 979l46 -45q-54 -51 -87 -49q-59 18 -92 32q-7 6 -41 -26l-46 44q53 52 89 50q60 -19 90 -32q9 -4 41 26zM422 739h-96l-50 45l-50 -45h-95l113 113h63z" />
    <glyph glyph-name="acircumflextilde" unicode="&#x1eab;" horiz-adv-x="509" 
d="M442 359v-359h-95v40q-38 -49 -122 -49q-70 0 -124.5 45t-54.5 128q0 74 51 113t135 39h115v40q-1 85 -94 83q-82 2 -94 -71h-95q9 85 64 124.5t124 39.5q79 0 134.5 -42t55.5 -131zM347 185v46h-114q-44 0 -68 -18t-24 -48q1 -43 27.5 -63t68.5 -19q43 1 75.5 29.5
t34.5 72.5zM334 814l46 -45q-54 -51 -87 -49q-59 18 -92 32q-7 6 -41 -26l-46 44q53 52 89 50q60 -19 90 -32q9 -4 41 26zM398 574h-96l-50 45l-50 -45h-95l113 113h63z" />
    <glyph glyph-name="Acircumflexdotbelow" unicode="&#x1eac;" horiz-adv-x="547" 
d="M531 0h-99l-50 194h-215l-51 -194h-100l186 713h140zM357 290l-82 322l-85 -322h167zM326 -197h-103v119h103v-119zM334 780l-60 79l-60 -79h-88l109 161h78l110 -161h-89z" />
    <glyph glyph-name="acircumflexdotbelow" unicode="&#x1ead;" horiz-adv-x="509" 
d="M442 359v-359h-95v40q-38 -49 -122 -49q-70 0 -124.5 45t-54.5 128q0 74 51 113t135 39h115v40q-1 85 -94 83q-82 2 -94 -71h-95q9 85 64 124.5t124 39.5q79 0 134.5 -42t55.5 -131zM347 185v46h-114q-44 0 -68 -18t-24 -48q1 -43 27.5 -63t68.5 -19q43 1 75.5 29.5
t34.5 72.5zM306 -197h-103v119h103v-119zM314 596l-60 79l-60 -79h-88l109 161h78l110 -161h-89z" />
    <glyph glyph-name="Abreveacute" unicode="&#x1eae;" horiz-adv-x="547" 
d="M531 0h-99l-50 194h-215l-51 -194h-100l186 713h140zM357 290l-82 322l-85 -322h167zM275 739q-51 1 -84 34t-34 86h73q1 -47 45 -49q44 2 45 49h73q-1 -53 -34 -86t-84 -34zM410 968l-104 -84h-87l90 84h101z" />
    <glyph glyph-name="abreveacute" unicode="&#x1eaf;" horiz-adv-x="509" 
d="M442 359v-359h-95v40q-38 -49 -122 -49q-70 0 -124.5 45t-54.5 128q0 74 51 113t135 39h115v40q-1 85 -94 83q-82 2 -94 -71h-95q9 85 64 124.5t124 39.5q79 0 134.5 -42t55.5 -131zM347 185v46h-114q-44 0 -68 -18t-24 -48q1 -43 27.5 -63t68.5 -19q43 1 75.5 29.5
t34.5 72.5zM251 570q-51 1 -84 34t-34 86h73q1 -47 45 -49q44 2 45 49h73q-1 -53 -34 -86t-84 -34zM386 799l-104 -84h-87l90 84h101z" />
    <glyph glyph-name="Abrevegrave" unicode="&#x1eb0;" horiz-adv-x="547" 
d="M531 0h-99l-50 194h-215l-51 -194h-100l186 713h140zM357 290l-82 322l-85 -322h167zM250 884l-104 84h101l90 -84h-87zM274 739q-51 1 -84 34t-34 86h73q1 -47 45 -49q44 2 45 49h73q-1 -53 -34 -86t-84 -34z" />
    <glyph glyph-name="abrevegrave" unicode="&#x1eb1;" horiz-adv-x="509" 
d="M442 359v-359h-95v40q-38 -49 -122 -49q-70 0 -124.5 45t-54.5 128q0 74 51 113t135 39h115v40q-1 85 -94 83q-82 2 -94 -71h-95q9 85 64 124.5t124 39.5q79 0 134.5 -42t55.5 -131zM347 185v46h-114q-44 0 -68 -18t-24 -48q1 -43 27.5 -63t68.5 -19q43 1 75.5 29.5
t34.5 72.5zM228 715l-104 84h101l90 -84h-87zM252 570q-51 1 -84 34t-34 86h73q1 -47 45 -49q44 2 45 49h73q-1 -53 -34 -86t-84 -34z" />
    <glyph glyph-name="Abrevehookabove" unicode="&#x1eb2;" horiz-adv-x="547" 
d="M531 0h-99l-50 194h-215l-51 -194h-100l186 713h140zM357 290l-82 322l-85 -322h167zM261 966l-51 38q34 35 68 34q38 -1 62 -25t25 -61q-1 -36 -26.5 -61t-63.5 -26v65q25 1 26 22q0 20 -24 22q-5 0 -16 -8zM274 739q-51 1 -84 34t-34 86h73q1 -47 45 -49q44 2 45 49h73
q-1 -53 -34 -86t-84 -34z" />
    <glyph glyph-name="abrevehookabove" unicode="&#x1eb3;" horiz-adv-x="509" 
d="M442 359v-359h-95v40q-38 -49 -122 -49q-70 0 -124.5 45t-54.5 128q0 74 51 113t135 39h115v40q-1 85 -94 83q-82 2 -94 -71h-95q9 85 64 124.5t124 39.5q79 0 134.5 -42t55.5 -131zM347 185v46h-114q-44 0 -68 -18t-24 -48q1 -43 27.5 -63t68.5 -19q43 1 75.5 29.5
t34.5 72.5zM240 797l-51 38q34 35 68 34q38 -1 62 -25t25 -61q-1 -36 -26.5 -61t-63.5 -26v65q25 1 26 22q0 21 -24 22q-5 0 -16 -8zM253 570q-51 1 -84 34t-34 86h73q1 -47 45 -49q44 2 45 49h73q-1 -53 -34 -86t-84 -34z" />
    <glyph glyph-name="Abrevetilde" unicode="&#x1eb4;" horiz-adv-x="547" 
d="M531 0h-99l-50 194h-215l-51 -194h-100l186 713h140zM357 290l-82 322l-85 -322h167zM357 986l46 -45q-54 -51 -87 -49q-59 18 -92 32q-7 6 -41 -26l-46 44q53 52 89 50q60 -19 90 -32q9 -4 41 26zM275 739q-51 1 -84 34t-34 86h73q1 -47 45 -49q44 2 45 49h73
q-1 -53 -34 -86t-84 -34z" />
    <glyph glyph-name="abrevetilde" unicode="&#x1eb5;" horiz-adv-x="509" 
d="M442 359v-359h-95v40q-38 -49 -122 -49q-70 0 -124.5 45t-54.5 128q0 74 51 113t135 39h115v40q-1 85 -94 83q-82 2 -94 -71h-95q9 85 64 124.5t124 39.5q79 0 134.5 -42t55.5 -131zM347 185v46h-114q-44 0 -68 -18t-24 -48q1 -43 27.5 -63t68.5 -19q43 1 75.5 29.5
t34.5 72.5zM337 817l46 -45q-54 -51 -87 -49q-59 18 -92 32q-7 6 -41 -26l-46 44q53 52 89 50q60 -19 90 -32q9 -4 41 26zM255 570q-51 1 -84 34t-34 86h73q1 -47 45 -49q44 2 45 49h73q-1 -53 -34 -86t-84 -34z" />
    <glyph glyph-name="Abrevedotbelow" unicode="&#x1eb6;" horiz-adv-x="547" 
d="M531 0h-99l-50 194h-215l-51 -194h-100l186 713h140zM357 290l-82 322l-85 -322h167zM327 -197h-103v119h103v-119zM274 780q-65 0 -106.5 38t-47.5 114h78q3 -39 22.5 -60t53.5 -21t53.5 21t22.5 60h78q-6 -76 -47.5 -114t-106.5 -38z" />
    <glyph glyph-name="abrevedotbelow" unicode="&#x1eb7;" horiz-adv-x="509" 
d="M442 359v-359h-95v40q-38 -49 -122 -49q-70 0 -124.5 45t-54.5 128q0 74 51 113t135 39h115v40q-1 85 -94 83q-82 2 -94 -71h-95q9 85 64 124.5t124 39.5q79 0 134.5 -42t55.5 -131zM347 185v46h-114q-44 0 -68 -18t-24 -48q1 -43 27.5 -63t68.5 -19q43 1 75.5 29.5
t34.5 72.5zM306 -197h-103v119h103v-119zM254 592q-65 0 -106.5 38t-47.5 114h78q3 -39 22.5 -60t53.5 -21t53.5 21t22.5 60h78q-6 -76 -47.5 -114t-106.5 -38z" />
    <glyph glyph-name="Edotbelow" unicode="&#x1eb8;" horiz-adv-x="508" 
d="M467 0h-396v713h396v-96h-299v-194h277v-96h-277v-231h299v-96zM322 -197h-103v119h103v-119z" />
    <glyph glyph-name="edotbelow" unicode="&#x1eb9;" horiz-adv-x="515" 
d="M459 341v-113h-303v-45q-1 -36 21 -67q23 -32 83 -33q41 0 67 23.5t33 65.5h97q-10 -84 -63 -133t-134 -49q-90 0 -144.5 52.5t-54.5 140.5v158q0 86 55.5 138.5t143.5 52.5q90 0 144.5 -51.5t54.5 -139.5zM364 320v21q1 34 -22 65q-23 32 -82 33q-49 0 -76.5 -25.5
t-27.5 -72.5v-21h208zM312 -197h-103v119h103v-119z" />
    <glyph glyph-name="Ehookabove" unicode="&#x1eba;" horiz-adv-x="508" 
d="M467 0h-396v713h396v-96h-299v-194h277v-96h-277v-231h299v-96zM255 753v71q37 3 39 36q-1 30 -36 35q-32 -9 -34 -18l-53 41q0 2 23 22t65 23q45 -1 74.5 -30t30.5 -74q-1 -43 -31 -73t-78 -33z" />
    <glyph glyph-name="ehookabove" unicode="&#x1ebb;" horiz-adv-x="515" 
d="M459 341v-113h-303v-45q-1 -36 21 -67q23 -32 83 -33q41 0 67 23.5t33 65.5h97q-10 -84 -63 -133t-134 -49q-90 0 -144.5 52.5t-54.5 140.5v158q0 86 55.5 138.5t143.5 52.5q90 0 144.5 -51.5t54.5 -139.5zM364 320v21q1 34 -22 65q-23 32 -82 33q-49 0 -76.5 -25.5
t-27.5 -72.5v-21h208zM249 579v71q37 3 39 36q-1 30 -36 35q-32 -9 -34 -18l-53 41q0 2 23 22t65 23q45 -1 74.5 -30t30.5 -74q-1 -43 -31 -73t-78 -33z" />
    <glyph glyph-name="Etilde" unicode="&#x1ebc;" horiz-adv-x="508" 
d="M467 0h-396v713h396v-96h-299v-194h277v-96h-277v-231h299v-96zM388 897l57 -56q-66 -63 -109 -61q-30 3 -63 20q-33 19 -52 20q-9 8 -51 -33l-57 55q66 64 111 62q30 -1 61 -20q32 -18 52 -19q10 -6 51 32z" />
    <glyph glyph-name="etilde" unicode="&#x1ebd;" horiz-adv-x="515" 
d="M459 341v-113h-303v-45q-1 -36 21 -67q23 -32 83 -33q41 0 67 23.5t33 65.5h97q-10 -84 -63 -133t-134 -49q-90 0 -144.5 52.5t-54.5 140.5v158q0 86 55.5 138.5t143.5 52.5q90 0 144.5 -51.5t54.5 -139.5zM364 320v21q1 34 -22 65q-23 32 -82 33q-49 0 -76.5 -25.5
t-27.5 -72.5v-21h208zM370 713l57 -56q-66 -63 -109 -61q-30 3 -63 20q-33 19 -52 20q-9 8 -51 -33l-57 55q66 64 111 62q30 -1 61 -20q32 -18 52 -19q10 -6 51 32z" />
    <glyph glyph-name="Ecircumflexacute" unicode="&#x1ebe;" horiz-adv-x="508" 
d="M467 0h-396v713h396v-96h-299v-194h277v-96h-277v-231h299v-96zM421 739h-96l-50 45l-50 -45h-95l113 113h63zM438 973l-104 -84h-87l90 84h101z" />
    <glyph glyph-name="ecircumflexacute" unicode="&#x1ebf;" horiz-adv-x="515" 
d="M459 341v-113h-303v-45q-1 -36 21 -67q23 -32 83 -33q41 0 67 23.5t33 65.5h97q-10 -84 -63 -133t-134 -49q-90 0 -144.5 52.5t-54.5 140.5v158q0 86 55.5 138.5t143.5 52.5q90 0 144.5 -51.5t54.5 -139.5zM364 320v21q1 34 -22 65q-23 32 -82 33q-49 0 -76.5 -25.5
t-27.5 -72.5v-21h208zM408 574h-96l-50 45l-50 -45h-95l113 113h63zM425 808l-104 -84h-87l90 84h101z" />
    <glyph glyph-name="Ecircumflexgrave" unicode="&#x1ec0;" horiz-adv-x="508" 
d="M467 0h-396v713h396v-96h-299v-194h277v-96h-277v-231h299v-96zM422 739h-96l-50 45l-50 -45h-95l113 113h63zM224 889l-104 84h101l90 -84h-87z" />
    <glyph glyph-name="ecircumflexgrave" unicode="&#x1ec1;" horiz-adv-x="515" 
d="M459 341v-113h-303v-45q-1 -36 21 -67q23 -32 83 -33q41 0 67 23.5t33 65.5h97q-10 -84 -63 -133t-134 -49q-90 0 -144.5 52.5t-54.5 140.5v158q0 86 55.5 138.5t143.5 52.5q90 0 144.5 -51.5t54.5 -139.5zM364 320v21q1 34 -22 65q-23 32 -82 33q-49 0 -76.5 -25.5
t-27.5 -72.5v-21h208zM407 574h-96l-50 45l-50 -45h-95l113 113h63zM209 724l-104 84h101l90 -84h-87z" />
    <glyph glyph-name="Ecircumflexhookabove" unicode="&#x1ec2;" horiz-adv-x="508" 
d="M467 0h-396v713h396v-96h-299v-194h277v-96h-277v-231h299v-96zM263 969l-51 38q34 35 68 34q38 -1 62 -25t25 -61q-1 -36 -26.5 -61t-63.5 -26v65q25 1 26 22q0 21 -24 22q-5 0 -16 -8zM422 739h-96l-50 45l-50 -45h-95l113 113h63z" />
    <glyph glyph-name="ecircumflexhookabove" unicode="&#x1ec3;" horiz-adv-x="515" 
d="M459 341v-113h-303v-45q-1 -36 21 -67q23 -32 83 -33q41 0 67 23.5t33 65.5h97q-10 -84 -63 -133t-134 -49q-90 0 -144.5 52.5t-54.5 140.5v158q0 86 55.5 138.5t143.5 52.5q90 0 144.5 -51.5t54.5 -139.5zM364 320v21q1 34 -22 65q-23 32 -82 33q-49 0 -76.5 -25.5
t-27.5 -72.5v-21h208zM248 804l-51 38q34 35 68 34q38 -1 62 -25t25 -61q-1 -36 -26.5 -61t-63.5 -26v65q25 1 26 22q0 20 -24 22q-5 0 -16 -8zM407 574h-96l-50 45l-50 -45h-95l113 113h63z" />
    <glyph glyph-name="Ecircumflextilde" unicode="&#x1ec4;" horiz-adv-x="508" 
d="M467 0h-396v713h396v-96h-299v-194h277v-96h-277v-231h299v-96zM358 979l46 -45q-54 -51 -87 -49q-59 18 -92 32q-7 6 -41 -26l-46 44q53 52 89 50q60 -19 90 -32q9 -4 41 26zM422 739h-96l-50 45l-50 -45h-95l113 113h63z" />
    <glyph glyph-name="ecircumflextilde" unicode="&#x1ec5;" horiz-adv-x="515" 
d="M459 341v-113h-303v-45q-1 -36 21 -67q23 -32 83 -33q41 0 67 23.5t33 65.5h97q-10 -84 -63 -133t-134 -49q-90 0 -144.5 52.5t-54.5 140.5v158q0 86 55.5 138.5t143.5 52.5q90 0 144.5 -51.5t54.5 -139.5zM364 320v21q1 34 -22 65q-23 32 -82 33q-49 0 -76.5 -25.5
t-27.5 -72.5v-21h208zM344 814l46 -45q-54 -51 -87 -49q-59 18 -92 32q-7 6 -41 -26l-46 44q53 52 89 50q60 -19 90 -32q9 -4 41 26zM408 574h-96l-50 45l-50 -45h-95l113 113h63z" />
    <glyph glyph-name="Ecircumflexdotbelow" unicode="&#x1ec6;" horiz-adv-x="508" 
d="M467 0h-396v713h396v-96h-299v-194h277v-96h-277v-231h299v-96zM330 780l-60 79l-60 -79h-88l109 161h78l110 -161h-89zM322 -197h-103v119h103v-119z" />
    <glyph glyph-name="ecircumflexdotbelow" unicode="&#x1ec7;" horiz-adv-x="515" 
d="M459 341v-113h-303v-45q-1 -36 21 -67q23 -32 83 -33q41 0 67 23.5t33 65.5h97q-10 -84 -63 -133t-134 -49q-90 0 -144.5 52.5t-54.5 140.5v158q0 86 55.5 138.5t143.5 52.5q90 0 144.5 -51.5t54.5 -139.5zM364 320v21q1 34 -22 65q-23 32 -82 33q-49 0 -76.5 -25.5
t-27.5 -72.5v-21h208zM313 -197h-103v119h103v-119zM319 596l-60 79l-60 -79h-88l109 161h78l110 -161h-89z" />
    <glyph glyph-name="Ihookabove" unicode="&#x1ec8;" horiz-adv-x="240" 
d="M71 713h97v-713h-97v713zM106 753v71q38 3 39 36q-1 30 -36 35q-32 -9 -34 -18l-53 41q0 2 23 22t65 23q45 -1 74.5 -30t30.5 -74q-1 -43 -31 -73t-78 -33z" />
    <glyph glyph-name="ihookabove" unicode="&#x1ec9;" horiz-adv-x="236" 
d="M165 0h-94v525h94v-525zM103 579v71q37 3 39 36q-1 30 -36 35q-32 -9 -34 -18l-53 41q0 2 23 22t65 23q45 -1 74.5 -30t30.5 -74q-1 -43 -31 -73t-78 -33z" />
    <glyph glyph-name="Idotbelow" unicode="&#x1eca;" horiz-adv-x="240" 
d="M71 713h97v-713h-97v713zM171 -197h-103v119h103v-119z" />
    <glyph glyph-name="idotbelow" unicode="&#x1ecb;" horiz-adv-x="253" 
d="M174 0h-95v525h95v-525zM180 594h-107v122h107v-122zM177 -197h-103v119h103v-119z" />
    <glyph glyph-name="Odotbelow" unicode="&#x1ecc;" 
d="M474 525v-337q0 -65 -42 -123q-60 -72 -165 -74q-56 0 -110 27q-44 22 -71.5 76.5t-24.5 94.5v337q0 66 41 120q35 43 75 57.5t91 15.5q58 0 109 -27q43 -20 71.5 -74t25.5 -93zM377 189v335q0 32 -12 52q-12 21 -40.5 35.5t-56.5 12.5q-30 2 -58 -13q-52 -28 -52 -87
v-335q0 -33 12 -54q13 -21 41 -36t57 -13q29 -2 57 13q28 16 40 36.5t12 53.5zM317 -197h-103v119h103v-119z" />
    <glyph glyph-name="odotbelow" unicode="&#x1ecd;" horiz-adv-x="520" 
d="M459 341v-158q0 -87 -55.5 -140t-143.5 -53q-90 0 -144.5 52.5t-54.5 140.5v158q0 86 55.5 138.5t143.5 52.5q90 0 144.5 -51.5t54.5 -139.5zM364 183v158q1 34 -22 65q-23 32 -82 33q-49 0 -76.5 -25.5t-27.5 -72.5v-158q-1 -36 21 -67q23 -32 83 -33q49 1 76.5 27.5
t27.5 72.5zM313 -197h-103v119h103v-119z" />
    <glyph glyph-name="Ohookabove" unicode="&#x1ece;" 
d="M474 525v-337q0 -65 -42 -123q-60 -72 -165 -74q-56 0 -110 27q-44 22 -71.5 76.5t-24.5 94.5v337q0 66 41 120q35 43 75 57.5t91 15.5q58 0 109 -27q43 -20 71.5 -74t25.5 -93zM377 189v335q0 32 -12 52q-12 21 -40.5 35.5t-56.5 12.5q-30 2 -58 -13q-52 -28 -52 -87
v-335q0 -33 12 -54q13 -21 41 -36t57 -13q29 -2 57 13q28 16 40 36.5t12 53.5zM255 753v71q37 3 39 36q-1 30 -36 35q-32 -9 -34 -18l-53 41q0 2 23 22t65 23q45 -1 74.5 -30t30.5 -74q-1 -43 -31 -73t-78 -33z" />
    <glyph glyph-name="ohookabove" unicode="&#x1ecf;" horiz-adv-x="520" 
d="M459 341v-158q0 -87 -55.5 -140t-143.5 -53q-90 0 -144.5 52.5t-54.5 140.5v158q0 86 55.5 138.5t143.5 52.5q90 0 144.5 -51.5t54.5 -139.5zM364 183v158q1 34 -22 65q-23 32 -82 33q-49 0 -76.5 -25.5t-27.5 -72.5v-158q-1 -36 21 -67q23 -32 83 -33q49 1 76.5 27.5
t27.5 72.5zM249 579v71q37 3 39 36q-1 30 -36 35q-32 -9 -34 -18l-53 41q0 2 23 22t65 23q45 -1 74.5 -30t30.5 -74q-1 -43 -31 -73t-78 -33z" />
    <glyph glyph-name="Ocircumflexacute" unicode="&#x1ed0;" 
d="M474 525v-337q0 -65 -42 -123q-60 -72 -165 -74q-56 0 -110 27q-44 22 -71.5 76.5t-24.5 94.5v337q0 66 41 120q35 43 75 57.5t91 15.5q58 0 109 -27q43 -20 71.5 -74t25.5 -93zM377 189v335q0 32 -12 52q-12 21 -40.5 35.5t-56.5 12.5q-30 2 -58 -13q-52 -28 -52 -87
v-335q0 -33 12 -54q13 -21 41 -36t57 -13q29 -2 57 13q28 16 40 36.5t12 53.5zM421 739h-96l-50 45l-50 -45h-95l113 113h63zM438 973l-104 -84h-87l90 84h101z" />
    <glyph glyph-name="ocircumflexacute" unicode="&#x1ed1;" horiz-adv-x="520" 
d="M459 341v-158q0 -87 -55.5 -140t-143.5 -53q-90 0 -144.5 52.5t-54.5 140.5v158q0 86 55.5 138.5t143.5 52.5q90 0 144.5 -51.5t54.5 -139.5zM364 183v158q1 34 -22 65q-23 32 -82 33q-49 0 -76.5 -25.5t-27.5 -72.5v-158q-1 -36 21 -67q23 -32 83 -33q49 1 76.5 27.5
t27.5 72.5zM408 574h-96l-50 45l-50 -45h-95l113 113h63zM425 808l-104 -84h-87l90 84h101z" />
    <glyph glyph-name="Ocircumflexgrave" unicode="&#x1ed2;" 
d="M474 525v-337q0 -65 -42 -123q-60 -72 -165 -74q-56 0 -110 27q-44 22 -71.5 76.5t-24.5 94.5v337q0 66 41 120q35 43 75 57.5t91 15.5q58 0 109 -27q43 -20 71.5 -74t25.5 -93zM377 189v335q0 32 -12 52q-12 21 -40.5 35.5t-56.5 12.5q-30 2 -58 -13q-52 -28 -52 -87
v-335q0 -33 12 -54q13 -21 41 -36t57 -13q29 -2 57 13q28 16 40 36.5t12 53.5zM412 739h-96l-50 45l-50 -45h-95l113 113h63zM214 889l-104 84h101l90 -84h-87z" />
    <glyph glyph-name="ocircumflexgrave" unicode="&#x1ed3;" horiz-adv-x="520" 
d="M459 341v-158q0 -87 -55.5 -140t-143.5 -53q-90 0 -144.5 52.5t-54.5 140.5v158q0 86 55.5 138.5t143.5 52.5q90 0 144.5 -51.5t54.5 -139.5zM364 183v158q1 34 -22 65q-23 32 -82 33q-49 0 -76.5 -25.5t-27.5 -72.5v-158q-1 -36 21 -67q23 -32 83 -33q49 1 76.5 27.5
t27.5 72.5zM407 574h-96l-50 45l-50 -45h-95l113 113h63zM209 724l-104 84h101l90 -84h-87z" />
    <glyph glyph-name="Ocircumflexhookabove" unicode="&#x1ed4;" 
d="M474 525v-337q0 -65 -42 -123q-60 -72 -165 -74q-56 0 -110 27q-44 22 -71.5 76.5t-24.5 94.5v337q0 66 41 120q35 43 75 57.5t91 15.5q58 0 109 -27q43 -20 71.5 -74t25.5 -93zM377 189v335q0 32 -12 52q-12 21 -40.5 35.5t-56.5 12.5q-30 2 -58 -13q-52 -28 -52 -87
v-335q0 -33 12 -54q13 -21 41 -36t57 -13q29 -2 57 13q28 16 40 36.5t12 53.5zM253 969l-51 38q34 35 68 34q38 -1 62 -25t25 -61q-1 -36 -26.5 -61t-63.5 -26v65q25 1 26 22q0 21 -24 22q-5 0 -16 -8zM412 739h-96l-50 45l-50 -45h-95l113 113h63z" />
    <glyph glyph-name="ocircumflexhookabove" unicode="&#x1ed5;" horiz-adv-x="520" 
d="M459 341v-158q0 -87 -55.5 -140t-143.5 -53q-90 0 -144.5 52.5t-54.5 140.5v158q0 86 55.5 138.5t143.5 52.5q90 0 144.5 -51.5t54.5 -139.5zM364 183v158q1 34 -22 65q-23 32 -82 33q-49 0 -76.5 -25.5t-27.5 -72.5v-158q-1 -36 21 -67q23 -32 83 -33q49 1 76.5 27.5
t27.5 72.5zM246 804l-51 38q34 35 68 34q38 -1 62 -25t25 -61q-1 -36 -26.5 -61t-63.5 -26v65q25 1 26 22q0 20 -24 22q-5 0 -16 -8zM405 574h-96l-50 45l-50 -45h-95l113 113h63z" />
    <glyph glyph-name="Ocircumflextilde" unicode="&#x1ed6;" 
d="M474 525v-337q0 -65 -42 -123q-60 -72 -165 -74q-56 0 -110 27q-44 22 -71.5 76.5t-24.5 94.5v337q0 66 41 120q35 43 75 57.5t91 15.5q58 0 109 -27q43 -20 71.5 -74t25.5 -93zM377 189v335q0 32 -12 52q-12 21 -40.5 35.5t-56.5 12.5q-30 2 -58 -13q-52 -28 -52 -87
v-335q0 -33 12 -54q13 -21 41 -36t57 -13q29 -2 57 13q28 16 40 36.5t12 53.5zM348 979l46 -45q-54 -51 -87 -49q-59 18 -92 32q-7 6 -41 -26l-46 44q53 52 89 50q60 -19 90 -32q9 -4 41 26zM412 739h-96l-50 45l-50 -45h-95l113 113h63z" />
    <glyph glyph-name="ocircumflextilde" unicode="&#x1ed7;" horiz-adv-x="520" 
d="M459 341v-158q0 -87 -55.5 -140t-143.5 -53q-90 0 -144.5 52.5t-54.5 140.5v158q0 86 55.5 138.5t143.5 52.5q90 0 144.5 -51.5t54.5 -139.5zM364 183v158q1 34 -22 65q-23 32 -82 33q-49 0 -76.5 -25.5t-27.5 -72.5v-158q-1 -36 21 -67q23 -32 83 -33q49 1 76.5 27.5
t27.5 72.5zM344 814l46 -45q-54 -51 -87 -49q-59 18 -92 32q-7 6 -41 -26l-46 44q53 52 89 50q60 -19 90 -32q9 -4 41 26zM408 574h-96l-50 45l-50 -45h-95l113 113h63z" />
    <glyph glyph-name="Ocircumflexdotbelow" unicode="&#x1ed8;" 
d="M474 525v-337q0 -65 -42 -123q-60 -72 -165 -74q-56 0 -110 27q-44 22 -71.5 76.5t-24.5 94.5v337q0 66 41 120q35 43 75 57.5t91 15.5q58 0 109 -27q43 -20 71.5 -74t25.5 -93zM377 189v335q0 32 -12 52q-12 21 -40.5 35.5t-56.5 12.5q-30 2 -58 -13q-52 -28 -52 -87
v-335q0 -33 12 -54q13 -21 41 -36t57 -13q29 -2 57 13q28 16 40 36.5t12 53.5zM326 780l-60 79l-60 -79h-88l109 161h78l110 -161h-89zM318 -197h-103v119h103v-119z" />
    <glyph glyph-name="ocircumflexdotbelow" unicode="&#x1ed9;" horiz-adv-x="520" 
d="M459 341v-158q0 -87 -55.5 -140t-143.5 -53q-90 0 -144.5 52.5t-54.5 140.5v158q0 86 55.5 138.5t143.5 52.5q90 0 144.5 -51.5t54.5 -139.5zM364 183v158q1 34 -22 65q-23 32 -82 33q-49 0 -76.5 -25.5t-27.5 -72.5v-158q-1 -36 21 -67q23 -32 83 -33q49 1 76.5 27.5
t27.5 72.5zM319 596l-60 79l-60 -79h-88l109 161h78l110 -161h-89zM313 -197h-103v119h103v-119z" />
    <glyph glyph-name="Ohornacute" unicode="&#x1eda;" horiz-adv-x="587" 
d="M478 504v-306q0 -65 -42 -123q-60 -72 -165 -74q-56 0 -110 27q-44 22 -71.5 76.5t-24.5 94.5v337q0 66 41 120q35 43 75 57.5t91 15.5q81 0 130 -41t66 -98q38 6 38 47v76h86v-73q0 -124 -114 -136zM381 199v335q0 32 -12 52q-12 21 -40.5 35.5t-56.5 12.5
q-30 2 -58 -13q-52 -28 -52 -87v-335q0 -33 12 -54q13 -21 41 -36t57 -13q29 -2 57 13q28 16 40 36.5t12 53.5zM313 780h-92l83 169h109z" />
    <glyph glyph-name="ohornacute" unicode="&#x1edb;" horiz-adv-x="551" 
d="M459 330v-147q0 -87 -55.5 -140t-143.5 -53q-90 0 -144.5 52.5t-54.5 140.5v158q0 86 55.5 138.5t143.5 52.5q70 0 106 -24q62 -40 81 -95q25 6 25 38v74h84v-75q2 -103 -97 -120zM364 183v158q1 34 -22 65q-23 32 -82 33q-49 0 -76.5 -25.5t-27.5 -72.5v-158
q-1 -36 21 -67q23 -32 83 -33q49 1 76.5 27.5t27.5 72.5zM300 593h-92l83 169h109z" />
    <glyph glyph-name="Ohorngrave" unicode="&#x1edc;" horiz-adv-x="587" 
d="M478 504v-306q0 -65 -42 -123q-60 -72 -165 -74q-56 0 -110 27q-44 22 -71.5 76.5t-24.5 94.5v337q0 66 41 120q35 43 75 57.5t91 15.5q81 0 130 -41t66 -98q38 6 38 47v76h86v-73q0 -124 -114 -136zM381 199v335q0 32 -12 52q-12 21 -40.5 35.5t-56.5 12.5
q-30 2 -58 -13q-52 -28 -52 -87v-335q0 -33 12 -54q13 -21 41 -36t57 -13q29 -2 57 13q28 16 40 36.5t12 53.5zM323 780h-92l-100 169h109z" />
    <glyph glyph-name="ohorngrave" unicode="&#x1edd;" horiz-adv-x="551" 
d="M459 330v-147q0 -87 -55.5 -140t-143.5 -53q-90 0 -144.5 52.5t-54.5 140.5v158q0 86 55.5 138.5t143.5 52.5q70 0 106 -24q62 -40 81 -95q25 6 25 38v74h84v-75q2 -103 -97 -120zM364 183v158q1 34 -22 65q-23 32 -82 33q-49 0 -76.5 -25.5t-27.5 -72.5v-158
q-1 -36 21 -67q23 -32 83 -33q49 1 76.5 27.5t27.5 72.5zM320 593h-92l-100 169h109z" />
    <glyph glyph-name="Ohornhookabove" unicode="&#x1ede;" horiz-adv-x="587" 
d="M478 504v-306q0 -65 -42 -123q-60 -72 -165 -74q-56 0 -110 27q-44 22 -71.5 76.5t-24.5 94.5v337q0 66 41 120q35 43 75 57.5t91 15.5q81 0 130 -41t66 -98q38 6 38 47v76h86v-73q0 -124 -114 -136zM381 199v335q0 32 -12 52q-12 21 -40.5 35.5t-56.5 12.5
q-30 2 -58 -13q-52 -28 -52 -87v-335q0 -33 12 -54q13 -21 41 -36t57 -13q29 -2 57 13q28 16 40 36.5t12 53.5zM255 753v71q37 3 39 36q-1 30 -36 35q-32 -9 -34 -18l-53 41q0 2 23 22t65 23q45 -1 74.5 -30t30.5 -74q-1 -43 -31 -73t-78 -33z" />
    <glyph glyph-name="ohornhookabove" unicode="&#x1edf;" horiz-adv-x="551" 
d="M459 330v-147q0 -87 -55.5 -140t-143.5 -53q-90 0 -144.5 52.5t-54.5 140.5v158q0 86 55.5 138.5t143.5 52.5q70 0 106 -24q62 -40 81 -95q25 6 25 38v74h84v-75q2 -103 -97 -120zM364 183v158q1 34 -22 65q-23 32 -82 33q-49 0 -76.5 -25.5t-27.5 -72.5v-158
q-1 -36 21 -67q23 -32 83 -33q49 1 76.5 27.5t27.5 72.5zM249 579v71q37 3 39 36q-1 30 -36 35q-32 -9 -34 -18l-53 41q0 2 23 22t65 23q45 -1 74.5 -30t30.5 -74q-1 -43 -31 -73t-78 -33z" />
    <glyph glyph-name="Ohorntilde" unicode="&#x1ee0;" horiz-adv-x="587" 
d="M478 504v-306q0 -65 -42 -123q-60 -72 -165 -74q-56 0 -110 27q-44 22 -71.5 76.5t-24.5 94.5v337q0 66 41 120q35 43 75 57.5t91 15.5q81 0 130 -41t66 -98q38 6 38 47v76h86v-73q0 -124 -114 -136zM381 199v335q0 32 -12 52q-12 21 -40.5 35.5t-56.5 12.5
q-30 2 -58 -13q-52 -28 -52 -87v-335q0 -33 12 -54q13 -21 41 -36t57 -13q29 -2 57 13q28 16 40 36.5t12 53.5zM380 897l57 -56q-66 -63 -109 -61q-30 3 -63 20q-33 19 -52 20q-9 8 -51 -33l-57 55q66 64 111 62q30 -1 61 -20q32 -18 52 -19q10 -6 51 32z" />
    <glyph glyph-name="ohorntilde" unicode="&#x1ee1;" horiz-adv-x="551" 
d="M459 330v-147q0 -87 -55.5 -140t-143.5 -53q-90 0 -144.5 52.5t-54.5 140.5v158q0 86 55.5 138.5t143.5 52.5q70 0 106 -24q62 -40 81 -95q25 6 25 38v74h84v-75q2 -103 -97 -120zM364 183v158q1 34 -22 65q-23 32 -82 33q-49 0 -76.5 -25.5t-27.5 -72.5v-158
q-1 -36 21 -67q23 -32 83 -33q49 1 76.5 27.5t27.5 72.5zM370 713l57 -56q-66 -63 -109 -61q-30 3 -63 20q-33 19 -52 20q-9 8 -51 -33l-57 55q66 64 111 62q30 -1 61 -20q32 -18 52 -19q10 -6 51 32z" />
    <glyph glyph-name="Ohorndotbelow" unicode="&#x1ee2;" horiz-adv-x="587" 
d="M478 504v-306q0 -65 -42 -123q-60 -72 -165 -74q-56 0 -110 27q-44 22 -71.5 76.5t-24.5 94.5v337q0 66 41 120q35 43 75 57.5t91 15.5q81 0 130 -41t66 -98q38 6 38 47v76h86v-73q0 -124 -114 -136zM381 199v335q0 32 -12 52q-12 21 -40.5 35.5t-56.5 12.5
q-30 2 -58 -13q-52 -28 -52 -87v-335q0 -33 12 -54q13 -21 41 -36t57 -13q29 -2 57 13q28 16 40 36.5t12 53.5zM320 -197h-103v119h103v-119z" />
    <glyph glyph-name="ohorndotbelow" unicode="&#x1ee3;" horiz-adv-x="551" 
d="M459 330v-147q0 -87 -55.5 -140t-143.5 -53q-90 0 -144.5 52.5t-54.5 140.5v158q0 86 55.5 138.5t143.5 52.5q70 0 106 -24q62 -40 81 -95q25 6 25 38v74h84v-75q2 -103 -97 -120zM364 183v158q1 34 -22 65q-23 32 -82 33q-49 0 -76.5 -25.5t-27.5 -72.5v-158
q-1 -36 21 -67q23 -32 83 -33q49 1 76.5 27.5t27.5 72.5zM310 -197h-103v119h103v-119z" />
    <glyph glyph-name="Udotbelow" unicode="&#x1ee4;" 
d="M474 713v-525q0 -68 -41 -125q-34 -42 -73.5 -56t-91.5 -16q-60 0 -113 26q-44 22 -70.5 75.5t-23.5 96.5v524h97v-524q0 -33 12 -54q13 -21 41 -36t57 -13q31 -2 57 13q28 16 40 36.5t12 53.5v524h97zM320 -197h-103v119h103v-119z" />
    <glyph glyph-name="udotbelow" unicode="&#x1ee5;" horiz-adv-x="532" 
d="M460 0h-95v34q-40 -42 -102 -43q-90 0 -143 52t-53 140v342h95v-342q-1 -34 19 -67q21 -31 82 -32q46 1 73.5 26t28.5 68v347h95v-525zM319 -197h-103v119h103v-119z" />
    <glyph glyph-name="Uhookabove" unicode="&#x1ee6;" 
d="M474 713v-525q0 -68 -41 -125q-34 -42 -73.5 -56t-91.5 -16q-60 0 -113 26q-44 22 -70.5 75.5t-23.5 96.5v524h97v-524q0 -33 12 -54q13 -21 41 -36t57 -13q31 -2 57 13q28 16 40 36.5t12 53.5v524h97zM255 753v71q37 3 39 36q-1 30 -36 35q-32 -9 -34 -18l-53 41
q0 2 23 22t65 23q45 -1 74.5 -30t30.5 -74q-1 -43 -31 -73t-78 -33z" />
    <glyph glyph-name="uhookabove" unicode="&#x1ee7;" horiz-adv-x="532" 
d="M460 0h-95v34q-40 -42 -102 -43q-90 0 -143 52t-53 140v342h95v-342q-1 -34 19 -67q21 -31 82 -32q46 1 73.5 26t28.5 68v347h95v-525zM249 579v71q37 3 39 36q-1 30 -36 35q-32 -9 -34 -18l-53 41q0 2 23 22t65 23q45 -1 74.5 -30t30.5 -74q-1 -43 -31 -73t-78 -33z" />
    <glyph glyph-name="Uhornacute" unicode="&#x1ee8;" horiz-adv-x="618" 
d="M474 503v-315q0 -68 -41 -125q-34 -42 -73.5 -56t-91.5 -16q-60 0 -113 26q-44 22 -70.5 75.5t-23.5 96.5v524h97v-524q0 -33 12 -54q13 -21 41 -36t57 -13q31 -2 57 13q28 16 40 36.5t12 53.5v524h97v-124h15q43 1 43 46v78h86v-75q0 -135 -136 -135h-8zM303 780h-92
l83 169h109z" />
    <glyph glyph-name="uhornacute" unicode="&#x1ee9;" horiz-adv-x="599" 
d="M460 0h-95v34q-40 -42 -102 -43q-90 0 -143 52t-53 140v342h95v-342q-1 -34 19 -67q21 -31 82 -32q46 1 73.5 26t28.5 68v347h95v-114h20q40 0 40 41v73h84v-74q0 -124 -136 -124h-8v-327zM300 593h-92l83 169h109z" />
    <glyph glyph-name="Uhorngrave" unicode="&#x1eea;" horiz-adv-x="618" 
d="M474 503v-315q0 -68 -41 -125q-34 -42 -73.5 -56t-91.5 -16q-60 0 -113 26q-44 22 -70.5 75.5t-23.5 96.5v524h97v-524q0 -33 12 -54q13 -21 41 -36t57 -13q31 -2 57 13q28 16 40 36.5t12 53.5v524h97v-124h15q43 1 43 46v78h86v-75q0 -135 -136 -135h-8zM323 780h-92
l-100 169h109z" />
    <glyph glyph-name="uhorngrave" unicode="&#x1eeb;" horiz-adv-x="599" 
d="M460 0h-95v34q-40 -42 -102 -43q-90 0 -143 52t-53 140v342h95v-342q-1 -34 19 -67q21 -31 82 -32q46 1 73.5 26t28.5 68v347h95v-114h20q40 0 40 41v73h84v-74q0 -124 -136 -124h-8v-327zM320 593h-92l-100 169h109z" />
    <glyph glyph-name="Uhornhookabove" unicode="&#x1eec;" horiz-adv-x="618" 
d="M474 503v-315q0 -68 -41 -125q-34 -42 -73.5 -56t-91.5 -16q-60 0 -113 26q-44 22 -70.5 75.5t-23.5 96.5v524h97v-524q0 -33 12 -54q13 -21 41 -36t57 -13q31 -2 57 13q28 16 40 36.5t12 53.5v524h97v-124h15q43 1 43 46v78h86v-75q0 -135 -136 -135h-8zM255 753v71
q37 3 39 36q-1 30 -36 35q-32 -9 -34 -18l-53 41q0 2 23 22t65 23q45 -1 74.5 -30t30.5 -74q-1 -43 -31 -73t-78 -33z" />
    <glyph glyph-name="uhornhookabove" unicode="&#x1eed;" horiz-adv-x="599" 
d="M460 0h-95v34q-40 -42 -102 -43q-90 0 -143 52t-53 140v342h95v-342q-1 -34 19 -67q21 -31 82 -32q46 1 73.5 26t28.5 68v347h95v-114h20q40 0 40 41v73h84v-74q0 -124 -136 -124h-8v-327zM249 579v71q37 3 39 36q-1 30 -36 35q-32 -9 -34 -18l-53 41q0 2 23 22t65 23
q45 -1 74.5 -30t30.5 -74q-1 -43 -31 -73t-78 -33z" />
    <glyph glyph-name="Uhorntilde" unicode="&#x1eee;" horiz-adv-x="618" 
d="M474 503v-315q0 -68 -41 -125q-34 -42 -73.5 -56t-91.5 -16q-60 0 -113 26q-44 22 -70.5 75.5t-23.5 96.5v524h97v-524q0 -33 12 -54q13 -21 41 -36t57 -13q31 -2 57 13q28 16 40 36.5t12 53.5v524h97v-124h15q43 1 43 46v78h86v-75q0 -135 -136 -135h-8zM377 897l57 -56
q-66 -63 -109 -61q-30 3 -63 20q-33 19 -52 20q-9 8 -51 -33l-57 55q66 64 111 62q30 -1 61 -20q32 -18 52 -19q10 -6 51 32z" />
    <glyph glyph-name="uhorntilde" unicode="&#x1eef;" horiz-adv-x="599" 
d="M460 0h-95v34q-40 -42 -102 -43q-90 0 -143 52t-53 140v342h95v-342q-1 -34 19 -67q21 -31 82 -32q46 1 73.5 26t28.5 68v347h95v-114h20q40 0 40 41v73h84v-74q0 -124 -136 -124h-8v-327zM370 713l57 -56q-66 -63 -109 -61q-30 3 -63 20q-33 19 -52 20q-9 8 -51 -33
l-57 55q66 64 111 62q30 -1 61 -20q32 -18 52 -19q10 -6 51 32z" />
    <glyph glyph-name="Uhorndotbelow" unicode="&#x1ef0;" horiz-adv-x="618" 
d="M474 503v-315q0 -68 -41 -125q-34 -42 -73.5 -56t-91.5 -16q-60 0 -113 26q-44 22 -70.5 75.5t-23.5 96.5v524h97v-524q0 -33 12 -54q13 -21 41 -36t57 -13q31 -2 57 13q28 16 40 36.5t12 53.5v524h97v-124h15q43 1 43 46v78h86v-75q0 -135 -136 -135h-8zM320 -197h-103
v119h103v-119z" />
    <glyph glyph-name="uhorndotbelow" unicode="&#x1ef1;" horiz-adv-x="599" 
d="M460 0h-95v34q-40 -42 -102 -43q-90 0 -143 52t-53 140v342h95v-342q-1 -34 19 -67q21 -31 82 -32q46 1 73.5 26t28.5 68v347h95v-114h20q40 0 40 41v73h84v-74q0 -124 -136 -124h-8v-327zM320 -197h-103v119h103v-119z" />
    <glyph glyph-name="Ygrave" unicode="&#x1ef2;" horiz-adv-x="506" 
d="M489 713l-188 -455v-258h-97v260l-187 453h106l130 -327l131 327h105zM319 780h-92l-100 169h109z" />
    <glyph glyph-name="ygrave" unicode="&#x1ef3;" horiz-adv-x="450" 
d="M12 525h100l113 -411l114 411h99l-181 -622q-22 -79 -59.5 -104t-107.5 -25h-35v93h54q45 -5 59 44l24 89h-27zM288 593h-92l-100 169h109z" />
    <glyph glyph-name="Ydotbelow" unicode="&#x1ef4;" horiz-adv-x="506" 
d="M489 713l-188 -455v-258h-97v260l-187 453h106l130 -327l131 327h105zM305 -197h-103v119h103v-119z" />
    <glyph glyph-name="ydotbelow" unicode="&#x1ef5;" horiz-adv-x="450" 
d="M12 525h100l113 -411l114 411h99l-181 -622q-22 -79 -59.5 -104t-107.5 -25h-35v93h54q45 -5 59 44l24 89h-27zM424 -197h-103v119h103v-119z" />
    <glyph glyph-name="Yhookabove" unicode="&#x1ef6;" horiz-adv-x="506" 
d="M489 713l-188 -455v-258h-97v260l-187 453h106l130 -327l131 327h105zM241 753v71q37 3 39 36q-1 30 -36 35q-32 -9 -34 -18l-53 41q0 2 23 22t65 23q45 -1 74.5 -30t30.5 -74q-1 -43 -31 -73t-78 -33z" />
    <glyph glyph-name="yhookabove" unicode="&#x1ef7;" horiz-adv-x="450" 
d="M12 525h100l113 -411l114 411h99l-181 -622q-22 -79 -59.5 -104t-107.5 -25h-35v93h54q45 -5 59 44l24 89h-27zM212 579v71q38 3 39 36q-1 30 -36 35q-32 -9 -34 -18l-53 41q0 2 23 22t65 23q45 -1 74.5 -30t30.5 -74q-1 -43 -31 -73t-78 -33z" />
    <glyph glyph-name="Ytilde" unicode="&#x1ef8;" horiz-adv-x="506" 
d="M489 713l-188 -455v-258h-97v260l-187 453h106l130 -327l131 327h105zM362 897l57 -56q-66 -63 -109 -61q-30 3 -63 20q-33 19 -52 20q-9 8 -51 -33l-57 55q66 64 111 62q30 -1 61 -20q32 -18 52 -19q10 -6 51 32z" />
    <glyph glyph-name="ytilde" unicode="&#x1ef9;" horiz-adv-x="450" 
d="M12 525h100l113 -411l114 411h99l-181 -622q-22 -79 -59.5 -104t-107.5 -25h-35v93h54q45 -5 59 44l24 89h-27zM334 713l57 -56q-66 -63 -109 -61q-30 3 -63 20q-33 19 -52 20q-9 8 -51 -33l-57 55q66 64 111 62q30 -1 61 -20q32 -18 52 -19q10 -6 51 32z" />
    <glyph glyph-name="endash" unicode="&#x2013;" horiz-adv-x="569" 
d="M498 236h-427v90h427v-90z" />
    <glyph glyph-name="emdash" unicode="&#x2014;" horiz-adv-x="803" 
d="M732 236h-661v90h661v-90z" />
    <glyph glyph-name="afii00208" unicode="&#x2015;" horiz-adv-x="591" 
d="M626 236h-661v90h661v-90z" />
    <glyph glyph-name="quoteleft" unicode="&#x2018;" horiz-adv-x="275" 
d="M119 753h86l-46 -215h-101z" />
    <glyph glyph-name="quoteright" unicode="&#x2019;" horiz-adv-x="274" 
d="M152 538h-84l43 215h101z" />
    <glyph glyph-name="quotesinglbase" unicode="&#x201a;" horiz-adv-x="274" 
d="M142 -115h-84l43 215h101z" />
    <glyph glyph-name="quotedblleft" unicode="&#x201c;" horiz-adv-x="441" 
d="M288 753h84l-45 -215h-101zM118 753h86l-46 -215h-101z" />
    <glyph glyph-name="quotedblright" unicode="&#x201d;" horiz-adv-x="441" 
d="M151 538h-84l43 215h101zM321 538h-86l44 215h101z" />
    <glyph glyph-name="quotedblbase" unicode="&#x201e;" horiz-adv-x="441" 
d="M141 -115h-84l43 215h101zM311 -115h-86l44 215h101z" />
    <glyph glyph-name="dagger" unicode="&#x2020;" horiz-adv-x="440" 
d="M263 -53h-88v497h-108v89h108v214h88v-214h110v-89h-110v-497z" />
    <glyph glyph-name="daggerdbl" unicode="&#x2021;" horiz-adv-x="440" 
d="M263 -53h-88v214h-108v89h108v195h-108v89h108v213h88v-213h110v-89h-110v-195h110v-89h-110v-214z" />
    <glyph glyph-name="bullet" unicode="&#x2022;" horiz-adv-x="375" 
d="M304 344q-1 -49 -33.5 -82t-82.5 -34q-50 1 -83 34t-34 82q1 50 34 83.5t83 34.5q50 -1 82.5 -34.5t33.5 -83.5z" />
    <glyph glyph-name="ellipsis" unicode="&#x2026;" horiz-adv-x="649" 
d="M583 0h-115v124h115v-124zM381 0h-113v124h113v-124zM182 0h-115v124h115v-124z" />
    <glyph glyph-name="perthousand" unicode="&#x2030;" horiz-adv-x="1167" 
d="M1096 231v-97q0 -61 -38 -97.5t-100 -36.5q-63 0 -100.5 36.5t-37.5 97.5v97q0 62 38 99t100 37q63 0 100.5 -36.5t37.5 -99.5zM1005 134v97q5 40 -47 47q-45 -2 -47 -47v-97q-6 -37 47 -45q46 2 47 45zM346 577v-97q0 -61 -38 -97.5t-100 -36.5q-63 0 -100.5 36.5
t-37.5 97.5v97q0 62 38 99t100 37q63 0 100.5 -36.5t37.5 -99.5zM255 480v97q5 40 -47 47q-45 -2 -47 -47v-97q-6 -37 47 -45q46 2 47 45zM584 756l-263 -807h-77l265 807h75zM764 231v-97q0 -61 -38 -97.5t-100 -36.5q-63 0 -100.5 36.5t-37.5 97.5v97q0 62 38 99t100 37
q63 0 100.5 -36.5t37.5 -99.5zM673 134v97q5 40 -47 47q-45 -2 -47 -47v-97q-6 -37 47 -45q46 2 47 45z" />
    <glyph glyph-name="guilsinglleft" unicode="&#x2039;" horiz-adv-x="299" 
d="M238 47l-217 216l217 218v-125l-92 -93l92 -92v-124z" />
    <glyph glyph-name="guilsinglright" unicode="&#x203a;" horiz-adv-x="298" 
d="M277 263l-216 -216v124l93 92l-93 93v125z" />
    <glyph glyph-name="fraction" unicode="&#x2044;" horiz-adv-x="568" 
d="M497 694l-324 -694h-102l325 694h101z" />
    <glyph glyph-name="dong" unicode="&#x20ab;" horiz-adv-x="517" 
d="M217 564v86h141v63h95v-63h70v-86h-70v-564h-95v32q-39 -42 -101 -42q-88 0 -142 53t-54 140v158q0 88 53 139.5t143 51.5q61 0 101 -42v74h-141zM156 341v-158q0 -46 26.5 -72.5t74.5 -27.5q61 1 81 33q21 32 20 67v158q0 47 -26.5 72.5t-74.5 25.5q-61 -1 -82 -33
q-20 -31 -19 -65zM420 -159h-305v81h305v-81z" />
    <glyph glyph-name="Euro" unicode="&#x20ac;" horiz-adv-x="540" 
d="M313 718q55 0 104 -28q41 -21 66 -77t25 -103h-96q-1 34 -13 59q-10 24 -34 40t-52 14q-47 0 -74.5 -27t-25.5 -73v-49h181v-91h-181v-48h181v-91h-181v-55q0 -34 10 -54q12 -22 37 -36.5t53 -12.5q28 -1 52 15q44 31 48 97h96q-2 -73 -43 -134q-33 -43 -70.5 -57
t-86.5 -16q-55 0 -108 27q-42 21 -64.5 74.5t-20.5 95.5v56h-79v91h79v48h-79v91h79v51q0 67 37 120q32 43 70.5 57.5t89.5 15.5z" />
    <glyph glyph-name="afii61352" unicode="&#x2116;" horiz-adv-x="864" 
d="M814 578v-101q0 -62 -37.5 -99t-101.5 -37q-63 0 -100 36.5t-37 99.5v101q0 62 37.5 98.5t99.5 36.5q64 0 101.5 -36.5t37.5 -98.5zM725 477v101q6 39 -50 47q-46 -1 -48 -47v-101q-5 -41 48 -48q49 2 50 48zM488 0h-109l-211 495v-495h-97v713h107l213 -503v503h97v-713
z" />
    <glyph glyph-name="soundcopyright" unicode="&#x2117;" horiz-adv-x="839" 
d="M444 283h-45v-147h-85v408h130q39 0 62 -13q25 -13 43 -44t16 -62v-23q2 -33 -17 -63q-18 -30 -42 -43t-62 -13zM480 403v20q-8 41 -36 36h-45v-92h46q14 -2 22.5 7t12.5 29zM68 348q0 109 60 197q22 32 55 65q38 39 102 65.5t135 26.5q75 0 137 -28q99 -42 155 -129
q60 -88 60 -197q0 -106 -60 -198q-18 -27 -55 -65q-39 -39 -102.5 -65t-134.5 -26q-74 0 -138 27q-95 42 -154 129q-60 92 -60 198zM156 348q0 -82 44 -151q22 -41 81 -80.5t137 -38.5q56 0 104 21q74 32 117 98q45 71 45 151t-45 151q-12 20 -41 49q-29 30 -77.5 50
t-102.5 20q-78 1 -137 -38.5t-81 -80.5q-44 -69 -44 -151z" />
    <glyph glyph-name="trademark" unicode="&#x2122;" horiz-adv-x="707" 
d="M636 302h-84v209l-25 -117h-63l-25 117v-209h-84v391h104l37 -131l34 131h106v-391zM333 609h-89v-307h-85v307h-88v84h262v-84z" />
    <glyph glyph-name="Omega" unicode="&#x2126;" horiz-adv-x="527" 
d="M279 0v80q95 9 99 106v339q0 35 -13 55q-12 22 -41.5 37.5t-59.5 13.5q-34 2 -62 -14q-54 -28 -54 -92v-339q1 -55 32 -79q32 -23 67 -27v-80h-226v82h67q-30 53 -30 104v341q0 63 42 119q35 43 74.5 57.5t89.5 15.5q58 0 109 -27q43 -20 70.5 -74t24.5 -92v-341
q0 -52 -30 -103h68v-82h-227z" />
    <glyph glyph-name="partialdiff" unicode="&#x2202;" horiz-adv-x="523" 
d="M367 183v74q3 43 -27 71t-77 28q-31 2 -57 -13q-50 -26 -50 -86v-74q0 -32 11 -52q13 -20 40.5 -34.5t55.5 -12.5q30 -2 55 13q27 15 38 34.5t11 51.5zM462 525v-347q0 -64 -41 -117q-33 -41 -71 -54.5t-87 -15.5q-57 0 -109 26q-43 21 -69.5 73t-23.5 90v78q0 62 40 119
q33 42 71 56t87 16q60 0 108 -36v110q0 31 -12 51q-13 22 -41.5 36t-62.5 12v93q62 0 114 -26q45 -20 72.5 -72.5t24.5 -91.5z" />
    <glyph glyph-name="increment" unicode="&#x2206;" horiz-adv-x="529" 
d="M13 0l183 713h135l184 -713h-502zM264 618l-133 -524h265z" />
    <glyph glyph-name="product" unicode="&#x220f;" horiz-adv-x="550" 
d="M483 0h-95v602h-226v-602h-95v694h416v-694z" />
    <glyph glyph-name="summation" unicode="&#x2211;" horiz-adv-x="547" 
d="M486 630h-292l237 -237v-68l-241 -242h296v-83h-425v72l284 287l-284 282v72h425v-83z" />
    <glyph glyph-name="minus" unicode="&#x2212;" horiz-adv-x="552" 
d="M466 236h-380v90h380v-90z" />
    <glyph glyph-name="radical" unicode="&#x221a;" horiz-adv-x="603" 
d="M67 318h98l114 -415l219 792h98l-252 -902h-130z" />
    <glyph glyph-name="infinity" unicode="&#x221e;" horiz-adv-x="828" 
d="M425 178l-11 17l-11 -17q-25 -41 -66 -67.5t-90 -27.5q-78 0 -129 55.5t-51 141.5q0 85 51 140t129 55q49 -1 90 -27t66 -67l11 -17l11 16q63 94 156 95q78 0 129 -55t51 -140q0 -86 -51 -141.5t-129 -55.5q-49 1 -90 27.5t-66 67.5zM498 326l-31 -46l31 -47
q38 -60 80 -60q43 1 67.5 31t24.5 76q0 44 -24.5 74t-67.5 31q-41 0 -80 -59zM250 385q-43 -1 -67.5 -31t-24.5 -74q0 -46 24.5 -76t67.5 -31q40 0 80 60l32 47l-32 46q-40 59 -80 59z" />
    <glyph glyph-name="integral" unicode="&#x222b;" horiz-adv-x="291" 
d="M177 552v-617q0 -72 -37 -107t-95 -35h-38v94h34q19 -2 29.5 9t12.5 34v611q0 72 36.5 112.5t108.5 40.5h56v-94h-64q-18 2 -28.5 -10t-14.5 -38z" />
    <glyph glyph-name="approxequal" unicode="&#x2248;" horiz-adv-x="545" 
d="M406 431l68 -53q-48 -45 -75.5 -60.5t-57.5 -14.5q-36 3 -71 21q-32 19 -71 22q-18 6 -64 -42l-64 53q44 44 72.5 60.5t57.5 15.5q38 -3 70 -22q33 -19 72 -22q15 -6 63 42zM406 294l68 -53q-48 -45 -75.5 -60.5t-57.5 -14.5q-36 3 -71 21q-32 19 -71 22q-18 6 -64 -42
l-64 53q44 44 72.5 60.5t57.5 15.5q38 -3 70 -22q33 -19 72 -22q15 -6 63 42z" />
    <glyph glyph-name="notequal" unicode="&#x2260;" horiz-adv-x="567" 
d="M480 167h-203l-105 -229h-101l105 229h-84v90h126l33 66h-159v90h201l103 219h100l-101 -219h85v-90h-127l-33 -66h160v-90z" />
    <glyph glyph-name="lessequal" unicode="&#x2264;" horiz-adv-x="480" 
d="M413 123h-131l-248 251l261 261h130l-261 -261zM436 0h-382v90h382v-90z" />
    <glyph glyph-name="greaterequal" unicode="&#x2265;" horiz-adv-x="481" 
d="M447 374l-252 -251h-129l250 251l-261 261h130zM426 0h-382v90h382v-90z" />
    <glyph glyph-name="lozenge" unicode="&#x25ca;" horiz-adv-x="529" 
d="M61 354l156 359h94l157 -359l-157 -354h-94zM155 354l109 -255l110 255l-109 259z" />
    <glyph glyph-name="fi" unicode="&#xfb01;" horiz-adv-x="591" 
d="M418 432h-226v-432h-95v432h-86v93h86v34q0 72 37 113t109 41h57v-93h-65q-18 2 -28.5 -10.5t-14.5 -38.5v-46h321v-525h-95v432zM518 594h-107v122h107v-122z" />
    <glyph glyph-name="fl" unicode="&#xfb02;" horiz-adv-x="587" 
d="M407 432h-215v-432h-95v432h-86v93h86v34q0 72 37 113t109 41h57v-93h-65q-18 2 -28.5 -10.5t-14.5 -38.5v-46h215v188h95v-576q5 -47 41 -44h35v-93h-40q-58 0 -94.5 35t-36.5 106v291z" />
    <glyph glyph-name="NULL" horiz-adv-x="0" 
 />
    <glyph glyph-name="CR.001" horiz-adv-x="333" 
 />
    <glyph glyph-name="CR" horiz-adv-x="250" 
 />
    <glyph glyph-name="circumflexacute" horiz-adv-x="449" 
d="M371 574h-96l-50 45l-50 -45h-95l113 113h63zM388 808l-104 -84h-87l90 84h101z" />
    <glyph glyph-name="circumflexgrave" horiz-adv-x="449" 
d="M371 574h-96l-50 45l-50 -45h-95l113 113h63zM173 724l-104 84h101l90 -84h-87z" />
    <glyph glyph-name="circumflexhookabove" horiz-adv-x="449" 
d="M212 804l-51 38q34 35 68 34q38 -1 62 -25t25 -61q-1 -36 -26.5 -61t-63.5 -26v65q25 1 26 22q0 20 -24 22q-5 0 -16 -8zM371 574h-96l-50 45l-50 -45h-95l113 113h63z" />
    <glyph glyph-name="circumflextilde" horiz-adv-x="450" 
d="M308 814l46 -45q-54 -51 -87 -49q-59 18 -92 32q-7 6 -41 -26l-46 44q53 52 89 50q60 -19 90 -32q9 -4 41 26zM372 574h-96l-50 45l-50 -45h-95l113 113h63z" />
    <glyph glyph-name="breveacute" horiz-adv-x="440" 
d="M220 570q-51 1 -84 34t-34 86h73q1 -47 45 -49q44 2 45 49h73q-1 -53 -34 -86t-84 -34zM355 799l-104 -84h-87l90 84h101z" />
    <glyph glyph-name="brevegrave" horiz-adv-x="440" 
d="M196 715l-104 84h101l90 -84h-87zM220 570q-51 1 -84 34t-34 86h73q1 -47 45 -49q44 2 45 49h73q-1 -53 -34 -86t-84 -34z" />
    <glyph glyph-name="brevehookabove" horiz-adv-x="440" 
d="M207 797l-51 38q34 35 68 34q38 -1 62 -25t25 -61q-1 -36 -26.5 -61t-63.5 -26v65q25 1 26 22q0 21 -24 22q-5 0 -16 -8zM220 570q-51 1 -84 34t-34 86h73q1 -47 45 -49q44 2 45 49h73q-1 -53 -34 -86t-84 -34z" />
    <glyph glyph-name="brevetilde" horiz-adv-x="440" 
d="M302 817l46 -45q-54 -51 -87 -49q-59 18 -92 32q-7 6 -41 -26l-46 44q53 52 89 50q60 -19 90 -32q9 -4 41 26zM220 570q-51 1 -84 34t-34 86h73q1 -47 45 -49q44 2 45 49h73q-1 -53 -34 -86t-84 -34z" />
    <glyph glyph-name="dieresismacron" horiz-adv-x="449" 
d="M364 780h-279v62h279v-62zM379 616h-103v107h103v-107zM173 616h-103v107h103v-107z" />
    <glyph glyph-name="dieresisacute" horiz-adv-x="449" 
d="M379 618h-103v107h103v-107zM173 618h-103v107h103v-107zM367 837l-104 -84h-87l90 84h101z" />
    <glyph glyph-name="dieresiscaron" horiz-adv-x="449" 
d="M379 617h-103v108h103v-108zM173 617h-103v108h103v-108zM79 865h96l50 -45l50 45h95l-113 -113h-63z" />
    <glyph glyph-name="dieresisgrave" horiz-adv-x="449" 
d="M379 617h-103v107h103v-107zM173 617h-103v107h103v-107zM187 752l-104 84h101l90 -84h-87z" />
    </font>
</defs>
</svg>
