<?xml version="1.0" standalone="no"?>
<!DOCTYPE svg PUBLIC "-//W3C//DTD SVG 1.1//EN" "http://www.w3.org/Graphics/SVG/1.1/DTD/svg11.dtd" >
<svg xmlns="http://www.w3.org/2000/svg" xmlns:xlink="http://www.w3.org/1999/xlink" version="1.1">
<metadata>
Created by FontForge 20170731 at Sun May 18 09:36:19 2014
 By Aleksey,,,
Published by Die Gestalten Verlag GmbH &#38; Co. KG, 2012
Copyright (c) by Binnenland, 2006, Designed by Mika Mischler / 2002-2006, revised and extended 2012 All rights reserved. This software may not be reproduced, used, displayed, modified, disclosed or transferred without the express written approval of (Binnenland).
</metadata>
<defs>
<font id="T-StarProMedium" horiz-adv-x="523" >
  <font-face 
    font-family="T-Star Pro Medium"
    font-weight="500"
    font-stretch="normal"
    units-per-em="1000"
    panose-1="2 0 8 6 3 0 0 2 0 4"
    ascent="774"
    descent="-226"
    x-height="527"
    cap-height="713"
    bbox="-51 -226 1070 1028"
    underline-thickness="51"
    underline-position="-239"
    unicode-range="U+0020-FB02"
  />
<missing-glyph horiz-adv-x="1000" 
 />
    <glyph glyph-name=".notdef" horiz-adv-x="1000" 
 />
    <glyph glyph-name=".null" horiz-adv-x="0" 
 />
    <glyph glyph-name="nonmarkingreturn" horiz-adv-x="333" 
 />
    <glyph glyph-name="space" unicode=" " horiz-adv-x="250" 
 />
    <glyph glyph-name="exclam" unicode="!" horiz-adv-x="252" 
d="M162 181h-77v532h77v-532zM175 0h-102v102h102v-102z" />
    <glyph glyph-name="quotedbl" unicode="&#x22;" horiz-adv-x="342" 
d="M148 551h-70v196h70v-196zM267 551h-70v196h70v-196z" />
    <glyph glyph-name="numbersign" unicode="#" horiz-adv-x="657" 
d="M582 426h-111l-22 -132h102v-67h-112l-33 -207h-69l31 207h-130l-35 -207h-69l33 207h-92v67h102l22 132h-92v65h101l32 190h70l-30 -190h130l33 190h69l-32 -190h102v-65zM400 426h-130l-23 -132h131z" />
    <glyph glyph-name="dollar" unicode="$" horiz-adv-x="513" 
d="M467 182q0 -73 -49.5 -125t-126.5 -64v-61h-74v61q-78 10 -124.5 61.5t-46.5 124.5h77q0 -52 36.5 -82.5t92.5 -30.5q63 0 101 33t38 85q-1 71 -70 111q-31 18 -93.5 50.5t-74.5 38.5q-42 23 -62 53q-33 53 -33 103q0 69 44 118t115 59v61h74v-61q75 -12 120.5 -62
t45.5 -123h-77q0 53 -35 83t-91 30q-52 0 -85 -28t-34 -79q0 -60 62 -93q26 -14 79.5 -40.5t80.5 -41.5q110 -60 110 -181z" />
    <glyph glyph-name="percent" unicode="%" horiz-adv-x="819" 
d="M744 231v-102q0 -58 -36.5 -93.5t-96.5 -35.5t-96 35t-36 94v102q0 60 36 95t96 35q61 0 97 -35t36 -95zM672 129v102q2 58 -61 59q-60 0 -60 -59v-102q-2 -57 60 -58q61 0 61 58zM340 584v-102q0 -58 -36.5 -93.5t-96.5 -35.5t-96 35t-36 94v102q0 60 36 95t96 35
q61 0 97 -35t36 -95zM268 482v102q2 58 -61 59q-60 0 -60 -59v-102q-2 -57 60 -58q61 0 61 58zM574 759l-264 -811h-72l266 811h70z" />
    <glyph glyph-name="ampersand" unicode="&#x26;" horiz-adv-x="640" 
d="M565 166l-48 -60l-35 30q-18 -74 -76.5 -109.5t-128.5 -35.5q-77 0 -139 45q-43 36 -57 73.5t-16 85.5q0 120 110 184l14 8q-25 20 -43 37q-50 54 -49 122q1 60 32.5 101t71.5 56.5t84 15.5q86 0 143.5 -53t57.5 -139h-77q0 53 -34.5 85t-89.5 32q-48 0 -78.5 -24.5
t-32.5 -75.5q0 -31 12 -50.5t38 -40.5zM277 66q46 -1 79 19q31 21 43.5 46t12.5 63v1l-164 140q-19 -8 -37 -19q-69 -44 -69 -122q0 -38 13 -63q14 -27 46.5 -46.5t75.5 -18.5z" />
    <glyph glyph-name="quotesingle" unicode="'" horiz-adv-x="226" 
d="M148 551h-70v196h70v-196z" />
    <glyph glyph-name="parenleft" unicode="(" horiz-adv-x="287" 
d="M214 -34l-47 -54q-56 52 -71 81q-21 43 -19 93v525q-2 49 19 92q17 33 71 82l47 -54l-14 -15q-24 -24 -36 -48t-12 -63v-513q0 -69 48 -112z" />
    <glyph glyph-name="parenright" unicode=")" horiz-adv-x="287" 
d="M212 611v-525q3 -49 -19 -93q-15 -27 -70 -82l-48 55l12 11q22 17 38 48q11 26 12 67v513q-1 43 -12 66q-18 31 -38 48l-12 12l48 53q52 -47 70 -81q21 -43 19 -92z" />
    <glyph glyph-name="asterisk" unicode="*" horiz-adv-x="568" 
d="M441 471l-33 -55l-96 58l4 -112h-65l2 111l-94 -57l-32 55l97 54l-97 53l32 55l94 -56l-2 111h65l-4 -113l96 58l32 -55l-98 -53z" />
    <glyph glyph-name="plus" unicode="+" horiz-adv-x="555" 
d="M485 247h-172v-178h-72v178h-172v71h172v166h72v-166h172v-71z" />
    <glyph glyph-name="comma" unicode="," horiz-adv-x="293" 
d="M105 -106h-81l85 212h97z" />
    <glyph glyph-name="hyphen" unicode="-" horiz-adv-x="447" 
d="M372 247h-297v71h297v-71z" />
    <glyph glyph-name="period" unicode="." horiz-adv-x="255" 
d="M184 0h-113v113h113v-113z" />
    <glyph glyph-name="slash" unicode="/" horiz-adv-x="490" 
d="M415 759l-264 -811h-76l266 811h74z" />
    <glyph glyph-name="zero" unicode="0" horiz-adv-x="511" 
d="M446 530v-348q0 -65 -37 -119q-30 -42 -68 -56t-88 -16q-57 0 -105 26q-41 21 -64 73.5t-20 92.5v348q0 66 36 117q54 69 156 71q57 0 105 -26q42 -20 64.5 -71.5t20.5 -91.5zM369 184v343q0 37 -12 60q-12 26 -39.5 42.5t-61.5 14.5q-35 2 -63 -16q-52 -32 -52 -101
v-343q0 -38 12 -61q13 -25 42 -42t61 -15q36 -2 62 16q28 18 39.5 41t11.5 61z" />
    <glyph glyph-name="one" unicode="1" horiz-adv-x="515" 
d="M444 0h-370v76h144v558l-105 -8v73l182 15v-638h149v-76z" />
    <glyph glyph-name="two" unicode="2" horiz-adv-x="511" 
d="M459 522q0 -92 -70 -154q-28 -24 -100 -68t-101 -67q-58 -45 -58 -107v-50h327v-76h-404v131q2 46 20 83.5t73 81.5q22 16 93.5 59t98.5 65q45 38 45 101q0 58 -32.5 90.5t-92.5 32.5q-56 0 -92.5 -33.5t-36.5 -91.5h-77q0 87 58 143.5t148 56.5q89 0 145 -54.5
t56 -142.5z" />
    <glyph glyph-name="three" unicode="3" horiz-adv-x="511" 
d="M441 637l-142 -218q45 -7 78 -27t49 -47t23 -53t7 -53v-53q0 -66 -42 -122q-55 -71 -159 -73q-57 0 -109 26q-43 20 -68.5 74.5t-23.5 102.5h77q0 -40 13 -65q14 -27 45 -46t65 -17q37 -1 68 16q31 19 44 42.5t13 61.5v51q-2 38 -14 59q-13 24 -45.5 40t-66.5 14h-41v64
l143 223h-271v76h357v-76z" />
    <glyph glyph-name="four" unicode="4" horiz-adv-x="511" 
d="M450 0h-77v200h-312v78l161 435h76l-160 -437h235v264h77v-540z" />
    <glyph glyph-name="five" unicode="5" horiz-adv-x="509" 
d="M424 636h-256l-14 -200h103q82 0 142.5 -56t60.5 -143v-47q0 -86 -60.5 -142.5t-146.5 -56.5t-145.5 56.5t-59.5 147.5h77q0 -59 34.5 -94t93.5 -35q54 0 92 33t38 90v46q0 50 -24 77q-43 48 -104 48h-178v76l21 276h326v-76z" />
    <glyph glyph-name="six" unicode="6" horiz-adv-x="511" 
d="M447 519h-77q0 39 -11 64q-12 27 -39.5 45t-62.5 16q-38 2 -69 -16q-57 -32 -57 -101v-117q53 43 126 43q56 0 107 -26q43 -19 68.5 -70.5t23.5 -94.5v-82q0 -64 -41 -118q-35 -41 -74 -55.5t-88 -15.5q-54 0 -107 25q-42 20 -68 72t-24 90v351q0 64 42 118q35 42 73 56
t88 16q56 0 104 -27q40 -21 64 -75.5t22 -97.5zM379 184v77q-2 40 -14 61q-13 24 -45.5 41.5t-66.5 15.5q-34 1 -65 -16q-31 -18 -44 -41t-13 -61v-77q0 -38 13 -61q13 -24 44.5 -41.5t64.5 -15.5q36 -2 67 16q32 18 45 41t14 61z" />
    <glyph glyph-name="seven" unicode="7" horiz-adv-x="509" 
d="M465 640l-238 -640h-81l239 637h-341v76h421v-73z" />
    <glyph glyph-name="eight" unicode="8" horiz-adv-x="509" 
d="M464 198q0 -74 -42 -132q-35 -43 -75 -58t-92 -17q-57 0 -112 27q-44 22 -71 78t-25 102q-1 38 14 74q27 64 78 94q-40 30 -62.5 72.5t-22.5 85.5q0 71 40 126q35 41 73 54.5t88 15.5q56 0 107 -26q44 -19 70.5 -72t24.5 -98q0 -39 -17 -73q-30 -58 -75 -86
q27 -16 46 -37q54 -61 53 -130zM387 198q0 60 -37.5 95t-94.5 35t-94 -35t-37 -95q2 -43 15 -68q15 -28 48 -47t68 -17q36 -2 69 17q34 20 48 46.5t15 68.5zM380 524q-2 40 -14 62q-13 25 -45.5 43t-65.5 16q-35 2 -65 -17q-32 -18 -45.5 -41.5t-14.5 -62.5q0 -56 35 -88.5
t90 -32.5q57 0 91 32.5t34 88.5z" />
    <glyph glyph-name="nine" unicode="9" horiz-adv-x="511" 
d="M456 533v-351q0 -62 -40 -119q-33 -42 -71.5 -56t-89.5 -16q-54 0 -104 27q-41 22 -66 76.5t-22 96.5h76q2 -40 13 -64q13 -27 42 -45t62 -16q38 -2 67 16q31 18 43.5 41t12.5 61v117q-54 -44 -126 -44q-56 0 -108 26q-42 22 -68 74.5t-23 91.5v82q0 64 41 117
q35 42 73 56t88 16q56 0 107 -26q42 -19 69 -71t24 -90zM379 450v78q0 38 -13 60q-13 25 -44.5 42t-65.5 15q-35 2 -66 -16q-32 -17 -45 -40.5t-14 -60.5v-78q2 -40 14 -61q13 -24 45.5 -41.5t65.5 -15.5q35 -2 66 16t44 41t13 61z" />
    <glyph glyph-name="colon" unicode=":" horiz-adv-x="255" 
d="M184 0h-113v113h113v-113zM184 314h-113v113h113v-113z" />
    <glyph glyph-name="semicolon" unicode=";" horiz-adv-x="258" 
d="M177 314h-113v113h113v-113zM68 -106h-81l85 212h97z" />
    <glyph glyph-name="less" unicode="&#x3c;" horiz-adv-x="515" 
d="M441 0h-103l-263 264l260 262h103l-259 -262z" />
    <glyph glyph-name="equal" unicode="=" horiz-adv-x="585" 
d="M474 327h-363v71h363v-71zM474 186h-363v71h363v-71z" />
    <glyph glyph-name="greater" unicode="&#x3e;" horiz-adv-x="518" 
d="M443 264l-265 -264h-103l263 264l-260 262h103z" />
    <glyph glyph-name="question" unicode="?" horiz-adv-x="442" 
d="M238 182h-77v44q1 84 45 129q17 17 56 47.5t56 49.5q26 22 27 69q0 59 -31.5 90.5t-91.5 31.5q-34 1 -65 -16t-44.5 -41t-15.5 -64h-77q0 68 42 124q34 43 72 57t88 16q89 0 144.5 -54.5t55.5 -142.5q0 -61 -45 -113q-14 -14 -55 -47.5t-59 -53.5q-25 -22 -25 -81v-45z
M252 0h-103v103h103v-103z" />
    <glyph glyph-name="at" unicode="@" horiz-adv-x="1059" 
d="M664 -106l24 -62q-86 -30 -169 -30q-48 0 -93 9q-43 9 -106 35q-62 26 -107 71q-77 77 -111 159q-34 91 -34 181q0 142 82 262q24 36 74 87q48 48 112 77q110 48 203 48t175 -32q124 -47 199 -152q78 -106 78 -247q0 -99 -43 -171q-19 -43 -73.5 -86.5t-117.5 -42.5
q-99 0 -134 72q-63 -63 -159 -63q-82 0 -124 50.5t-26 131.5l30 159q16 82 74 129.5t144 47.5q31 0 59.5 -12t44.5 -32l8 36h72l-64 -327q-10 -50 3 -87q15 -37 73 -38q68 0 115.5 68t47.5 165q0 121 -65 208q-20 29 -59 65q-39 38 -109 63q-69 27 -149 27q-40 0 -79 -9
q-36 -7 -92 -32q-54 -24 -96 -66q-71 -72 -102 -143q-32 -77 -32 -156q0 -120 64 -219q18 -29 59 -70q42 -42 111.5 -70t146.5 -28q69 0 145 24zM611 191l30 159q9 51 -12.5 79.5t-76.5 29.5q-52 0 -89.5 -31t-47.5 -82l-30 -159q-21 -110 89 -111q56 0 81 22q46 39 56 93z
" />
    <glyph glyph-name="A" unicode="A" horiz-adv-x="540" 
d="M520 0h-76l-52 201h-241l-54 -201h-77l186 713h125zM372 276l-95 366h-13l-95 -366h203z" />
    <glyph glyph-name="B" unicode="B" horiz-adv-x="543" 
d="M484 213v-24q0 -64 -37 -118q-52 -69 -156 -71h-216v713h211q58 0 106 -26q40 -19 61.5 -69t18.5 -90v-12q1 -29 -13 -66q-23 -59 -69 -82q28 -10 47 -31q19 -19 33.5 -55.5t13.5 -68.5zM395 518v9q0 35 -11 59q-12 24 -39 39t-61 12h-132v-232h138q107 1 105 113z
M407 191v21q0 36 -11 60q-12 26 -39 43t-63 15h-142v-254h137q35 -2 64 15t41.5 40t12.5 60z" />
    <glyph glyph-name="C" unicode="C" horiz-adv-x="516" 
d="M391 182h77q0 -65 -41 -119q-35 -42 -73 -56t-88 -16q-56 0 -108 26q-42 22 -69 75t-24 91v348q0 62 40 117q35 42 73 56t89 16q56 0 107 -26q42 -20 69.5 -73t24.5 -91h-77q0 37 -14 60q-13 24 -45 40.5t-65 14.5q-36 2 -67 -16q-31 -17 -44.5 -40.5t-13.5 -59.5v-346
q0 -39 13 -61q15 -25 46.5 -41.5t65.5 -14.5q34 -1 65 15q32 18 45.5 41t13.5 60z" />
    <glyph glyph-name="D" unicode="D" horiz-adv-x="543" 
d="M478 525v-334q0 -66 -35 -119q-31 -42 -68 -56.5t-85 -15.5h-215v714h211q59 0 107 -26q42 -20 64.5 -71.5t20.5 -91.5zM401 192v330q0 38 -12 61q-13 25 -41 41t-62 14h-134v-562h136q35 -2 62 15q51 33 51 101z" />
    <glyph glyph-name="E" unicode="E" horiz-adv-x="505" 
d="M460 0h-385v713h385v-76h-308v-222h285v-76h-285v-263h308v-76z" />
    <glyph glyph-name="F" unicode="F" horiz-adv-x="495" 
d="M460 637h-308v-223h285v-76h-285v-338h-77v713h385v-76z" />
    <glyph glyph-name="G" unicode="G" horiz-adv-x="533" 
d="M468 393v-211q0 -63 -42 -119q-35 -42 -73 -56t-88 -16q-56 0 -107 26q-42 22 -69 75t-24 91v348q0 62 40 117q35 42 73 56t89 16q56 0 107 -26q43 -19 69.5 -71t24.5 -93h-77q0 36 -14 59q-13 24 -45 41t-65 15q-36 2 -67 -16q-31 -17 -44.5 -40.5t-13.5 -59.5v-346
q0 -39 13 -61q15 -25 46.5 -41.5t65.5 -14.5q34 -1 65 15q32 18 45.5 41t13.5 61v134h-147v76h224z" />
    <glyph glyph-name="H" unicode="H" horiz-adv-x="567" 
d="M492 0h-77v336h-263v-336h-77v713h77v-301h263v301h77v-713z" />
    <glyph glyph-name="I" unicode="I" horiz-adv-x="227" 
d="M75 713h77v-713h-77v713z" />
    <glyph glyph-name="J" unicode="J" horiz-adv-x="448" 
d="M378 713v-532q0 -90 -47.5 -140t-134.5 -50q-85 0 -133 51.5t-48 136.5h77q0 -37 10 -58q11 -24 36.5 -40.5t58.5 -14.5q37 -1 61 15q43 32 43 94v462h-210v76h287z" />
    <glyph glyph-name="K" unicode="K" horiz-adv-x="514" 
d="M494 0h-88l-194 328l-60 -89v-239h-77v713h77v-339l240 339h88l-224 -319z" />
    <glyph glyph-name="L" unicode="L" horiz-adv-x="469" 
d="M459 0h-384v713h77v-637h307v-76z" />
    <glyph glyph-name="M" unicode="M" horiz-adv-x="655" 
d="M152 0h-77v713h96l156 -378l155 378h98v-713h-77v569l-143 -350h-65l-143 350v-569z" />
    <glyph glyph-name="N" unicode="N" horiz-adv-x="558" 
d="M483 0h-93l-238 560v-560h-77v713h91l240 -568v568h77v-713z" />
    <glyph glyph-name="O" unicode="O" horiz-adv-x="533" 
d="M468 530v-348q0 -67 -41 -121q-35 -41 -73 -54.5t-88 -15.5q-56 0 -108 26q-42 20 -69 73.5t-24 92.5v348q0 63 40 118q34 42 72.5 55.5t89.5 15.5q56 0 107 -26q42 -19 69.5 -72t24.5 -92zM391 183v346q0 37 -14 60q-13 24 -45 41t-65 15q-36 2 -67 -16
q-31 -17 -44.5 -40.5t-13.5 -59.5v-346q0 -39 13 -61q15 -25 46.5 -41.5t65.5 -14.5q34 -1 65 15q32 18 45.5 41t13.5 61z" />
    <glyph glyph-name="P" unicode="P" horiz-adv-x="518" 
d="M478 524v-52q0 -66 -35 -119q-31 -42 -68 -56.5t-85 -15.5h-138v-281h-77v713h211q59 0 107 -26q42 -20 64.5 -71.5t20.5 -91.5zM401 473v49q0 38 -12 61q-13 24 -42 40t-63 14h-132v-280h134q34 -1 63 15q28 17 40 40t12 61z" />
    <glyph glyph-name="Q" unicode="Q" horiz-adv-x="533" 
d="M230 -106v100q-56 10 -95.5 46t-54.5 73.5t-15 69.5v348q0 62 40 117q35 42 73 56t89 16q56 0 107 -26q42 -20 69.5 -73t24.5 -91v-348q0 -26 -7.5 -53.5t-24.5 -57t-52 -51t-83 -27.5v-99h-71zM391 183v346q0 37 -14 60q-13 24 -45 41t-65 15q-36 2 -67 -16
q-31 -17 -44.5 -40.5t-13.5 -59.5v-346q2 -53 27 -81t61 -32v135h71v-136q37 4 62.5 32t27.5 82z" />
    <glyph glyph-name="R" unicode="R" horiz-adv-x="543" 
d="M496 0h-87l-140 301h-117v-301h-77v713h211q59 0 107 -26q42 -20 65.5 -71t20.5 -91v-34q0 -23 -6 -47.5t-19 -51.5t-40 -50t-64 -34zM402 492v30q0 39 -13 61q-13 24 -42 40t-63 14h-132v-260h134q34 -1 63 15q29 17 41 40t12 60z" />
    <glyph glyph-name="S" unicode="S" horiz-adv-x="513" 
d="M468 182q0 -81 -62.5 -136.5t-152.5 -55.5q-93 0 -150.5 54.5t-57.5 134.5h77q0 -52 36 -83t94 -31q63 0 101 33.5t38 85.5q-1 71 -70 111q-31 18 -93.5 50.5t-74.5 38.5q-42 23 -62 53q-34 50 -34 103q0 79 55.5 130t141.5 51q89 0 146 -53.5t57 -135.5h-77
q0 53 -35 83.5t-91 30.5q-52 0 -85.5 -28.5t-34.5 -79.5q0 -60 63 -92q108 -52 160 -82q111 -63 111 -182z" />
    <glyph glyph-name="T" unicode="T" horiz-adv-x="467" 
d="M446 637h-174v-637h-77v637h-174v76h425v-76z" />
    <glyph glyph-name="U" unicode="U" horiz-adv-x="534" 
d="M469 713v-531q0 -64 -40 -121q-33 -41 -72 -54.5t-89 -15.5q-57 0 -110 25q-44 20 -70 72.5t-23 94.5v530h77v-530q2 -40 14 -61q13 -24 45.5 -41t65.5 -15q35 -2 66 15q32 18 45.5 41t13.5 61v530h77z" />
    <glyph glyph-name="V" unicode="V" 
d="M426 713h76l-177 -713h-125l-179 713h76l159 -640h13z" />
    <glyph glyph-name="W" unicode="W" horiz-adv-x="784" 
d="M763 713l-149 -713h-92l-130 551l-131 -551h-92l-148 713h78l119 -594l138 594h72l135 -593l121 593h79z" />
    <glyph glyph-name="X" unicode="X" horiz-adv-x="497" 
d="M476 0h-88l-140 282l-139 -282h-88l184 358l-183 355h86l139 -280l142 280h85l-184 -354z" />
    <glyph glyph-name="Y" unicode="Y" horiz-adv-x="494" 
d="M473 713l-188 -456v-257h-77v259l-187 454h83l143 -358l143 358h83z" />
    <glyph glyph-name="Z" unicode="Z" horiz-adv-x="448" 
d="M423 0h-398v70l298 567h-284v76h368v-68l-298 -569h314v-76z" />
    <glyph glyph-name="bracketleft" unicode="[" horiz-adv-x="306" 
d="M231 -81h-156v844h156v-70h-85v-704h85v-70z" />
    <glyph glyph-name="backslash" unicode="\" horiz-adv-x="493" 
d="M414 -54h-73l-266 810h75z" />
    <glyph glyph-name="bracketright" unicode="]" horiz-adv-x="306" 
d="M231 -81h-156v70h85v704h-85v70h156v-844z" />
    <glyph glyph-name="asciicircum" unicode="^" horiz-adv-x="497" 
d="M422 449h-79l-94 175l-93 -175h-81l142 264h66z" />
    <glyph glyph-name="underscore" unicode="_" horiz-adv-x="511" 
d="M520 -157h-529v65h529v-65z" />
    <glyph glyph-name="grave" unicode="`" horiz-adv-x="318" 
d="M231 598h-71l-93 158h86z" />
    <glyph glyph-name="a" unicode="a" horiz-adv-x="512" 
d="M440 364v-364h-75v50q-18 -26 -56 -42.5t-83 -16.5q-72 0 -123.5 43.5t-51.5 127.5q0 71 47 110t122 39h145v50q-1 102 -108 100q-47 1 -77 -23t-34 -75h-75q2 59 32.5 99t69.5 56t83 16q76 0 130 -41.5t54 -128.5zM365 179v61h-143q-95 0 -96 -78q1 -57 35 -78
q35 -21 77 -20q49 0 77 22q50 42 50 93z" />
    <glyph glyph-name="b" unicode="b" horiz-adv-x="525" 
d="M460 345v-165q0 -86 -52.5 -138t-139.5 -52q-34 0 -67.5 14.5t-50.5 36.5v-41h-75v713h75v-231q18 24 50 38t68 14q88 0 140 -51t52 -138zM385 180v165q2 44 -17 68q-18 27 -40.5 37.5t-59.5 10.5q-57 0 -87.5 -30.5t-30.5 -85.5v-165q-2 -42 16 -68q19 -27 42 -38
t60 -11q55 1 86 31.5t31 85.5z" />
    <glyph glyph-name="c" unicode="c" horiz-adv-x="503" 
d="M262 534q86 0 137.5 -48.5t57.5 -134.5h-75q-1 40 -23 66q-36 44 -97 44q-57 0 -89 -30.5t-33 -85.5v-165q-2 -41 18 -68q37 -49 104 -49q51 0 82.5 29t37.5 80h75q-8 -84 -60 -133t-135 -49q-90 0 -143.5 51.5t-53.5 138.5v165q0 86 54.5 137.5t142.5 51.5z" />
    <glyph glyph-name="d" unicode="d" horiz-adv-x="527" 
d="M140 345v-165q0 -55 31 -85.5t87 -31.5q35 0 59 11q27 12 44 39.5t15 66.5v165q0 55 -31 85.5t-87 30.5q-35 0 -59 -11q-26 -11 -43.5 -38.5t-15.5 -66.5zM65 180v165q0 87 52.5 138t140.5 51q81 0 118 -52v231h75v-713h-75v41q-15 -23 -49 -37t-69 -14q-87 0 -140 52
t-53 138z" />
    <glyph glyph-name="e" unicode="e" 
d="M458 345v-106h-318v-59q-2 -41 18 -68q37 -49 104 -49q51 0 82.5 29t37.5 80h75q-8 -84 -60 -133t-135 -49q-90 0 -143.5 51.5t-53.5 138.5v165q0 86 54.5 137.5t142.5 51.5q89 0 142.5 -51t53.5 -138zM383 312v33q1 41 -19 68q-33 48 -102 48q-57 0 -89 -30.5t-33 -85.5
v-33h243z" />
    <glyph glyph-name="f" unicode="f" horiz-adv-x="322" 
d="M306 452h-124v-452h-75v452h-91v73h91v39q0 70 35.5 109.5t105.5 39.5h47v-73h-56q-23 1 -39.5 -15t-17.5 -49v-51h124v-73z" />
    <glyph glyph-name="g" unicode="g" horiz-adv-x="526" 
d="M375 -42v83q-17 -23 -49 -37t-67 -14q-89 0 -141.5 51t-52.5 139v165q0 86 53.5 137.5t140.5 51.5q35 0 68 -13.5t48 -35.5v42h75v-569q0 -100 -53.5 -142t-137.5 -42q-75 0 -125 41t-60 113h75q8 -39 37 -60t73 -21q62 1 89.5 29.5t26.5 81.5zM375 180v165q2 44 -17 68
q-18 27 -40.5 37.5t-58.5 10.5q-56 0 -87 -30.5t-32 -85.5v-165q-2 -42 17 -68q34 -49 102 -49q55 1 85.5 31.5t30.5 85.5z" />
    <glyph glyph-name="h" unicode="h" horiz-adv-x="532" 
d="M461 0h-75v345q0 61 -28 89.5t-80 26.5q-26 0 -50 -9q-21 -7 -50 -31q-26 -22 -28 -74v-347h-75v713h75v-237q20 27 56 42.5t72 15.5q89 0 136 -50t47 -139v-345z" />
    <glyph glyph-name="i" unicode="i" horiz-adv-x="242" 
d="M159 0h-75v527h75v-527zM167 613h-92v108h92v-108z" />
    <glyph glyph-name="j" unicode="j" horiz-adv-x="233" 
d="M150 527v-616q0 -70 -35 -103.5t-91 -33.5h-29v73h24q55 0 56 59v621h75zM158 613h-91v108h91v-108z" />
    <glyph glyph-name="k" unicode="k" horiz-adv-x="501" 
d="M477 0h-90l-159 250l-77 -84v-166h-75v713h75v-441l230 254h99l-202 -222z" />
    <glyph glyph-name="l" unicode="l" horiz-adv-x="242" 
d="M71 136v577h75v-581q1 -59 56 -59h24v-73h-29q-56 0 -91 33.5t-35 102.5z" />
    <glyph glyph-name="m" unicode="m" horiz-adv-x="741" 
d="M670 382v-382h-75v375q1 38 -17.5 61.5t-58.5 24.5q-58 -2 -77 -26q-32 -41 -32 -101v-334h-75v372q0 37 -18.5 62.5t-55.5 26.5q-111 0 -111 -128v-333h-75v527h75v-42q43 49 117 49q77 0 112 -65q55 67 145 65q74 0 110 -46t36 -106z" />
    <glyph glyph-name="n" unicode="n" horiz-adv-x="532" 
d="M461 0h-75v345q0 61 -28 89.5t-80 26.5q-26 0 -50 -9q-21 -7 -50 -31q-26 -22 -28 -74v-347h-75v527h75v-50q20 27 55.5 42t72.5 15q88 0 135.5 -50t47.5 -139v-345z" />
    <glyph glyph-name="o" unicode="o" 
d="M458 345v-165q0 -86 -54.5 -138t-141.5 -52q-90 0 -143.5 51.5t-53.5 138.5v165q0 86 54.5 137.5t142.5 51.5q89 0 142.5 -51t53.5 -138zM383 180v165q1 41 -19 68q-33 48 -102 48q-57 0 -89 -30.5t-33 -85.5v-165q-2 -41 18 -68q37 -49 104 -49q26 0 50 8q20 7 46 31
q23 22 25 78z" />
    <glyph glyph-name="p" unicode="p" horiz-adv-x="526" 
d="M461 345v-165q0 -88 -52 -139t-141 -51q-34 0 -67.5 14t-50.5 37v-267h-75v753h75v-41q45 48 118 48q88 0 140.5 -51.5t52.5 -137.5zM386 180v165q0 55 -31 85.5t-87 30.5q-35 0 -60 -11q-26 -11 -43 -38.5t-15 -66.5v-165q0 -55 31 -85.5t87 -31.5q35 0 59 11
q27 12 44 39.5t15 66.5z" />
    <glyph glyph-name="q" unicode="q" horiz-adv-x="526" 
d="M140 345v-165q-2 -42 17 -68q34 -49 102 -49q55 1 85.5 31.5t30.5 85.5v165q2 44 -17 68q-18 27 -40.5 37.5t-58.5 10.5q-56 0 -87 -30.5t-32 -85.5zM65 180v165q0 86 53.5 137.5t140.5 51.5q34 0 66.5 -14t49.5 -36v43h75v-753h-75v267q-18 -24 -50 -37.5t-66 -13.5
q-89 0 -141.5 51t-52.5 139z" />
    <glyph glyph-name="r" unicode="r" horiz-adv-x="312" 
d="M286 455h-43q-31 1 -54 -21q-39 -40 -39 -100v-334h-75v527h75v-50q18 23 44 36.5t50 13.5h42v-72z" />
    <glyph glyph-name="s" unicode="s" horiz-adv-x="482" 
d="M436 156q0 -85 -55 -124.5t-141 -39.5t-140 48.5t-54 131.5h75q1 -51 32.5 -79t86.5 -28q46 -1 82 18q38 20 39 73q0 48 -59 63q-35 10 -132 32q-51 12 -83 46.5t-33 83.5q0 77 52 114.5t131 37.5q85 0 137 -45t56 -125h-76q-3 46 -33 71.5t-86 25.5q-102 2 -106 -79
q2 -44 59 -59q96 -22 138 -34q50 -15 79.5 -48.5t30.5 -83.5z" />
    <glyph glyph-name="t" unicode="t" horiz-adv-x="349" 
d="M16 454v73h100v186h75v-186h115v-73h-115v-322q1 -59 55 -59h62v-73h-66q-56 0 -91 33.5t-35 102.5v318h-100z" />
    <glyph glyph-name="u" unicode="u" horiz-adv-x="535" 
d="M460 0h-75v42q-18 -24 -51 -37.5t-69 -13.5q-89 0 -141.5 51t-52.5 138v347h75v-347q-2 -42 17 -68q33 -48 102 -48q54 1 86.5 30.5t33.5 80.5v352h75v-527z" />
    <glyph glyph-name="v" unicode="v" horiz-adv-x="446" 
d="M220 72h6l126 455h77l-150 -527h-112l-150 527h78z" />
    <glyph glyph-name="w" unicode="w" horiz-adv-x="686" 
d="M649 527l-121 -527h-88l-97 405l-97 -405h-87l-122 527h78l92 -434l101 434h70l101 -435l92 435h78z" />
    <glyph glyph-name="x" unicode="x" horiz-adv-x="456" 
d="M440 0h-90l-121 197l-126 -197h-87l168 263l-168 264h88l124 -202l123 202h87l-168 -265z" />
    <glyph glyph-name="y" unicode="y" horiz-adv-x="440" 
d="M220 72h6l126 455h77l-178 -627q-23 -77 -58.5 -101.5t-104.5 -24.5h-36v73h51q62 -2 78 56l27 97h-41l-150 527h78z" />
    <glyph glyph-name="z" unicode="z" horiz-adv-x="439" 
d="M403 0h-367v68l258 386h-249v73h337v-68l-259 -386h280v-73z" />
    <glyph glyph-name="braceleft" unicode="{" horiz-adv-x="304" 
d="M229 -68h-34q-64 0 -92 28.5t-28 91.5v593q0 63 27.5 91t92.5 28h34v-69h-29q-41 2 -49 -13q-7 -12 -5 -48v-575q-2 -35 5 -47q8 -13 49 -11h29v-69z" />
    <glyph glyph-name="bar" unicode="|" horiz-adv-x="221" 
d="M146 -55h-71v813h71v-813z" />
    <glyph glyph-name="braceright" unicode="}" horiz-adv-x="308" 
d="M233 644v-593q0 -64 -27.5 -92t-94.5 -28h-36v69h38q35 -1 43 9.5t6 47.5v579q2 39 -7 49t-48 9h-32v69h36q65 0 93.5 -28t28.5 -91z" />
    <glyph glyph-name="asciitilde" unicode="~" horiz-adv-x="536" 
d="M410 322l51 -40q-40 -39 -66.5 -53t-54.5 -13q-40 3 -73 22q-36 20 -75 23q-26 6 -69 -40l-48 40q38 40 64.5 54t54.5 13q37 -3 73 -23t75 -23q25 -6 68 40z" />
    <glyph glyph-name="exclamdown" unicode="&#xa1;" horiz-adv-x="252" 
d="M88 361h77v-532h-77v532zM75 542h102v-102h-102v102z" />
    <glyph glyph-name="cent" unicode="&#xa2;" horiz-adv-x="503" 
d="M297 -144h-71v137q-75 10 -118 59.5t-43 127.5v165q0 77 43.5 126.5t117.5 59.5v138h71v-138q70 -10 113 -57.5t47 -122.5h-75q-1 40 -23 66q-36 44 -97 44q-57 0 -89 -30.5t-33 -85.5v-165q-2 -41 18 -68q37 -49 104 -49q51 0 82.5 29t37.5 80h75q-6 -75 -48.5 -122
t-111.5 -57v-137z" />
    <glyph glyph-name="sterling" unicode="&#xa3;" horiz-adv-x="509" 
d="M271 717q82 0 135 -53.5t57 -137.5h-76q-1 36 -14 60q-13 25 -41 41.5t-62 14.5q-56 -1 -84 -31.5t-26 -79.5v-113h213v-76h-213v-266h302v-76h-379v342h-37v76h37v111q0 83 51 135.5t137 52.5z" />
    <glyph glyph-name="yen" unicode="&#xa5;" horiz-adv-x="521" 
d="M436 105h-138v-105h-77v105h-136v71h136v72h-136v71h111l-160 394h81l143 -358l144 358h81l-162 -394h113v-71h-138v-72h138v-71z" />
    <glyph glyph-name="brokenbar" unicode="&#xa6;" horiz-adv-x="220" 
d="M149 412h-76v317h76v-317zM149 -27h-76v318h76v-318z" />
    <glyph glyph-name="section" unicode="&#xa7;" horiz-adv-x="547" 
d="M82 381q0 59 31 94q-23 31 -25 79q0 77 52 115t132 38q87 0 140 -44.5t53 -123.5h-75q0 93 -120 93q-39 1 -75 -16q-34 -17 -35 -62q2 -44 53 -58l146 -32q52 -12 82 -47t31 -87q0 -62 -29 -98q23 -33 22 -76q0 -85 -55 -124.5t-141 -39.5t-140 45t-54 123h75
q1 -45 32 -69t87 -24q45 -1 83 17q39 18 40 72q-1 51 -55 63l-152 34q-45 10 -73.5 44t-29.5 84zM206 323l147 -33q20 -5 32 -11q14 20 14 51q-1 51 -55 63l-173 39q-17 -20 -18 -51q1 -44 53 -58z" />
    <glyph glyph-name="dieresis" unicode="&#xa8;" horiz-adv-x="447" 
d="M374 613h-92v109h92v-109zM165 613h-92v109h92v-109z" />
    <glyph glyph-name="copyright" unicode="&#xa9;" horiz-adv-x="857" 
d="M471 255h66q2 -33 -16 -62q-33 -54 -101 -54q-36 0 -58 12q-23 14 -40 43.5t-15 60.5v186q-1 31 16 59q18 29 40.5 41.5t58.5 12.5t58 -13q24 -13 41.5 -42t15.5 -59h-66q-11 56 -49 48q-19 4 -31.5 -8.5t-17.5 -40.5v-183q11 -57 49 -51q38 -6 49 50zM77 348
q0 109 60 197q22 32 55 65q38 39 102 65.5t135 26.5q75 0 137 -28q99 -42 155 -129q60 -88 60 -197q0 -106 -60 -198q-18 -27 -55 -65q-39 -39 -102.5 -65t-134.5 -26q-73 0 -138 27q-95 42 -154 129q-60 92 -60 198zM148 348q0 -87 47 -159q18 -27 43 -52q31 -31 82.5 -52
t107.5 -21q82 -1 146 40.5t88 84.5q48 74 48 159t-48 159q-24 43 -88 84.5t-146 40.5q-60 0 -110 -22q-78 -33 -123 -103q-47 -72 -47 -159z" />
    <glyph glyph-name="ordfeminine" unicode="&#xaa;" horiz-adv-x="408" 
d="M337 584v-240h-66v26q-28 -30 -74 -32q-54 -1 -80 20q-46 37 -46 97q1 50 32.5 77t83.5 27h84v23q-1 56 -60 54q-27 0 -44 -16t-18 -50h-66q0 34 12 60q14 28 45 50t70 21q48 1 77 -20q50 -36 50 -97zM271 466v31h-83q-49 1 -52 -42q1 -54 62 -52q29 0 50.5 17t22.5 46z
" />
    <glyph glyph-name="guillemotleft" unicode="&#xab;" horiz-adv-x="483" 
d="M418 65l-199 199l199 200v-100l-100 -100l100 -100v-99zM225 65l-200 199l200 200v-99l-101 -101l101 -101v-98z" />
    <glyph glyph-name="logicalnot" unicode="&#xac;" horiz-adv-x="554" 
d="M483 168h-76v164h-336v74h412v-238z" />
    <glyph glyph-name="uni00AD" unicode="&#xad;" horiz-adv-x="574" 
d="M499 247h-424v71h424v-71z" />
    <glyph glyph-name="registered" unicode="&#xae;" horiz-adv-x="857" 
d="M558 432v-23q2 -25 -15 -60q-15 -34 -64 -49l80 -158h-74l-74 154h-27v-154h-65v403h125q36 0 58 -13q24 -13 41 -41.5t15 -58.5zM493 409v21q-5 28 -17.5 41t-31.5 9h-60v-120h61q19 -4 31 8.5t17 40.5zM77 348q0 109 60 197q22 32 55 65q38 39 102 65.5t135 26.5
q75 0 137 -28q99 -42 155 -129q60 -88 60 -197q0 -106 -60 -198q-18 -27 -55 -65q-39 -39 -102.5 -65t-134.5 -26q-73 0 -138 27q-95 42 -154 129q-60 92 -60 198zM148 348q0 -87 47 -159q18 -27 43 -52q31 -31 82.5 -52t107.5 -21q82 -1 146 40.5t88 84.5q48 74 48 159
t-48 159q-24 43 -88 84.5t-146 40.5q-60 0 -110 -22q-78 -33 -123 -103q-47 -72 -47 -159z" />
    <glyph glyph-name="overscore" unicode="&#xaf;" horiz-adv-x="455" 
d="M381 626h-305v69h305v-69z" />
    <glyph glyph-name="degree" unicode="&#xb0;" horiz-adv-x="332" 
d="M291 589q0 -51 -37 -88t-89 -37q-51 0 -87.5 37t-36.5 88q0 52 36.5 88.5t87.5 36.5q52 0 89 -36.5t37 -88.5zM231 589q0 28 -18 46.5t-48 19.5q-29 -1 -46.5 -19.5t-17.5 -46.5t17.5 -46.5t46.5 -19.5q29 1 47.5 19.5t18.5 46.5z" />
    <glyph glyph-name="plusminus" unicode="&#xb1;" horiz-adv-x="557" 
d="M486 247h-171v-139h-72v139h-172v71h172v156h72v-156h171v-71zM486 0h-415v71h415v-71z" />
    <glyph glyph-name="twosuperior" unicode="&#xb2;" horiz-adv-x="365" 
d="M294 608q0 -52 -38 -83q-15 -13 -48.5 -33.5t-47.5 -30.5q-20 -13 -22 -39v-11h155v-67h-222v81q1 49 51 88q10 7 41 26.5t49 33.5q18 17 17 34q-1 42 -45 44q-21 0 -33.5 -15.5t-12.5 -44.5h-67q0 26 8 50q9 23 32 49q22 25 73 27q50 -1 79.5 -30.5t30.5 -78.5z" />
    <glyph glyph-name="threesuperior" unicode="&#xb3;" horiz-adv-x="362" 
d="M286 656l-58 -88q66 -24 64 -97v-24q1 -29 -17 -58q-32 -50 -92 -50q-33 0 -55 12q-23 14 -40 45.5t-16 69.5h66q1 -33 14.5 -47t29.5 -13q34 -6 45 41v23q-12 46 -45 40h-35v48l56 88h-117v66h200v-56z" />
    <glyph glyph-name="acute" unicode="&#xb4;" horiz-adv-x="317" 
d="M240 756l-94 -158h-70l77 158h87z" />
    <glyph glyph-name="mu" unicode="&#xb5;" horiz-adv-x="538" 
d="M150 -226h-75v752h75v-346q-2 -42 17 -68q20 -27 43 -37.5t59 -10.5q54 1 86 30.5t33 80.5v351h75v-526h-75v41q-19 -23 -51 -36.5t-68 -13.5q-33 0 -67.5 12.5t-51.5 30.5v-260z" />
    <glyph glyph-name="paragraph" unicode="&#xb6;" horiz-adv-x="508" 
d="M413 0h-75v635h-96v-635h-75v382q-78 2 -125 47t-47 111q0 169 182 169h236v-709z" />
    <glyph glyph-name="middot" unicode="&#xb7;" horiz-adv-x="256" 
d="M181 213h-106v107h106v-107z" />
    <glyph glyph-name="cedilla" unicode="&#xb8;" horiz-adv-x="296" 
d="M66 -201l93 158h70l-78 -158h-85z" />
    <glyph glyph-name="onesuperior" unicode="&#xb9;" horiz-adv-x="347" 
d="M276 344h-205v66h69v235l-51 -5v65l116 11v-306h71v-66z" />
    <glyph glyph-name="ordmasculine" unicode="&#xba;" horiz-adv-x="410" 
d="M204 401q68 1 66 65v105q0 64 -66 64t-66 -64v-105q-2 -64 66 -65zM204 336q-61 0 -97 35t-36 95v105q0 59 36.5 94t96.5 35t96.5 -35t36.5 -94v-105q0 -60 -36 -95t-97 -35z" />
    <glyph glyph-name="guillemotright" unicode="&#xbb;" horiz-adv-x="482" 
d="M457 265l-198 -199v98l100 101l-100 100v100zM263 265l-198 -199v98l101 101l-101 100v100z" />
    <glyph glyph-name="onequarter" unicode="&#xbc;" horiz-adv-x="711" 
d="M276 344h-205v66h69v235l-51 -5v65l117 11v-306h70v-66zM529 759l-265 -811h-71l266 811h70zM640 0h-66v95h-148v53l82 221h66l-76 -208h76v126h66v-287z" />
    <glyph glyph-name="onehalf" unicode="&#xbd;" horiz-adv-x="742" 
d="M276 344h-205v66h68v235l-50 -4v64l116 11v-306h71v-66zM671 263q0 -50 -38 -83q-18 -14 -49 -31q-68 -35 -69 -72v-10h155v-67h-222v80q0 53 50 89l64 40q38 24 43 53q-1 42 -45 44q-20 0 -32.5 -16t-12.5 -44h-67q0 27 8 51q9 21 32 48q22 25 72 27q50 -1 80 -30.5
t31 -78.5zM528 759l-264 -811h-72l266 811h70z" />
    <glyph glyph-name="threequarters" unicode="&#xbe;" horiz-adv-x="721" 
d="M651 0h-66v95h-149v53l82 221h67l-76 -208h76v126h66v-287zM286 656l-58 -88q67 -24 65 -97v-24q1 -29 -17 -58q-33 -50 -93 -50q-33 0 -55 12q-23 14 -40 45.5t-16 69.5h66q1 -33 14.5 -47t29.5 -13q34 -6 45 41v23q-12 46 -45 40h-35v48l56 88h-116v66h199v-56z
M539 759l-264 -811h-72l267 811h69z" />
    <glyph glyph-name="questiondown" unicode="&#xbf;" horiz-adv-x="422" 
d="M204 350h77v-44q-1 -84 -45 -129q-17 -17 -56 -47.5t-56 -49.5q-26 -22 -27 -69q0 -59 31.5 -90.5t91.5 -31.5q34 -1 65 16t44.5 41t15.5 64h77q0 -68 -42 -124q-34 -43 -72 -57t-88 -16q-89 0 -144.5 54.5t-55.5 142.5q0 61 45 113q14 14 55 47.5t59 53.5q25 22 25 81
v45zM190 532h103v-103h-103v103z" />
    <glyph glyph-name="Agrave" unicode="&#xc0;" horiz-adv-x="540" 
d="M520 0h-76l-52 201h-241l-54 -201h-77l186 713h125zM372 276l-95 366h-13l-95 -366h203zM322 780h-71l-93 158h86z" />
    <glyph glyph-name="Aacute" unicode="&#xc1;" horiz-adv-x="540" 
d="M520 0h-76l-52 201h-241l-54 -201h-77l186 713h125zM372 276l-95 366h-13l-95 -366h203zM382 938l-94 -158h-70l77 158h87z" />
    <glyph glyph-name="Acircumflex" unicode="&#xc2;" horiz-adv-x="540" 
d="M520 0h-76l-52 201h-241l-54 -201h-77l186 713h125zM372 276l-95 366h-13l-95 -366h203zM408 780h-71l-68 89l-67 -89h-71l107 157h63z" />
    <glyph glyph-name="Atilde" unicode="&#xc3;" horiz-adv-x="540" 
d="M520 0h-76l-52 201h-241l-54 -201h-77l186 713h125zM372 276l-95 366h-13l-95 -366h203zM386 882l47 -46q-61 -58 -102 -56q-33 3 -65 21q-31 19 -57 22q-14 6 -56 -33l-47 45q62 59 102 57q35 -3 66 -22q31 -18 56 -21q16 -4 56 33z" />
    <glyph glyph-name="Adieresis" unicode="&#xc4;" horiz-adv-x="540" 
d="M520 0h-76l-52 201h-241l-54 -201h-77l186 713h125zM372 276l-95 366h-13l-95 -366h203zM420 780h-92v109h92v-109zM211 780h-92v109h92v-109z" />
    <glyph glyph-name="Aring" unicode="&#xc5;" horiz-adv-x="540" 
d="M520 0h-76l-52 201h-241l-54 -201h-77l186 713h125zM372 276l-95 366h-13l-95 -366h203zM377 851q-1 -45 -32 -75.5t-76 -31.5q-45 1 -75 31.5t-31 75.5q1 45 31 75.5t75 31.5q46 -1 76.5 -31t31.5 -76zM323 851q-5 49 -54 53q-47 -5 -52 -53q5 -47 52 -52q49 4 54 52z
" />
    <glyph glyph-name="AE" unicode="&#xc6;" horiz-adv-x="779" 
d="M733 0h-385v201h-199l-53 -201h-76l186 713h527v-76h-308v-222h285v-76h-285v-263h308v-76zM263 637l-95 -361h180v361h-85z" />
    <glyph glyph-name="Ccedilla" unicode="&#xc7;" horiz-adv-x="516" 
d="M391 182h77q0 -65 -41 -119q-35 -42 -73 -56t-88 -16q-56 0 -108 26q-42 22 -69 75t-24 91v348q0 62 40 117q35 42 73 56t89 16q56 0 107 -26q42 -20 69.5 -73t24.5 -91h-77q0 37 -14 60q-13 24 -45 40.5t-65 14.5q-36 2 -67 -16q-31 -17 -44.5 -40.5t-13.5 -59.5v-346
q0 -39 13 -61q15 -25 46.5 -41.5t65.5 -14.5q34 -1 65 15q32 18 45.5 41t13.5 60zM141 -201l93 158h70l-78 -158h-85z" />
    <glyph glyph-name="Egrave" unicode="&#xc8;" horiz-adv-x="505" 
d="M460 0h-385v713h385v-76h-308v-222h285v-76h-285v-263h308v-76zM324 780h-71l-93 158h86z" />
    <glyph glyph-name="Eacute" unicode="&#xc9;" horiz-adv-x="505" 
d="M460 0h-385v713h385v-76h-308v-222h285v-76h-285v-263h308v-76zM369 938l-94 -158h-70l77 158h87z" />
    <glyph glyph-name="Ecircumflex" unicode="&#xca;" horiz-adv-x="505" 
d="M460 0h-385v713h385v-76h-308v-222h285v-76h-285v-263h308v-76zM394 780h-71l-68 89l-67 -89h-71l107 157h63z" />
    <glyph glyph-name="Edieresis" unicode="&#xcb;" horiz-adv-x="505" 
d="M460 0h-385v713h385v-76h-308v-222h285v-76h-285v-263h308v-76zM403 780h-92v109h92v-109zM194 780h-92v109h92v-109z" />
    <glyph glyph-name="Igrave" unicode="&#xcc;" horiz-adv-x="227" 
d="M75 713h77v-713h-77v713zM148 780h-71l-93 158h86z" />
    <glyph glyph-name="Iacute" unicode="&#xcd;" horiz-adv-x="227" 
d="M75 713h77v-713h-77v713zM242 938l-94 -158h-70l77 158h87z" />
    <glyph glyph-name="Icircumflex" unicode="&#xce;" horiz-adv-x="227" 
d="M75 713h77v-713h-77v713zM252 780h-71l-68 89l-67 -89h-71l107 157h63z" />
    <glyph glyph-name="Idieresis" unicode="&#xcf;" horiz-adv-x="227" 
d="M75 713h77v-713h-77v713zM264 780h-92v109h92v-109zM55 780h-92v109h92v-109z" />
    <glyph glyph-name="Eth" unicode="&#xd0;" horiz-adv-x="559" 
d="M494 524v-333q0 -66 -35 -119q-31 -42 -68 -56.5t-85 -15.5h-215v339h-74v71h74v303h211q59 0 107 -26q42 -20 64.5 -71.5t20.5 -91.5zM314 339h-146v-263h136q35 -2 62 15q51 33 51 101v329q0 39 -12 61q-13 25 -41 41t-62 14h-134v-227h146v-71z" />
    <glyph glyph-name="Ntilde" unicode="&#xd1;" horiz-adv-x="558" 
d="M483 0h-93l-238 560v-560h-77v713h91l240 -568v568h77v-713zM395 882l47 -46q-61 -58 -102 -56q-33 3 -65 21q-31 19 -57 22q-14 6 -56 -33l-47 45q62 59 102 57q35 -3 66 -22q31 -18 56 -21q16 -4 56 33z" />
    <glyph glyph-name="Ograve" unicode="&#xd2;" horiz-adv-x="533" 
d="M468 530v-348q0 -67 -41 -121q-35 -41 -73 -54.5t-88 -15.5q-56 0 -108 26q-42 20 -69 73.5t-24 92.5v348q0 63 40 118q34 42 72.5 55.5t89.5 15.5q56 0 107 -26q42 -19 69.5 -72t24.5 -92zM391 183v346q0 37 -14 60q-13 24 -45 41t-65 15q-36 2 -67 -16
q-31 -17 -44.5 -40.5t-13.5 -59.5v-346q0 -39 13 -61q15 -25 46.5 -41.5t65.5 -14.5q34 -1 65 15q32 18 45.5 41t13.5 61zM318 780h-71l-93 158h86z" />
    <glyph glyph-name="Oacute" unicode="&#xd3;" horiz-adv-x="533" 
d="M468 530v-348q0 -67 -41 -121q-35 -41 -73 -54.5t-88 -15.5q-56 0 -108 26q-42 20 -69 73.5t-24 92.5v348q0 63 40 118q34 42 72.5 55.5t89.5 15.5q56 0 107 -26q42 -19 69.5 -72t24.5 -92zM391 183v346q0 37 -14 60q-13 24 -45 41t-65 15q-36 2 -67 -16
q-31 -17 -44.5 -40.5t-13.5 -59.5v-346q0 -39 13 -61q15 -25 46.5 -41.5t65.5 -14.5q34 -1 65 15q32 18 45.5 41t13.5 61zM388 938l-94 -158h-70l77 158h87z" />
    <glyph glyph-name="Ocircumflex" unicode="&#xd4;" horiz-adv-x="533" 
d="M468 530v-348q0 -67 -41 -121q-35 -41 -73 -54.5t-88 -15.5q-56 0 -108 26q-42 20 -69 73.5t-24 92.5v348q0 63 40 118q34 42 72.5 55.5t89.5 15.5q56 0 107 -26q42 -19 69.5 -72t24.5 -92zM391 183v346q0 37 -14 60q-13 24 -45 41t-65 15q-36 2 -67 -16
q-31 -17 -44.5 -40.5t-13.5 -59.5v-346q0 -39 13 -61q15 -25 46.5 -41.5t65.5 -14.5q34 -1 65 15q32 18 45.5 41t13.5 61zM405 780h-71l-68 89l-67 -89h-71l107 157h63z" />
    <glyph glyph-name="Otilde" unicode="&#xd5;" horiz-adv-x="533" 
d="M468 530v-348q0 -67 -41 -121q-35 -41 -73 -54.5t-88 -15.5q-56 0 -108 26q-42 20 -69 73.5t-24 92.5v348q0 63 40 118q34 42 72.5 55.5t89.5 15.5q56 0 107 -26q42 -19 69.5 -72t24.5 -92zM391 183v346q0 37 -14 60q-13 24 -45 41t-65 15q-36 2 -67 -16
q-31 -17 -44.5 -40.5t-13.5 -59.5v-346q0 -39 13 -61q15 -25 46.5 -41.5t65.5 -14.5q34 -1 65 15q32 18 45.5 41t13.5 61zM383 882l47 -46q-61 -58 -102 -56q-33 3 -65 21q-31 19 -57 22q-14 6 -56 -33l-47 45q62 59 102 57q35 -3 66 -22q31 -18 56 -21q16 -4 56 33z" />
    <glyph glyph-name="Odieresis" unicode="&#xd6;" horiz-adv-x="533" 
d="M468 530v-348q0 -67 -41 -121q-35 -41 -73 -54.5t-88 -15.5q-56 0 -108 26q-42 20 -69 73.5t-24 92.5v348q0 63 40 118q34 42 72.5 55.5t89.5 15.5q56 0 107 -26q42 -19 69.5 -72t24.5 -92zM391 183v346q0 37 -14 60q-13 24 -45 41t-65 15q-36 2 -67 -16
q-31 -17 -44.5 -40.5t-13.5 -59.5v-346q0 -39 13 -61q15 -25 46.5 -41.5t65.5 -14.5q34 -1 65 15q32 18 45.5 41t13.5 61zM417 780h-92v109h92v-109zM208 780h-92v109h92v-109z" />
    <glyph glyph-name="multiply" unicode="&#xd7;" horiz-adv-x="565" 
d="M461 139l-49 -48l-130 129l-129 -129l-49 48l130 130l-130 130l49 49l129 -130l130 130l49 -49l-130 -130z" />
    <glyph glyph-name="Oslash" unicode="&#xd8;" horiz-adv-x="533" 
d="M480 757l-52 -111q40 -54 40 -116v-348q0 -67 -41 -121q-35 -41 -73 -54.5t-88 -15.5q-78 0 -126 38l-39 -83h-57l57 123q-36 52 -36 114v348q0 63 40 118q34 42 72.5 55.5t89.5 15.5q72 0 122 -36l35 73h56zM391 183v346q0 17 -3 30l-215 -460q35 -33 94 -33
q34 -1 65 15q32 18 45.5 41t13.5 61zM142 529v-346q0 -10 2 -24l213 455q-37 31 -90 31q-36 2 -67 -16q-31 -17 -44.5 -40.5t-13.5 -59.5z" />
    <glyph glyph-name="Ugrave" unicode="&#xd9;" horiz-adv-x="534" 
d="M469 713v-531q0 -64 -40 -121q-33 -41 -72 -54.5t-89 -15.5q-57 0 -110 25q-44 20 -70 72.5t-23 94.5v530h77v-530q2 -40 14 -61q13 -24 45.5 -41t65.5 -15q35 -2 66 15q32 18 45.5 41t13.5 61v530h77zM329 780h-71l-93 158h86z" />
    <glyph glyph-name="Uacute" unicode="&#xda;" horiz-adv-x="534" 
d="M469 713v-531q0 -64 -40 -121q-33 -41 -72 -54.5t-89 -15.5q-57 0 -110 25q-44 20 -70 72.5t-23 94.5v530h77v-530q2 -40 14 -61q13 -24 45.5 -41t65.5 -15q35 -2 66 15q32 18 45.5 41t13.5 61v530h77zM379 938l-94 -158h-70l77 158h87z" />
    <glyph glyph-name="Ucircumflex" unicode="&#xdb;" horiz-adv-x="534" 
d="M469 713v-531q0 -64 -40 -121q-33 -41 -72 -54.5t-89 -15.5q-57 0 -110 25q-44 20 -70 72.5t-23 94.5v530h77v-530q2 -40 14 -61q13 -24 45.5 -41t65.5 -15q35 -2 66 15q32 18 45.5 41t13.5 61v530h77zM405 780h-71l-68 89l-67 -89h-71l107 157h63z" />
    <glyph glyph-name="Udieresis" unicode="&#xdc;" horiz-adv-x="534" 
d="M469 713v-531q0 -64 -40 -121q-33 -41 -72 -54.5t-89 -15.5q-57 0 -110 25q-44 20 -70 72.5t-23 94.5v530h77v-530q2 -40 14 -61q13 -24 45.5 -41t65.5 -15q35 -2 66 15q32 18 45.5 41t13.5 61v530h77zM417 780h-92v109h92v-109zM208 780h-92v109h92v-109z" />
    <glyph glyph-name="Yacute" unicode="&#xdd;" horiz-adv-x="494" 
d="M473 713l-188 -456v-257h-77v259l-187 454h83l143 -358l143 358h83zM359 938l-94 -158h-70l77 158h87z" />
    <glyph glyph-name="Thorn" unicode="&#xde;" horiz-adv-x="557" 
d="M75 713h77v-155h153q87 0 139.5 -55t52.5 -143q0 -91 -52 -145.5t-140 -54.5h-153v-160h-77v713zM305 482h-153v-246h153q42 -2 68 18q26 21 36.5 45t10.5 61q0 26 -8 50q-8 23 -30 47t-77 25z" />
    <glyph glyph-name="germandbls" unicode="&#xdf;" horiz-adv-x="541" 
d="M230 75h60q34 -1 63 15q51 33 51 101v50q0 36 -11 60q-10 25 -36.5 41.5t-57.5 14.5h-34v75h33q81 0 81 95q0 37 -12 60q-12 25 -40 41.5t-60 14.5q-35 2 -63 -16q-52 -32 -52 -100v-527h-77v530q0 66 36 117q54 69 156 71q57 0 105 -26q41 -20 63.5 -71.5t20.5 -92.5
q0 -88 -59 -129q26 -14 43 -34q18 -21 30 -55.5t11 -65.5v-53q0 -66 -35 -119q-19 -30 -49 -46q-48 -26 -105 -26h-62v75z" />
    <glyph glyph-name="agrave" unicode="&#xe0;" horiz-adv-x="512" 
d="M440 364v-364h-75v50q-18 -26 -56 -42.5t-83 -16.5q-72 0 -123.5 43.5t-51.5 127.5q0 71 47 110t122 39h145v50q-1 102 -108 100q-47 1 -77 -23t-34 -75h-75q2 59 32.5 99t69.5 56t83 16q76 0 130 -41.5t54 -128.5zM365 179v61h-143q-95 0 -96 -78q1 -57 35 -78
q35 -21 77 -20q49 0 77 22q50 42 50 93zM318 598h-71l-93 158h86z" />
    <glyph glyph-name="aacute" unicode="&#xe1;" horiz-adv-x="512" 
d="M440 364v-364h-75v50q-18 -26 -56 -42.5t-83 -16.5q-72 0 -123.5 43.5t-51.5 127.5q0 71 47 110t122 39h145v50q-1 102 -108 100q-47 1 -77 -23t-34 -75h-75q2 59 32.5 99t69.5 56t83 16q76 0 130 -41.5t54 -128.5zM365 179v61h-143q-95 0 -96 -78q1 -57 35 -78
q35 -21 77 -20q49 0 77 22q50 42 50 93zM358 756l-94 -158h-70l77 158h87z" />
    <glyph glyph-name="acircumflex" unicode="&#xe2;" horiz-adv-x="512" 
d="M440 364v-364h-75v50q-18 -26 -56 -42.5t-83 -16.5q-72 0 -123.5 43.5t-51.5 127.5q0 71 47 110t122 39h145v50q-1 102 -108 100q-47 1 -77 -23t-34 -75h-75q2 59 32.5 99t69.5 56t83 16q76 0 130 -41.5t54 -128.5zM365 179v61h-143q-95 0 -96 -78q1 -57 35 -78
q35 -21 77 -20q49 0 77 22q50 42 50 93zM394 598h-71l-68 89l-67 -89h-71l107 157h63z" />
    <glyph glyph-name="atilde" unicode="&#xe3;" horiz-adv-x="512" 
d="M440 364v-364h-75v50q-18 -26 -56 -42.5t-83 -16.5q-72 0 -123.5 43.5t-51.5 127.5q0 71 47 110t122 39h145v50q-1 102 -108 100q-47 1 -77 -23t-34 -75h-75q2 59 32.5 99t69.5 56t83 16q76 0 130 -41.5t54 -128.5zM365 179v61h-143q-95 0 -96 -78q1 -57 35 -78
q35 -21 77 -20q49 0 77 22q50 42 50 93zM372 702l47 -46q-61 -58 -102 -56q-33 3 -65 21q-31 19 -57 22q-14 6 -56 -33l-47 45q62 59 102 57q35 -3 66 -22q31 -18 56 -21q16 -4 56 33z" />
    <glyph glyph-name="adieresis" unicode="&#xe4;" horiz-adv-x="512" 
d="M440 364v-364h-75v50q-18 -26 -56 -42.5t-83 -16.5q-72 0 -123.5 43.5t-51.5 127.5q0 71 47 110t122 39h145v50q-1 102 -108 100q-47 1 -77 -23t-34 -75h-75q2 59 32.5 99t69.5 56t83 16q76 0 130 -41.5t54 -128.5zM365 179v61h-143q-95 0 -96 -78q1 -57 35 -78
q35 -21 77 -20q49 0 77 22q50 42 50 93zM406 613h-92v109h92v-109zM197 613h-92v109h92v-109z" />
    <glyph glyph-name="aring" unicode="&#xe5;" horiz-adv-x="512" 
d="M440 364v-364h-75v50q-18 -26 -56 -42.5t-83 -16.5q-72 0 -123.5 43.5t-51.5 127.5q0 71 47 110t122 39h145v50q-1 102 -108 100q-47 1 -77 -23t-34 -75h-75q2 59 32.5 99t69.5 56t83 16q76 0 130 -41.5t54 -128.5zM365 179v61h-143q-95 0 -96 -78q1 -57 35 -78
q35 -21 77 -20q49 0 77 22q50 42 50 93zM363 665q-1 -45 -32 -75.5t-76 -31.5q-45 1 -75 31.5t-31 75.5q1 45 31 75.5t75 31.5q46 -1 76.5 -31t31.5 -76zM309 665q-5 49 -54 53q-47 -5 -52 -53q5 -47 52 -52q49 4 54 52z" />
    <glyph glyph-name="ae" unicode="&#xe6;" horiz-adv-x="818" 
d="M753 345v-106h-311v-59q-2 -42 16 -68q33 -48 102 -48q50 0 80 28t36 80h76q-6 -83 -58 -132t-134 -49q-25 0 -49 7q-25 8 -58 25q-33 19 -53 57q-21 -40 -57 -58q-62 -31 -117 -31q-73 0 -124 43.5t-51 127.5q0 71 49 110.5t124 39.5h142v50q-1 101 -110 99
q-44 1 -74 -23t-34 -75h-76q3 86 59.5 128.5t124.5 42.5q46 0 88 -20t63 -55q19 33 61 53.5t92 21.5q89 0 141 -51t52 -138zM366 178v63h-139q-99 0 -100 -79q1 -100 110 -98q34 0 57 10q29 14 50.5 40.5t21.5 63.5zM677 312v33q2 44 -17 68q-18 27 -40.5 37.5t-59.5 10.5
q-55 0 -86 -29t-32 -81v-39h235z" />
    <glyph glyph-name="ccedilla" unicode="&#xe7;" horiz-adv-x="503" 
d="M262 534q86 0 137.5 -48.5t57.5 -134.5h-75q-1 40 -23 66q-36 44 -97 44q-57 0 -89 -30.5t-33 -85.5v-165q-2 -41 18 -68q37 -49 104 -49q51 0 82.5 29t37.5 80h75q-8 -84 -60 -133t-135 -49q-90 0 -143.5 51.5t-53.5 138.5v165q0 86 54.5 137.5t142.5 51.5zM146 -201
l93 158h70l-78 -158h-85z" />
    <glyph glyph-name="egrave" unicode="&#xe8;" 
d="M458 345v-106h-318v-59q-2 -41 18 -68q37 -49 104 -49q51 0 82.5 29t37.5 80h75q-8 -84 -60 -133t-135 -49q-90 0 -143.5 51.5t-53.5 138.5v165q0 86 54.5 137.5t142.5 51.5q89 0 142.5 -51t53.5 -138zM383 312v33q1 41 -19 68q-33 48 -102 48q-57 0 -89 -30.5t-33 -85.5
v-33h243zM318 598h-71l-93 158h86z" />
    <glyph glyph-name="eacute" unicode="&#xe9;" 
d="M458 345v-106h-318v-59q-2 -41 18 -68q37 -49 104 -49q51 0 82.5 29t37.5 80h75q-8 -84 -60 -133t-135 -49q-90 0 -143.5 51.5t-53.5 138.5v165q0 86 54.5 137.5t142.5 51.5q89 0 142.5 -51t53.5 -138zM383 312v33q1 41 -19 68q-33 48 -102 48q-57 0 -89 -30.5t-33 -85.5
v-33h243zM358 756l-94 -158h-70l77 158h87z" />
    <glyph glyph-name="ecircumflex" unicode="&#xea;" 
d="M458 345v-106h-318v-59q-2 -41 18 -68q37 -49 104 -49q51 0 82.5 29t37.5 80h75q-8 -84 -60 -133t-135 -49q-90 0 -143.5 51.5t-53.5 138.5v165q0 86 54.5 137.5t142.5 51.5q89 0 142.5 -51t53.5 -138zM383 312v33q1 41 -19 68q-33 48 -102 48q-57 0 -89 -30.5t-33 -85.5
v-33h243zM397 598h-71l-68 89l-67 -89h-71l107 157h63z" />
    <glyph glyph-name="edieresis" unicode="&#xeb;" 
d="M458 345v-106h-318v-59q-2 -41 18 -68q37 -49 104 -49q51 0 82.5 29t37.5 80h75q-8 -84 -60 -133t-135 -49q-90 0 -143.5 51.5t-53.5 138.5v165q0 86 54.5 137.5t142.5 51.5q89 0 142.5 -51t53.5 -138zM383 312v33q1 41 -19 68q-33 48 -102 48q-57 0 -89 -30.5t-33 -85.5
v-33h243zM409 613h-92v109h92v-109zM200 613h-92v109h92v-109z" />
    <glyph glyph-name="igrave" unicode="&#xec;" horiz-adv-x="225" 
d="M150 0h-75v526h75v-526zM149 598h-71l-93 158h86z" />
    <glyph glyph-name="iacute" unicode="&#xed;" horiz-adv-x="225" 
d="M150 0h-75v526h75v-526zM244 756l-94 -158h-70l77 158h87z" />
    <glyph glyph-name="icircumflex" unicode="&#xee;" horiz-adv-x="225" 
d="M150 0h-75v526h75v-526zM251 598h-71l-68 89l-67 -89h-71l107 157h63z" />
    <glyph glyph-name="idieresis" unicode="&#xef;" horiz-adv-x="225" 
d="M150 0h-75v526h75v-526zM263 613h-92v109h92v-109zM54 613h-92v109h92v-109z" />
    <glyph glyph-name="eth" unicode="&#xf0;" horiz-adv-x="539" 
d="M461 532v-357q0 -62 -41 -115q-57 -67 -156 -69q-56 0 -108 26q-42 20 -68 71.5t-23 88.5v81q0 61 39 117q33 42 70 56t86 16q37 -1 72 -16t54 -37v136q0 10 -2 24l-70 -70l-48 47l85 86q-44 31 -88 28v75q91 0 141 -50l80 80l47 -47l-88 -89q19 -45 18 -82zM386 180v77
q0 38 -13 60q-13 24 -44.5 41t-64.5 15q-35 2 -66 -16q-57 -32 -58 -100v-77q2 -39 14 -60q13 -24 45 -40.5t65 -14.5q34 -1 65 15q31 17 44 40t13 60z" />
    <glyph glyph-name="ntilde" unicode="&#xf1;" horiz-adv-x="532" 
d="M461 0h-75v345q0 61 -28 89.5t-80 26.5q-26 0 -50 -9q-21 -7 -50 -31q-26 -22 -28 -74v-347h-75v527h75v-50q20 27 55.5 42t72.5 15q88 0 135.5 -50t47.5 -139v-345zM382 702l47 -46q-61 -58 -102 -56q-33 3 -65 21q-31 19 -57 22q-14 6 -56 -33l-47 45q62 59 102 57
q35 -3 66 -22q31 -18 56 -21q16 -4 56 33z" />
    <glyph glyph-name="ograve" unicode="&#xf2;" 
d="M458 345v-165q0 -86 -54.5 -138t-141.5 -52q-90 0 -143.5 51.5t-53.5 138.5v165q0 86 54.5 137.5t142.5 51.5q89 0 142.5 -51t53.5 -138zM383 180v165q1 41 -19 68q-33 48 -102 48q-57 0 -89 -30.5t-33 -85.5v-165q-2 -41 18 -68q37 -49 104 -49q26 0 50 8q20 7 46 31
q23 22 25 78zM318 598h-71l-93 158h86z" />
    <glyph glyph-name="oacute" unicode="&#xf3;" 
d="M458 345v-165q0 -86 -54.5 -138t-141.5 -52q-90 0 -143.5 51.5t-53.5 138.5v165q0 86 54.5 137.5t142.5 51.5q89 0 142.5 -51t53.5 -138zM383 180v165q1 41 -19 68q-33 48 -102 48q-57 0 -89 -30.5t-33 -85.5v-165q-2 -41 18 -68q37 -49 104 -49q26 0 50 8q20 7 46 31
q23 22 25 78zM368 756l-94 -158h-70l77 158h87z" />
    <glyph glyph-name="ocircumflex" unicode="&#xf4;" 
d="M458 345v-165q0 -86 -54.5 -138t-141.5 -52q-90 0 -143.5 51.5t-53.5 138.5v165q0 86 54.5 137.5t142.5 51.5q89 0 142.5 -51t53.5 -138zM383 180v165q1 41 -19 68q-33 48 -102 48q-57 0 -89 -30.5t-33 -85.5v-165q-2 -41 18 -68q37 -49 104 -49q26 0 50 8q20 7 46 31
q23 22 25 78zM400 598h-71l-68 89l-67 -89h-71l107 157h63z" />
    <glyph glyph-name="otilde" unicode="&#xf5;" 
d="M458 345v-165q0 -86 -54.5 -138t-141.5 -52q-90 0 -143.5 51.5t-53.5 138.5v165q0 86 54.5 137.5t142.5 51.5q89 0 142.5 -51t53.5 -138zM383 180v165q1 41 -19 68q-33 48 -102 48q-57 0 -89 -30.5t-33 -85.5v-165q-2 -41 18 -68q37 -49 104 -49q26 0 50 8q20 7 46 31
q23 22 25 78zM378 702l47 -46q-61 -58 -102 -56q-33 3 -65 21q-31 19 -57 22q-14 6 -56 -33l-47 45q62 59 102 57q35 -3 66 -22q31 -18 56 -21q16 -4 56 33z" />
    <glyph glyph-name="odieresis" unicode="&#xf6;" 
d="M458 345v-165q0 -86 -54.5 -138t-141.5 -52q-90 0 -143.5 51.5t-53.5 138.5v165q0 86 54.5 137.5t142.5 51.5q89 0 142.5 -51t53.5 -138zM383 180v165q1 41 -19 68q-33 48 -102 48q-57 0 -89 -30.5t-33 -85.5v-165q-2 -41 18 -68q37 -49 104 -49q26 0 50 8q20 7 46 31
q23 22 25 78zM412 613h-92v109h92v-109zM203 613h-92v109h92v-109z" />
    <glyph glyph-name="divide" unicode="&#xf7;" horiz-adv-x="527" 
d="M314 0h-109v110h109v-110zM314 317h-109v110h109v-110zM448 179h-376v71h376v-71z" />
    <glyph glyph-name="oslash" unicode="&#xf8;" 
d="M437 577l-42 -87q63 -50 63 -145v-165q0 -86 -54.5 -138t-141.5 -52q-57 0 -96 19l-29 -61h-58l43 90q-57 51 -57 142v165q0 86 54.5 137.5t142.5 51.5q49 0 89 -17l29 60h57zM383 180v165q1 38 -22 74l-164 -343q24 -11 65 -13q26 0 50 8q20 7 46 31q23 22 25 78z
M140 345v-165q-1 -34 17 -68l163 339q-23 10 -58 10q-57 0 -89 -30.5t-33 -85.5z" />
    <glyph glyph-name="ugrave" unicode="&#xf9;" horiz-adv-x="535" 
d="M460 0h-75v42q-18 -24 -51 -37.5t-69 -13.5q-89 0 -141.5 51t-52.5 138v347h75v-347q-2 -42 17 -68q33 -48 102 -48q54 1 86.5 30.5t33.5 80.5v352h75v-527zM319 598h-71l-93 158h86z" />
    <glyph glyph-name="uacute" unicode="&#xfa;" horiz-adv-x="535" 
d="M460 0h-75v42q-18 -24 -51 -37.5t-69 -13.5q-89 0 -141.5 51t-52.5 138v347h75v-347q-2 -42 17 -68q33 -48 102 -48q54 1 86.5 30.5t33.5 80.5v352h75v-527zM369 756l-94 -158h-70l77 158h87z" />
    <glyph glyph-name="ucircumflex" unicode="&#xfb;" horiz-adv-x="535" 
d="M460 0h-75v42q-18 -24 -51 -37.5t-69 -13.5q-89 0 -141.5 51t-52.5 138v347h75v-347q-2 -42 17 -68q33 -48 102 -48q54 1 86.5 30.5t33.5 80.5v352h75v-527zM406 598h-71l-68 89l-67 -89h-71l107 157h63z" />
    <glyph glyph-name="udieresis" unicode="&#xfc;" horiz-adv-x="535" 
d="M460 0h-75v42q-18 -24 -51 -37.5t-69 -13.5q-89 0 -141.5 51t-52.5 138v347h75v-347q-2 -42 17 -68q33 -48 102 -48q54 1 86.5 30.5t33.5 80.5v352h75v-527zM418 613h-92v109h92v-109zM209 613h-92v109h92v-109z" />
    <glyph glyph-name="yacute" unicode="&#xfd;" horiz-adv-x="440" 
d="M220 72h6l126 455h77l-178 -627q-23 -77 -58.5 -101.5t-104.5 -24.5h-36v73h51q62 -2 78 56l27 97h-41l-150 527h78zM326 756l-94 -158h-70l77 158h87z" />
    <glyph glyph-name="thorn" unicode="&#xfe;" horiz-adv-x="525" 
d="M460 345v-165q0 -86 -52.5 -138t-139.5 -52q-34 0 -67.5 14.5t-50.5 36.5v-267h-75v928h75v-220q18 24 50 38t68 14q88 0 140 -51t52 -138zM385 180v165q2 44 -17 68q-18 27 -40.5 37.5t-59.5 10.5q-57 0 -87.5 -30.5t-30.5 -85.5v-165q-2 -42 16 -68q19 -27 42 -38
t60 -11q55 1 86 31.5t31 85.5z" />
    <glyph glyph-name="ydieresis" unicode="&#xff;" horiz-adv-x="440" 
d="M220 72h6l126 455h77l-178 -627q-23 -77 -58.5 -101.5t-104.5 -24.5h-36v73h51q62 -2 78 56l27 97h-41l-150 527h78zM371 613h-92v109h92v-109zM162 613h-92v109h92v-109z" />
    <glyph glyph-name="Amacron" unicode="&#x100;" horiz-adv-x="540" 
d="M520 0h-76l-52 201h-241l-54 -201h-77l186 713h125zM372 276l-95 366h-13l-95 -366h203zM422 800h-305v69h305v-69z" />
    <glyph glyph-name="amacron" unicode="&#x101;" horiz-adv-x="512" 
d="M440 364v-364h-75v50q-18 -26 -56 -42.5t-83 -16.5q-72 0 -123.5 43.5t-51.5 127.5q0 71 47 110t122 39h145v50q-1 102 -108 100q-47 1 -77 -23t-34 -75h-75q2 59 32.5 99t69.5 56t83 16q76 0 130 -41.5t54 -128.5zM365 179v61h-143q-95 0 -96 -78q1 -57 35 -78
q35 -21 77 -20q49 0 77 22q50 42 50 93zM408 626h-305v69h305v-69z" />
    <glyph glyph-name="Abreve" unicode="&#x102;" horiz-adv-x="540" 
d="M520 0h-76l-52 201h-241l-54 -201h-77l186 713h125zM372 276l-95 366h-13l-95 -366h203zM271 780q-59 0 -99 34.5t-48 103.5h64q11 -80 83 -80t83 80h63q-6 -68 -46.5 -103t-99.5 -35z" />
    <glyph glyph-name="abreve" unicode="&#x103;" horiz-adv-x="512" 
d="M440 364v-364h-75v50q-18 -26 -56 -42.5t-83 -16.5q-72 0 -123.5 43.5t-51.5 127.5q0 71 47 110t122 39h145v50q-1 102 -108 100q-47 1 -77 -23t-34 -75h-75q2 59 32.5 99t69.5 56t83 16q76 0 130 -41.5t54 -128.5zM365 179v61h-143q-95 0 -96 -78q1 -57 35 -78
q35 -21 77 -20q49 0 77 22q50 42 50 93zM256 598q-59 0 -99 34.5t-48 103.5h64q11 -80 83 -80t83 80h63q-6 -68 -46.5 -103t-99.5 -35z" />
    <glyph glyph-name="Aogonek" unicode="&#x104;" horiz-adv-x="540" 
d="M520 0h-76l-52 201h-241l-54 -201h-77l186 713h125zM372 276l-95 366h-13l-95 -366h203zM527 -43l93 -158h-85l-78 158h70z" />
    <glyph glyph-name="aogonek" unicode="&#x105;" horiz-adv-x="512" 
d="M440 364v-364h-75v50q-18 -26 -56 -42.5t-83 -16.5q-72 0 -123.5 43.5t-51.5 127.5q0 71 47 110t122 39h145v50q-1 102 -108 100q-47 1 -77 -23t-34 -75h-75q2 59 32.5 99t69.5 56t83 16q76 0 130 -41.5t54 -128.5zM365 179v61h-143q-95 0 -96 -78q1 -57 35 -78
q35 -21 77 -20q49 0 77 22q50 42 50 93zM437 -43l93 -158h-85l-78 158h70z" />
    <glyph glyph-name="Cacute" unicode="&#x106;" horiz-adv-x="516" 
d="M391 182h77q0 -65 -41 -119q-35 -42 -73 -56t-88 -16q-56 0 -108 26q-42 22 -69 75t-24 91v348q0 62 40 117q35 42 73 56t89 16q56 0 107 -26q42 -20 69.5 -73t24.5 -91h-77q0 37 -14 60q-13 24 -45 40.5t-65 14.5q-36 2 -67 -16q-31 -17 -44.5 -40.5t-13.5 -59.5v-346
q0 -39 13 -61q15 -25 46.5 -41.5t65.5 -14.5q34 -1 65 15q32 18 45.5 41t13.5 60zM380 938l-94 -158h-70l77 158h87z" />
    <glyph glyph-name="cacute" unicode="&#x107;" horiz-adv-x="503" 
d="M262 534q86 0 137.5 -48.5t57.5 -134.5h-75q-1 40 -23 66q-36 44 -97 44q-57 0 -89 -30.5t-33 -85.5v-165q-2 -41 18 -68q37 -49 104 -49q51 0 82.5 29t37.5 80h75q-8 -84 -60 -133t-135 -49q-90 0 -143.5 51.5t-53.5 138.5v165q0 86 54.5 137.5t142.5 51.5zM358 756
l-94 -158h-70l77 158h87z" />
    <glyph glyph-name="Ccircumflex" unicode="&#x108;" horiz-adv-x="516" 
d="M391 182h77q0 -65 -41 -119q-35 -42 -73 -56t-88 -16q-56 0 -108 26q-42 22 -69 75t-24 91v348q0 62 40 117q35 42 73 56t89 16q56 0 107 -26q42 -20 69.5 -73t24.5 -91h-77q0 37 -14 60q-13 24 -45 40.5t-65 14.5q-36 2 -67 -16q-31 -17 -44.5 -40.5t-13.5 -59.5v-346
q0 -39 13 -61q15 -25 46.5 -41.5t65.5 -14.5q34 -1 65 15q32 18 45.5 41t13.5 60zM406 780h-71l-68 89l-67 -89h-71l107 157h63z" />
    <glyph glyph-name="ccircumflex" unicode="&#x109;" horiz-adv-x="503" 
d="M262 534q86 0 137.5 -48.5t57.5 -134.5h-75q-1 40 -23 66q-36 44 -97 44q-57 0 -89 -30.5t-33 -85.5v-165q-2 -41 18 -68q37 -49 104 -49q51 0 82.5 29t37.5 80h75q-8 -84 -60 -133t-135 -49q-90 0 -143.5 51.5t-53.5 138.5v165q0 86 54.5 137.5t142.5 51.5zM390 598h-71
l-68 89l-67 -89h-71l107 157h63z" />
    <glyph glyph-name="Cdotaccent" unicode="&#x10a;" horiz-adv-x="516" 
d="M391 182h77q0 -65 -41 -119q-35 -42 -73 -56t-88 -16q-56 0 -108 26q-42 22 -69 75t-24 91v348q0 62 40 117q35 42 73 56t89 16q56 0 107 -26q42 -20 69.5 -73t24.5 -91h-77q0 37 -14 60q-13 24 -45 40.5t-65 14.5q-36 2 -67 -16q-31 -17 -44.5 -40.5t-13.5 -59.5v-346
q0 -39 13 -61q15 -25 46.5 -41.5t65.5 -14.5q34 -1 65 15q32 18 45.5 41t13.5 60zM304 780h-92v109h92v-109z" />
    <glyph glyph-name="cdotaccent" unicode="&#x10b;" horiz-adv-x="503" 
d="M262 534q86 0 137.5 -48.5t57.5 -134.5h-75q-1 40 -23 66q-36 44 -97 44q-57 0 -89 -30.5t-33 -85.5v-165q-2 -41 18 -68q37 -49 104 -49q51 0 82.5 29t37.5 80h75q-8 -84 -60 -133t-135 -49q-90 0 -143.5 51.5t-53.5 138.5v165q0 86 54.5 137.5t142.5 51.5zM297 613h-92
v109h92v-109z" />
    <glyph glyph-name="Ccaron" unicode="&#x10c;" horiz-adv-x="516" 
d="M391 182h77q0 -65 -41 -119q-35 -42 -73 -56t-88 -16q-56 0 -108 26q-42 22 -69 75t-24 91v348q0 62 40 117q35 42 73 56t89 16q56 0 107 -26q42 -20 69.5 -73t24.5 -91h-77q0 37 -14 60q-13 24 -45 40.5t-65 14.5q-36 2 -67 -16q-31 -17 -44.5 -40.5t-13.5 -59.5v-346
q0 -39 13 -61q15 -25 46.5 -41.5t65.5 -14.5q34 -1 65 15q32 18 45.5 41t13.5 60zM129 937h71l68 -89l67 89h71l-107 -157h-63z" />
    <glyph glyph-name="ccaron" unicode="&#x10d;" horiz-adv-x="503" 
d="M262 534q86 0 137.5 -48.5t57.5 -134.5h-75q-1 40 -23 66q-36 44 -97 44q-57 0 -89 -30.5t-33 -85.5v-165q-2 -41 18 -68q37 -49 104 -49q51 0 82.5 29t37.5 80h75q-8 -84 -60 -133t-135 -49q-90 0 -143.5 51.5t-53.5 138.5v165q0 86 54.5 137.5t142.5 51.5zM113 755h71
l68 -89l67 89h71l-107 -157h-63z" />
    <glyph glyph-name="Dcaron" unicode="&#x10e;" horiz-adv-x="543" 
d="M478 525v-334q0 -66 -35 -119q-31 -42 -68 -56.5t-85 -15.5h-215v714h211q59 0 107 -26q42 -20 64.5 -71.5t20.5 -91.5zM401 192v330q0 38 -12 61q-13 25 -41 41t-62 14h-134v-562h136q35 -2 62 15q51 33 51 101zM133 937h71l68 -89l67 89h71l-107 -157h-63z" />
    <glyph glyph-name="dcaron" unicode="&#x10f;" horiz-adv-x="634" 
d="M140 345v-165q0 -55 31 -85.5t87 -31.5q35 0 59 11q27 12 44 39.5t15 66.5v165q0 55 -31 85.5t-87 30.5q-35 0 -59 -11q-26 -11 -43.5 -38.5t-15.5 -66.5zM65 180v165q0 87 52.5 138t140.5 51q81 0 118 -52v231h75v-713h-75v41q-15 -23 -49 -37t-69 -14q-87 0 -140 52
t-53 138zM615 551h-70v196h70v-196z" />
    <glyph glyph-name="Dcroat" unicode="&#x110;" horiz-adv-x="559" 
d="M494 524v-333q0 -66 -35 -119q-31 -42 -68 -56.5t-85 -15.5h-215v339h-74v71h74v303h211q59 0 107 -26q42 -20 64.5 -71.5t20.5 -91.5zM314 339h-146v-263h136q35 -2 62 15q51 33 51 101v329q0 39 -12 61q-13 25 -41 41t-62 14h-134v-227h146v-71z" />
    <glyph glyph-name="dslash" unicode="&#x111;" 
d="M452 573v-573h-75v41q-15 -23 -49 -37t-69 -14q-87 0 -140 52t-53 138v165q0 87 52.5 138t140.5 51q81 0 118 -52v91h-149v69h149v70h75v-70h73v-69h-73zM141 345v-165q0 -55 31 -85.5t87 -31.5q35 0 59 11q27 12 44 39.5t15 66.5v165q0 55 -31 85.5t-87 30.5
q-35 0 -59 -11q-26 -11 -43.5 -38.5t-15.5 -66.5z" />
    <glyph glyph-name="Emacron" unicode="&#x112;" horiz-adv-x="505" 
d="M460 0h-385v713h385v-76h-308v-222h285v-76h-285v-263h308v-76zM415 800h-305v69h305v-69z" />
    <glyph glyph-name="emacron" unicode="&#x113;" 
d="M458 345v-106h-318v-59q-2 -41 18 -68q37 -49 104 -49q51 0 82.5 29t37.5 80h75q-8 -84 -60 -133t-135 -49q-90 0 -143.5 51.5t-53.5 138.5v165q0 86 54.5 137.5t142.5 51.5q89 0 142.5 -51t53.5 -138zM383 312v33q1 41 -19 68q-33 48 -102 48q-57 0 -89 -30.5t-33 -85.5
v-33h243zM411 626h-305v69h305v-69z" />
    <glyph glyph-name="Ebreve" unicode="&#x114;" horiz-adv-x="505" 
d="M460 0h-385v713h385v-76h-308v-222h285v-76h-285v-263h308v-76zM253 780q-59 0 -99 34.5t-48 103.5h64q11 -80 83 -80t83 80h63q-6 -68 -46.5 -103t-99.5 -35z" />
    <glyph glyph-name="ebreve" unicode="&#x115;" 
d="M458 345v-106h-318v-59q-2 -41 18 -68q37 -49 104 -49q51 0 82.5 29t37.5 80h75q-8 -84 -60 -133t-135 -49q-90 0 -143.5 51.5t-53.5 138.5v165q0 86 54.5 137.5t142.5 51.5q89 0 142.5 -51t53.5 -138zM383 312v33q1 41 -19 68q-33 48 -102 48q-57 0 -89 -30.5t-33 -85.5
v-33h243zM259 598q-59 0 -99 34.5t-48 103.5h64q11 -80 83 -80t83 80h63q-6 -68 -46.5 -103t-99.5 -35z" />
    <glyph glyph-name="Edotaccent" unicode="&#x116;" horiz-adv-x="505" 
d="M460 0h-385v713h385v-76h-308v-222h285v-76h-285v-263h308v-76zM298 780h-92v109h92v-109z" />
    <glyph glyph-name="edotaccent" unicode="&#x117;" 
d="M458 345v-106h-318v-59q-2 -41 18 -68q37 -49 104 -49q51 0 82.5 29t37.5 80h75q-8 -84 -60 -133t-135 -49q-90 0 -143.5 51.5t-53.5 138.5v165q0 86 54.5 137.5t142.5 51.5q89 0 142.5 -51t53.5 -138zM383 312v33q1 41 -19 68q-33 48 -102 48q-57 0 -89 -30.5t-33 -85.5
v-33h243zM305 613h-92v109h92v-109z" />
    <glyph glyph-name="Eogonek" unicode="&#x118;" horiz-adv-x="505" 
d="M460 0h-385v713h385v-76h-308v-222h285v-76h-285v-263h308v-76zM287 -43l93 -158h-85l-78 158h70z" />
    <glyph glyph-name="eogonek" unicode="&#x119;" 
d="M458 345v-106h-318v-59q-2 -41 18 -68q37 -49 104 -49q51 0 82.5 29t37.5 80h75q-8 -84 -60 -133t-135 -49q-90 0 -143.5 51.5t-53.5 138.5v165q0 86 54.5 137.5t142.5 51.5q89 0 142.5 -51t53.5 -138zM383 312v33q1 41 -19 68q-33 48 -102 48q-57 0 -89 -30.5t-33 -85.5
v-33h243zM291 -43l93 -158h-85l-78 158h70z" />
    <glyph glyph-name="Ecaron" unicode="&#x11a;" horiz-adv-x="505" 
d="M460 0h-385v713h385v-76h-308v-222h285v-76h-285v-263h308v-76zM114 937h71l68 -89l67 89h71l-107 -157h-63z" />
    <glyph glyph-name="ecaron" unicode="&#x11b;" 
d="M458 345v-106h-318v-59q-2 -41 18 -68q37 -49 104 -49q51 0 82.5 29t37.5 80h75q-8 -84 -60 -133t-135 -49q-90 0 -143.5 51.5t-53.5 138.5v165q0 86 54.5 137.5t142.5 51.5q89 0 142.5 -51t53.5 -138zM383 312v33q1 41 -19 68q-33 48 -102 48q-57 0 -89 -30.5t-33 -85.5
v-33h243zM120 755h71l68 -89l67 89h71l-107 -157h-63z" />
    <glyph glyph-name="Gcircumflex" unicode="&#x11c;" horiz-adv-x="533" 
d="M468 393v-211q0 -63 -42 -119q-35 -42 -73 -56t-88 -16q-56 0 -107 26q-42 22 -69 75t-24 91v348q0 62 40 117q35 42 73 56t89 16q56 0 107 -26q43 -19 69.5 -71t24.5 -93h-77q0 36 -14 59q-13 24 -45 41t-65 15q-36 2 -67 -16q-31 -17 -44.5 -40.5t-13.5 -59.5v-346
q0 -39 13 -61q15 -25 46.5 -41.5t65.5 -14.5q34 -1 65 15q32 18 45.5 41t13.5 61v134h-147v76h224zM405 780h-71l-68 89l-67 -89h-71l107 157h63z" />
    <glyph glyph-name="gcircumflex" unicode="&#x11d;" horiz-adv-x="526" 
d="M375 -42v83q-17 -23 -49 -37t-67 -14q-89 0 -141.5 51t-52.5 139v165q0 86 53.5 137.5t140.5 51.5q35 0 68 -13.5t48 -35.5v42h75v-569q0 -100 -53.5 -142t-137.5 -42q-75 0 -125 41t-60 113h75q8 -39 37 -60t73 -21q62 1 89.5 29.5t26.5 81.5zM375 180v165q2 44 -17 68
q-18 27 -40.5 37.5t-58.5 10.5q-56 0 -87 -30.5t-32 -85.5v-165q-2 -42 17 -68q34 -49 102 -49q55 1 85.5 31.5t30.5 85.5zM401 598h-71l-68 89l-67 -89h-71l107 157h63z" />
    <glyph glyph-name="Gbreve" unicode="&#x11e;" horiz-adv-x="533" 
d="M468 393v-211q0 -63 -42 -119q-35 -42 -73 -56t-88 -16q-56 0 -107 26q-42 22 -69 75t-24 91v348q0 62 40 117q35 42 73 56t89 16q56 0 107 -26q43 -19 69.5 -71t24.5 -93h-77q0 36 -14 59q-13 24 -45 41t-65 15q-36 2 -67 -16q-31 -17 -44.5 -40.5t-13.5 -59.5v-346
q0 -39 13 -61q15 -25 46.5 -41.5t65.5 -14.5q34 -1 65 15q32 18 45.5 41t13.5 61v134h-147v76h224zM267 780q-59 0 -99 34.5t-48 103.5h64q11 -80 83 -80t83 80h63q-6 -68 -46.5 -103t-99.5 -35z" />
    <glyph glyph-name="gbreve" unicode="&#x11f;" horiz-adv-x="526" 
d="M375 -42v83q-17 -23 -49 -37t-67 -14q-89 0 -141.5 51t-52.5 139v165q0 86 53.5 137.5t140.5 51.5q35 0 68 -13.5t48 -35.5v42h75v-569q0 -100 -53.5 -142t-137.5 -42q-75 0 -125 41t-60 113h75q8 -39 37 -60t73 -21q62 1 89.5 29.5t26.5 81.5zM375 180v165q2 44 -17 68
q-18 27 -40.5 37.5t-58.5 10.5q-56 0 -87 -30.5t-32 -85.5v-165q-2 -42 17 -68q34 -49 102 -49q55 1 85.5 31.5t30.5 85.5zM263 598q-59 0 -99 34.5t-48 103.5h64q11 -80 83 -80t83 80h63q-6 -68 -46.5 -103t-99.5 -35z" />
    <glyph glyph-name="Gdotaccent" unicode="&#x120;" horiz-adv-x="533" 
d="M468 393v-211q0 -63 -42 -119q-35 -42 -73 -56t-88 -16q-56 0 -107 26q-42 22 -69 75t-24 91v348q0 62 40 117q35 42 73 56t89 16q56 0 107 -26q43 -19 69.5 -71t24.5 -93h-77q0 36 -14 59q-13 24 -45 41t-65 15q-36 2 -67 -16q-31 -17 -44.5 -40.5t-13.5 -59.5v-346
q0 -39 13 -61q15 -25 46.5 -41.5t65.5 -14.5q34 -1 65 15q32 18 45.5 41t13.5 61v134h-147v76h224zM312 780h-92v109h92v-109z" />
    <glyph glyph-name="gdotaccent" unicode="&#x121;" horiz-adv-x="526" 
d="M375 -42v83q-17 -23 -49 -37t-67 -14q-89 0 -141.5 51t-52.5 139v165q0 86 53.5 137.5t140.5 51.5q35 0 68 -13.5t48 -35.5v42h75v-569q0 -100 -53.5 -142t-137.5 -42q-75 0 -125 41t-60 113h75q8 -39 37 -60t73 -21q62 1 89.5 29.5t26.5 81.5zM375 180v165q2 44 -17 68
q-18 27 -40.5 37.5t-58.5 10.5q-56 0 -87 -30.5t-32 -85.5v-165q-2 -42 17 -68q34 -49 102 -49q55 1 85.5 31.5t30.5 85.5zM309 613h-92v109h92v-109z" />
    <glyph glyph-name="Gcommaaccent" unicode="&#x122;" horiz-adv-x="533" 
d="M468 393v-211q0 -63 -42 -119q-35 -42 -73 -56t-88 -16q-56 0 -107 26q-42 22 -69 75t-24 91v348q0 62 40 117q35 42 73 56t89 16q56 0 107 -26q43 -19 69.5 -71t24.5 -93h-77q0 36 -14 59q-13 24 -45 41t-65 15q-36 2 -67 -16q-31 -17 -44.5 -40.5t-13.5 -59.5v-346
q0 -39 13 -61q15 -25 46.5 -41.5t65.5 -14.5q34 -1 65 15q32 18 45.5 41t13.5 61v134h-147v76h224zM149 -201l93 158h70l-78 -158h-85z" />
    <glyph glyph-name="gcommaaccent" unicode="&#x123;" horiz-adv-x="526" 
d="M375 -42v83q-17 -23 -49 -37t-67 -14q-89 0 -141.5 51t-52.5 139v165q0 86 53.5 137.5t140.5 51.5q35 0 68 -13.5t48 -35.5v42h75v-569q0 -100 -53.5 -142t-137.5 -42q-75 0 -125 41t-60 113h75q8 -39 37 -60t73 -21q62 1 89.5 29.5t26.5 81.5zM375 180v165q2 44 -17 68
q-18 27 -40.5 37.5t-58.5 10.5q-56 0 -87 -30.5t-32 -85.5v-165q-2 -42 17 -68q34 -49 102 -49q55 1 85.5 31.5t30.5 85.5zM377 756l-94 -158h-70l77 158h87z" />
    <glyph glyph-name="Hcircumflex" unicode="&#x124;" horiz-adv-x="567" 
d="M492 0h-77v336h-263v-336h-77v713h77v-301h263v301h77v-713zM422 780h-71l-68 89l-67 -89h-71l107 157h63z" />
    <glyph glyph-name="hcircumflex" unicode="&#x125;" horiz-adv-x="532" 
d="M461 0h-75v345q0 61 -28 89.5t-80 26.5q-26 0 -50 -9q-21 -7 -50 -31q-26 -22 -28 -74v-347h-75v713h75v-237q20 27 56 42.5t72 15.5q89 0 136 -50t47 -139v-345zM404 780h-71l-68 89l-67 -89h-71l107 157h63z" />
    <glyph glyph-name="Hbar" unicode="&#x126;" horiz-adv-x="567" 
d="M494 0h-77v336h-263v-336h-77v559h-61v69h61v85h77v-85h263v85h77v-85h61v-69h-61v-559zM154 412h263v147h-263v-147z" />
    <glyph glyph-name="hbar" unicode="&#x127;" 
d="M71 573h-66v69h66v70h75v-70h156v-69h-156v-96q20 27 55.5 42t72.5 15q88 0 135.5 -50t47.5 -139v-345h-75v345q0 61 -28 89.5t-80 26.5q-26 0 -50 -9q-21 -7 -50 -31q-26 -22 -28 -74v-347h-75v573z" />
    <glyph glyph-name="Itilde" unicode="&#x128;" horiz-adv-x="227" 
d="M75 713h77v-713h-77v713zM230 882l47 -46q-61 -58 -102 -56q-33 3 -65 21q-31 19 -57 22q-14 6 -56 -33l-47 45q62 59 102 57q35 -3 66 -22q31 -18 56 -21q16 -4 56 33z" />
    <glyph glyph-name="itilde" unicode="&#x129;" horiz-adv-x="225" 
d="M150 0h-75v526h75v-526zM229 702l47 -46q-61 -58 -102 -56q-33 3 -65 21q-31 19 -57 22q-14 6 -56 -33l-47 45q62 59 102 57q35 -3 66 -22q31 -18 56 -21q16 -4 56 33z" />
    <glyph glyph-name="Imacron" unicode="&#x12a;" horiz-adv-x="227" 
d="M75 713h77v-713h-77v713zM266 800h-305v69h305v-69z" />
    <glyph glyph-name="imacron" unicode="&#x12b;" horiz-adv-x="225" 
d="M150 0h-75v526h75v-526zM265 626h-305v69h305v-69z" />
    <glyph glyph-name="Ibreve" unicode="&#x12c;" horiz-adv-x="227" 
d="M75 713h77v-713h-77v713zM114 780q-59 0 -99 34.5t-48 103.5h64q11 -80 83 -80t83 80h63q-6 -68 -46.5 -103t-99.5 -35z" />
    <glyph glyph-name="ibreve" unicode="&#x12d;" horiz-adv-x="225" 
d="M150 0h-75v526h75v-526zM113 598q-59 0 -99 34.5t-48 103.5h64q11 -80 83 -80t83 80h63q-6 -68 -46.5 -103t-99.5 -35z" />
    <glyph glyph-name="Iogonek" unicode="&#x12e;" horiz-adv-x="227" 
d="M75 713h77v-713h-77v713zM149 -43l93 -158h-85l-78 158h70z" />
    <glyph glyph-name="iogonek" unicode="&#x12f;" horiz-adv-x="242" 
d="M159 0h-75v527h75v-527zM167 613h-92v108h92v-108zM156 -43l93 -158h-85l-78 158h70z" />
    <glyph glyph-name="Idot" unicode="&#x130;" horiz-adv-x="227" 
d="M75 713h77v-713h-77v713zM160 780h-92v109h92v-109z" />
    <glyph glyph-name="dotlessi" unicode="&#x131;" horiz-adv-x="225" 
d="M150 0h-75v526h75v-526z" />
    <glyph glyph-name="IJ" unicode="&#x132;" horiz-adv-x="672" 
d="M74 713h77v-713h-77v713zM602 713v-532q0 -90 -47.5 -140t-134.5 -50q-85 0 -133 51.5t-48 136.5h77q0 -37 10 -58q11 -24 36.5 -40.5t58.5 -14.5q37 -1 61 15q43 32 43 94v462h-210v76h287z" />
    <glyph glyph-name="ij" unicode="&#x133;" horiz-adv-x="476" 
d="M158 0h-75v527h75v-527zM166 613h-92v108h92v-108zM393 527v-616q0 -70 -35 -103.5t-91 -33.5h-29v73h24q55 0 56 59v621h75zM401 613h-91v108h91v-108z" />
    <glyph glyph-name="Jcircumflex" unicode="&#x134;" horiz-adv-x="448" 
d="M378 713v-532q0 -90 -47.5 -140t-134.5 -50q-85 0 -133 51.5t-48 136.5h77q0 -37 10 -58q11 -24 36.5 -40.5t58.5 -14.5q37 -1 61 15q43 32 43 94v462h-210v76h287zM370 780h-71l-68 89l-67 -89h-71l107 157h63z" />
    <glyph glyph-name="jcircumflex" unicode="&#x135;" horiz-adv-x="233" 
d="M150 527v-616q0 -70 -35 -103.5t-91 -33.5h-29v73h24q55 0 56 59v621h75zM255 598h-71l-68 89l-67 -89h-71l107 157h63z" />
    <glyph glyph-name="Kcommaaccent" unicode="&#x136;" horiz-adv-x="514" 
d="M494 0h-88l-194 328l-60 -89v-239h-77v713h77v-339l240 339h88l-224 -319zM133 -201l93 158h70l-78 -158h-85z" />
    <glyph glyph-name="kcommaaccent" unicode="&#x137;" horiz-adv-x="501" 
d="M477 0h-90l-159 250l-77 -84v-166h-75v713h75v-441l230 254h99l-202 -222zM145 -201l93 158h70l-78 -158h-85z" />
    <glyph glyph-name="Lacute" unicode="&#x139;" horiz-adv-x="469" 
d="M459 0h-384v713h77v-637h307v-76zM326 938l-94 -158h-70l77 158h87z" />
    <glyph glyph-name="lacute" unicode="&#x13a;" horiz-adv-x="242" 
d="M71 136v577h75v-581q1 -59 56 -59h24v-73h-29q-56 0 -91 33.5t-35 102.5zM240 938l-94 -158h-70l77 158h87z" />
    <glyph glyph-name="Lcommaaccent" unicode="&#x13b;" horiz-adv-x="469" 
d="M459 0h-384v713h77v-637h307v-76zM136 -201l93 158h70l-78 -158h-85z" />
    <glyph glyph-name="lcommaaccent" unicode="&#x13c;" horiz-adv-x="242" 
d="M71 136v577h75v-581q1 -59 56 -59h24v-73h-29q-56 0 -91 33.5t-35 102.5zM59 -201l93 158h70l-78 -158h-85z" />
    <glyph glyph-name="Lcaron" unicode="&#x13d;" horiz-adv-x="478" 
d="M459 0h-384v713h77v-637h307v-76zM400 551h-70v196h70v-196z" />
    <glyph glyph-name="lcaron" unicode="&#x13e;" horiz-adv-x="339" 
d="M71 136v577h75v-581q1 -59 56 -59h24v-73h-29q-56 0 -91 33.5t-35 102.5zM320 551h-70v196h70v-196z" />
    <glyph glyph-name="Ldot" unicode="&#x13f;" horiz-adv-x="469" 
d="M459 0h-384v713h77v-637h307v-76zM344 211h-106v107h106v-107z" />
    <glyph glyph-name="ldot" unicode="&#x140;" horiz-adv-x="423" 
d="M71 136v577h75v-581q1 -59 56 -59h24v-73h-29q-56 0 -91 33.5t-35 102.5zM383 213h-106v107h106v-107z" />
    <glyph glyph-name="Lslash" unicode="&#x141;" horiz-adv-x="466" 
d="M456 0h-383v250h-72v72h72v391h77v-391h211v-72h-211v-174h306v-76z" />
    <glyph glyph-name="lslash" unicode="&#x142;" horiz-adv-x="275" 
d="M87 136v114h-90v71h90v392h75v-392h91v-71h-91v-118q1 -59 56 -59h24v-73h-29q-56 0 -91 33.5t-35 102.5z" />
    <glyph glyph-name="Nacute" unicode="&#x143;" horiz-adv-x="558" 
d="M483 0h-93l-238 560v-560h-77v713h91l240 -568v568h77v-713zM381 938l-94 -158h-70l77 158h87z" />
    <glyph glyph-name="nacute" unicode="&#x144;" horiz-adv-x="532" 
d="M461 0h-75v345q0 61 -28 89.5t-80 26.5q-26 0 -50 -9q-21 -7 -50 -31q-26 -22 -28 -74v-347h-75v527h75v-50q20 27 55.5 42t72.5 15q88 0 135.5 -50t47.5 -139v-345zM388 756l-94 -158h-70l77 158h87z" />
    <glyph glyph-name="Ncommaaccent" unicode="&#x145;" horiz-adv-x="558" 
d="M483 0h-93l-238 560v-560h-77v713h91l240 -568v568h77v-713zM155 -201l93 158h70l-78 -158h-85z" />
    <glyph glyph-name="ncommaaccent" unicode="&#x146;" horiz-adv-x="532" 
d="M461 0h-75v345q0 61 -28 89.5t-80 26.5q-26 0 -50 -9q-21 -7 -50 -31q-26 -22 -28 -74v-347h-75v527h75v-50q20 27 55.5 42t72.5 15q88 0 135.5 -50t47.5 -139v-345zM134 -201l93 158h70l-78 -158h-85z" />
    <glyph glyph-name="Ncaron" unicode="&#x147;" horiz-adv-x="558" 
d="M483 0h-93l-238 560v-560h-77v713h91l240 -568v568h77v-713zM140 937h71l68 -89l67 89h71l-107 -157h-63z" />
    <glyph glyph-name="ncaron" unicode="&#x148;" horiz-adv-x="532" 
d="M461 0h-75v345q0 61 -28 89.5t-80 26.5q-26 0 -50 -9q-21 -7 -50 -31q-26 -22 -28 -74v-347h-75v527h75v-50q20 27 55.5 42t72.5 15q88 0 135.5 -50t47.5 -139v-345zM127 755h71l68 -89l67 89h71l-107 -157h-63z" />
    <glyph glyph-name="napostrophe" unicode="&#x149;" horiz-adv-x="576" 
d="M508 0h-75v345q0 61 -28 89.5t-80 26.5q-26 0 -50 -9q-21 -7 -50 -31q-26 -22 -28 -74v-347h-75v527h75v-50q20 27 55.5 42t72.5 15q88 0 135.5 -50t47.5 -139v-345zM69 551h-70v196h70v-196z" />
    <glyph glyph-name="Eng" unicode="&#x14a;" horiz-adv-x="558" 
d="M483 0v-29q0 -90 -47.5 -140t-134.5 -50l1 75q38 -2 61 16q24 17 33.5 38t9.5 55v35h-16l-238 560v-560h-77v713h91l240 -568v568h77v-713z" />
    <glyph glyph-name="eng" unicode="&#x14b;" horiz-adv-x="526" 
d="M461 345v-434q0 -70 -35 -103.5t-91 -33.5h-29v73h24q55 0 56 59v439q0 61 -28 89.5t-80 26.5q-26 0 -50 -9q-21 -7 -50 -31q-26 -22 -28 -74v-347h-75v527h75v-50q20 27 55.5 42t72.5 15q88 0 135.5 -50t47.5 -139z" />
    <glyph glyph-name="Omacron" unicode="&#x14c;" horiz-adv-x="533" 
d="M468 530v-348q0 -67 -41 -121q-35 -41 -73 -54.5t-88 -15.5q-56 0 -108 26q-42 20 -69 73.5t-24 92.5v348q0 63 40 118q34 42 72.5 55.5t89.5 15.5q56 0 107 -26q42 -19 69.5 -72t24.5 -92zM391 183v346q0 37 -14 60q-13 24 -45 41t-65 15q-36 2 -67 -16
q-31 -17 -44.5 -40.5t-13.5 -59.5v-346q0 -39 13 -61q15 -25 46.5 -41.5t65.5 -14.5q34 -1 65 15q32 18 45.5 41t13.5 61zM419 800h-305v69h305v-69z" />
    <glyph glyph-name="omacron" unicode="&#x14d;" 
d="M458 345v-165q0 -86 -54.5 -138t-141.5 -52q-90 0 -143.5 51.5t-53.5 138.5v165q0 86 54.5 137.5t142.5 51.5q89 0 142.5 -51t53.5 -138zM383 180v165q1 41 -19 68q-33 48 -102 48q-57 0 -89 -30.5t-33 -85.5v-165q-2 -41 18 -68q37 -49 104 -49q26 0 50 8q20 7 46 31
q23 22 25 78zM414 626h-305v69h305v-69z" />
    <glyph glyph-name="Obreve" unicode="&#x14e;" horiz-adv-x="533" 
d="M468 530v-348q0 -67 -41 -121q-35 -41 -73 -54.5t-88 -15.5q-56 0 -108 26q-42 20 -69 73.5t-24 92.5v348q0 63 40 118q34 42 72.5 55.5t89.5 15.5q56 0 107 -26q42 -19 69.5 -72t24.5 -92zM391 183v346q0 37 -14 60q-13 24 -45 41t-65 15q-36 2 -67 -16
q-31 -17 -44.5 -40.5t-13.5 -59.5v-346q0 -39 13 -61q15 -25 46.5 -41.5t65.5 -14.5q34 -1 65 15q32 18 45.5 41t13.5 61zM267 780q-59 0 -99 34.5t-48 103.5h64q11 -80 83 -80t83 80h63q-6 -68 -46.5 -103t-99.5 -35z" />
    <glyph glyph-name="obreve" unicode="&#x14f;" 
d="M458 345v-165q0 -86 -54.5 -138t-141.5 -52q-90 0 -143.5 51.5t-53.5 138.5v165q0 86 54.5 137.5t142.5 51.5q89 0 142.5 -51t53.5 -138zM383 180v165q1 41 -19 68q-33 48 -102 48q-57 0 -89 -30.5t-33 -85.5v-165q-2 -41 18 -68q37 -49 104 -49q26 0 50 8q20 7 46 31
q23 22 25 78zM262 598q-59 0 -99 34.5t-48 103.5h64q11 -80 83 -80t83 80h63q-6 -68 -46.5 -103t-99.5 -35z" />
    <glyph glyph-name="Ohungarumlaut" unicode="&#x150;" horiz-adv-x="533" 
d="M468 530v-348q0 -67 -41 -121q-35 -41 -73 -54.5t-88 -15.5q-56 0 -108 26q-42 20 -69 73.5t-24 92.5v348q0 63 40 118q34 42 72.5 55.5t89.5 15.5q56 0 107 -26q42 -19 69.5 -72t24.5 -92zM391 183v346q0 37 -14 60q-13 24 -45 41t-65 15q-36 2 -67 -16
q-31 -17 -44.5 -40.5t-13.5 -59.5v-346q0 -39 13 -61q15 -25 46.5 -41.5t65.5 -14.5q34 -1 65 15q32 18 45.5 41t13.5 61zM327 929l-89 -149h-64l73 149h80zM458 929l-88 -149h-64l73 149h79z" />
    <glyph glyph-name="ohungarumlaut" unicode="&#x151;" 
d="M458 345v-165q0 -86 -54.5 -138t-141.5 -52q-90 0 -143.5 51.5t-53.5 138.5v165q0 86 54.5 137.5t142.5 51.5q89 0 142.5 -51t53.5 -138zM383 180v165q1 41 -19 68q-33 48 -102 48q-57 0 -89 -30.5t-33 -85.5v-165q-2 -41 18 -68q37 -49 104 -49q26 0 50 8q20 7 46 31
q23 22 25 78zM317 752l-89 -149h-64l73 149h80zM448 752l-88 -149h-64l73 149h79z" />
    <glyph glyph-name="OE" unicode="&#x152;" horiz-adv-x="822" 
d="M777 0h-385v28q-55 -37 -126 -37q-56 0 -107 26q-43 22 -70 74.5t-24 91.5v348q0 64 41 117q59 69 161 71q75 0 125 -37v31h385v-76h-308v-222h285v-76h-285v-264h308v-75zM267 67q35 -2 65 14q31 16 44.5 37.5t15.5 56.5v354q0 37 -14 60q-13 24 -45 40t-66 14
q-35 1 -66 -15q-58 -28 -59 -99v-346q2 -40 14 -61q13 -24 45.5 -40.5t65.5 -14.5z" />
    <glyph glyph-name="oe" unicode="&#x153;" horiz-adv-x="828" 
d="M451 239v-67q-1 -40 18 -65q37 -44 101 -44q50 0 80.5 28.5t36.5 80.5h75q-6 -83 -58 -132.5t-134 -49.5q-109 0 -158 70q-49 -70 -153 -70q-90 0 -142 51t-52 139v165q0 86 52.5 137.5t141.5 51.5q103 0 155 -70q56 70 156 70q89 0 141 -51t52 -138v-106h-312zM376 175
v178q1 39 -19 64q-33 44 -98 44q-57 0 -88 -30.5t-31 -85.5v-165q-2 -42 17 -68q19 -27 42 -38t60 -11q53 1 83.5 30.5t33.5 81.5zM688 312v33q2 44 -17 68q-33 48 -101 48q-55 0 -86.5 -29t-32.5 -81v-39h237z" />
    <glyph glyph-name="Racute" unicode="&#x154;" horiz-adv-x="543" 
d="M496 0h-87l-140 301h-117v-301h-77v713h211q59 0 107 -26q42 -20 65.5 -71t20.5 -91v-34q0 -23 -6 -47.5t-19 -51.5t-40 -50t-64 -34zM402 492v30q0 39 -13 61q-13 24 -42 40t-63 14h-132v-260h134q34 -1 63 15q29 17 41 40t12 60zM363 938l-94 -158h-70l77 158h87z" />
    <glyph glyph-name="racute" unicode="&#x155;" horiz-adv-x="312" 
d="M286 455h-43q-31 1 -54 -21q-39 -40 -39 -100v-334h-75v527h75v-50q18 23 44 36.5t50 13.5h42v-72zM245 756l-94 -158h-70l77 158h87z" />
    <glyph glyph-name="Rcommaaccent" unicode="&#x156;" horiz-adv-x="543" 
d="M496 0h-87l-140 301h-117v-301h-77v713h211q59 0 107 -26q42 -20 65.5 -71t20.5 -91v-34q0 -23 -6 -47.5t-19 -51.5t-40 -50t-64 -34zM402 492v30q0 39 -13 61q-13 24 -42 40t-63 14h-132v-260h134q34 -1 63 15q29 17 41 40t12 60zM145 -201l93 158h70l-78 -158h-85z" />
    <glyph glyph-name="rcommaaccent" unicode="&#x157;" horiz-adv-x="312" 
d="M286 455h-43q-31 1 -54 -21q-39 -40 -39 -100v-334h-75v527h75v-50q18 23 44 36.5t50 13.5h42v-72zM-15 -201l93 158h70l-78 -158h-85z" />
    <glyph glyph-name="Rcaron" unicode="&#x158;" horiz-adv-x="543" 
d="M496 0h-87l-140 301h-117v-301h-77v713h211q59 0 107 -26q42 -20 65.5 -71t20.5 -91v-34q0 -23 -6 -47.5t-19 -51.5t-40 -50t-64 -34zM402 492v30q0 39 -13 61q-13 24 -42 40t-63 14h-132v-260h134q34 -1 63 15q29 17 41 40t12 60zM123 937h71l68 -89l67 89h71l-107 -157
h-63z" />
    <glyph glyph-name="rcaron" unicode="&#x159;" horiz-adv-x="312" 
d="M286 455h-43q-31 1 -54 -21q-39 -40 -39 -100v-334h-75v527h75v-50q18 23 44 36.5t50 13.5h42v-72zM18 755h71l68 -89l67 89h71l-107 -157h-63z" />
    <glyph glyph-name="Sacute" unicode="&#x15a;" horiz-adv-x="513" 
d="M468 182q0 -81 -62.5 -136.5t-152.5 -55.5q-93 0 -150.5 54.5t-57.5 134.5h77q0 -52 36 -83t94 -31q63 0 101 33.5t38 85.5q-1 71 -70 111q-31 18 -93.5 50.5t-74.5 38.5q-42 23 -62 53q-34 50 -34 103q0 79 55.5 130t141.5 51q89 0 146 -53.5t57 -135.5h-77
q0 53 -35 83.5t-91 30.5q-52 0 -85.5 -28.5t-34.5 -79.5q0 -60 63 -92q108 -52 160 -82q111 -63 111 -182zM368 938l-94 -158h-70l77 158h87z" />
    <glyph glyph-name="sacute" unicode="&#x15b;" horiz-adv-x="482" 
d="M436 156q0 -85 -55 -124.5t-141 -39.5t-140 48.5t-54 131.5h75q1 -51 32.5 -79t86.5 -28q46 -1 82 18q38 20 39 73q0 48 -59 63q-35 10 -132 32q-51 12 -83 46.5t-33 83.5q0 77 52 114.5t131 37.5q85 0 137 -45t56 -125h-76q-3 46 -33 71.5t-86 25.5q-102 2 -106 -79
q2 -44 59 -59q96 -22 138 -34q50 -15 79.5 -48.5t30.5 -83.5zM358 756l-94 -158h-70l77 158h87z" />
    <glyph glyph-name="Scircumflex" unicode="&#x15c;" horiz-adv-x="513" 
d="M468 182q0 -81 -62.5 -136.5t-152.5 -55.5q-93 0 -150.5 54.5t-57.5 134.5h77q0 -52 36 -83t94 -31q63 0 101 33.5t38 85.5q-1 71 -70 111q-31 18 -93.5 50.5t-74.5 38.5q-42 23 -62 53q-34 50 -34 103q0 79 55.5 130t141.5 51q89 0 146 -53.5t57 -135.5h-77
q0 53 -35 83.5t-91 30.5q-52 0 -85.5 -28.5t-34.5 -79.5q0 -60 63 -92q108 -52 160 -82q111 -63 111 -182zM395 780h-71l-68 89l-67 -89h-71l107 157h63z" />
    <glyph glyph-name="scircumflex" unicode="&#x15d;" horiz-adv-x="482" 
d="M436 156q0 -85 -55 -124.5t-141 -39.5t-140 48.5t-54 131.5h75q1 -51 32.5 -79t86.5 -28q46 -1 82 18q38 20 39 73q0 48 -59 63q-35 10 -132 32q-51 12 -83 46.5t-33 83.5q0 77 52 114.5t131 37.5q85 0 137 -45t56 -125h-76q-3 46 -33 71.5t-86 25.5q-102 2 -106 -79
q2 -44 59 -59q96 -22 138 -34q50 -15 79.5 -48.5t30.5 -83.5zM379 598h-71l-68 89l-67 -89h-71l107 157h63z" />
    <glyph glyph-name="Scedilla" unicode="&#x15e;" horiz-adv-x="513" 
d="M468 182q0 -81 -62.5 -136.5t-152.5 -55.5q-93 0 -150.5 54.5t-57.5 134.5h77q0 -52 36 -83t94 -31q63 0 101 33.5t38 85.5q-1 71 -70 111q-31 18 -93.5 50.5t-74.5 38.5q-42 23 -62 53q-34 50 -34 103q0 79 55.5 130t141.5 51q89 0 146 -53.5t57 -135.5h-77
q0 53 -35 83.5t-91 30.5q-52 0 -85.5 -28.5t-34.5 -79.5q0 -60 63 -92q108 -52 160 -82q111 -63 111 -182zM145 -201l93 158h70l-78 -158h-85z" />
    <glyph glyph-name="scedilla" unicode="&#x15f;" horiz-adv-x="482" 
d="M436 156q0 -85 -55 -124.5t-141 -39.5t-140 48.5t-54 131.5h75q1 -51 32.5 -79t86.5 -28q46 -1 82 18q38 20 39 73q0 48 -59 63q-35 10 -132 32q-51 12 -83 46.5t-33 83.5q0 77 52 114.5t131 37.5q85 0 137 -45t56 -125h-76q-3 46 -33 71.5t-86 25.5q-102 2 -106 -79
q2 -44 59 -59q96 -22 138 -34q50 -15 79.5 -48.5t30.5 -83.5zM124 -201l93 158h70l-78 -158h-85z" />
    <glyph glyph-name="Scaron" unicode="&#x160;" horiz-adv-x="513" 
d="M468 182q0 -81 -62.5 -136.5t-152.5 -55.5q-93 0 -150.5 54.5t-57.5 134.5h77q0 -52 36 -83t94 -31q63 0 101 33.5t38 85.5q-1 71 -70 111q-31 18 -93.5 50.5t-74.5 38.5q-42 23 -62 53q-34 50 -34 103q0 79 55.5 130t141.5 51q89 0 146 -53.5t57 -135.5h-77
q0 53 -35 83.5t-91 30.5q-52 0 -85.5 -28.5t-34.5 -79.5q0 -60 63 -92q108 -52 160 -82q111 -63 111 -182zM118 937h71l68 -89l67 89h71l-107 -157h-63z" />
    <glyph glyph-name="scaron" unicode="&#x161;" horiz-adv-x="482" 
d="M436 156q0 -85 -55 -124.5t-141 -39.5t-140 48.5t-54 131.5h75q1 -51 32.5 -79t86.5 -28q46 -1 82 18q38 20 39 73q0 48 -59 63q-35 10 -132 32q-51 12 -83 46.5t-33 83.5q0 77 52 114.5t131 37.5q85 0 137 -45t56 -125h-76q-3 46 -33 71.5t-86 25.5q-102 2 -106 -79
q2 -44 59 -59q96 -22 138 -34q50 -15 79.5 -48.5t30.5 -83.5zM102 755h71l68 -89l67 89h71l-107 -157h-63z" />
    <glyph glyph-name="Tcommaaccent" unicode="&#x162;" horiz-adv-x="467" 
d="M446 637h-174v-637h-77v637h-174v76h425v-76zM106 -201l93 158h70l-78 -158h-85z" />
    <glyph glyph-name="tcommaaccent" unicode="&#x163;" horiz-adv-x="349" 
d="M16 454v73h100v186h75v-186h115v-73h-115v-322q1 -59 55 -59h62v-73h-66q-56 0 -91 33.5t-35 102.5v318h-100zM138 -201l93 158h70l-78 -158h-85z" />
    <glyph glyph-name="Tcaron" unicode="&#x164;" horiz-adv-x="467" 
d="M446 637h-174v-637h-77v637h-174v76h425v-76zM95 937h71l68 -89l67 89h71l-107 -157h-63z" />
    <glyph glyph-name="tcaron" unicode="&#x165;" horiz-adv-x="464" 
d="M16 454v73h100v186h75v-186h115v-73h-115v-322q1 -59 55 -59h62v-73h-66q-56 0 -91 33.5t-35 102.5v318h-100zM435 551h-70v196h70v-196z" />
    <glyph glyph-name="Tbar" unicode="&#x166;" horiz-adv-x="467" 
d="M446 637h-174v-228h114v-71h-114v-338h-77v338h-110v71h110v228h-174v76h425v-76z" />
    <glyph glyph-name="tbar" unicode="&#x167;" horiz-adv-x="349" 
d="M191 247v-115q1 -59 55 -59h62v-73h-66q-56 0 -91 33.5t-35 102.5v111h-100v71h100v138h-100v71h100v186h75v-186h115v-71h-115v-138h115v-71h-115z" />
    <glyph glyph-name="Utilde" unicode="&#x168;" horiz-adv-x="534" 
d="M469 713v-531q0 -64 -40 -121q-33 -41 -72 -54.5t-89 -15.5q-57 0 -110 25q-44 20 -70 72.5t-23 94.5v530h77v-530q2 -40 14 -61q13 -24 45.5 -41t65.5 -15q35 -2 66 15q32 18 45.5 41t13.5 61v530h77zM383 882l47 -46q-61 -58 -102 -56q-33 3 -65 21q-31 19 -57 22
q-14 6 -56 -33l-47 45q62 59 102 57q35 -3 66 -22q31 -18 56 -21q16 -4 56 33z" />
    <glyph glyph-name="utilde" unicode="&#x169;" horiz-adv-x="535" 
d="M460 0h-75v42q-18 -24 -51 -37.5t-69 -13.5q-89 0 -141.5 51t-52.5 138v347h75v-347q-2 -42 17 -68q33 -48 102 -48q54 1 86.5 30.5t33.5 80.5v352h75v-527zM384 702l47 -46q-61 -58 -102 -56q-33 3 -65 21q-31 19 -57 22q-14 6 -56 -33l-47 45q62 59 102 57
q35 -3 66 -22q31 -18 56 -21q16 -4 56 33z" />
    <glyph glyph-name="Umacron" unicode="&#x16a;" horiz-adv-x="534" 
d="M469 713v-531q0 -64 -40 -121q-33 -41 -72 -54.5t-89 -15.5q-57 0 -110 25q-44 20 -70 72.5t-23 94.5v530h77v-530q2 -40 14 -61q13 -24 45.5 -41t65.5 -15q35 -2 66 15q32 18 45.5 41t13.5 61v530h77zM419 800h-305v69h305v-69z" />
    <glyph glyph-name="umacron" unicode="&#x16b;" horiz-adv-x="535" 
d="M460 0h-75v42q-18 -24 -51 -37.5t-69 -13.5q-89 0 -141.5 51t-52.5 138v347h75v-347q-2 -42 17 -68q33 -48 102 -48q54 1 86.5 30.5t33.5 80.5v352h75v-527zM420 626h-305v69h305v-69z" />
    <glyph glyph-name="Ubreve" unicode="&#x16c;" horiz-adv-x="534" 
d="M469 713v-531q0 -64 -40 -121q-33 -41 -72 -54.5t-89 -15.5q-57 0 -110 25q-44 20 -70 72.5t-23 94.5v530h77v-530q2 -40 14 -61q13 -24 45.5 -41t65.5 -15q35 -2 66 15q32 18 45.5 41t13.5 61v530h77zM267 780q-59 0 -99 34.5t-48 103.5h64q11 -80 83 -80t83 80h63
q-6 -68 -46.5 -103t-99.5 -35z" />
    <glyph glyph-name="ubreve" unicode="&#x16d;" horiz-adv-x="535" 
d="M460 0h-75v42q-18 -24 -51 -37.5t-69 -13.5q-89 0 -141.5 51t-52.5 138v347h75v-347q-2 -42 17 -68q33 -48 102 -48q54 1 86.5 30.5t33.5 80.5v352h75v-527zM268 598q-59 0 -99 34.5t-48 103.5h64q11 -80 83 -80t83 80h63q-6 -68 -46.5 -103t-99.5 -35z" />
    <glyph glyph-name="Uring" unicode="&#x16e;" horiz-adv-x="534" 
d="M469 713v-531q0 -64 -40 -121q-33 -41 -72 -54.5t-89 -15.5q-57 0 -110 25q-44 20 -70 72.5t-23 94.5v530h77v-530q2 -40 14 -61q13 -24 45.5 -41t65.5 -15q35 -2 66 15q32 18 45.5 41t13.5 61v530h77zM374 851q-1 -45 -32 -75.5t-76 -31.5q-45 1 -75 31.5t-31 75.5
q1 45 31 75.5t75 31.5q46 -1 76.5 -31t31.5 -76zM320 851q-5 49 -54 53q-47 -5 -52 -53q5 -47 52 -52q49 4 54 52z" />
    <glyph glyph-name="uring" unicode="&#x16f;" horiz-adv-x="535" 
d="M460 0h-75v42q-18 -24 -51 -37.5t-69 -13.5q-89 0 -141.5 51t-52.5 138v347h75v-347q-2 -42 17 -68q33 -48 102 -48q54 1 86.5 30.5t33.5 80.5v352h75v-527zM374 665q-1 -45 -32 -75.5t-76 -31.5q-45 1 -75 31.5t-31 75.5q1 45 31 75.5t75 31.5q46 -1 76.5 -31t31.5 -76z
M320 665q-5 49 -54 53q-47 -5 -52 -53q5 -47 52 -52q49 4 54 52z" />
    <glyph glyph-name="Uhungarumlaut" unicode="&#x170;" horiz-adv-x="534" 
d="M469 713v-531q0 -64 -40 -121q-33 -41 -72 -54.5t-89 -15.5q-57 0 -110 25q-44 20 -70 72.5t-23 94.5v530h77v-530q2 -40 14 -61q13 -24 45.5 -41t65.5 -15q35 -2 66 15q32 18 45.5 41t13.5 61v530h77zM323 929l-89 -149h-64l73 149h80zM454 929l-88 -149h-64l73 149h79z
" />
    <glyph glyph-name="uhungarumlaut" unicode="&#x171;" horiz-adv-x="535" 
d="M460 0h-75v42q-18 -24 -51 -37.5t-69 -13.5q-89 0 -141.5 51t-52.5 138v347h75v-347q-2 -42 17 -68q33 -48 102 -48q54 1 86.5 30.5t33.5 80.5v352h75v-527zM308 752l-89 -149h-64l73 149h80zM439 752l-88 -149h-64l73 149h79z" />
    <glyph glyph-name="Uogonek" unicode="&#x172;" horiz-adv-x="534" 
d="M469 713v-531q0 -64 -40 -121q-33 -41 -72 -54.5t-89 -15.5q-57 0 -110 25q-44 20 -70 72.5t-23 94.5v530h77v-530q2 -40 14 -61q13 -24 45.5 -41t65.5 -15q35 -2 66 15q32 18 45.5 41t13.5 61v530h77zM299 -43l93 -158h-85l-78 158h70z" />
    <glyph glyph-name="uogonek" unicode="&#x173;" horiz-adv-x="535" 
d="M460 0h-75v42q-18 -24 -51 -37.5t-69 -13.5q-89 0 -141.5 51t-52.5 138v347h75v-347q-2 -42 17 -68q33 -48 102 -48q54 1 86.5 30.5t33.5 80.5v352h75v-527zM459 -43l93 -158h-85l-78 158h70z" />
    <glyph glyph-name="Wcircumflex" unicode="&#x174;" horiz-adv-x="784" 
d="M763 713l-149 -713h-92l-130 551l-131 -551h-92l-148 713h78l119 -594l138 594h72l135 -593l121 593h79zM530 780h-71l-68 89l-67 -89h-71l107 157h63z" />
    <glyph glyph-name="wcircumflex" unicode="&#x175;" horiz-adv-x="686" 
d="M649 527l-121 -527h-88l-97 405l-97 -405h-87l-122 527h78l92 -434l101 434h70l101 -435l92 435h78zM482 598h-71l-68 89l-67 -89h-71l107 157h63z" />
    <glyph glyph-name="Ycircumflex" unicode="&#x176;" horiz-adv-x="494" 
d="M473 713l-188 -456v-257h-77v259l-187 454h83l143 -358l143 358h83zM385 780h-71l-68 89l-67 -89h-71l107 157h63z" />
    <glyph glyph-name="ycircumflex" unicode="&#x177;" horiz-adv-x="440" 
d="M220 72h6l126 455h77l-178 -627q-23 -77 -58.5 -101.5t-104.5 -24.5h-36v73h51q62 -2 78 56l27 97h-41l-150 527h78zM358 598h-71l-68 89l-67 -89h-71l107 157h63z" />
    <glyph glyph-name="Ydieresis" unicode="&#x178;" horiz-adv-x="494" 
d="M473 713l-188 -456v-257h-77v259l-187 454h83l143 -358l143 358h83zM397 780h-92v109h92v-109zM188 780h-92v109h92v-109z" />
    <glyph glyph-name="Zacute" unicode="&#x179;" horiz-adv-x="448" 
d="M423 0h-398v70l298 567h-284v76h368v-68l-298 -569h314v-76zM321 938l-94 -158h-70l77 158h87z" />
    <glyph glyph-name="zacute" unicode="&#x17a;" horiz-adv-x="439" 
d="M403 0h-367v68l258 386h-249v73h337v-68l-259 -386h280v-73zM331 756l-94 -158h-70l77 158h87z" />
    <glyph glyph-name="Zdotaccent" unicode="&#x17b;" horiz-adv-x="448" 
d="M423 0h-398v70l298 567h-284v76h368v-68l-298 -569h314v-76zM270 780h-92v109h92v-109z" />
    <glyph glyph-name="zdotaccent" unicode="&#x17c;" horiz-adv-x="439" 
d="M403 0h-367v68l258 386h-249v73h337v-68l-259 -386h280v-73zM265 613h-92v109h92v-109z" />
    <glyph glyph-name="Zcaron" unicode="&#x17d;" horiz-adv-x="448" 
d="M423 0h-398v70l298 567h-284v76h368v-68l-298 -569h314v-76zM85 937h71l68 -89l67 89h71l-107 -157h-63z" />
    <glyph glyph-name="zcaron" unicode="&#x17e;" horiz-adv-x="439" 
d="M403 0h-367v68l258 386h-249v73h337v-68l-259 -386h280v-73zM81 755h71l68 -89l67 89h71l-107 -157h-63z" />
    <glyph glyph-name="longs" unicode="&#x17f;" horiz-adv-x="321" 
d="M181 576v-576h-75v452h-91v73h91v39q0 70 35.5 109.5t105.5 39.5h47v-73h-56q-23 1 -39.5 -15t-17.5 -49z" />
    <glyph glyph-name="uni018F" unicode="&#x18f;" horiz-adv-x="533" 
d="M65 182v211h326v136q0 37 -14 60q-13 24 -45 41t-66 15q-35 2 -66 -16q-31 -17 -44 -39.5t-14 -59.5h-77q0 67 42 120q35 41 72.5 54.5t86.5 15.5q58 0 109 -26q43 -21 69.5 -73t23.5 -90v-348q0 -64 -42 -120q-56 -70 -158 -72q-57 0 -109 26q-42 20 -69.5 73.5
t-24.5 91.5zM142 317v-134q2 -40 14 -61q13 -24 45 -41t65 -15q34 -2 66 15q32 18 45.5 41t13.5 61v134h-249z" />
    <glyph glyph-name="florin" unicode="&#x192;" horiz-adv-x="320" 
d="M181 450v-529q0 -70 -35 -103.5t-91 -33.5h-28v73h24q54 0 55 59v534h-91v73h91v31q0 70 35.5 109.5t105.5 39.5h47v-73h-56q-23 1 -39.5 -15t-17.5 -49v-43h124v-73h-124z" />
    <glyph glyph-name="Ohorn" unicode="&#x1a0;" horiz-adv-x="576" 
d="M468 516v-334q0 -67 -41 -121q-35 -41 -73 -54.5t-88 -15.5q-56 0 -108 26q-42 20 -69 73.5t-24 92.5v348q0 63 40 118q34 42 72.5 55.5t89.5 15.5q80 0 128 -40t64 -95h2q51 0 51 55v73h69v-70q0 -120 -113 -127zM391 183v346q0 37 -14 60q-13 24 -45 41t-65 15
q-36 2 -67 -16q-31 -17 -44.5 -40.5t-13.5 -59.5v-346q0 -39 13 -61q15 -25 46.5 -41.5t65.5 -14.5q34 -1 65 15q32 18 45.5 41t13.5 61z" />
    <glyph glyph-name="ohorn" unicode="&#x1a1;" horiz-adv-x="545" 
d="M458 342v-162q0 -86 -54.5 -138t-141.5 -52q-90 0 -143.5 51.5t-53.5 138.5v165q0 86 54.5 137.5t142.5 51.5q72 0 107 -25q35 -23 53 -46t27 -54q35 2 34 48v70h67v-71q2 -99 -92 -114zM383 180v165q1 41 -19 68q-33 48 -102 48q-57 0 -89 -30.5t-33 -85.5v-165
q-2 -41 18 -68q37 -49 104 -49q26 0 50 8q20 7 46 31q23 22 25 78z" />
    <glyph glyph-name="Uhorn" unicode="&#x1af;" horiz-adv-x="606" 
d="M469 515v-333q0 -64 -40 -121q-33 -41 -72 -54.5t-89 -15.5q-57 0 -110 25q-44 20 -70 72.5t-23 94.5v530h77v-530q2 -40 14 -61q13 -24 45.5 -41t65.5 -15q35 -2 66 15q32 18 45.5 41t13.5 61v530h77v-128h12q51 0 51 55v73h69v-70q0 -128 -130 -128h-2z" />
    <glyph glyph-name="uhorn" unicode="&#x1b0;" horiz-adv-x="585" 
d="M460 0h-75v42q-18 -24 -51 -37.5t-69 -13.5q-89 0 -141.5 51t-52.5 138v347h75v-347q-2 -42 17 -68q33 -48 102 -48q54 1 86.5 30.5t33.5 80.5v352h75v-118h15q26 0 37 10.5t11 37.5v70h67v-71q2 -53 -21 -77q-35 -39 -106 -39h-3v-340z" />
    <glyph glyph-name="uni01CD" unicode="&#x1cd;" horiz-adv-x="540" 
d="M520 0h-76l-52 201h-241l-54 -201h-77l186 713h125zM372 276l-95 366h-13l-95 -366h203zM131 937h71l68 -89l67 89h71l-107 -157h-63z" />
    <glyph glyph-name="uni01CE" unicode="&#x1ce;" horiz-adv-x="512" 
d="M440 364v-364h-75v50q-18 -26 -56 -42.5t-83 -16.5q-72 0 -123.5 43.5t-51.5 127.5q0 71 47 110t122 39h145v50q-1 102 -108 100q-47 1 -77 -23t-34 -75h-75q2 59 32.5 99t69.5 56t83 16q76 0 130 -41.5t54 -128.5zM365 179v61h-143q-95 0 -96 -78q1 -57 35 -78
q35 -21 77 -20q49 0 77 22q50 42 50 93zM117 755h71l68 -89l67 89h71l-107 -157h-63z" />
    <glyph glyph-name="uni01CF" unicode="&#x1cf;" horiz-adv-x="227" 
d="M75 713h77v-713h-77v713zM-25 937h71l68 -89l67 89h71l-107 -157h-63z" />
    <glyph glyph-name="uni01D0" unicode="&#x1d0;" horiz-adv-x="225" 
d="M150 0h-75v526h75v-526zM-26 755h71l68 -89l67 89h71l-107 -157h-63z" />
    <glyph glyph-name="uni01D1" unicode="&#x1d1;" horiz-adv-x="533" 
d="M468 530v-348q0 -67 -41 -121q-35 -41 -73 -54.5t-88 -15.5q-56 0 -108 26q-42 20 -69 73.5t-24 92.5v348q0 63 40 118q34 42 72.5 55.5t89.5 15.5q56 0 107 -26q42 -19 69.5 -72t24.5 -92zM391 183v346q0 37 -14 60q-13 24 -45 41t-65 15q-36 2 -67 -16
q-31 -17 -44.5 -40.5t-13.5 -59.5v-346q0 -39 13 -61q15 -25 46.5 -41.5t65.5 -14.5q34 -1 65 15q32 18 45.5 41t13.5 61zM128 937h71l68 -89l67 89h71l-107 -157h-63z" />
    <glyph glyph-name="uni01D2" unicode="&#x1d2;" 
d="M458 345v-165q0 -86 -54.5 -138t-141.5 -52q-90 0 -143.5 51.5t-53.5 138.5v165q0 86 54.5 137.5t142.5 51.5q89 0 142.5 -51t53.5 -138zM383 180v165q1 41 -19 68q-33 48 -102 48q-57 0 -89 -30.5t-33 -85.5v-165q-2 -41 18 -68q37 -49 104 -49q26 0 50 8q20 7 46 31
q23 22 25 78zM123 755h71l68 -89l67 89h71l-107 -157h-63z" />
    <glyph glyph-name="uni01D3" unicode="&#x1d3;" horiz-adv-x="534" 
d="M469 713v-531q0 -64 -40 -121q-33 -41 -72 -54.5t-89 -15.5q-57 0 -110 25q-44 20 -70 72.5t-23 94.5v530h77v-530q2 -40 14 -61q13 -24 45.5 -41t65.5 -15q35 -2 66 15q32 18 45.5 41t13.5 61v530h77zM128 937h71l68 -89l67 89h71l-107 -157h-63z" />
    <glyph glyph-name="uni01D4" unicode="&#x1d4;" horiz-adv-x="535" 
d="M460 0h-75v42q-18 -24 -51 -37.5t-69 -13.5q-89 0 -141.5 51t-52.5 138v347h75v-347q-2 -42 17 -68q33 -48 102 -48q54 1 86.5 30.5t33.5 80.5v352h75v-527zM129 755h71l68 -89l67 89h71l-107 -157h-63z" />
    <glyph glyph-name="uni01D5" unicode="&#x1d5;" horiz-adv-x="534" 
d="M469 713v-531q0 -64 -40 -121q-33 -41 -72 -54.5t-89 -15.5q-57 0 -110 25q-44 20 -70 72.5t-23 94.5v530h77v-530q2 -40 14 -61q13 -24 45.5 -41t65.5 -15q35 -2 66 15q32 18 45.5 41t13.5 61v530h77zM405 942h-275v48h275v-48zM416 757h-88v103h88v-103zM207 757h-88
v103h88v-103z" />
    <glyph glyph-name="uni01D6" unicode="&#x1d6;" horiz-adv-x="535" 
d="M460 0h-75v42q-18 -24 -51 -37.5t-69 -13.5q-89 0 -141.5 51t-52.5 138v347h75v-347q-2 -42 17 -68q33 -48 102 -48q54 1 86.5 30.5t33.5 80.5v352h75v-527zM405 798h-275v48h275v-48zM416 613h-88v103h88v-103zM207 613h-88v103h88v-103z" />
    <glyph glyph-name="uni01D7" unicode="&#x1d7;" horiz-adv-x="534" 
d="M469 713v-531q0 -64 -40 -121q-33 -41 -72 -54.5t-89 -15.5q-57 0 -110 25q-44 20 -70 72.5t-23 94.5v530h77v-530q2 -40 14 -61q13 -24 45.5 -41t65.5 -15q35 -2 66 15q32 18 45.5 41t13.5 61v530h77zM374 981l-89 -83h-70l76 83h83zM415 757h-88v103h88v-103zM206 757
h-88v103h88v-103z" />
    <glyph glyph-name="uni01D8" unicode="&#x1d8;" horiz-adv-x="535" 
d="M460 0h-75v42q-18 -24 -51 -37.5t-69 -13.5q-89 0 -141.5 51t-52.5 138v347h75v-347q-2 -42 17 -68q33 -48 102 -48q54 1 86.5 30.5t33.5 80.5v352h75v-527zM375 837l-89 -83h-70l76 83h83zM416 613h-88v103h88v-103zM207 613h-88v103h88v-103z" />
    <glyph glyph-name="uni01D9" unicode="&#x1d9;" horiz-adv-x="534" 
d="M469 713v-531q0 -64 -40 -121q-33 -41 -72 -54.5t-89 -15.5q-57 0 -110 25q-44 20 -70 72.5t-23 94.5v530h77v-530q2 -40 14 -61q13 -24 45.5 -41t65.5 -15q35 -2 66 15q32 18 45.5 41t13.5 61v530h77zM132 1009h78l59 -58l58 58h78l-106 -111h-59zM418 757h-88v103h88
v-103zM209 757h-88v103h88v-103z" />
    <glyph glyph-name="uni01DA" unicode="&#x1da;" horiz-adv-x="535" 
d="M460 0h-75v42q-18 -24 -51 -37.5t-69 -13.5q-89 0 -141.5 51t-52.5 138v347h75v-347q-2 -42 17 -68q33 -48 102 -48q54 1 86.5 30.5t33.5 80.5v352h75v-527zM132 865h78l59 -58l58 58h78l-106 -111h-59zM418 613h-88v103h88v-103zM209 613h-88v103h88v-103z" />
    <glyph glyph-name="uni01DB" unicode="&#x1db;" horiz-adv-x="534" 
d="M469 713v-531q0 -64 -40 -121q-33 -41 -72 -54.5t-89 -15.5q-57 0 -110 25q-44 20 -70 72.5t-23 94.5v530h77v-530q2 -40 14 -61q13 -24 45.5 -41t65.5 -15q35 -2 66 15q32 18 45.5 41t13.5 61v530h77zM231 898l-89 83h82l77 -83h-70zM416 757h-88v103h88v-103zM207 757
h-88v103h88v-103z" />
    <glyph glyph-name="uni01DC" unicode="&#x1dc;" horiz-adv-x="535" 
d="M460 0h-75v42q-18 -24 -51 -37.5t-69 -13.5q-89 0 -141.5 51t-52.5 138v347h75v-347q-2 -42 17 -68q33 -48 102 -48q54 1 86.5 30.5t33.5 80.5v352h75v-527zM229 754l-89 83h82l77 -83h-70zM414 613h-88v103h88v-103zM205 613h-88v103h88v-103z" />
    <glyph glyph-name="uni01DD" unicode="&#x1dd;" 
d="M65 179v106h318v59q1 40 -19 68q-34 49 -103 49q-51 0 -82.5 -29t-37.5 -80h-75q8 84 60 133t135 49q90 0 143.5 -51.5t53.5 -138.5v-165q0 -86 -54.5 -137.5t-142.5 -51.5q-89 0 -142.5 51t-53.5 138zM140 212v-33q-2 -42 18 -69q36 -47 103 -47q57 0 89 30.5t33 85.5
v33h-243z" />
    <glyph glyph-name="AEacute" unicode="&#x1fc;" horiz-adv-x="779" 
d="M733 0h-385v201h-199l-53 -201h-76l186 713h527v-76h-308v-222h285v-76h-285v-263h308v-76zM263 637l-95 -361h180v361h-85zM521 938l-94 -158h-70l77 158h87z" />
    <glyph glyph-name="aeacute" unicode="&#x1fd;" horiz-adv-x="818" 
d="M753 345v-106h-311v-59q-2 -42 16 -68q33 -48 102 -48q50 0 80 28t36 80h76q-6 -83 -58 -132t-134 -49q-25 0 -49 7q-25 8 -58 25q-33 19 -53 57q-21 -40 -57 -58q-62 -31 -117 -31q-73 0 -124 43.5t-51 127.5q0 71 49 110.5t124 39.5h142v50q-1 101 -110 99
q-44 1 -74 -23t-34 -75h-76q3 86 59.5 128.5t124.5 42.5q46 0 88 -20t63 -55q19 33 61 53.5t92 21.5q89 0 141 -51t52 -138zM366 178v63h-139q-99 0 -100 -79q1 -100 110 -98q34 0 57 10q29 14 50.5 40.5t21.5 63.5zM677 312v33q2 44 -17 68q-18 27 -40.5 37.5t-59.5 10.5
q-55 0 -86 -29t-32 -81v-39h235zM532 756l-94 -158h-70l77 158h87z" />
    <glyph glyph-name="Oslashacute" unicode="&#x1fe;" horiz-adv-x="533" 
d="M480 757l-52 -111q40 -54 40 -116v-348q0 -67 -41 -121q-35 -41 -73 -54.5t-88 -15.5q-78 0 -126 38l-39 -83h-57l57 123q-36 52 -36 114v348q0 63 40 118q34 42 72.5 55.5t89.5 15.5q72 0 122 -36l35 73h56zM391 183v346q0 17 -3 30l-215 -460q35 -33 94 -33
q34 -1 65 15q32 18 45.5 41t13.5 61zM142 529v-346q0 -10 2 -24l213 455q-37 31 -90 31q-36 2 -67 -16q-31 -17 -44.5 -40.5t-13.5 -59.5zM388 938l-94 -158h-70l77 158h87z" />
    <glyph glyph-name="oslashacute" unicode="&#x1ff;" 
d="M437 577l-42 -87q63 -50 63 -145v-165q0 -86 -54.5 -138t-141.5 -52q-57 0 -96 19l-29 -61h-58l43 90q-57 51 -57 142v165q0 86 54.5 137.5t142.5 51.5q49 0 89 -17l29 60h57zM383 180v165q1 38 -22 74l-164 -343q24 -11 65 -13q26 0 50 8q20 7 46 31q23 22 25 78z
M140 345v-165q-1 -34 17 -68l163 339q-23 10 -58 10q-57 0 -89 -30.5t-33 -85.5zM368 756l-94 -158h-70l77 158h87z" />
    <glyph glyph-name="Scommaaccent" unicode="&#x218;" horiz-adv-x="513" 
d="M468 182q0 -81 -62.5 -136.5t-152.5 -55.5q-93 0 -150.5 54.5t-57.5 134.5h77q0 -52 36 -83t94 -31q63 0 101 33.5t38 85.5q-1 71 -70 111q-31 18 -93.5 50.5t-74.5 38.5q-42 23 -62 53q-34 50 -34 103q0 79 55.5 130t141.5 51q89 0 146 -53.5t57 -135.5h-77
q0 53 -35 83.5t-91 30.5q-52 0 -85.5 -28.5t-34.5 -79.5q0 -60 63 -92q108 -52 160 -82q111 -63 111 -182zM145 -201l93 158h70l-78 -158h-85z" />
    <glyph glyph-name="scommaaccent" unicode="&#x219;" horiz-adv-x="482" 
d="M436 156q0 -85 -55 -124.5t-141 -39.5t-140 48.5t-54 131.5h75q1 -51 32.5 -79t86.5 -28q46 -1 82 18q38 20 39 73q0 48 -59 63q-35 10 -132 32q-51 12 -83 46.5t-33 83.5q0 77 52 114.5t131 37.5q85 0 137 -45t56 -125h-76q-3 46 -33 71.5t-86 25.5q-102 2 -106 -79
q2 -44 59 -59q96 -22 138 -34q50 -15 79.5 -48.5t30.5 -83.5zM124 -201l93 158h70l-78 -158h-85z" />
    <glyph glyph-name="uni021A" unicode="&#x21a;" horiz-adv-x="467" 
d="M446 637h-174v-637h-77v637h-174v76h425v-76zM105 -201l93 158h70l-78 -158h-85z" />
    <glyph glyph-name="uni021B" unicode="&#x21b;" horiz-adv-x="349" 
d="M16 454v73h100v186h75v-186h115v-73h-115v-322q1 -59 55 -59h62v-73h-66q-56 0 -91 33.5t-35 102.5v318h-100zM140 -201l93 158h70l-78 -158h-85z" />
    <glyph glyph-name="circumflex" unicode="&#x2c6;" horiz-adv-x="441" 
d="M358 598h-71l-68 89l-67 -89h-71l107 157h63z" />
    <glyph glyph-name="caron" unicode="&#x2c7;" horiz-adv-x="441" 
d="M81 755h71l68 -89l67 89h71l-107 -157h-63z" />
    <glyph glyph-name="breve" unicode="&#x2d8;" horiz-adv-x="483" 
d="M242 598q-59 0 -99 34.5t-48 103.5h64q11 -80 83 -80t83 80h63q-6 -68 -46.5 -103t-99.5 -35z" />
    <glyph glyph-name="dotaccent" unicode="&#x2d9;" horiz-adv-x="243" 
d="M167 613h-92v109h92v-109z" />
    <glyph glyph-name="ring" unicode="&#x2da;" horiz-adv-x="365" 
d="M290 665q-1 -45 -32 -75.5t-76 -31.5q-45 1 -75 31.5t-31 75.5q1 45 31 75.5t75 31.5q46 -1 76.5 -31t31.5 -76zM236 665q-5 49 -54 53q-47 -5 -52 -53q5 -47 52 -52q49 4 54 52z" />
    <glyph glyph-name="ogonek" unicode="&#x2db;" horiz-adv-x="309" 
d="M143 -43l93 -158h-85l-78 158h70z" />
    <glyph glyph-name="tilde" unicode="&#x2dc;" horiz-adv-x="477" 
d="M355 702l47 -46q-61 -58 -102 -56q-33 3 -65 21q-31 19 -57 22q-14 6 -56 -33l-47 45q62 59 102 57q35 -3 66 -22q31 -18 56 -21q16 -4 56 33z" />
    <glyph glyph-name="hungarumlaut" unicode="&#x2dd;" horiz-adv-x="502" 
d="M258 752l-89 -149h-64l73 149h80zM389 752l-88 -149h-64l73 149h79z" />
    <glyph glyph-name="hookabovecomb" unicode="&#x309;" horiz-adv-x="360" 
d="M174 583v63q43 3 44 39q-4 37 -39 39q-17 0 -32 -15l-47 38q35 38 80 39q44 -1 71.5 -29.5t28.5 -71.5q-1 -43 -30.5 -72t-75.5 -30z" />
    <glyph glyph-name="dotbelowcomb" unicode="&#x323;" horiz-adv-x="243" 
d="M167 -187h-92v109h92v-109z" />
    <glyph glyph-name="tonos" unicode="&#x384;" horiz-adv-x="317" 
d="M167 587h-63l33 171h74z" />
    <glyph glyph-name="dieresistonos" unicode="&#x385;" horiz-adv-x="447" 
d="M235 612h-63l34 172h73zM390 613h-91v109h91v-109zM143 613h-90v109h90v-109z" />
    <glyph glyph-name="Alphatonos" unicode="&#x386;" horiz-adv-x="545" 
d="M525 0h-76l-52 201h-241l-54 -201h-77l186 713h125zM377 276l-95 366h-13l-95 -366h203zM64 587h-63l33 171h74z" />
    <glyph glyph-name="Epsilontonos" unicode="&#x388;" horiz-adv-x="563" 
d="M518 0h-385v713h385v-76h-308v-222h285v-76h-285v-263h308v-76zM34 587h-63l33 171h74z" />
    <glyph glyph-name="Etatonos" unicode="&#x389;" horiz-adv-x="625" 
d="M550 0h-77v336h-263v-336h-77v713h77v-301h263v301h77v-713zM34 587h-63l33 171h74z" />
    <glyph glyph-name="Iotatonos" unicode="&#x38a;" horiz-adv-x="280" 
d="M128 713h77v-713h-77v713zM34 587h-63l33 171h74z" />
    <glyph glyph-name="Omicrontonos" unicode="&#x38c;" horiz-adv-x="591" 
d="M526 530v-348q0 -67 -41 -121q-35 -41 -73 -54.5t-88 -15.5q-56 0 -108 26q-42 20 -69 73.5t-24 92.5v348q0 63 40 118q34 42 72.5 55.5t89.5 15.5q56 0 107 -26q42 -19 69.5 -72t24.5 -92zM449 183v346q0 37 -14 60q-13 24 -45 41t-65 15q-36 2 -67 -16
q-31 -17 -44.5 -40.5t-13.5 -59.5v-346q0 -39 13 -61q15 -25 46.5 -41.5t65.5 -14.5q34 -1 65 15q32 18 45.5 41t13.5 61zM34 587h-63l33 171h74z" />
    <glyph glyph-name="Upsilontonos" unicode="&#x38e;" horiz-adv-x="579" 
d="M558 713l-188 -456v-257h-77v259l-187 454h83l143 -358l143 358h83zM34 587h-63l33 171h74z" />
    <glyph glyph-name="Omegatonos" unicode="&#x38f;" horiz-adv-x="588" 
d="M340 0v64q58 9 86 40.5t26 77.5v348q-2 39 -15 61q-13 25 -45.5 41.5t-67.5 14.5q-36 2 -68 -15t-45.5 -40.5t-14.5 -61.5v-348q-2 -45 26.5 -77t85.5 -41v-64h-224v65h77q-38 54 -38 117v350q0 61 40 116q59 69 161 71q56 0 107 -26q42 -20 69 -72t24 -90v-350
q0 -62 -38 -116h77v-65h-223zM34 587h-63l33 171h74z" />
    <glyph glyph-name="iotadieresistonos" unicode="&#x390;" horiz-adv-x="258" 
d="M75 131v396h75v-400q1 -31 16 -45t40 -13h26v-74h-31q-56 0 -91 33t-35 103zM143 612h-63l34 172h73zM298 613h-91v109h91v-109zM51 613h-90v109h90v-109z" />
    <glyph glyph-name="Alpha" unicode="&#x391;" horiz-adv-x="540" 
d="M520 0h-76l-52 201h-241l-54 -201h-77l186 713h125zM372 276l-95 366h-13l-95 -366h203z" />
    <glyph glyph-name="Beta" unicode="&#x392;" horiz-adv-x="543" 
d="M484 213v-24q0 -64 -37 -118q-52 -69 -156 -71h-216v713h211q58 0 106 -26q40 -19 61.5 -69t18.5 -90v-12q1 -29 -13 -66q-23 -59 -69 -82q28 -10 47 -31q19 -19 33.5 -55.5t13.5 -68.5zM395 518v9q0 35 -11 59q-12 24 -39 39t-61 12h-132v-232h138q107 1 105 113z
M407 191v21q0 36 -11 60q-12 26 -39 43t-63 15h-142v-254h137q35 -2 64 15t41.5 40t12.5 60z" />
    <glyph glyph-name="Gamma" unicode="&#x393;" horiz-adv-x="469" 
d="M75 713h384v-76h-307v-637h-77v713z" />
    <glyph glyph-name="uni0394" unicode="&#x394;" horiz-adv-x="532" 
d="M513 0h-494l185 713h123zM257 641l-146 -568h308l-145 568h-17z" />
    <glyph glyph-name="Epsilon" unicode="&#x395;" horiz-adv-x="505" 
d="M460 0h-385v713h385v-76h-308v-222h285v-76h-285v-263h308v-76z" />
    <glyph glyph-name="Zeta" unicode="&#x396;" horiz-adv-x="448" 
d="M423 0h-398v70l298 567h-284v76h368v-68l-298 -569h314v-76z" />
    <glyph glyph-name="Eta" unicode="&#x397;" horiz-adv-x="567" 
d="M492 0h-77v336h-263v-336h-77v713h77v-301h263v301h77v-713z" />
    <glyph glyph-name="Theta" unicode="&#x398;" horiz-adv-x="510" 
d="M339 327h-169v71h169v-71zM446 530v-348q0 -65 -37 -119q-30 -42 -68 -56t-88 -16q-57 0 -105 26q-41 21 -64 73.5t-20 92.5v348q0 66 36 117q54 69 156 71q57 0 105 -26q42 -20 64.5 -71.5t20.5 -91.5zM369 184v343q0 37 -12 60q-12 26 -39.5 42.5t-61.5 14.5
q-35 2 -63 -16q-52 -32 -52 -101v-343q0 -38 12 -61q13 -25 42 -42t61 -15q36 -2 62 16q28 18 39.5 41t11.5 61z" />
    <glyph glyph-name="Iota" unicode="&#x399;" horiz-adv-x="227" 
d="M75 713h77v-713h-77v713z" />
    <glyph glyph-name="Kappa" unicode="&#x39a;" horiz-adv-x="516" 
d="M152 713v-301h32l215 301h87l-235 -333l245 -380h-91l-215 336h-38v-336h-77v713h77z" />
    <glyph glyph-name="Lambda" unicode="&#x39b;" horiz-adv-x="521" 
d="M95 0h-76l178 713h125l178 -713h-76l-158 640h-13z" />
    <glyph glyph-name="Mu" unicode="&#x39c;" horiz-adv-x="655" 
d="M152 0h-77v713h96l156 -378l155 378h98v-713h-77v569l-143 -350h-65l-143 350v-569z" />
    <glyph glyph-name="Nu" unicode="&#x39d;" horiz-adv-x="558" 
d="M483 0h-93l-238 560v-560h-77v713h91l240 -568v568h77v-713z" />
    <glyph glyph-name="Xi" unicode="&#x39e;" horiz-adv-x="505" 
d="M440 638h-375v75h375v-75zM65 75h375v-75h-375v75zM439 335h-374v75h374v-75z" />
    <glyph glyph-name="Omicron" unicode="&#x39f;" horiz-adv-x="533" 
d="M468 530v-348q0 -67 -41 -121q-35 -41 -73 -54.5t-88 -15.5q-56 0 -108 26q-42 20 -69 73.5t-24 92.5v348q0 63 40 118q34 42 72.5 55.5t89.5 15.5q56 0 107 -26q42 -19 69.5 -72t24.5 -92zM391 183v346q0 37 -14 60q-13 24 -45 41t-65 15q-36 2 -67 -16
q-31 -17 -44.5 -40.5t-13.5 -59.5v-346q0 -39 13 -61q15 -25 46.5 -41.5t65.5 -14.5q34 -1 65 15q32 18 45.5 41t13.5 61z" />
    <glyph glyph-name="Pi" unicode="&#x3a0;" horiz-adv-x="569" 
d="M494 0h-77v637h-265v-637h-77v713h419v-713z" />
    <glyph glyph-name="Rho" unicode="&#x3a1;" horiz-adv-x="518" 
d="M478 524v-52q0 -66 -35 -119q-31 -42 -68 -56.5t-85 -15.5h-138v-281h-77v713h211q59 0 107 -26q42 -20 64.5 -71.5t20.5 -91.5zM401 473v49q0 38 -12 61q-13 24 -42 40t-63 14h-132v-280h134q34 -1 63 15q28 17 40 40t12 61z" />
    <glyph glyph-name="Sigma" unicode="&#x3a3;" horiz-adv-x="478" 
d="M454 642h-322l246 -254v-46l-249 -271h325v-71h-430v61l276 302l-276 289v61h430v-71z" />
    <glyph glyph-name="Tau" unicode="&#x3a4;" horiz-adv-x="467" 
d="M446 637h-174v-637h-77v637h-174v76h425v-76z" />
    <glyph glyph-name="Upsilon" unicode="&#x3a5;" horiz-adv-x="494" 
d="M473 713l-188 -456v-257h-77v259l-187 454h83l143 -358l143 358h83z" />
    <glyph glyph-name="Phi" unicode="&#x3a6;" horiz-adv-x="583" 
d="M253 740h75v-73q53 -4 93 -23.5t60.5 -48t30 -57.5t9.5 -58v-226q0 -70 -46 -126t-147 -64v-74h-75v74q-53 4 -92 23t-59.5 47.5t-30 58t-9.5 61.5v226q0 29 9 57.5t29.5 57.5t59.5 48.5t93 23.5v73zM444 254v224q0 32 -12 53q-12 23 -40.5 41t-63.5 20v-453q36 1 65 20
q51 34 51 95zM138 478v-224q-2 -46 28 -77t87 -38v452q-57 -6 -87 -37t-28 -76z" />
    <glyph glyph-name="Chi" unicode="&#x3a7;" horiz-adv-x="497" 
d="M476 0h-88l-140 282l-139 -282h-88l184 358l-183 355h86l139 -280l142 280h85l-184 -354z" />
    <glyph glyph-name="Psi" unicode="&#x3a8;" horiz-adv-x="570" 
d="M323 713v-465q106 12 107 113v352h76v-353q0 -79 -49.5 -129.5t-133.5 -58.5v-172h-76v172q-85 8 -134 58.5t-49 128.5v354h76v-352q1 -101 107 -113v465h76z" />
    <glyph glyph-name="uni03A9" unicode="&#x3a9;" horiz-adv-x="529" 
d="M281 0v64q58 9 86 40.5t26 77.5v348q-2 39 -15 61q-13 25 -45.5 41.5t-67.5 14.5q-36 2 -68 -15t-45.5 -40.5t-14.5 -61.5v-348q-2 -45 26.5 -77t85.5 -41v-64h-224v65h77q-38 54 -38 117v350q0 61 40 116q59 69 161 71q56 0 107 -26q42 -20 69 -72t24 -90v-350
q0 -62 -38 -116h77v-65h-223z" />
    <glyph glyph-name="Iotadieresis" unicode="&#x3aa;" horiz-adv-x="227" 
d="M75 713h77v-713h-77v713zM264 780h-92v109h92v-109zM55 780h-92v109h92v-109z" />
    <glyph glyph-name="Upsilondieresis" unicode="&#x3ab;" horiz-adv-x="494" 
d="M473 713l-188 -456v-257h-77v259l-187 454h83l143 -358l143 358h83zM398 780h-92v109h92v-109zM189 780h-92v109h92v-109z" />
    <glyph glyph-name="alphatonos" unicode="&#x3ac;" horiz-adv-x="543" 
d="M64 179v165q0 90 52.5 140t143.5 50q71 0 116 -48v41h75v-398q1 -60 56 -60h16v-74h-21q-30 -1 -59 13t-45 44q-56 -62 -142 -62q-90 0 -141 50.5t-51 138.5zM139 344v-165q-2 -42 17 -68t41.5 -36.5t58.5 -10.5q55 0 79 21q41 36 41 94v165q-1 56 -31.5 86.5t-84.5 30.5
q-38 0 -61 -10q-27 -11 -44.5 -38t-15.5 -69zM287 596h-63l33 171h74z" />
    <glyph glyph-name="epsilontonos" unicode="&#x3ad;" horiz-adv-x="502" 
d="M290 305v-70h-68q-40 -2 -62.5 -24.5t-22.5 -61.5q2 -45 38 -65q37 -20 81 -20q46 -2 75 18q50 34 50 89h75q0 -91 -59 -136t-139 -45q-81 0 -138.5 42.5t-57.5 115.5q0 82 65 123q-55 33 -55 111q0 67 54.5 109.5t130.5 42.5q33 0 65 -10t61 -29.5t47.5 -55.5t19.5 -83
h-75q-1 57 -38 81q-35 24 -80 23q-45 0 -76.5 -20.5t-33.5 -58.5q0 -76 80 -76h63zM269 596h-63l33 171h74z" />
    <glyph glyph-name="etatonos" unicode="&#x3ae;" horiz-adv-x="532" 
d="M461 -226h-75v571q0 61 -28 89.5t-80 26.5q-26 0 -50 -9q-21 -7 -50 -31q-26 -22 -28 -74v-347h-75v527h75v-50q20 27 55.5 42t72.5 15q88 0 135.5 -50t47.5 -139v-571zM304 596h-63l33 171h74z" />
    <glyph glyph-name="iotatonos" unicode="&#x3af;" horiz-adv-x="258" 
d="M75 131v396h75v-400q1 -31 16 -45t40 -13h26v-74h-31q-56 0 -91 33t-35 103zM147 596h-63l33 171h74z" />
    <glyph glyph-name="upsilondieresistonos" unicode="&#x3b0;" horiz-adv-x="528" 
d="M458 398v-217q0 -87 -52.5 -138.5t-140.5 -51.5q-90 0 -142.5 51t-52.5 139v346h75v-346q-2 -42 17 -68q33 -48 103 -48q56 0 87 30.5t31 85.5v222q-1 31 -16 45t-40 13h-33v73h38q56 0 91 -33.5t35 -102.5zM272 612h-63l34 172h73zM427 613h-91v109h91v-109zM180 613
h-90v109h90v-109z" />
    <glyph glyph-name="alpha" unicode="&#x3b1;" horiz-adv-x="543" 
d="M64 179v165q0 90 52.5 140t143.5 50q71 0 116 -48v41h75v-398q1 -60 56 -60h16v-74h-21q-30 -1 -59 13t-45 44q-56 -62 -142 -62q-90 0 -141 50.5t-51 138.5zM139 344v-165q-2 -42 17 -68t41.5 -36.5t58.5 -10.5q55 0 79 21q41 36 41 94v165q-1 56 -31.5 86.5t-84.5 30.5
q-38 0 -61 -10q-27 -11 -44.5 -38t-15.5 -69z" />
    <glyph glyph-name="beta" unicode="&#x3b2;" horiz-adv-x="530" 
d="M468 227v-47q0 -88 -55 -139t-146 -51q-74 0 -117 46v-262h-75v748q0 74 36 127q32 41 68.5 54.5t86.5 14.5q98 0 145.5 -56t47.5 -136q2 -95 -81 -149q27 -14 43 -33q20 -20 34 -52.5t13 -64.5zM265 644q-36 2 -64 -16q-51 -33 -51 -106v-342q0 -55 30.5 -85.5
t86.5 -30.5q38 0 61 10q28 13 47 40.5t18 65.5v49q-2 37 -16 57q-15 22 -51 38t-68 14h-39v71h40q37 -2 67 14q32 17 45 40.5t14 62.5q0 38 -12 60q-13 26 -42.5 43t-65.5 15z" />
    <glyph glyph-name="gamma" unicode="&#x3b3;" horiz-adv-x="475" 
d="M454 527l-179 -527v-226h-75v226l-179 527h79l138 -410l137 410h79z" />
    <glyph glyph-name="delta" unicode="&#x3b4;" horiz-adv-x="522" 
d="M83 569q2 69 53 110t127 41q70 0 126 -45.5t56 -134.5h-74q-1 55 -30.5 81t-77.5 25q-45 0 -74 -20t-32 -58q0 -62 65 -77q71 -15 113 -27q123 -34 123 -176v-108q0 -86 -54 -138t-142 -52q-91 0 -144.5 51t-53.5 139v110q0 44 15 76q26 53 73 81q-69 37 -69 122z
M383 180v117q2 62 -55 94q-24 14 -67 15q-28 0 -52 -8q-21 -7 -46 -32q-23 -22 -24 -78v-108q-2 -41 18 -68t44 -37.5t61 -10.5q26 0 50 8q22 7 46 30q23 22 25 78z" />
    <glyph glyph-name="epsilon" unicode="&#x3b5;" horiz-adv-x="502" 
d="M290 305v-70h-68q-40 -2 -62.5 -24.5t-22.5 -61.5q2 -45 38 -65q37 -20 81 -20q46 -2 75 18q50 34 50 89h75q0 -91 -59 -136t-139 -45q-81 0 -138.5 42.5t-57.5 115.5q0 82 65 123q-55 33 -55 111q0 67 54.5 109.5t130.5 42.5q33 0 65 -10t61 -29.5t47.5 -55.5t19.5 -83
h-75q-1 57 -38 81q-35 24 -80 23q-45 0 -76.5 -20.5t-33.5 -58.5q0 -76 80 -76h63z" />
    <glyph glyph-name="zeta" unicode="&#x3b6;" horiz-adv-x="426" 
d="M379 -158h-78l30 82q11 23 1 44t-41 22h-42q-93 0 -141.5 53t-48.5 143q0 129 66 247t176 206h-197v74h321v-68q-54 -33 -93 -69q-63 -60 -106 -119q-93 -128 -93 -255q0 -64 29.5 -101.5t86.5 -37.5h45q65 0 98 -44t13 -102z" />
    <glyph glyph-name="eta" unicode="&#x3b7;" horiz-adv-x="532" 
d="M461 -226h-75v571q0 61 -28 89.5t-80 26.5q-26 0 -50 -9q-21 -7 -50 -31q-26 -22 -28 -74v-347h-75v527h75v-50q20 27 55.5 42t72.5 15q88 0 135.5 -50t47.5 -139v-571z" />
    <glyph glyph-name="theta" unicode="&#x3b8;" horiz-adv-x="510" 
d="M446 531v-349q0 -65 -37 -119q-30 -42 -68 -56t-88 -16q-57 0 -105 26q-41 21 -64 73.5t-20 92.5v349q0 66 36 117q54 69 156 71q57 0 105 -26q42 -20 64.5 -71.5t20.5 -91.5zM371 182v146h-232v-146q0 -38 12 -61q14 -25 43.5 -42t61.5 -15q35 -2 63 16t40 41t12 61z
M139 530v-133h232v133q0 38 -12 60q-13 26 -41 42.5t-62 14.5q-35 2 -63 -16q-54 -32 -54 -101z" />
    <glyph glyph-name="iota" unicode="&#x3b9;" horiz-adv-x="258" 
d="M75 131v396h75v-400q1 -31 16 -45t40 -13h26v-74h-31q-56 0 -91 33t-35 103z" />
    <glyph glyph-name="kappa" unicode="&#x3ba;" horiz-adv-x="505" 
d="M482 0h-89l-167 256l-76 -81v-175h-75v527h75v-250l233 250h96l-201 -215z" />
    <glyph glyph-name="lambda" unicode="&#x3bb;" horiz-adv-x="497" 
d="M270 592l130 -463q8 -32 23.5 -44.5t44.5 -11.5h30v-73h-1h-14q-70 0 -104 23.5t-54 102.5l-92 329h-9l-124 -455h-79l147 527h44l-17 62q-16 58 -75 56h-32v73h20q68 0 105 -24.5t57 -101.5z" />
    <glyph glyph-name="uni03BC" unicode="&#x3bc;" horiz-adv-x="538" 
d="M150 -226h-75v752h75v-346q-2 -42 17 -68q20 -27 43 -37.5t59 -10.5q54 1 86 30.5t33 80.5v351h75v-526h-75v41q-19 -23 -51 -36.5t-68 -13.5q-33 0 -67.5 12.5t-51.5 30.5v-260z" />
    <glyph glyph-name="nu" unicode="&#x3bd;" horiz-adv-x="446" 
d="M220 72h6l126 455h77l-150 -527h-112l-150 527h78z" />
    <glyph glyph-name="xi" unicode="&#x3be;" horiz-adv-x="441" 
d="M293 -9h-27q-91 0 -146 51t-55 138v47q-1 34 14 66t32 51t44 33q-83 54 -81 149q0 80 48 137t145 57q53 -1 92 -18.5t59 -46.5t29.5 -58t10.5 -62h-75q-1 33 -14 57q-13 23 -41 39.5t-60 14.5q-40 2 -67 -17q-53 -33 -53 -103q2 -41 14 -63q13 -24 45.5 -40t66.5 -14h40
v-71h-39q-35 2 -69 -14q-35 -16 -50 -37.5t-16 -57.5v-49q-1 -40 19 -68q37 -48 107 -48h30q65 0 98 -44t13 -102l-26 -75h-78l30 82q11 23 1 44t-41 22z" />
    <glyph glyph-name="omicron" unicode="&#x3bf;" 
d="M458 345v-165q0 -86 -54.5 -138t-141.5 -52q-90 0 -143.5 51.5t-53.5 138.5v165q0 86 54.5 137.5t142.5 51.5q89 0 142.5 -51t53.5 -138zM383 180v165q1 41 -19 68q-33 48 -102 48q-57 0 -89 -30.5t-33 -85.5v-165q-2 -41 18 -68q37 -49 104 -49q26 0 50 8q20 7 46 31
q23 22 25 78z" />
    <glyph glyph-name="pi" unicode="&#x3c0;" horiz-adv-x="622" 
d="M401 131v322h-188v-453h-75v453h-101v74h530v-74h-92v-326q1 -31 16 -45t40 -13h26v-74h-31q-56 0 -90.5 33t-34.5 103z" />
    <glyph glyph-name="rho" unicode="&#x3c1;" horiz-adv-x="526" 
d="M462 345v-165q0 -88 -55 -139t-146 -51q-74 0 -117 46v-262h-75v571q0 86 54 137.5t142 51.5q90 0 143.5 -51t53.5 -138zM387 180v165q2 41 -18 67q-20 27 -43.5 37.5t-60.5 10.5q-57 0 -88.5 -30t-32.5 -85v-165q0 -55 30.5 -85.5t86.5 -30.5q38 0 61 10q28 13 47 40.5
t18 65.5z" />
    <glyph glyph-name="sigma1" unicode="&#x3c2;" horiz-adv-x="500" 
d="M262 534q86 0 137.5 -48.5t57.5 -134.5h-75q-1 40 -23 66q-36 44 -97 44q-57 0 -89 -30.5t-33 -85.5v-164q-2 -41 18 -68t43.5 -38t60.5 -11h33q65 0 98 -44t13 -102l-26 -75h-78l30 82q11 23 1 44t-41 22h-30q-90 0 -143.5 51t-53.5 139v164q0 86 54.5 137.5t142.5 51.5
z" />
    <glyph glyph-name="sigma" unicode="&#x3c3;" horiz-adv-x="528" 
d="M493 460h-79q42 -45 42 -118v-162q0 -86 -55 -138t-143 -52q-90 0 -142 51t-52 139v162q0 86 53 138t141 52h235v-72zM382 180v162q1 42 -20 68q-36 48 -104 48q-57 0 -88.5 -30t-31.5 -86v-162q-2 -42 17 -68q33 -48 103 -48q57 0 90.5 31t33.5 85z" />
    <glyph glyph-name="tau" unicode="&#x3c4;" horiz-adv-x="451" 
d="M263 -1h-75v453h-168v74h411v-74h-168v-453z" />
    <glyph glyph-name="upsilon" unicode="&#x3c5;" horiz-adv-x="528" 
d="M458 398v-217q0 -87 -52.5 -138.5t-140.5 -51.5q-90 0 -142.5 51t-52.5 139v346h75v-346q-2 -42 17 -68q33 -48 103 -48q56 0 87 30.5t31 85.5v222q-1 31 -16 45t-40 13h-33v73h38q56 0 91 -33.5t35 -102.5z" />
    <glyph glyph-name="phi" unicode="&#x3c6;" horiz-adv-x="602" 
d="M265 -226v218q-88 6 -141.5 56.5t-53.5 129.5v349h75v-349q1 -48 33 -78t87 -35v332q0 68 38.5 102.5t95.5 34.5t96.5 -34.5t39.5 -102.5v-219q0 -78 -53.5 -128t-142.5 -58v-218h-74zM339 402v-336q55 5 87.5 35t33.5 77v224q-1 59 -61 59q-59 0 -60 -59z" />
    <glyph glyph-name="chi" unicode="&#x3c7;" horiz-adv-x="535" 
d="M51 531h35q78 2 105 -60l89 -199l117 254h83l-159 -332l111 -254q13 -28 52 -24h23v-71h-35q-75 -2 -105 59l-93 210l-129 -269h-86l175 357l-107 233q-8 26 -52 24h-24v72z" />
    <glyph glyph-name="psi" unicode="&#x3c8;" horiz-adv-x="574" 
d="M248 -226v220q-83 8 -130.5 58t-47.5 132v343h74v-343q1 -50 28 -80t76 -36v645h73v-646q51 6 79.5 36t29.5 81v343h74v-343q0 -83 -49 -132.5t-134 -57.5v-220h-73z" />
    <glyph glyph-name="omega" unicode="&#x3c9;" horiz-adv-x="658" 
d="M291 389h76v-241q0 -42 18 -62.5t58 -21.5q70 0 70 93v246q0 31 -14 45t-39 13h-23v73h28q55 0 89 -33.5t34 -102.5v-244q0 -73 -37.5 -118t-109.5 -45q-75 0 -112 51q-37 -51 -112 -51q-72 0 -109.5 45t-37.5 118v244q0 69 34 102.5t89 33.5h28v-73h-23
q-25 1 -38.5 -12.5t-14.5 -45.5v-246q0 -93 70 -93q78 1 76 84v241z" />
    <glyph glyph-name="iotadieresis" unicode="&#x3ca;" horiz-adv-x="258" 
d="M75 131v396h75v-400q1 -31 16 -45t40 -13h26v-74h-31q-56 0 -91 33t-35 103zM262 613h-92v109h92v-109zM53 613h-92v109h92v-109z" />
    <glyph glyph-name="upsilondieresis" unicode="&#x3cb;" horiz-adv-x="528" 
d="M458 398v-217q0 -87 -52.5 -138.5t-140.5 -51.5q-90 0 -142.5 51t-52.5 139v346h75v-346q-2 -42 17 -68q33 -48 103 -48q56 0 87 30.5t31 85.5v222q-1 31 -16 45t-40 13h-33v73h38q56 0 91 -33.5t35 -102.5zM408 613h-92v109h92v-109zM199 613h-92v109h92v-109z" />
    <glyph glyph-name="omicrontonos" unicode="&#x3cc;" 
d="M458 345v-165q0 -86 -54.5 -138t-141.5 -52q-90 0 -143.5 51.5t-53.5 138.5v165q0 86 54.5 137.5t142.5 51.5q89 0 142.5 -51t53.5 -138zM383 180v165q1 41 -19 68q-33 48 -102 48q-57 0 -89 -30.5t-33 -85.5v-165q-2 -41 18 -68q37 -49 104 -49q26 0 50 8q20 7 46 31
q23 22 25 78zM292 596h-63l33 171h74z" />
    <glyph glyph-name="upsilontonos" unicode="&#x3cd;" horiz-adv-x="528" 
d="M458 398v-217q0 -87 -52.5 -138.5t-140.5 -51.5q-90 0 -142.5 51t-52.5 139v346h75v-346q-2 -42 17 -68q33 -48 103 -48q56 0 87 30.5t31 85.5v222q-1 31 -16 45t-40 13h-33v73h38q56 0 91 -33.5t35 -102.5zM257 596h-63l33 171h74z" />
    <glyph glyph-name="omegatonos" unicode="&#x3ce;" horiz-adv-x="658" 
d="M291 389h76v-241q0 -42 18 -62.5t58 -21.5q70 0 70 93v246q0 31 -14 45t-39 13h-23v73h28q55 0 89 -33.5t34 -102.5v-244q0 -73 -37.5 -118t-109.5 -45q-75 0 -112 51q-37 -51 -112 -51q-72 0 -109.5 45t-37.5 118v244q0 69 34 102.5t89 33.5h28v-73h-23
q-25 1 -38.5 -12.5t-14.5 -45.5v-246q0 -93 70 -93q78 1 76 84v241zM364 596h-63l33 171h74z" />
    <glyph glyph-name="afii10023" unicode="&#x401;" horiz-adv-x="505" 
d="M460 0h-385v713h385v-76h-308v-222h285v-76h-285v-263h308v-76zM418 780h-92v109h92v-109zM209 780h-92v109h92v-109z" />
    <glyph glyph-name="afii10051" unicode="&#x402;" horiz-adv-x="658" 
d="M271 0h-77v637h-175v76h426v-76h-174v-159q54 58 130 56q90 0 138 -50.5t48 -141.5v-209q0 -70 -35.5 -104t-91.5 -34h-29v75h24q26 -1 40.5 13t15.5 45v214q-1 61 -30.5 89.5t-79.5 27.5q-24 0 -50 -8q-23 -7 -51 -30q-28 -21 -29 -70v-351z" />
    <glyph glyph-name="afii10052" unicode="&#x403;" horiz-adv-x="469" 
d="M75 713h384v-76h-307v-637h-77v713zM358 938l-94 -158h-70l77 158h87z" />
    <glyph glyph-name="afii10053" unicode="&#x404;" horiz-adv-x="516" 
d="M391 182h77q0 -65 -41 -119q-35 -42 -73 -56t-88 -16q-56 0 -108 26q-42 22 -69 75t-24 91v348q0 62 40 117q35 42 73 56t89 16q56 0 107 -26q42 -20 69.5 -73t24.5 -91h-77q0 37 -14 60q-13 24 -45 40.5t-65 14.5q-36 2 -67 -16q-31 -17 -44.5 -40.5t-13.5 -59.5v-120
h172v-75h-172v-151q0 -39 13 -61q15 -25 46.5 -41.5t65.5 -14.5q34 -1 65 15q32 18 45.5 41t13.5 60z" />
    <glyph glyph-name="afii10054" unicode="&#x405;" horiz-adv-x="513" 
d="M468 182q0 -81 -62.5 -136.5t-152.5 -55.5q-93 0 -150.5 54.5t-57.5 134.5h77q0 -52 36 -83t94 -31q63 0 101 33.5t38 85.5q-1 71 -70 111q-31 18 -93.5 50.5t-74.5 38.5q-42 23 -62 53q-34 50 -34 103q0 79 55.5 130t141.5 51q89 0 146 -53.5t57 -135.5h-77
q0 53 -35 83.5t-91 30.5q-52 0 -85.5 -28.5t-34.5 -79.5q0 -60 63 -92q108 -52 160 -82q111 -63 111 -182z" />
    <glyph glyph-name="afii10055" unicode="&#x406;" horiz-adv-x="227" 
d="M75 713h77v-713h-77v713z" />
    <glyph glyph-name="afii10056" unicode="&#x407;" horiz-adv-x="227" 
d="M75 713h77v-713h-77v713zM264 780h-92v109h92v-109zM55 780h-92v109h92v-109z" />
    <glyph glyph-name="afii10057" unicode="&#x408;" horiz-adv-x="448" 
d="M378 713v-532q0 -90 -47.5 -140t-134.5 -50q-85 0 -133 51.5t-48 136.5h77q0 -37 10 -58q11 -24 36.5 -40.5t58.5 -14.5q37 -1 61 15q43 32 43 94v462h-210v76h287z" />
    <glyph glyph-name="afii10058" unicode="&#x409;" horiz-adv-x="818" 
d="M778 241v-53q0 -66 -36 -117q-21 -30 -50 -45q-48 -26 -106 -26h-183v638h-195v-458q0 -88 -52 -138.5t-143 -50.5v75q62 1 90.5 30.5t27.5 78.5v538h349v-282h110q57 0 105 -26q40 -20 62.5 -72t20.5 -92zM702 190v50q0 38 -12 60q-13 24 -42.5 41t-61.5 15h-106v-281
h104q35 -2 64 15t41.5 40t12.5 60z" />
    <glyph glyph-name="afii10059" unicode="&#x40a;" horiz-adv-x="816" 
d="M776 231v-43q0 -66 -36 -117q-32 -41 -70 -55.5t-87 -15.5h-194v346h-237v-346h-77v713h77v-292h237v292h77v-292h121q57 0 105 -26q41 -20 63.5 -71.5t20.5 -92.5zM700 190v40q0 38 -12 60q-13 25 -42 41.5t-63 14.5h-117v-271h115q35 -2 64 15q30 17 42.5 40t12.5 60z
" />
    <glyph glyph-name="afii10060" unicode="&#x40b;" horiz-adv-x="658" 
d="M271 0h-77v637h-175v76h426v-76h-174v-159q54 58 130 56q90 0 138 -50.5t48 -141.5v-342h-76v342q-1 61 -30.5 89.5t-79.5 27.5q-24 0 -50 -8q-23 -7 -51 -30q-28 -21 -29 -70v-351z" />
    <glyph glyph-name="afii10061" unicode="&#x40c;" horiz-adv-x="516" 
d="M152 713v-301h32l215 301h87l-235 -333l245 -380h-91l-215 336h-38v-336h-77v713h77zM372 938l-94 -158h-70l77 158h87z" />
    <glyph glyph-name="afii10062" unicode="&#x40e;" horiz-adv-x="491" 
d="M84 66h38q43 1 66 31.5t39 93.5h-36l-165 522h77l137 -438h13l134 438h77l-180 -580q-23 -77 -66 -109t-108 -32h-26v74zM247 784q-59 0 -99 34.5t-48 103.5h64q11 -80 83 -80t83 80h63q-6 -68 -46.5 -103t-99.5 -35z" />
    <glyph glyph-name="afii10145" unicode="&#x40f;" horiz-adv-x="570" 
d="M324 -110h-77v110h-172v713h77v-638h266v638h77v-713h-171v-110z" />
    <glyph glyph-name="afii10017" unicode="&#x410;" horiz-adv-x="540" 
d="M520 0h-76l-52 201h-241l-54 -201h-77l186 713h125zM372 276l-95 366h-13l-95 -366h203z" />
    <glyph glyph-name="afii10018" unicode="&#x411;" horiz-adv-x="517" 
d="M458 638h-308v-207h139q57 0 105 -26q40 -20 62.5 -72t20.5 -92v-53q0 -66 -36 -117q-21 -30 -50 -45q-48 -26 -106 -26h-210v713h383v-75zM402 190v50q0 38 -13 60q-13 24 -42.5 41t-61.5 15h-135v-281h133q35 -2 64 15q30 17 42.5 40t12.5 60z" />
    <glyph glyph-name="afii10019" unicode="&#x412;" horiz-adv-x="543" 
d="M484 213v-24q0 -64 -37 -118q-52 -69 -156 -71h-216v713h211q58 0 106 -26q40 -19 61.5 -69t18.5 -90v-12q1 -29 -13 -66q-23 -59 -69 -82q28 -10 47 -31q19 -19 33.5 -55.5t13.5 -68.5zM395 518v9q0 35 -11 59q-12 24 -39 39t-61 12h-132v-232h138q107 1 105 113z
M407 191v21q0 36 -11 60q-12 26 -39 43t-63 15h-142v-254h137q35 -2 64 15t41.5 40t12.5 60z" />
    <glyph glyph-name="afii10020" unicode="&#x413;" horiz-adv-x="469" 
d="M75 713h384v-76h-307v-637h-77v713z" />
    <glyph glyph-name="afii10021" unicode="&#x414;" horiz-adv-x="623" 
d="M586 -110h-76v110h-412v-110h-77v186h61q63 26 70 103l45 534h329v-637h60v-186zM269 637l-41 -454q-5 -70 -38 -107h259v561h-180z" />
    <glyph glyph-name="afii10022" unicode="&#x415;" horiz-adv-x="505" 
d="M460 0h-385v713h385v-76h-308v-222h285v-76h-285v-263h308v-76z" />
    <glyph glyph-name="afii10024" unicode="&#x416;" horiz-adv-x="805" 
d="M442 713v-301h31l215 301h87l-235 -333l245 -380h-90l-216 337h-37v-337h-77v337h-38l-215 -337h-92l245 380l-235 333h88l214 -301h33v301h77z" />
    <glyph glyph-name="afii10025" unicode="&#x417;" horiz-adv-x="520" 
d="M47 182h77q1 -35 16 -59q17 -24 49 -41.5t66 -15.5q39 -2 72 15t47 41t14 63v32q-2 38 -16 60q-15 23 -51 39t-70 15h-40v72h42q36 -2 67 16q32 18 45 42t14 64q0 39 -13 61q-13 26 -44 43.5t-68 15.5q-38 2 -66 -16t-40.5 -40.5t-15.5 -57.5h-78q2 34 13 64.5t33 59.5
t62 46.5t93 18.5q98 0 149.5 -57.5t51.5 -137.5q1 -37 -14 -69q-28 -58 -70 -86q30 -18 44 -35q50 -53 49 -116v-35q0 -71 -41 -124q-22 -30 -54 -45q-52 -24 -114 -24q-53 0 -107 23q-43 19 -72 70t-30 98z" />
    <glyph glyph-name="afii10026" unicode="&#x418;" horiz-adv-x="558" 
d="M168 0h-93v713h77v-568l240 568h91v-713h-77v560z" />
    <glyph glyph-name="afii10027" unicode="&#x419;" horiz-adv-x="558" 
d="M168 0h-93v713h77v-568l240 568h91v-713h-77v560zM280 788q-59 0 -99 34.5t-48 103.5h64q11 -80 83 -80t83 80h63q-6 -68 -46.5 -103t-99.5 -35z" />
    <glyph glyph-name="afii10028" unicode="&#x41a;" horiz-adv-x="516" 
d="M152 713v-301h32l215 301h87l-235 -333l245 -380h-91l-215 336h-38v-336h-77v713h77z" />
    <glyph glyph-name="afii10029" unicode="&#x41b;" horiz-adv-x="593" 
d="M207 637v-457q0 -88 -51 -138.5t-143 -50.5v76q60 1 89 30t28 78v538h388v-713h-77v637h-234z" />
    <glyph glyph-name="afii10030" unicode="&#x41c;" horiz-adv-x="655" 
d="M152 0h-77v713h96l156 -378l155 378h98v-713h-77v569l-143 -350h-65l-143 350v-569z" />
    <glyph glyph-name="afii10031" unicode="&#x41d;" horiz-adv-x="567" 
d="M492 0h-77v336h-263v-336h-77v713h77v-301h263v301h77v-713z" />
    <glyph glyph-name="afii10032" unicode="&#x41e;" horiz-adv-x="533" 
d="M468 530v-348q0 -67 -41 -121q-35 -41 -73 -54.5t-88 -15.5q-56 0 -108 26q-42 20 -69 73.5t-24 92.5v348q0 63 40 118q34 42 72.5 55.5t89.5 15.5q56 0 107 -26q42 -19 69.5 -72t24.5 -92zM391 183v346q0 37 -14 60q-13 24 -45 41t-65 15q-36 2 -67 -16
q-31 -17 -44.5 -40.5t-13.5 -59.5v-346q0 -39 13 -61q15 -25 46.5 -41.5t65.5 -14.5q34 -1 65 15q32 18 45.5 41t13.5 61z" />
    <glyph glyph-name="afii10033" unicode="&#x41f;" horiz-adv-x="569" 
d="M494 0h-77v637h-265v-637h-77v713h419v-713z" />
    <glyph glyph-name="afii10034" unicode="&#x420;" horiz-adv-x="518" 
d="M478 524v-52q0 -66 -35 -119q-31 -42 -68 -56.5t-85 -15.5h-138v-281h-77v713h211q59 0 107 -26q42 -20 64.5 -71.5t20.5 -91.5zM401 473v49q0 38 -12 61q-13 24 -42 40t-63 14h-132v-280h134q34 -1 63 15q28 17 40 40t12 61z" />
    <glyph glyph-name="afii10035" unicode="&#x421;" horiz-adv-x="516" 
d="M391 182h77q0 -65 -41 -119q-35 -42 -73 -56t-88 -16q-56 0 -108 26q-42 22 -69 75t-24 91v348q0 62 40 117q35 42 73 56t89 16q56 0 107 -26q42 -20 69.5 -73t24.5 -91h-77q0 37 -14 60q-13 24 -45 40.5t-65 14.5q-36 2 -67 -16q-31 -17 -44.5 -40.5t-13.5 -59.5v-346
q0 -39 13 -61q15 -25 46.5 -41.5t65.5 -14.5q34 -1 65 15q32 18 45.5 41t13.5 60z" />
    <glyph glyph-name="afii10036" unicode="&#x422;" horiz-adv-x="467" 
d="M446 637h-174v-637h-77v637h-174v76h425v-76z" />
    <glyph glyph-name="afii10037" unicode="&#x423;" horiz-adv-x="491" 
d="M84 66h38q43 1 66 31.5t39 93.5h-36l-165 522h77l137 -438h13l134 438h77l-180 -580q-23 -77 -66 -109t-108 -32h-26v74z" />
    <glyph glyph-name="afii10038" unicode="&#x424;" horiz-adv-x="572" 
d="M249 740h75v-74q52 -5 90 -25t58 -48t29 -56t9 -57v-226q0 -69 -44 -125t-142 -65v-74h-75v74q-99 9 -143 65t-44 125v226q0 29 9 57t28.5 56.5t58 48t91.5 24.5v74zM433 254v224q2 45 -26 74.5t-83 36.5v-448q55 8 83 38t26 75zM139 478v-224q-2 -45 26.5 -75t83.5 -38
v448q-35 -1 -63 -20q-26 -18 -36.5 -38.5t-10.5 -52.5z" />
    <glyph glyph-name="afii10039" unicode="&#x425;" horiz-adv-x="497" 
d="M476 0h-88l-140 282l-139 -282h-88l184 358l-183 355h86l139 -280l142 280h85l-184 -354z" />
    <glyph glyph-name="afii10040" unicode="&#x426;" horiz-adv-x="588" 
d="M551 -110h-77v110h-401v713h77v-637h265v637h77v-637h59v-186z" />
    <glyph glyph-name="afii10041" unicode="&#x427;" 
d="M371 356v357h77v-713h-77v280h-139q-57 0 -105 26q-41 20 -64 72.5t-20 93.5v241h77v-240q0 -39 12 -61q13 -24 42.5 -41t61.5 -15h135z" />
    <glyph glyph-name="afii10042" unicode="&#x428;" horiz-adv-x="658" 
d="M367 76h139v637h77v-713h-508v713h77v-637h138v637h77v-637z" />
    <glyph glyph-name="afii10043" unicode="&#x429;" horiz-adv-x="677" 
d="M640 -110h-76v110h-489v713h77v-637h138v637h77v-637h139v637h77v-637h57v-186z" />
    <glyph glyph-name="afii10044" unicode="&#x42a;" horiz-adv-x="552" 
d="M515 241v-53q0 -66 -36 -117q-21 -30 -50 -45q-48 -26 -106 -26h-212v638h-108v75h185v-282h138q57 0 105 -26q41 -20 63.5 -71.5t20.5 -92.5zM439 190v50q0 38 -12 60q-13 24 -42.5 41t-61.5 15h-135v-281h133q35 -1 63 15q30 17 42.5 40t12.5 60z" />
    <glyph glyph-name="afii10045" unicode="&#x42b;" horiz-adv-x="721" 
d="M570 713h76v-713h-76v713zM479 241v-53q0 -66 -36 -117q-21 -30 -50 -45q-48 -26 -106 -26h-212v713h77v-282h138q57 0 105 -26q41 -20 63.5 -71.5t20.5 -92.5zM403 190v50q0 38 -12 60q-13 24 -42.5 41t-61.5 15h-135v-281h133q35 -1 63 15q30 17 42.5 40t12.5 60z" />
    <glyph glyph-name="afii10046" unicode="&#x42c;" horiz-adv-x="516" 
d="M479 241v-53q0 -66 -36 -117q-21 -30 -50 -45q-48 -26 -106 -26h-212v713h77v-282h138q57 0 105 -26q41 -20 63.5 -71.5t20.5 -92.5zM403 190v50q0 38 -12 60q-13 24 -42.5 41t-61.5 15h-135v-281h133q35 -1 63 15q30 17 42.5 40t12.5 60z" />
    <glyph glyph-name="afii10047" unicode="&#x42d;" horiz-adv-x="516" 
d="M48 182h77q2 -39 14 -60q13 -24 45 -41t65 -15q35 -2 66 15q32 18 45.5 41t13.5 61v151h-172v75h172v120q0 37 -14 60q-13 24 -45 41t-66 15q-35 1 -66 -15q-57 -32 -58 -100h-77q0 64 42 118q35 42 72.5 56t86.5 16q58 0 109 -26q43 -21 69.5 -73t23.5 -90v-348
q0 -64 -42 -120q-56 -70 -159 -72q-57 0 -109 26q-43 20 -69.5 73.5t-23.5 91.5z" />
    <glyph glyph-name="afii10048" unicode="&#x42e;" horiz-adv-x="723" 
d="M658 530v-348q0 -67 -41 -121q-35 -41 -73 -54.5t-88 -15.5q-56 0 -108 26q-42 20 -69 73.5t-24 92.5v154h-103v-337h-77v713h77v-301h103v119q0 63 40 118q34 42 72.5 55.5t89.5 15.5q56 0 107 -26q42 -19 69.5 -72t24.5 -92zM581 183v346q0 37 -14 60q-13 24 -45 41
t-65 15q-36 2 -67 -16q-31 -17 -44.5 -40.5t-13.5 -59.5v-346q0 -39 13 -61q15 -25 46.5 -41.5t65.5 -14.5q34 -1 65 15q32 18 45.5 41t13.5 61z" />
    <glyph glyph-name="afii10049" unicode="&#x42f;" horiz-adv-x="542" 
d="M133 0h-87l146 308q-37 11 -64 34t-40 50t-19 51.5t-6 47.5v34q0 66 36 117q32 41 70 55.5t87 15.5h211v-713h-77v301h-117zM140 522v-30q0 -38 12 -60q13 -25 41.5 -41t62.5 -14h134v260h-132q-35 2 -64 -15q-29 -16 -41.5 -39t-12.5 -61z" />
    <glyph glyph-name="afii10065" unicode="&#x430;" horiz-adv-x="512" 
d="M440 364v-364h-75v50q-18 -26 -56 -42.5t-83 -16.5q-72 0 -123.5 43.5t-51.5 127.5q0 71 47 110t122 39h145v50q-1 102 -108 100q-47 1 -77 -23t-34 -75h-75q2 59 32.5 99t69.5 56t83 16q76 0 130 -41.5t54 -128.5zM365 179v61h-143q-95 0 -96 -78q1 -57 35 -78
q35 -21 77 -20q49 0 77 22q50 42 50 93z" />
    <glyph glyph-name="afii10066" unicode="&#x431;" horiz-adv-x="522" 
d="M407 758v-15q0 -54 -31.5 -79t-82.5 -24h-27q-41 2 -69 -16q-29 -17 -40.5 -40.5t-11.5 -60.5v-31q52 42 119 42q88 0 140.5 -51.5t52.5 -137.5v-164q0 -89 -51.5 -139.5t-141.5 -50.5q-87 0 -140.5 51.5t-53.5 138.5v344q0 67 38 120q34 40 70.5 53t87.5 15h21
q49 -1 48 30v15h72zM145 345v-164q1 -55 32 -85.5t87 -30.5q39 0 60 10q26 13 43 40.5t15 65.5v164q0 55 -30.5 85t-87.5 30q-35 0 -60 -11q-26 -11 -43.5 -38.5t-15.5 -65.5z" />
    <glyph glyph-name="afii10067" unicode="&#x432;" horiz-adv-x="528" 
d="M74 0v527h206q173 0 173 -146q0 -75 -53 -108q65 -37 65 -119q0 -76 -48.5 -115t-139.5 -39h-203zM149 73h125q116 0 116 81q-1 41 -26 62.5t-70 21.5h-145v-165zM380 381q-1 74 -103 72h-128v-144h145q86 -2 86 72z" />
    <glyph glyph-name="afii10068" unicode="&#x433;" horiz-adv-x="430" 
d="M75 0v527h329v-75h-253v-452h-76z" />
    <glyph glyph-name="afii10069" unicode="&#x434;" horiz-adv-x="570" 
d="M29 74h60q29 16 30 54l31 399h321v-453h60v-183h-75v109h-352v-109h-75v183zM219 453l-26 -322q-2 -30 -17 -57h220v379h-177z" />
    <glyph glyph-name="afii10070" unicode="&#x435;" horiz-adv-x="518" 
d="M458 345v-106h-318v-59q-2 -41 18 -68q37 -49 104 -49q51 0 82.5 29t37.5 80h75q-8 -84 -60 -133t-135 -49q-90 0 -143.5 51.5t-53.5 138.5v165q0 86 54.5 137.5t142.5 51.5q89 0 142.5 -51t53.5 -138zM383 312v33q1 41 -19 68q-33 48 -102 48q-57 0 -89 -30.5t-33 -85.5
v-33h243z" />
    <glyph glyph-name="afii10072" unicode="&#x436;" horiz-adv-x="743" 
d="M410 527v-224h36l180 224h93l-203 -254l206 -273h-92l-174 229h-46v-229h-75v229h-48l-174 -229h-92l206 273l-202 254h92l179 -224h39v224h75z" />
    <glyph glyph-name="afii10073" unicode="&#x437;" horiz-adv-x="502" 
d="M212 235v70h63q80 0 80 76q-2 38 -33.5 58.5t-76.5 20.5q-44 1 -81 -23q-36 -25 -37 -81h-75q1 47 19.5 83t47.5 55.5t61 29.5t65 10q76 0 130.5 -42.5t54.5 -109.5q0 -78 -55 -111q65 -41 65 -123q0 -73 -57.5 -115.5t-138.5 -42.5q-80 0 -139 45t-59 136h75
q0 -28 11 -50q32 -58 114 -57q44 0 81 20q36 20 38 65q0 39 -22.5 61.5t-62.5 24.5h-68z" />
    <glyph glyph-name="afii10074" unicode="&#x438;" horiz-adv-x="535" 
d="M168 0h-93v527h76v-408l219 408h90v-527h-76v400z" />
    <glyph glyph-name="afii10075" unicode="&#x439;" horiz-adv-x="535" 
d="M168 0h-93v527h76v-408l219 408h90v-527h-76v400zM269 598q-59 0 -99 34.5t-48 103.5h64q11 -80 83 -80t83 80h63q-6 -68 -46.5 -103t-99.5 -35z" />
    <glyph glyph-name="afii10076" unicode="&#x43a;" horiz-adv-x="504" 
d="M151 527v-224h55l181 224h92l-202 -254l206 -273h-93l-174 229h-65v-229h-76v527h76z" />
    <glyph glyph-name="afii10077" unicode="&#x43b;" horiz-adv-x="517" 
d="M164 453v-322q0 -68 -35 -102t-91 -34h-29v74h24q25 -1 40 13t16 45v400h353v-527h-75v453h-203z" />
    <glyph glyph-name="afii10078" unicode="&#x43c;" horiz-adv-x="593" 
d="M150 0h-75v527h95l125 -307l126 307h97v-527h-75v387l-114 -277h-65l-114 277v-387z" />
    <glyph glyph-name="afii10079" unicode="&#x43d;" horiz-adv-x="532" 
d="M75 0v527h75v-219h232v219h75v-527h-75v234h-232v-234h-75z" />
    <glyph glyph-name="afii10080" unicode="&#x43e;" 
d="M458 345v-165q0 -86 -54.5 -138t-141.5 -52q-90 0 -143.5 51.5t-53.5 138.5v165q0 86 54.5 137.5t142.5 51.5q89 0 142.5 -51t53.5 -138zM383 180v165q1 41 -19 68q-33 48 -102 48q-57 0 -89 -30.5t-33 -85.5v-165q-2 -41 18 -68q37 -49 104 -49q26 0 50 8q20 7 46 31
q23 22 25 78z" />
    <glyph glyph-name="afii10081" unicode="&#x43f;" horiz-adv-x="532" 
d="M75 0v527h382v-527h-75v453h-232v-453h-75z" />
    <glyph glyph-name="afii10082" unicode="&#x440;" horiz-adv-x="526" 
d="M461 345v-165q0 -88 -52 -139t-141 -51q-34 0 -67.5 14t-50.5 37v-267h-75v753h75v-41q45 48 118 48q88 0 140.5 -51.5t52.5 -137.5zM386 180v165q0 55 -31 85.5t-87 30.5q-35 0 -60 -11q-26 -11 -43 -38.5t-15 -66.5v-165q0 -55 31 -85.5t87 -31.5q35 0 59 11
q27 12 44 39.5t15 66.5z" />
    <glyph glyph-name="afii10083" unicode="&#x441;" horiz-adv-x="503" 
d="M262 534q86 0 137.5 -48.5t57.5 -134.5h-75q-1 40 -23 66q-36 44 -97 44q-57 0 -89 -30.5t-33 -85.5v-165q-2 -41 18 -68q37 -49 104 -49q51 0 82.5 29t37.5 80h75q-8 -84 -60 -133t-135 -49q-90 0 -143.5 51.5t-53.5 138.5v165q0 86 54.5 137.5t142.5 51.5z" />
    <glyph glyph-name="afii10084" unicode="&#x442;" horiz-adv-x="462" 
d="M20 453v74h422v-74h-173v-453h-75v453h-174z" />
    <glyph glyph-name="afii10085" unicode="&#x443;" horiz-adv-x="440" 
d="M207 0h-44l-147 527h79l124 -455h6l120 455h79l-167 -627q-20 -77 -57 -101.5t-105 -24.5h-36v73h48q58 -2 74 56z" />
    <glyph glyph-name="afii10086" unicode="&#x444;" horiz-adv-x="559" 
d="M244 -226v217q-82 4 -130.5 54.5t-48.5 134.5v165q0 81 49 131.5t130 56.5v180h71v-180q81 -4 130 -54.5t49 -133.5v-165q0 -82 -49.5 -132.5t-129.5 -56.5v-217h-71zM419 180v165q1 37 -16 64q-17 26 -36.5 37t-51.5 14v-396q49 5 76.5 35t27.5 81zM140 345v-165
q-1 -38 16 -65q32 -46 88 -51v396q-49 -5 -76 -35t-28 -80z" />
    <glyph glyph-name="afii10087" unicode="&#x445;" horiz-adv-x="456" 
d="M440 0h-90l-121 197l-126 -197h-87l168 263l-168 264h88l124 -202l123 202h87l-168 -265z" />
    <glyph glyph-name="afii10088" unicode="&#x446;" horiz-adv-x="538" 
d="M75 0v527h75v-453h213v453h75v-453h61v-183h-75v109h-349z" />
    <glyph glyph-name="afii10089" unicode="&#x447;" horiz-adv-x="510" 
d="M49 527h75v-132q-2 -40 17 -63q34 -43 101 -43h118v238h75v-527h-75v215h-118q-88 0 -140.5 47.5t-52.5 132.5v132z" />
    <glyph glyph-name="afii10090" unicode="&#x448;" horiz-adv-x="581" 
d="M75 0v527h75v-453h103v453h75v-453h103v453h75v-527h-431z" />
    <glyph glyph-name="afii10091" unicode="&#x449;" horiz-adv-x="605" 
d="M75 0v527h75v-453h103v453h75v-453h102v453h75v-453h61v-183h-75v109h-416z" />
    <glyph glyph-name="afii10092" unicode="&#x44a;" horiz-adv-x="545" 
d="M499 179q0 -84 -53 -131.5t-141 -47.5h-193v453h-90v74h165v-168h118q88 0 141 -47.5t53 -132.5zM424 179q-4 107 -119 107h-118v-213h118q56 0 87 27t32 79z" />
    <glyph glyph-name="afii10093" unicode="&#x44b;" horiz-adv-x="686" 
d="M461 179q0 -84 -53 -131.5t-140 -47.5h-193v527h75v-168h118q88 0 140.5 -47.5t52.5 -132.5zM386 179q2 41 -17 64q-34 43 -101 43h-118v-213h118q56 0 86.5 27t31.5 79zM640 0h-75v527h75v-527z" />
    <glyph glyph-name="afii10094" unicode="&#x44c;" horiz-adv-x="507" 
d="M461 179q0 -84 -53 -131.5t-140 -47.5h-193v527h75v-168h118q88 0 140.5 -47.5t52.5 -132.5zM386 179q2 41 -17 64q-34 43 -101 43h-118v-213h118q56 0 86.5 27t31.5 79z" />
    <glyph glyph-name="afii10095" unicode="&#x44d;" horiz-adv-x="503" 
d="M241 534q88 0 142.5 -51.5t54.5 -137.5v-165q0 -87 -53.5 -138.5t-143.5 -51.5q-83 0 -135 49t-60 133h75q6 -51 37.5 -80t82.5 -29q35 0 60 11q27 13 45 40.5t17 65.5v53h-167v72h167v40q-1 55 -33 85.5t-89 30.5q-34 0 -55 -10q-25 -10 -44 -36t-21 -64h-75
q6 86 57.5 134.5t137.5 48.5z" />
    <glyph glyph-name="afii10096" unicode="&#x44e;" horiz-adv-x="706" 
d="M150 0h-75v526h75v-223h99v42q0 86 54.5 137.5t142.5 51.5q89 0 142.5 -51t53.5 -138v-165q0 -86 -54.5 -138t-141.5 -52q-90 0 -143.5 51.5t-53.5 138.5v50h-99v-230zM567 180v165q1 41 -19 68q-33 48 -102 48q-57 0 -89 -30.5t-33 -85.5v-165q-2 -41 18 -68
q37 -49 104 -49q26 0 50 8q20 7 46 31q23 22 25 78z" />
    <glyph glyph-name="afii10097" unicode="&#x44f;" horiz-adv-x="546" 
d="M146 0h-90l143 221q-53 12 -86.5 52.5t-33.5 99.5q0 79 54 116.5t145 37.5h193v-527h-75v215h-111zM396 453h-116q-125 2 -126 -80q1 -40 28 -62t72 -22h142v164z" />
    <glyph glyph-name="afii10071" unicode="&#x451;" horiz-adv-x="518" 
d="M458 345v-106h-318v-59q-2 -41 18 -68q37 -49 104 -49q51 0 82.5 29t37.5 80h75q-8 -84 -60 -133t-135 -49q-90 0 -143.5 51.5t-53.5 138.5v165q0 86 54.5 137.5t142.5 51.5q89 0 142.5 -51t53.5 -138zM383 312v33q1 41 -19 68q-33 48 -102 48q-57 0 -89 -30.5t-33 -85.5
v-33h243zM409 613h-92v109h92v-109zM200 613h-92v109h92v-109z" />
    <glyph glyph-name="afii10099" unicode="&#x452;" horiz-adv-x="542" 
d="M471 342v-420q0 -70 -35.5 -104t-91.5 -34h-29v75h24q55 0 56 58v425q-1 61 -29.5 89.5t-80.5 27.5q-25 0 -49 -8q-25 -8 -51 -29q-28 -21 -29 -70v-352h-76v572h-66v68h66v73h76v-73h137v-68h-137v-94q52 58 129 56q90 0 138 -50.5t48 -141.5z" />
    <glyph glyph-name="afii10100" unicode="&#x453;" horiz-adv-x="430" 
d="M75 0v527h329v-75h-253v-452h-76zM329 756l-94 -158h-70l77 158h87z" />
    <glyph glyph-name="afii10101" unicode="&#x454;" horiz-adv-x="503" 
d="M262 534q86 0 137.5 -48.5t57.5 -134.5h-75q-1 40 -23 66q-36 44 -97 44q-57 0 -89 -30.5t-33 -85.5v-40h167v-72h-167v-53q-2 -41 18 -68q37 -49 104 -49q51 0 82.5 29t37.5 80h75q-8 -84 -60 -133t-135 -49q-90 0 -143.5 51.5t-53.5 138.5v165q0 86 54.5 137.5
t142.5 51.5z" />
    <glyph glyph-name="afii10102" unicode="&#x455;" horiz-adv-x="482" 
d="M436 156q0 -85 -55 -124.5t-141 -39.5t-140 48.5t-54 131.5h75q1 -51 32.5 -79t86.5 -28q46 -1 82 18q38 20 39 73q0 48 -59 63q-35 10 -132 32q-51 12 -83 46.5t-33 83.5q0 77 52 114.5t131 37.5q85 0 137 -45t56 -125h-76q-3 46 -33 71.5t-86 25.5q-102 2 -106 -79
q2 -44 59 -59q96 -22 138 -34q50 -15 79.5 -48.5t30.5 -83.5z" />
    <glyph glyph-name="afii10103" unicode="&#x456;" horiz-adv-x="242" 
d="M159 0h-75v527h75v-527zM167 613h-92v108h92v-108z" />
    <glyph glyph-name="afii10104" unicode="&#x457;" horiz-adv-x="225" 
d="M150 0h-75v526h75v-526zM263 613h-92v109h92v-109zM54 613h-92v109h92v-109z" />
    <glyph glyph-name="afii10105" unicode="&#x458;" horiz-adv-x="233" 
d="M150 527v-616q0 -70 -35 -103.5t-91 -33.5h-29v73h24q55 0 56 59v621h75zM158 613h-91v108h91v-108z" />
    <glyph glyph-name="afii10106" unicode="&#x459;" horiz-adv-x="762" 
d="M716 179q0 -84 -53 -131.5t-141 -47.5h-174v453h-184v-322q0 -68 -35 -102t-91 -34h-29v74h24q25 -1 40 13t16 45v400h334v-168h99q88 0 141 -47.5t53 -132.5zM641 179q-4 108 -119 106h-99v-212h99q56 0 87 27t32 79z" />
    <glyph glyph-name="afii10107" unicode="&#x45a;" horiz-adv-x="776" 
d="M730 179q0 -84 -53 -131.5t-140 -47.5h-174v285h-213v-285h-75v527h75v-168h213v168h75v-168h99q88 0 140.5 -47.5t52.5 -132.5zM655 179q2 41 -17 64q-34 43 -101 43h-99v-213h99q55 0 86 27t32 79z" />
    <glyph glyph-name="afii10108" unicode="&#x45b;" horiz-adv-x="542" 
d="M471 0h-76v342q-1 61 -29.5 89.5t-80.5 27.5q-25 0 -49 -8q-25 -8 -51 -29q-28 -21 -29 -70v-352h-76v572h-66v68h66v73h76v-73h137v-68h-137v-94q52 58 129 56q90 0 138 -50.5t48 -141.5v-342z" />
    <glyph glyph-name="afii10109" unicode="&#x45c;" horiz-adv-x="504" 
d="M151 527v-224h55l181 224h92l-202 -254l206 -273h-93l-174 229h-65v-229h-76v527h76zM336 756l-94 -158h-70l77 158h87z" />
    <glyph glyph-name="afii10110" unicode="&#x45e;" horiz-adv-x="440" 
d="M207 0h-44l-147 527h79l124 -455h6l120 455h79l-167 -627q-20 -77 -57 -101.5t-105 -24.5h-36v73h48q58 -2 74 56zM222 598q-59 0 -99 34.5t-48 103.5h64q11 -80 83 -80t83 80h63q-6 -68 -46.5 -103t-99.5 -35z" />
    <glyph glyph-name="afii10193" unicode="&#x45f;" horiz-adv-x="533" 
d="M75 0v527h75v-453h233v453h75v-527h-154v-109h-75v109h-154z" />
    <glyph glyph-name="afii10050" unicode="&#x490;" horiz-adv-x="469" 
d="M383 822h76v-185h-307v-637h-77v713h308v109z" />
    <glyph glyph-name="afii10098" unicode="&#x491;" horiz-adv-x="430" 
d="M328 634h75v-182h-253v-452h-75v526h253v108z" />
    <glyph glyph-name="ddotbelow" unicode="&#x1e0d;" horiz-adv-x="527" 
d="M140 345v-165q0 -55 31 -85.5t87 -31.5q35 0 59 11q27 12 44 39.5t15 66.5v165q0 55 -31 85.5t-87 30.5q-35 0 -59 -11q-26 -11 -43.5 -38.5t-15.5 -66.5zM65 180v165q0 87 52.5 138t140.5 51q81 0 118 -52v231h75v-713h-75v41q-15 -23 -49 -37t-69 -14q-87 0 -140 52
t-53 138zM312 -187h-92v109h92v-109z" />
    <glyph glyph-name="hdotbelow" unicode="&#x1e25;" horiz-adv-x="532" 
d="M461 0h-75v345q0 61 -28 89.5t-80 26.5q-26 0 -50 -9q-21 -7 -50 -31q-26 -22 -28 -74v-347h-75v713h75v-237q20 27 56 42.5t72 15.5q89 0 136 -50t47 -139v-345zM311 -187h-92v109h92v-109z" />
    <glyph glyph-name="sdotbelow" unicode="&#x1e63;" horiz-adv-x="482" 
d="M436 156q0 -85 -55 -124.5t-141 -39.5t-140 48.5t-54 131.5h75q1 -51 32.5 -79t86.5 -28q46 -1 82 18q38 20 39 73q0 48 -59 63q-35 10 -132 32q-51 12 -83 46.5t-33 83.5q0 77 52 114.5t131 37.5q85 0 137 -45t56 -125h-76q-3 46 -33 71.5t-86 25.5q-102 2 -106 -79
q2 -44 59 -59q96 -22 138 -34q50 -15 79.5 -48.5t30.5 -83.5zM281 -187h-92v109h92v-109z" />
    <glyph glyph-name="tdotbelow" unicode="&#x1e6d;" horiz-adv-x="349" 
d="M16 454v73h100v186h75v-186h115v-73h-115v-322q1 -59 55 -59h62v-73h-66q-56 0 -91 33.5t-35 102.5v318h-100zM261 -187h-92v109h92v-109z" />
    <glyph glyph-name="Wgrave" unicode="&#x1e80;" horiz-adv-x="784" 
d="M763 713l-149 -713h-92l-130 551l-131 -551h-92l-148 713h78l119 -594l138 594h72l135 -593l121 593h79zM428 780h-71l-93 158h86z" />
    <glyph glyph-name="wgrave" unicode="&#x1e81;" horiz-adv-x="686" 
d="M649 527l-121 -527h-88l-97 405l-97 -405h-87l-122 527h78l92 -434l101 434h70l101 -435l92 435h78zM378 598h-71l-93 158h86z" />
    <glyph glyph-name="Wacute" unicode="&#x1e82;" horiz-adv-x="784" 
d="M763 713l-149 -713h-92l-130 551l-131 -551h-92l-148 713h78l119 -594l138 594h72l135 -593l121 593h79zM523 938l-94 -158h-70l77 158h87z" />
    <glyph glyph-name="wacute" unicode="&#x1e83;" horiz-adv-x="686" 
d="M649 527l-121 -527h-88l-97 405l-97 -405h-87l-122 527h78l92 -434l101 434h70l101 -435l92 435h78zM473 756l-94 -158h-70l77 158h87z" />
    <glyph glyph-name="Wdieresis" unicode="&#x1e84;" horiz-adv-x="784" 
d="M763 713l-149 -713h-92l-130 551l-131 -551h-92l-148 713h78l119 -594l138 594h72l135 -593l121 593h79zM542 780h-92v109h92v-109zM333 780h-92v109h92v-109z" />
    <glyph glyph-name="wdieresis" unicode="&#x1e85;" horiz-adv-x="686" 
d="M649 527l-121 -527h-88l-97 405l-97 -405h-87l-122 527h78l92 -434l101 434h70l101 -435l92 435h78zM493 613h-92v109h92v-109zM284 613h-92v109h92v-109z" />
    <glyph glyph-name="zdotbelow" unicode="&#x1e93;" horiz-adv-x="439" 
d="M403 0h-367v68l258 386h-249v73h337v-68l-259 -386h280v-73zM271 -187h-92v109h92v-109z" />
    <glyph glyph-name="Adotbelow" unicode="&#x1ea0;" horiz-adv-x="540" 
d="M520 0h-76l-52 201h-241l-54 -201h-77l186 713h125zM372 276l-95 366h-13l-95 -366h203zM315 -187h-92v109h92v-109z" />
    <glyph glyph-name="adotbelow" unicode="&#x1ea1;" horiz-adv-x="512" 
d="M440 364v-364h-75v50q-18 -26 -56 -42.5t-83 -16.5q-72 0 -123.5 43.5t-51.5 127.5q0 71 47 110t122 39h145v50q-1 102 -108 100q-47 1 -77 -23t-34 -75h-75q2 59 32.5 99t69.5 56t83 16q76 0 130 -41.5t54 -128.5zM365 179v61h-143q-95 0 -96 -78q1 -57 35 -78
q35 -21 77 -20q49 0 77 22q50 42 50 93zM300 -187h-92v109h92v-109z" />
    <glyph glyph-name="Ahookabove" unicode="&#x1ea2;" horiz-adv-x="540" 
d="M520 0h-76l-52 201h-241l-54 -201h-77l186 713h125zM372 276l-95 366h-13l-95 -366h203zM259 757v63q43 3 44 39q-5 37 -39 39q-17 0 -32 -15l-47 38q35 38 80 39q44 -1 71.5 -29.5t28.5 -71.5q-1 -43 -30.5 -72t-75.5 -30z" />
    <glyph glyph-name="ahookabove" unicode="&#x1ea3;" horiz-adv-x="512" 
d="M440 364v-364h-75v50q-18 -26 -56 -42.5t-83 -16.5q-72 0 -123.5 43.5t-51.5 127.5q0 71 47 110t122 39h145v50q-1 102 -108 100q-47 1 -77 -23t-34 -75h-75q2 59 32.5 99t69.5 56t83 16q76 0 130 -41.5t54 -128.5zM365 179v61h-143q-95 0 -96 -78q1 -57 35 -78
q35 -21 77 -20q49 0 77 22q50 42 50 93zM244 583v63q43 3 44 39q-4 37 -39 39q-17 0 -32 -15l-47 38q35 38 80 39q44 -1 71.5 -29.5t28.5 -71.5q-1 -43 -30.5 -72t-75.5 -30z" />
    <glyph glyph-name="Acircumflexacute" unicode="&#x1ea4;" horiz-adv-x="540" 
d="M520 0h-76l-52 201h-241l-54 -201h-77l186 713h125zM372 276l-95 366h-13l-95 -366h203zM409 739h-78l-59 58l-58 -58h-78l106 111h59zM408 970l-89 -83h-70l76 83h83z" />
    <glyph glyph-name="acircumflexacute" unicode="&#x1ea5;" horiz-adv-x="512" 
d="M440 364v-364h-75v50q-18 -26 -56 -42.5t-83 -16.5q-72 0 -123.5 43.5t-51.5 127.5q0 71 47 110t122 39h145v50q-1 102 -108 100q-47 1 -77 -23t-34 -75h-75q2 59 32.5 99t69.5 56t83 16q76 0 130 -41.5t54 -128.5zM365 179v61h-143q-95 0 -96 -78q1 -57 35 -78
q35 -21 77 -20q49 0 77 22q50 42 50 93zM397 574h-78l-59 58l-58 -58h-78l106 111h59zM396 805l-89 -83h-70l76 83h83z" />
    <glyph glyph-name="Acircumflexgrave" unicode="&#x1ea6;" horiz-adv-x="540" 
d="M520 0h-76l-52 201h-241l-54 -201h-77l186 713h125zM372 276l-95 366h-13l-95 -366h203zM408 739h-78l-59 58l-58 -58h-78l106 111h59zM230 887l-89 83h82l77 -83h-70z" />
    <glyph glyph-name="acircumflexgrave" unicode="&#x1ea7;" horiz-adv-x="512" 
d="M440 364v-364h-75v50q-18 -26 -56 -42.5t-83 -16.5q-72 0 -123.5 43.5t-51.5 127.5q0 71 47 110t122 39h145v50q-1 102 -108 100q-47 1 -77 -23t-34 -75h-75q2 59 32.5 99t69.5 56t83 16q76 0 130 -41.5t54 -128.5zM365 179v61h-143q-95 0 -96 -78q1 -57 35 -78
q35 -21 77 -20q49 0 77 22q50 42 50 93zM398 574h-78l-59 58l-58 -58h-78l106 111h59zM220 722l-89 83h82l77 -83h-70z" />
    <glyph glyph-name="Acircumflexhookabove" unicode="&#x1ea8;" horiz-adv-x="540" 
d="M520 0h-76l-52 201h-241l-54 -201h-77l186 713h125zM372 276l-95 366h-13l-95 -366h203zM251 970l-40 31q29 27 60 27q36 -1 58.5 -23t23.5 -56q-1 -32 -23 -54.5t-56 -26.5v53q25 4 27 28q0 25 -31 28q-12 0 -19 -7zM410 739h-78l-59 58l-58 -58h-78l106 111h59z" />
    <glyph glyph-name="acircumflexhookabove" unicode="&#x1ea9;" horiz-adv-x="512" 
d="M440 364v-364h-75v50q-18 -26 -56 -42.5t-83 -16.5q-72 0 -123.5 43.5t-51.5 127.5q0 71 47 110t122 39h145v50q-1 102 -108 100q-47 1 -77 -23t-34 -75h-75q2 59 32.5 99t69.5 56t83 16q76 0 130 -41.5t54 -128.5zM365 179v61h-143q-95 0 -96 -78q1 -57 35 -78
q35 -21 77 -20q49 0 77 22q50 42 50 93zM237 805l-40 31q29 27 60 27q36 -1 58.5 -23t23.5 -56q-1 -32 -23 -54.5t-56 -26.5v53q25 4 27 28q0 25 -31 28q-12 0 -19 -7zM396 574h-78l-59 58l-58 -58h-78l106 111h59z" />
    <glyph glyph-name="Acircumflextilde" unicode="&#x1eaa;" horiz-adv-x="540" 
d="M520 0h-76l-52 201h-241l-54 -201h-77l186 713h125zM372 276l-95 366h-13l-95 -366h203zM358 967l37 -33q-42 -48 -80 -46q-27 1 -51 14q-20 11 -40 13q-17 5 -46 -24l-35 32q40 47 79 45q27 -1 53 -15q23 -11 38 -12q17 -5 45 26zM407 739h-78l-58 58l-59 -58h-78
l107 111h59z" />
    <glyph glyph-name="acircumflextilde" unicode="&#x1eab;" horiz-adv-x="512" 
d="M440 364v-364h-75v50q-18 -26 -56 -42.5t-83 -16.5q-72 0 -123.5 43.5t-51.5 127.5q0 71 47 110t122 39h145v50q-1 102 -108 100q-47 1 -77 -23t-34 -75h-75q2 59 32.5 99t69.5 56t83 16q76 0 130 -41.5t54 -128.5zM365 179v61h-143q-95 0 -96 -78q1 -57 35 -78
q35 -21 77 -20q49 0 77 22q50 42 50 93zM348 802l37 -33q-42 -48 -80 -46q-27 1 -51 14q-20 11 -40 13q-17 5 -46 -24l-35 32q40 47 79 45q27 -1 53 -15q23 -11 38 -12q17 -5 45 26zM397 574h-78l-58 58l-59 -58h-78l107 111h59z" />
    <glyph glyph-name="Acircumflexdotbelow" unicode="&#x1eac;" horiz-adv-x="540" 
d="M520 0h-76l-52 201h-241l-54 -201h-77l186 713h125zM372 276l-95 366h-13l-95 -366h203zM410 780h-71l-68 89l-67 -89h-71l107 157h63zM316 -187h-92v109h92v-109z" />
    <glyph glyph-name="acircumflexdotbelow" unicode="&#x1ead;" horiz-adv-x="512" 
d="M440 364v-364h-75v50q-18 -26 -56 -42.5t-83 -16.5q-72 0 -123.5 43.5t-51.5 127.5q0 71 47 110t122 39h145v50q-1 102 -108 100q-47 1 -77 -23t-34 -75h-75q2 59 32.5 99t69.5 56t83 16q76 0 130 -41.5t54 -128.5zM365 179v61h-143q-95 0 -96 -78q1 -57 35 -78
q35 -21 77 -20q49 0 77 22q50 42 50 93zM398 598h-71l-68 89l-67 -89h-71l107 157h63zM305 -187h-92v109h92v-109z" />
    <glyph glyph-name="Abreveacute" unicode="&#x1eae;" horiz-adv-x="540" 
d="M520 0h-76l-52 201h-241l-54 -201h-77l186 713h125zM372 276l-95 366h-13l-95 -366h203zM270 739q-49 1 -81.5 34t-33.5 84h60q0 -28 15 -44t40 -16q26 0 41 16t15 44h60q-1 -51 -33.5 -84t-82.5 -34zM385 965l-89 -82h-70l77 82h82z" />
    <glyph glyph-name="abreveacute" unicode="&#x1eaf;" horiz-adv-x="512" 
d="M440 364v-364h-75v50q-18 -26 -56 -42.5t-83 -16.5q-72 0 -123.5 43.5t-51.5 127.5q0 71 47 110t122 39h145v50q-1 102 -108 100q-47 1 -77 -23t-34 -75h-75q2 59 32.5 99t69.5 56t83 16q76 0 130 -41.5t54 -128.5zM365 179v61h-143q-95 0 -96 -78q1 -57 35 -78
q35 -21 77 -20q49 0 77 22q50 42 50 93zM256 575q-49 1 -81.5 34t-33.5 84h60q0 -28 15 -44t40 -16q26 0 41 16t15 44h60q-1 -51 -33.5 -84t-82.5 -34zM371 801l-89 -82h-70l77 82h82z" />
    <glyph glyph-name="Abrevegrave" unicode="&#x1eb0;" horiz-adv-x="540" 
d="M520 0h-76l-52 201h-241l-54 -201h-77l186 713h125zM372 276l-95 366h-13l-95 -366h203zM246 884l-89 82h83l76 -82h-70zM269 740q-49 1 -81.5 34t-33.5 84h60q0 -28 15 -44t40 -16q26 0 41 16t15 44h60q-1 -51 -33.5 -84t-82.5 -34z" />
    <glyph glyph-name="abrevegrave" unicode="&#x1eb1;" horiz-adv-x="512" 
d="M440 364v-364h-75v50q-18 -26 -56 -42.5t-83 -16.5q-72 0 -123.5 43.5t-51.5 127.5q0 71 47 110t122 39h145v50q-1 102 -108 100q-47 1 -77 -23t-34 -75h-75q2 59 32.5 99t69.5 56t83 16q76 0 130 -41.5t54 -128.5zM365 179v61h-143q-95 0 -96 -78q1 -57 35 -78
q35 -21 77 -20q49 0 77 22q50 42 50 93zM233 719l-89 82h83l76 -82h-70zM256 575q-49 1 -81.5 34t-33.5 84h60q0 -28 15 -44t40 -16q26 0 41 16t15 44h60q-1 -51 -33.5 -84t-82.5 -34z" />
    <glyph glyph-name="Abrevehookabove" unicode="&#x1eb2;" horiz-adv-x="540" 
d="M520 0h-76l-52 201h-241l-54 -201h-77l186 713h125zM372 276l-95 366h-13l-95 -366h203zM270 740q-49 1 -81.5 34t-33.5 84h60q0 -28 15 -44t40 -16q26 0 41 16t15 44h60q-1 -51 -33.5 -84t-82.5 -34zM246 967l-40 32q28 27 60 27q36 -1 58.5 -23t23.5 -56
q-1 -32 -23 -55t-56 -26v52q25 6 27 29q0 25 -31 28q-11 -1 -19 -8z" />
    <glyph glyph-name="abrevehookabove" unicode="&#x1eb3;" horiz-adv-x="512" 
d="M440 364v-364h-75v50q-18 -26 -56 -42.5t-83 -16.5q-72 0 -123.5 43.5t-51.5 127.5q0 71 47 110t122 39h145v50q-1 102 -108 100q-47 1 -77 -23t-34 -75h-75q2 59 32.5 99t69.5 56t83 16q76 0 130 -41.5t54 -128.5zM365 179v61h-143q-95 0 -96 -78q1 -57 35 -78
q35 -21 77 -20q49 0 77 22q50 42 50 93zM256 575q-49 1 -81.5 34t-33.5 84h60q0 -28 15 -44t40 -16q26 0 41 16t15 44h60q-1 -51 -33.5 -84t-82.5 -34zM232 802l-40 32q28 27 60 27q36 -1 58.5 -23t23.5 -56q-1 -32 -23 -55t-56 -26v52q25 6 27 29q0 25 -31 28
q-11 -1 -19 -8z" />
    <glyph glyph-name="Abrevetilde" unicode="&#x1eb4;" horiz-adv-x="540" 
d="M520 0h-76l-52 201h-241l-54 -201h-77l186 713h125zM372 276l-95 366h-13l-95 -366h203zM270 740q-49 1 -81.5 34t-33.5 84h60q0 -28 15 -44t40 -16q26 0 41 16t15 44h60q-1 -51 -33.5 -84t-82.5 -34zM360 981l37 -33q-42 -48 -80 -46q-27 1 -51 14q-20 11 -40 13
q-17 5 -46 -24l-35 32q40 47 79 45q27 -1 53 -15q23 -11 38 -12q17 -5 45 26z" />
    <glyph glyph-name="abrevetilde" unicode="&#x1eb5;" horiz-adv-x="512" 
d="M440 364v-364h-75v50q-18 -26 -56 -42.5t-83 -16.5q-72 0 -123.5 43.5t-51.5 127.5q0 71 47 110t122 39h145v50q-1 102 -108 100q-47 1 -77 -23t-34 -75h-75q2 59 32.5 99t69.5 56t83 16q76 0 130 -41.5t54 -128.5zM365 179v61h-143q-95 0 -96 -78q1 -57 35 -78
q35 -21 77 -20q49 0 77 22q50 42 50 93zM256 575q-49 1 -81.5 34t-33.5 84h60q0 -28 15 -44t40 -16q26 0 41 16t15 44h60q-1 -51 -33.5 -84t-82.5 -34zM346 816l37 -33q-42 -48 -80 -46q-27 1 -51 14q-20 11 -40 13q-17 5 -46 -24l-35 32q40 47 79 45q27 -1 53 -15
q23 -11 38 -12q17 -5 45 26z" />
    <glyph glyph-name="Abrevedotbelow" unicode="&#x1eb6;" horiz-adv-x="540" 
d="M520 0h-76l-52 201h-241l-54 -201h-77l186 713h125zM372 276l-95 366h-13l-95 -366h203zM316 -187h-92v109h92v-109zM271 780q-59 0 -99 34.5t-48 103.5h64q11 -80 83 -80t83 80h63q-6 -68 -46.5 -103t-99.5 -35z" />
    <glyph glyph-name="abrevedotbelow" unicode="&#x1eb7;" horiz-adv-x="512" 
d="M440 364v-364h-75v50q-18 -26 -56 -42.5t-83 -16.5q-72 0 -123.5 43.5t-51.5 127.5q0 71 47 110t122 39h145v50q-1 102 -108 100q-47 1 -77 -23t-34 -75h-75q2 59 32.5 99t69.5 56t83 16q76 0 130 -41.5t54 -128.5zM365 179v61h-143q-95 0 -96 -78q1 -57 35 -78
q35 -21 77 -20q49 0 77 22q50 42 50 93zM305 -187h-92v109h92v-109zM258 598q-59 0 -99 34.5t-48 103.5h64q11 -80 83 -80t83 80h63q-6 -68 -46.5 -103t-99.5 -35z" />
    <glyph glyph-name="Edotbelow" unicode="&#x1eb8;" horiz-adv-x="505" 
d="M460 0h-385v713h385v-76h-308v-222h285v-76h-285v-263h308v-76zM314 -187h-92v109h92v-109z" />
    <glyph glyph-name="edotbelow" unicode="&#x1eb9;" horiz-adv-x="518" 
d="M458 345v-106h-318v-59q-2 -41 18 -68q37 -49 104 -49q51 0 82.5 29t37.5 80h75q-8 -84 -60 -133t-135 -49q-90 0 -143.5 51.5t-53.5 138.5v165q0 86 54.5 137.5t142.5 51.5q89 0 142.5 -51t53.5 -138zM383 312v33q1 41 -19 68q-33 48 -102 48q-57 0 -89 -30.5t-33 -85.5
v-33h243zM308 -187h-92v109h92v-109z" />
    <glyph glyph-name="Ehookabove" unicode="&#x1eba;" horiz-adv-x="505" 
d="M460 0h-385v713h385v-76h-308v-222h285v-76h-285v-263h308v-76zM254 757v63q43 3 44 39q-4 37 -39 39q-17 0 -32 -15l-47 38q35 38 80 39q44 -1 71.5 -29.5t28.5 -71.5q-1 -43 -30.5 -72t-75.5 -30z" />
    <glyph glyph-name="ehookabove" unicode="&#x1ebb;" horiz-adv-x="518" 
d="M458 345v-106h-318v-59q-2 -41 18 -68q37 -49 104 -49q51 0 82.5 29t37.5 80h75q-8 -84 -60 -133t-135 -49q-90 0 -143.5 51.5t-53.5 138.5v165q0 86 54.5 137.5t142.5 51.5q89 0 142.5 -51t53.5 -138zM383 312v33q1 41 -19 68q-33 48 -102 48q-57 0 -89 -30.5t-33 -85.5
v-33h243zM247 583v63q43 3 44 39q-5 37 -39 39q-17 0 -32 -15l-47 38q35 38 80 39q44 -1 71.5 -29.5t28.5 -71.5q-1 -43 -30.5 -72t-75.5 -30z" />
    <glyph glyph-name="Etilde" unicode="&#x1ebc;" horiz-adv-x="505" 
d="M460 0h-385v713h385v-76h-308v-222h285v-76h-285v-263h308v-76zM386 882l47 -46q-61 -58 -102 -56q-33 3 -65 21q-31 19 -57 22q-14 6 -56 -33l-47 45q62 59 102 57q35 -3 66 -22q31 -18 56 -21q16 -4 56 33z" />
    <glyph glyph-name="etilde" unicode="&#x1ebd;" horiz-adv-x="518" 
d="M458 345v-106h-318v-59q-2 -41 18 -68q37 -49 104 -49q51 0 82.5 29t37.5 80h75q-8 -84 -60 -133t-135 -49q-90 0 -143.5 51.5t-53.5 138.5v165q0 86 54.5 137.5t142.5 51.5q89 0 142.5 -51t53.5 -138zM383 312v33q1 41 -19 68q-33 48 -102 48q-57 0 -89 -30.5t-33 -85.5
v-33h243zM379 702l47 -46q-61 -58 -102 -56q-33 3 -65 21q-31 19 -57 22q-14 6 -56 -33l-47 45q62 59 102 57q35 -3 66 -22q31 -18 56 -21q16 -4 56 33z" />
    <glyph glyph-name="Ecircumflexacute" unicode="&#x1ebe;" horiz-adv-x="505" 
d="M460 0h-385v713h385v-76h-308v-222h285v-76h-285v-263h308v-76zM406 739h-78l-59 58l-58 -58h-78l106 111h59zM405 970l-89 -83h-70l76 83h83z" />
    <glyph glyph-name="ecircumflexacute" unicode="&#x1ebf;" horiz-adv-x="518" 
d="M458 345v-106h-318v-59q-2 -41 18 -68q37 -49 104 -49q51 0 82.5 29t37.5 80h75q-8 -84 -60 -133t-135 -49q-90 0 -143.5 51.5t-53.5 138.5v165q0 86 54.5 137.5t142.5 51.5q89 0 142.5 -51t53.5 -138zM383 312v33q1 41 -19 68q-33 48 -102 48q-57 0 -89 -30.5t-33 -85.5
v-33h243zM401 574h-78l-59 58l-58 -58h-78l106 111h59zM400 805l-89 -83h-70l76 83h83z" />
    <glyph glyph-name="Ecircumflexgrave" unicode="&#x1ec0;" horiz-adv-x="505" 
d="M460 0h-385v713h385v-76h-308v-222h285v-76h-285v-263h308v-76zM406 739h-78l-59 58l-58 -58h-78l106 111h59zM228 887l-89 83h82l77 -83h-70z" />
    <glyph glyph-name="ecircumflexgrave" unicode="&#x1ec1;" horiz-adv-x="518" 
d="M458 345v-106h-318v-59q-2 -41 18 -68q37 -49 104 -49q51 0 82.5 29t37.5 80h75q-8 -84 -60 -133t-135 -49q-90 0 -143.5 51.5t-53.5 138.5v165q0 86 54.5 137.5t142.5 51.5q89 0 142.5 -51t53.5 -138zM383 312v33q1 41 -19 68q-33 48 -102 48q-57 0 -89 -30.5t-33 -85.5
v-33h243zM400 574h-78l-59 58l-58 -58h-78l106 111h59zM222 722l-89 83h82l77 -83h-70z" />
    <glyph glyph-name="Ecircumflexhookabove" unicode="&#x1ec2;" horiz-adv-x="505" 
d="M460 0h-385v713h385v-76h-308v-222h285v-76h-285v-263h308v-76zM247 970l-40 31q29 27 60 27q36 -1 58.5 -23t23.5 -56q-1 -32 -23 -54.5t-56 -26.5v53q25 4 27 28q0 25 -31 28q-12 0 -19 -7zM406 739h-78l-59 58l-58 -58h-78l106 111h59z" />
    <glyph glyph-name="ecircumflexhookabove" unicode="&#x1ec3;" horiz-adv-x="518" 
d="M458 345v-106h-318v-59q-2 -41 18 -68q37 -49 104 -49q51 0 82.5 29t37.5 80h75q-8 -84 -60 -133t-135 -49q-90 0 -143.5 51.5t-53.5 138.5v165q0 86 54.5 137.5t142.5 51.5q89 0 142.5 -51t53.5 -138zM383 312v33q1 41 -19 68q-33 48 -102 48q-57 0 -89 -30.5t-33 -85.5
v-33h243zM241 805l-40 31q29 27 60 27q36 -1 58.5 -23t23.5 -56q-1 -32 -23 -54.5t-56 -26.5v53q25 4 27 28q0 25 -31 28q-12 0 -19 -7zM400 574h-78l-59 58l-58 -58h-78l106 111h59z" />
    <glyph glyph-name="Ecircumflextilde" unicode="&#x1ec4;" horiz-adv-x="505" 
d="M460 0h-385v713h385v-76h-308v-222h285v-76h-285v-263h308v-76zM356 967l37 -33q-42 -48 -80 -46q-27 1 -51 14q-20 11 -40 13q-17 5 -46 -24l-35 32q40 47 79 45q27 -1 53 -15q23 -11 38 -12q17 -5 45 26zM405 739h-78l-58 58l-59 -58h-78l107 111h59z" />
    <glyph glyph-name="ecircumflextilde" unicode="&#x1ec5;" horiz-adv-x="518" 
d="M458 345v-106h-318v-59q-2 -41 18 -68q37 -49 104 -49q51 0 82.5 29t37.5 80h75q-8 -84 -60 -133t-135 -49q-90 0 -143.5 51.5t-53.5 138.5v165q0 86 54.5 137.5t142.5 51.5q89 0 142.5 -51t53.5 -138zM383 312v33q1 41 -19 68q-33 48 -102 48q-57 0 -89 -30.5t-33 -85.5
v-33h243zM350 802l37 -33q-42 -48 -80 -46q-27 1 -51 14q-20 11 -40 13q-17 5 -46 -24l-35 32q40 47 79 45q27 -1 53 -15q23 -11 38 -12q17 -5 45 26zM399 574h-78l-58 58l-59 -58h-78l107 111h59z" />
    <glyph glyph-name="Ecircumflexdotbelow" unicode="&#x1ec6;" horiz-adv-x="505" 
d="M460 0h-385v713h385v-76h-308v-222h285v-76h-285v-263h308v-76zM314 -187h-92v109h92v-109zM406 780h-71l-68 89l-67 -89h-71l107 157h63z" />
    <glyph glyph-name="ecircumflexdotbelow" unicode="&#x1ec7;" horiz-adv-x="518" 
d="M458 345v-106h-318v-59q-2 -41 18 -68q37 -49 104 -49q51 0 82.5 29t37.5 80h75q-8 -84 -60 -133t-135 -49q-90 0 -143.5 51.5t-53.5 138.5v165q0 86 54.5 137.5t142.5 51.5q89 0 142.5 -51t53.5 -138zM383 312v33q1 41 -19 68q-33 48 -102 48q-57 0 -89 -30.5t-33 -85.5
v-33h243zM309 -187h-92v109h92v-109zM400 598h-71l-68 89l-67 -89h-71l107 157h63z" />
    <glyph glyph-name="Ihookabove" unicode="&#x1ec8;" horiz-adv-x="227" 
d="M75 713h77v-713h-77v713zM95 757v63q43 3 44 39q-5 37 -39 39q-17 0 -32 -15l-47 38q35 38 80 39q44 -1 71.5 -29.5t28.5 -71.5q-1 -43 -30.5 -72t-75.5 -30z" />
    <glyph glyph-name="ihookabove" unicode="&#x1ec9;" horiz-adv-x="225" 
d="M150 0h-75v526h75v-526zM93 583v63q43 3 44 39q-5 37 -39 39q-17 0 -32 -15l-47 38q35 38 80 39q44 -1 71.5 -29.5t28.5 -71.5q-1 -43 -30.5 -72t-75.5 -30z" />
    <glyph glyph-name="Idotbelow" unicode="&#x1eca;" horiz-adv-x="227" 
d="M75 713h77v-713h-77v713zM157 -187h-92v109h92v-109z" />
    <glyph glyph-name="idotbelow" unicode="&#x1ecb;" horiz-adv-x="242" 
d="M159 0h-75v527h75v-527zM167 613h-92v108h92v-108zM167 -187h-92v109h92v-109z" />
    <glyph glyph-name="Odotbelow" unicode="&#x1ecc;" horiz-adv-x="533" 
d="M468 530v-348q0 -67 -41 -121q-35 -41 -73 -54.5t-88 -15.5q-56 0 -108 26q-42 20 -69 73.5t-24 92.5v348q0 63 40 118q34 42 72.5 55.5t89.5 15.5q56 0 107 -26q42 -19 69.5 -72t24.5 -92zM391 183v346q0 37 -14 60q-13 24 -45 41t-65 15q-36 2 -67 -16
q-31 -17 -44.5 -40.5t-13.5 -59.5v-346q0 -39 13 -61q15 -25 46.5 -41.5t65.5 -14.5q34 -1 65 15q32 18 45.5 41t13.5 61zM312 -187h-92v109h92v-109z" />
    <glyph glyph-name="odotbelow" unicode="&#x1ecd;" 
d="M458 345v-165q0 -86 -54.5 -138t-141.5 -52q-90 0 -143.5 51.5t-53.5 138.5v165q0 86 54.5 137.5t142.5 51.5q89 0 142.5 -51t53.5 -138zM383 180v165q1 41 -19 68q-33 48 -102 48q-57 0 -89 -30.5t-33 -85.5v-165q-2 -41 18 -68q37 -49 104 -49q26 0 50 8q20 7 46 31
q23 22 25 78zM307 -187h-92v109h92v-109z" />
    <glyph glyph-name="Ohookabove" unicode="&#x1ece;" horiz-adv-x="533" 
d="M468 530v-348q0 -67 -41 -121q-35 -41 -73 -54.5t-88 -15.5q-56 0 -108 26q-42 20 -69 73.5t-24 92.5v348q0 63 40 118q34 42 72.5 55.5t89.5 15.5q56 0 107 -26q42 -19 69.5 -72t24.5 -92zM391 183v346q0 37 -14 60q-13 24 -45 41t-65 15q-36 2 -67 -16
q-31 -17 -44.5 -40.5t-13.5 -59.5v-346q0 -39 13 -61q15 -25 46.5 -41.5t65.5 -14.5q34 -1 65 15q32 18 45.5 41t13.5 61zM254 757v63q43 3 44 39q-4 37 -39 39q-17 0 -32 -15l-47 38q35 38 80 39q44 -1 71.5 -29.5t28.5 -71.5q-1 -43 -30.5 -72t-75.5 -30z" />
    <glyph glyph-name="ohookabove" unicode="&#x1ecf;" 
d="M458 345v-165q0 -86 -54.5 -138t-141.5 -52q-90 0 -143.5 51.5t-53.5 138.5v165q0 86 54.5 137.5t142.5 51.5q89 0 142.5 -51t53.5 -138zM383 180v165q1 41 -19 68q-33 48 -102 48q-57 0 -89 -30.5t-33 -85.5v-165q-2 -41 18 -68q37 -49 104 -49q26 0 50 8q20 7 46 31
q23 22 25 78zM244 583v63q43 3 44 39q-4 37 -39 39q-17 0 -32 -15l-47 38q35 38 80 39q44 -1 71.5 -29.5t28.5 -71.5q-1 -43 -30.5 -72t-75.5 -30z" />
    <glyph glyph-name="Ocircumflexacute" unicode="&#x1ed0;" horiz-adv-x="533" 
d="M468 530v-348q0 -67 -41 -121q-35 -41 -73 -54.5t-88 -15.5q-56 0 -108 26q-42 20 -69 73.5t-24 92.5v348q0 63 40 118q34 42 72.5 55.5t89.5 15.5q56 0 107 -26q42 -19 69.5 -72t24.5 -92zM391 183v346q0 37 -14 60q-13 24 -45 41t-65 15q-36 2 -67 -16
q-31 -17 -44.5 -40.5t-13.5 -59.5v-346q0 -39 13 -61q15 -25 46.5 -41.5t65.5 -14.5q34 -1 65 15q32 18 45.5 41t13.5 61zM404 739h-78l-59 58l-58 -58h-78l106 111h59zM403 970l-89 -83h-70l76 83h83z" />
    <glyph glyph-name="ocircumflexacute" unicode="&#x1ed1;" 
d="M458 345v-165q0 -86 -54.5 -138t-141.5 -52q-90 0 -143.5 51.5t-53.5 138.5v165q0 86 54.5 137.5t142.5 51.5q89 0 142.5 -51t53.5 -138zM383 180v165q1 41 -19 68q-33 48 -102 48q-57 0 -89 -30.5t-33 -85.5v-165q-2 -41 18 -68q37 -49 104 -49q26 0 50 8q20 7 46 31
q23 22 25 78zM400 574h-78l-59 58l-58 -58h-78l106 111h59zM399 805l-89 -83h-70l76 83h83z" />
    <glyph glyph-name="Ocircumflexgrave" unicode="&#x1ed2;" horiz-adv-x="533" 
d="M468 530v-348q0 -67 -41 -121q-35 -41 -73 -54.5t-88 -15.5q-56 0 -108 26q-42 20 -69 73.5t-24 92.5v348q0 63 40 118q34 42 72.5 55.5t89.5 15.5q56 0 107 -26q42 -19 69.5 -72t24.5 -92zM391 183v346q0 37 -14 60q-13 24 -45 41t-65 15q-36 2 -67 -16
q-31 -17 -44.5 -40.5t-13.5 -59.5v-346q0 -39 13 -61q15 -25 46.5 -41.5t65.5 -14.5q34 -1 65 15q32 18 45.5 41t13.5 61zM404 739h-78l-59 58l-58 -58h-78l106 111h59zM226 887l-89 83h82l77 -83h-70z" />
    <glyph glyph-name="ocircumflexgrave" unicode="&#x1ed3;" 
d="M458 345v-165q0 -86 -54.5 -138t-141.5 -52q-90 0 -143.5 51.5t-53.5 138.5v165q0 86 54.5 137.5t142.5 51.5q89 0 142.5 -51t53.5 -138zM383 180v165q1 41 -19 68q-33 48 -102 48q-57 0 -89 -30.5t-33 -85.5v-165q-2 -41 18 -68q37 -49 104 -49q26 0 50 8q20 7 46 31
q23 22 25 78zM400 574h-78l-59 58l-58 -58h-78l106 111h59zM222 722l-89 83h82l77 -83h-70z" />
    <glyph glyph-name="Ocircumflexhookabove" unicode="&#x1ed4;" horiz-adv-x="533" 
d="M468 530v-348q0 -67 -41 -121q-35 -41 -73 -54.5t-88 -15.5q-56 0 -108 26q-42 20 -69 73.5t-24 92.5v348q0 63 40 118q34 42 72.5 55.5t89.5 15.5q56 0 107 -26q42 -19 69.5 -72t24.5 -92zM391 183v346q0 37 -14 60q-13 24 -45 41t-65 15q-36 2 -67 -16
q-31 -17 -44.5 -40.5t-13.5 -59.5v-346q0 -39 13 -61q15 -25 46.5 -41.5t65.5 -14.5q34 -1 65 15q32 18 45.5 41t13.5 61zM246 970l-40 31q28 27 60 27q36 -1 58.5 -23t23.5 -56q-1 -32 -23 -54.5t-56 -26.5v53q25 4 27 28q0 25 -31 28q-12 0 -19 -7zM405 739h-78l-59 58
l-58 -58h-78l106 111h59z" />
    <glyph glyph-name="ocircumflexhookabove" unicode="&#x1ed5;" 
d="M458 345v-165q0 -86 -54.5 -138t-141.5 -52q-90 0 -143.5 51.5t-53.5 138.5v165q0 86 54.5 137.5t142.5 51.5q89 0 142.5 -51t53.5 -138zM383 180v165q1 41 -19 68q-33 48 -102 48q-57 0 -89 -30.5t-33 -85.5v-165q-2 -41 18 -68q37 -49 104 -49q26 0 50 8q20 7 46 31
q23 22 25 78zM241 805l-40 31q29 27 60 27q36 -1 58.5 -23t23.5 -56q-1 -32 -23 -54.5t-56 -26.5v53q25 4 27 28q0 25 -31 28q-12 0 -19 -7zM400 574h-78l-59 58l-58 -58h-78l106 111h59z" />
    <glyph glyph-name="Ocircumflextilde" unicode="&#x1ed6;" horiz-adv-x="533" 
d="M468 530v-348q0 -67 -41 -121q-35 -41 -73 -54.5t-88 -15.5q-56 0 -108 26q-42 20 -69 73.5t-24 92.5v348q0 63 40 118q34 42 72.5 55.5t89.5 15.5q56 0 107 -26q42 -19 69.5 -72t24.5 -92zM391 183v346q0 37 -14 60q-13 24 -45 41t-65 15q-36 2 -67 -16
q-31 -17 -44.5 -40.5t-13.5 -59.5v-346q0 -39 13 -61q15 -25 46.5 -41.5t65.5 -14.5q34 -1 65 15q32 18 45.5 41t13.5 61zM354 967l37 -33q-42 -48 -80 -46q-27 1 -51 14q-20 11 -40 13q-17 5 -46 -24l-35 32q40 47 79 45q27 -1 53 -15q23 -11 38 -12q17 -5 45 26zM403 739
h-78l-58 58l-59 -58h-78l107 111h59z" />
    <glyph glyph-name="ocircumflextilde" unicode="&#x1ed7;" 
d="M458 345v-165q0 -86 -54.5 -138t-141.5 -52q-90 0 -143.5 51.5t-53.5 138.5v165q0 86 54.5 137.5t142.5 51.5q89 0 142.5 -51t53.5 -138zM383 180v165q1 41 -19 68q-33 48 -102 48q-57 0 -89 -30.5t-33 -85.5v-165q-2 -41 18 -68q37 -49 104 -49q26 0 50 8q20 7 46 31
q23 22 25 78zM349 802l37 -33q-42 -48 -80 -46q-27 1 -51 14q-20 11 -40 13q-17 5 -46 -24l-35 32q40 47 79 45q27 -1 53 -15q23 -11 38 -12q17 -5 45 26zM398 574h-78l-58 58l-59 -58h-78l107 111h59z" />
    <glyph glyph-name="Ocircumflexdotbelow" unicode="&#x1ed8;" horiz-adv-x="533" 
d="M468 530v-348q0 -67 -41 -121q-35 -41 -73 -54.5t-88 -15.5q-56 0 -108 26q-42 20 -69 73.5t-24 92.5v348q0 63 40 118q34 42 72.5 55.5t89.5 15.5q56 0 107 -26q42 -19 69.5 -72t24.5 -92zM391 183v346q0 37 -14 60q-13 24 -45 41t-65 15q-36 2 -67 -16
q-31 -17 -44.5 -40.5t-13.5 -59.5v-346q0 -39 13 -61q15 -25 46.5 -41.5t65.5 -14.5q34 -1 65 15q32 18 45.5 41t13.5 61zM312 -187h-92v109h92v-109zM405 780h-71l-68 89l-67 -89h-71l107 157h63z" />
    <glyph glyph-name="ocircumflexdotbelow" unicode="&#x1ed9;" 
d="M458 345v-165q0 -86 -54.5 -138t-141.5 -52q-90 0 -143.5 51.5t-53.5 138.5v165q0 86 54.5 137.5t142.5 51.5q89 0 142.5 -51t53.5 -138zM383 180v165q1 41 -19 68q-33 48 -102 48q-57 0 -89 -30.5t-33 -85.5v-165q-2 -41 18 -68q37 -49 104 -49q26 0 50 8q20 7 46 31
q23 22 25 78zM399 598h-71l-68 89l-67 -89h-71l107 157h63zM306 -187h-92v109h92v-109z" />
    <glyph glyph-name="Ohornacute" unicode="&#x1eda;" horiz-adv-x="576" 
d="M468 516v-334q0 -67 -41 -121q-35 -41 -73 -54.5t-88 -15.5q-56 0 -108 26q-42 20 -69 73.5t-24 92.5v348q0 63 40 118q34 42 72.5 55.5t89.5 15.5q80 0 128 -40t64 -95h2q51 0 51 55v73h69v-70q0 -120 -113 -127zM391 183v346q0 37 -14 60q-13 24 -45 41t-65 15
q-36 2 -67 -16q-31 -17 -44.5 -40.5t-13.5 -59.5v-346q0 -39 13 -61q15 -25 46.5 -41.5t65.5 -14.5q34 -1 65 15q32 18 45.5 41t13.5 61zM398 938l-94 -158h-70l77 158h87z" />
    <glyph glyph-name="ohornacute" unicode="&#x1edb;" horiz-adv-x="545" 
d="M458 342v-162q0 -86 -54.5 -138t-141.5 -52q-90 0 -143.5 51.5t-53.5 138.5v165q0 86 54.5 137.5t142.5 51.5q72 0 107 -25q35 -23 53 -46t27 -54q35 2 34 48v70h67v-71q2 -99 -92 -114zM383 180v165q1 41 -19 68q-33 48 -102 48q-57 0 -89 -30.5t-33 -85.5v-165
q-2 -41 18 -68q37 -49 104 -49q26 0 50 8q20 7 46 31q23 22 25 78zM378 756l-94 -158h-70l77 158h87z" />
    <glyph glyph-name="Ohorngrave" unicode="&#x1edc;" horiz-adv-x="576" 
d="M468 516v-334q0 -67 -41 -121q-35 -41 -73 -54.5t-88 -15.5q-56 0 -108 26q-42 20 -69 73.5t-24 92.5v348q0 63 40 118q34 42 72.5 55.5t89.5 15.5q80 0 128 -40t64 -95h2q51 0 51 55v73h69v-70q0 -120 -113 -127zM391 183v346q0 37 -14 60q-13 24 -45 41t-65 15
q-36 2 -67 -16q-31 -17 -44.5 -40.5t-13.5 -59.5v-346q0 -39 13 -61q15 -25 46.5 -41.5t65.5 -14.5q34 -1 65 15q32 18 45.5 41t13.5 61zM318 780h-71l-93 158h86z" />
    <glyph glyph-name="ohorngrave" unicode="&#x1edd;" horiz-adv-x="545" 
d="M458 342v-162q0 -86 -54.5 -138t-141.5 -52q-90 0 -143.5 51.5t-53.5 138.5v165q0 86 54.5 137.5t142.5 51.5q72 0 107 -25q35 -23 53 -46t27 -54q35 2 34 48v70h67v-71q2 -99 -92 -114zM383 180v165q1 41 -19 68q-33 48 -102 48q-57 0 -89 -30.5t-33 -85.5v-165
q-2 -41 18 -68q37 -49 104 -49q26 0 50 8q20 7 46 31q23 22 25 78zM318 598h-71l-93 158h86z" />
    <glyph glyph-name="Ohornhookabove" unicode="&#x1ede;" horiz-adv-x="576" 
d="M468 516v-334q0 -67 -41 -121q-35 -41 -73 -54.5t-88 -15.5q-56 0 -108 26q-42 20 -69 73.5t-24 92.5v348q0 63 40 118q34 42 72.5 55.5t89.5 15.5q80 0 128 -40t64 -95h2q51 0 51 55v73h69v-70q0 -120 -113 -127zM391 183v346q0 37 -14 60q-13 24 -45 41t-65 15
q-36 2 -67 -16q-31 -17 -44.5 -40.5t-13.5 -59.5v-346q0 -39 13 -61q15 -25 46.5 -41.5t65.5 -14.5q34 -1 65 15q32 18 45.5 41t13.5 61zM254 757v63q43 3 44 39q-4 37 -39 39q-17 0 -32 -15l-47 38q35 38 80 39q44 -1 71.5 -29.5t28.5 -71.5q-1 -43 -30.5 -72t-75.5 -30z
" />
    <glyph glyph-name="ohornhookabove" unicode="&#x1edf;" horiz-adv-x="545" 
d="M458 342v-162q0 -86 -54.5 -138t-141.5 -52q-90 0 -143.5 51.5t-53.5 138.5v165q0 86 54.5 137.5t142.5 51.5q72 0 107 -25q35 -23 53 -46t27 -54q35 2 34 48v70h67v-71q2 -99 -92 -114zM383 180v165q1 41 -19 68q-33 48 -102 48q-57 0 -89 -30.5t-33 -85.5v-165
q-2 -41 18 -68q37 -49 104 -49q26 0 50 8q20 7 46 31q23 22 25 78zM244 583v63q43 3 44 39q-4 37 -39 39q-17 0 -32 -15l-47 38q35 38 80 39q44 -1 71.5 -29.5t28.5 -71.5q-1 -43 -30.5 -72t-75.5 -30z" />
    <glyph glyph-name="Ohorntilde" unicode="&#x1ee0;" horiz-adv-x="576" 
d="M468 516v-334q0 -67 -41 -121q-35 -41 -73 -54.5t-88 -15.5q-56 0 -108 26q-42 20 -69 73.5t-24 92.5v348q0 63 40 118q34 42 72.5 55.5t89.5 15.5q80 0 128 -40t64 -95h2q51 0 51 55v73h69v-70q0 -120 -113 -127zM391 183v346q0 37 -14 60q-13 24 -45 41t-65 15
q-36 2 -67 -16q-31 -17 -44.5 -40.5t-13.5 -59.5v-346q0 -39 13 -61q15 -25 46.5 -41.5t65.5 -14.5q34 -1 65 15q32 18 45.5 41t13.5 61zM383 882l47 -46q-61 -58 -102 -56q-33 3 -65 21q-31 19 -57 22q-14 6 -56 -33l-47 45q62 59 102 57q35 -3 66 -22q31 -18 56 -21
q16 -4 56 33z" />
    <glyph glyph-name="ohorntilde" unicode="&#x1ee1;" horiz-adv-x="545" 
d="M458 342v-162q0 -86 -54.5 -138t-141.5 -52q-90 0 -143.5 51.5t-53.5 138.5v165q0 86 54.5 137.5t142.5 51.5q72 0 107 -25q35 -23 53 -46t27 -54q35 2 34 48v70h67v-71q2 -99 -92 -114zM383 180v165q1 41 -19 68q-33 48 -102 48q-57 0 -89 -30.5t-33 -85.5v-165
q-2 -41 18 -68q37 -49 104 -49q26 0 50 8q20 7 46 31q23 22 25 78zM378 702l47 -46q-61 -58 -102 -56q-33 3 -65 21q-31 19 -57 22q-14 6 -56 -33l-47 45q62 59 102 57q35 -3 66 -22q31 -18 56 -21q16 -4 56 33z" />
    <glyph glyph-name="Ohorndotbelow" unicode="&#x1ee2;" horiz-adv-x="576" 
d="M468 516v-334q0 -67 -41 -121q-35 -41 -73 -54.5t-88 -15.5q-56 0 -108 26q-42 20 -69 73.5t-24 92.5v348q0 63 40 118q34 42 72.5 55.5t89.5 15.5q80 0 128 -40t64 -95h2q51 0 51 55v73h69v-70q0 -120 -113 -127zM391 183v346q0 37 -14 60q-13 24 -45 41t-65 15
q-36 2 -67 -16q-31 -17 -44.5 -40.5t-13.5 -59.5v-346q0 -39 13 -61q15 -25 46.5 -41.5t65.5 -14.5q34 -1 65 15q32 18 45.5 41t13.5 61zM306 -187h-92v109h92v-109z" />
    <glyph glyph-name="ohorndotbelow" unicode="&#x1ee3;" horiz-adv-x="545" 
d="M458 342v-162q0 -86 -54.5 -138t-141.5 -52q-90 0 -143.5 51.5t-53.5 138.5v165q0 86 54.5 137.5t142.5 51.5q72 0 107 -25q35 -23 53 -46t27 -54q35 2 34 48v70h67v-71q2 -99 -92 -114zM383 180v165q1 41 -19 68q-33 48 -102 48q-57 0 -89 -30.5t-33 -85.5v-165
q-2 -41 18 -68q37 -49 104 -49q26 0 50 8q20 7 46 31q23 22 25 78zM306 -187h-92v109h92v-109z" />
    <glyph glyph-name="Udotbelow" unicode="&#x1ee4;" horiz-adv-x="534" 
d="M469 713v-531q0 -64 -40 -121q-33 -41 -72 -54.5t-89 -15.5q-57 0 -110 25q-44 20 -70 72.5t-23 94.5v530h77v-530q2 -40 14 -61q13 -24 45.5 -41t65.5 -15q35 -2 66 15q32 18 45.5 41t13.5 61v530h77zM306 -187h-92v109h92v-109z" />
    <glyph glyph-name="udotbelow" unicode="&#x1ee5;" horiz-adv-x="535" 
d="M460 0h-75v42q-18 -24 -51 -37.5t-69 -13.5q-89 0 -141.5 51t-52.5 138v347h75v-347q-2 -42 17 -68q33 -48 102 -48q54 1 86.5 30.5t33.5 80.5v352h75v-527zM306 -187h-92v109h92v-109z" />
    <glyph glyph-name="Uhookabove" unicode="&#x1ee6;" horiz-adv-x="534" 
d="M469 713v-531q0 -64 -40 -121q-33 -41 -72 -54.5t-89 -15.5q-57 0 -110 25q-44 20 -70 72.5t-23 94.5v530h77v-530q2 -40 14 -61q13 -24 45.5 -41t65.5 -15q35 -2 66 15q32 18 45.5 41t13.5 61v530h77zM254 757v63q43 3 44 39q-4 37 -39 39q-17 0 -32 -15l-47 38
q35 38 80 39q44 -1 71.5 -29.5t28.5 -71.5q-1 -43 -30.5 -72t-75.5 -30z" />
    <glyph glyph-name="uhookabove" unicode="&#x1ee7;" horiz-adv-x="535" 
d="M460 0h-75v42q-18 -24 -51 -37.5t-69 -13.5q-89 0 -141.5 51t-52.5 138v347h75v-347q-2 -42 17 -68q33 -48 102 -48q54 1 86.5 30.5t33.5 80.5v352h75v-527zM244 583v63q43 3 44 39q-4 37 -39 39q-17 0 -32 -15l-47 38q35 38 80 39q44 -1 71.5 -29.5t28.5 -71.5
q-1 -43 -30.5 -72t-75.5 -30z" />
    <glyph glyph-name="Uhornacute" unicode="&#x1ee8;" horiz-adv-x="606" 
d="M469 515v-333q0 -64 -40 -121q-33 -41 -72 -54.5t-89 -15.5q-57 0 -110 25q-44 20 -70 72.5t-23 94.5v530h77v-530q2 -40 14 -61q13 -24 45.5 -41t65.5 -15q35 -2 66 15q32 18 45.5 41t13.5 61v530h77v-128h12q51 0 51 55v73h69v-70q0 -128 -130 -128h-2zM398 938
l-94 -158h-70l77 158h87z" />
    <glyph glyph-name="uhornacute" unicode="&#x1ee9;" horiz-adv-x="585" 
d="M460 0h-75v42q-18 -24 -51 -37.5t-69 -13.5q-89 0 -141.5 51t-52.5 138v347h75v-347q-2 -42 17 -68q33 -48 102 -48q54 1 86.5 30.5t33.5 80.5v352h75v-118h15q26 0 37 10.5t11 37.5v70h67v-71q2 -53 -21 -77q-35 -39 -106 -39h-3v-340zM378 756l-94 -158h-70l77 158h87z
" />
    <glyph glyph-name="Uhorngrave" unicode="&#x1eea;" horiz-adv-x="606" 
d="M469 515v-333q0 -64 -40 -121q-33 -41 -72 -54.5t-89 -15.5q-57 0 -110 25q-44 20 -70 72.5t-23 94.5v530h77v-530q2 -40 14 -61q13 -24 45.5 -41t65.5 -15q35 -2 66 15q32 18 45.5 41t13.5 61v530h77v-128h12q51 0 51 55v73h69v-70q0 -128 -130 -128h-2zM318 780h-71
l-93 158h86z" />
    <glyph glyph-name="uhorngrave" unicode="&#x1eeb;" horiz-adv-x="585" 
d="M460 0h-75v42q-18 -24 -51 -37.5t-69 -13.5q-89 0 -141.5 51t-52.5 138v347h75v-347q-2 -42 17 -68q33 -48 102 -48q54 1 86.5 30.5t33.5 80.5v352h75v-118h15q26 0 37 10.5t11 37.5v70h67v-71q2 -53 -21 -77q-35 -39 -106 -39h-3v-340zM318 598h-71l-93 158h86z" />
    <glyph glyph-name="Uhornhookabove" unicode="&#x1eec;" horiz-adv-x="606" 
d="M469 515v-333q0 -64 -40 -121q-33 -41 -72 -54.5t-89 -15.5q-57 0 -110 25q-44 20 -70 72.5t-23 94.5v530h77v-530q2 -40 14 -61q13 -24 45.5 -41t65.5 -15q35 -2 66 15q32 18 45.5 41t13.5 61v530h77v-128h12q51 0 51 55v73h69v-70q0 -128 -130 -128h-2zM254 757v63
q43 3 44 39q-4 37 -39 39q-17 0 -32 -15l-47 38q35 38 80 39q44 -1 71.5 -29.5t28.5 -71.5q-1 -43 -30.5 -72t-75.5 -30z" />
    <glyph glyph-name="uhornhookabove" unicode="&#x1eed;" horiz-adv-x="585" 
d="M460 0h-75v42q-18 -24 -51 -37.5t-69 -13.5q-89 0 -141.5 51t-52.5 138v347h75v-347q-2 -42 17 -68q33 -48 102 -48q54 1 86.5 30.5t33.5 80.5v352h75v-118h15q26 0 37 10.5t11 37.5v70h67v-71q2 -53 -21 -77q-35 -39 -106 -39h-3v-340zM244 583v63q43 3 44 39
q-4 37 -39 39q-17 0 -32 -15l-47 38q35 38 80 39q44 -1 71.5 -29.5t28.5 -71.5q-1 -43 -30.5 -72t-75.5 -30z" />
    <glyph glyph-name="Uhorntilde" unicode="&#x1eee;" horiz-adv-x="606" 
d="M469 515v-333q0 -64 -40 -121q-33 -41 -72 -54.5t-89 -15.5q-57 0 -110 25q-44 20 -70 72.5t-23 94.5v530h77v-530q2 -40 14 -61q13 -24 45.5 -41t65.5 -15q35 -2 66 15q32 18 45.5 41t13.5 61v530h77v-128h12q51 0 51 55v73h69v-70q0 -128 -130 -128h-2zM383 882l47 -46
q-61 -58 -102 -56q-33 3 -65 21q-31 19 -57 22q-14 6 -56 -33l-47 45q62 59 102 57q35 -3 66 -22q31 -18 56 -21q16 -4 56 33z" />
    <glyph glyph-name="uhorntilde" unicode="&#x1eef;" horiz-adv-x="585" 
d="M460 0h-75v42q-18 -24 -51 -37.5t-69 -13.5q-89 0 -141.5 51t-52.5 138v347h75v-347q-2 -42 17 -68q33 -48 102 -48q54 1 86.5 30.5t33.5 80.5v352h75v-118h15q26 0 37 10.5t11 37.5v70h67v-71q2 -53 -21 -77q-35 -39 -106 -39h-3v-340zM378 702l47 -46q-61 -58 -102 -56
q-33 3 -65 21q-31 19 -57 22q-14 6 -56 -33l-47 45q62 59 102 57q35 -3 66 -22q31 -18 56 -21q16 -4 56 33z" />
    <glyph glyph-name="Uhorndotbelow" unicode="&#x1ef0;" horiz-adv-x="606" 
d="M469 515v-333q0 -64 -40 -121q-33 -41 -72 -54.5t-89 -15.5q-57 0 -110 25q-44 20 -70 72.5t-23 94.5v530h77v-530q2 -40 14 -61q13 -24 45.5 -41t65.5 -15q35 -2 66 15q32 18 45.5 41t13.5 61v530h77v-128h12q51 0 51 55v73h69v-70q0 -128 -130 -128h-2zM312 -187h-92
v109h92v-109z" />
    <glyph glyph-name="uhorndotbelow" unicode="&#x1ef1;" horiz-adv-x="585" 
d="M460 0h-75v42q-18 -24 -51 -37.5t-69 -13.5q-89 0 -141.5 51t-52.5 138v347h75v-347q-2 -42 17 -68q33 -48 102 -48q54 1 86.5 30.5t33.5 80.5v352h75v-118h15q26 0 37 10.5t11 37.5v70h67v-71q2 -53 -21 -77q-35 -39 -106 -39h-3v-340zM312 -187h-92v109h92v-109z" />
    <glyph glyph-name="Ygrave" unicode="&#x1ef2;" horiz-adv-x="494" 
d="M473 713l-188 -456v-257h-77v259l-187 454h83l143 -358l143 358h83zM299 780h-71l-93 158h86z" />
    <glyph glyph-name="ygrave" unicode="&#x1ef3;" horiz-adv-x="440" 
d="M220 72h6l126 455h77l-178 -627q-23 -77 -58.5 -101.5t-104.5 -24.5h-36v73h51q62 -2 78 56l27 97h-41l-150 527h78zM272 598h-71l-93 158h86z" />
    <glyph glyph-name="Ydotbelow" unicode="&#x1ef4;" horiz-adv-x="494" 
d="M473 713l-188 -456v-257h-77v259l-187 454h83l143 -358l143 358h83zM293 -187h-92v109h92v-109z" />
    <glyph glyph-name="ydotbelow" unicode="&#x1ef5;" horiz-adv-x="440" 
d="M220 72h6l126 455h77l-178 -627q-23 -77 -58.5 -101.5t-104.5 -24.5h-36v73h51q62 -2 78 56l27 97h-41l-150 527h78zM406 -187h-92v109h92v-109z" />
    <glyph glyph-name="Yhookabove" unicode="&#x1ef6;" horiz-adv-x="494" 
d="M473 713l-188 -456v-257h-77v259l-187 454h83l143 -358l143 358h83zM224 757v63q43 3 44 39q-4 37 -39 39q-17 0 -32 -15l-47 38q35 38 80 39q44 -1 71.5 -29.5t28.5 -71.5q-1 -43 -30.5 -72t-75.5 -30z" />
    <glyph glyph-name="yhookabove" unicode="&#x1ef7;" horiz-adv-x="440" 
d="M220 72h6l126 455h77l-178 -627q-23 -77 -58.5 -101.5t-104.5 -24.5h-36v73h51q62 -2 78 56l27 97h-41l-150 527h78zM194 583v63q43 3 44 39q-4 37 -39 39q-17 0 -32 -15l-47 38q35 38 80 39q44 -1 71.5 -29.5t28.5 -71.5q-1 -43 -30.5 -72t-75.5 -30z" />
    <glyph glyph-name="Ytilde" unicode="&#x1ef8;" horiz-adv-x="494" 
d="M473 713l-188 -456v-257h-77v259l-187 454h83l143 -358l143 358h83zM365 882l47 -46q-61 -58 -102 -56q-33 3 -65 21q-31 19 -57 22q-14 6 -56 -33l-47 45q62 59 102 57q35 -3 66 -22q31 -18 56 -21q16 -4 56 33z" />
    <glyph glyph-name="ytilde" unicode="&#x1ef9;" horiz-adv-x="440" 
d="M220 72h6l126 455h77l-178 -627q-23 -77 -58.5 -101.5t-104.5 -24.5h-36v73h51q62 -2 78 56l27 97h-41l-150 527h78zM339 702l47 -46q-61 -58 -102 -56q-33 3 -65 21q-31 19 -57 22q-14 6 -56 -33l-47 45q62 59 102 57q35 -3 66 -22q31 -18 56 -21q16 -4 56 33z" />
    <glyph glyph-name="endash" unicode="&#x2013;" horiz-adv-x="574" 
d="M499 247h-424v71h424v-71z" />
    <glyph glyph-name="emdash" unicode="&#x2014;" horiz-adv-x="818" 
d="M743 247h-668v71h668v-71z" />
    <glyph glyph-name="afii00208" unicode="&#x2015;" horiz-adv-x="574" 
d="M621 247h-668v71h668v-71z" />
    <glyph glyph-name="quoteleft" unicode="&#x2018;" horiz-adv-x="250" 
d="M124 747h68l-42 -201h-83z" />
    <glyph glyph-name="quoteright" unicode="&#x2019;" horiz-adv-x="249" 
d="M125 546h-68l40 201h83z" />
    <glyph glyph-name="quotesinglbase" unicode="&#x201a;" horiz-adv-x="250" 
d="M125 -110h-68l41 201h83z" />
    <glyph glyph-name="quotedblleft" unicode="&#x201c;" horiz-adv-x="397" 
d="M272 747h67l-41 -201h-83zM123 747h69l-41 -201h-84z" />
    <glyph glyph-name="quotedblright" unicode="&#x201d;" horiz-adv-x="398" 
d="M125 546h-68l41 201h83zM273 546h-69l41 201h84z" />
    <glyph glyph-name="quotedblbase" unicode="&#x201e;" horiz-adv-x="398" 
d="M125 -110h-68l41 201h83zM273 -110h-69l41 201h84z" />
    <glyph glyph-name="dagger" unicode="&#x2020;" horiz-adv-x="439" 
d="M255 -55h-71v519h-113v70h113v224h71v-224h113v-70h-113v-519z" />
    <glyph glyph-name="daggerdbl" unicode="&#x2021;" horiz-adv-x="439" 
d="M255 -55h-71v223h-113v70h113v227h-113v70h113v223h71v-223h113v-70h-113v-227h113v-70h-113v-223z" />
    <glyph glyph-name="bullet" unicode="&#x2022;" horiz-adv-x="370" 
d="M295 349q-1 -47 -32 -78t-78 -32q-47 1 -78 32t-32 78q1 47 32 78.5t78 32.5q47 -1 78 -32.5t32 -78.5z" />
    <glyph glyph-name="ellipsis" unicode="&#x2026;" horiz-adv-x="657" 
d="M586 0h-96v106h96v-106zM376 0h-95v106h95v-106zM167 0h-96v106h96v-106z" />
    <glyph glyph-name="perthousand" unicode="&#x2030;" horiz-adv-x="1145" 
d="M1070 231v-102q0 -58 -36.5 -93.5t-96.5 -35.5t-96 35t-36 94v102q0 60 36 95t96 35q61 0 97 -35t36 -95zM998 129v102q2 58 -61 59q-60 0 -60 -59v-102q-2 -57 60 -58q61 0 61 58zM340 584v-102q0 -58 -36.5 -93.5t-96.5 -35.5t-96 35t-36 94v102q0 60 36 95t96 35
q61 0 97 -35t36 -95zM268 482v102q2 58 -61 59q-60 0 -60 -59v-102q-2 -57 60 -58q61 0 61 58zM574 759l-264 -811h-72l266 811h70zM744 231v-102q0 -58 -36.5 -93.5t-96.5 -35.5t-96 35t-36 94v102q0 60 36 95t96 35q61 0 97 -35t36 -95zM672 129v102q2 58 -61 59
q-60 0 -60 -59v-102q-2 -57 60 -58q61 0 61 58z" />
    <glyph glyph-name="guilsinglleft" unicode="&#x2039;" horiz-adv-x="289" 
d="M224 65l-199 199l199 200v-99l-100 -101l100 -101v-98z" />
    <glyph glyph-name="guilsinglright" unicode="&#x203a;" horiz-adv-x="288" 
d="M263 264l-198 -199v98l101 101l-101 101v99z" />
    <glyph glyph-name="fraction" unicode="&#x2044;" horiz-adv-x="551" 
d="M483 703l-328 -703h-80l330 703h78z" />
    <glyph glyph-name="dong" unicode="&#x20ab;" 
d="M452 573v-573h-75v41q-15 -23 -49 -37t-69 -14q-87 0 -140 52t-53 138v165q0 87 52.5 138t140.5 51q81 0 118 -52v91h-149v69h149v70h75v-70h73v-69h-73zM141 345v-165q0 -55 31 -85.5t87 -31.5q35 0 59 11q27 12 44 39.5t15 66.5v165q0 55 -31 85.5t-87 30.5
q-35 0 -59 -11q-26 -11 -43.5 -38.5t-15.5 -66.5zM422 -147h-305v69h305v-69z" />
    <glyph glyph-name="Euro" unicode="&#x20ac;" horiz-adv-x="539" 
d="M314 719q53 -1 92 -21t58.5 -51t28.5 -61t10 -60h-76q-2 38 -14 61q-13 25 -40 41.5t-59 14.5q-34 1 -63 -15q-52 -32 -52 -100v-61h188v-72h-188v-71h188v-72h-188v-68q0 -38 12 -61q13 -25 42 -41.5t61 -14.5q32 -2 59 15q50 32 54 100h76q-1 -32 -10.5 -62.5
t-30 -60.5t-59.5 -48.5t-93 -19.5q-57 0 -105 26q-40 21 -62.5 73.5t-20.5 92.5v69h-81v72h81v71h-81v72h81v64q0 65 35 117q32 41 70 55.5t87 15.5z" />
    <glyph glyph-name="afii61352" unicode="&#x2116;" horiz-adv-x="870" 
d="M812 589v-105q0 -60 -36.5 -95t-96.5 -35q-61 0 -96.5 34.5t-35.5 95.5v105q0 60 36 95t96 35q62 0 97.5 -35t35.5 -95zM743 484v105q1 25 -14 43t-50 19q-30 0 -46.5 -16.5t-16.5 -45.5v-105q-1 -26 14 -43.5t49 -18.5q30 0 47 16.5t17 45.5zM483 0h-93l-238 560v-560
h-77v713h91l240 -568v568h77v-713z" />
    <glyph glyph-name="soundcopyright" unicode="&#x2117;" horiz-adv-x="857" 
d="M454 292h-60v-154h-65v403h125q36 0 58 -13q24 -13 41 -41.5t15 -58.5v-23q2 -32 -16 -60q-33 -53 -98 -53zM503 405v21q-5 28 -17.5 41t-31.5 9h-60v-120h61q19 -4 31 8.5t17 40.5zM77 348q0 109 60 197q22 32 55 65q38 39 102 65.5t135 26.5q75 0 137 -28
q99 -42 155 -129q60 -88 60 -197q0 -106 -60 -198q-18 -27 -55 -65q-39 -39 -102.5 -65t-134.5 -26q-73 0 -138 27q-95 42 -154 129q-60 92 -60 198zM148 348q0 -87 47 -159q18 -27 43 -52q31 -31 82.5 -52t107.5 -21q82 -1 146 40.5t88 84.5q48 74 48 159t-48 159
q-24 43 -88 84.5t-146 40.5q-60 0 -110 -22q-78 -33 -123 -103q-47 -72 -47 -159z" />
    <glyph glyph-name="trademark" unicode="&#x2122;" horiz-adv-x="687" 
d="M612 316h-65v242l-45 -145h-51l-45 144v-241h-65v386h88l48 -172l46 172h89v-386zM326 638h-93v-322h-66v322h-92v64h251v-64z" />
    <glyph glyph-name="Omega" unicode="&#x2126;" horiz-adv-x="529" 
d="M281 0v64q58 9 86 40.5t26 77.5v348q-2 39 -15 61q-13 25 -45.5 41.5t-67.5 14.5q-36 2 -68 -15t-45.5 -40.5t-14.5 -61.5v-348q-2 -45 26.5 -77t85.5 -41v-64h-224v65h77q-38 54 -38 117v350q0 61 40 116q59 69 161 71q56 0 107 -26q42 -20 69 -72t24 -90v-350
q0 -62 -38 -116h77v-65h-223z" />
    <glyph glyph-name="partialdiff" unicode="&#x2202;" horiz-adv-x="526" 
d="M386 180v77q0 38 -13 60q-13 24 -44.5 41t-64.5 15q-35 2 -66 -16q-57 -32 -58 -100v-77q2 -39 14 -60q13 -24 45 -40.5t65 -14.5q34 -1 65 15q31 17 44 40t13 60zM461 532v-357q0 -62 -41 -115q-57 -67 -156 -69q-56 0 -108 26q-42 20 -68 71.5t-23 88.5v81q0 61 39 117
q33 42 70 56t86 16q37 -1 72 -16t54 -37v136q0 38 -13 60q-13 25 -44 41t-66 14v75q56 0 107 -26q42 -20 68 -72t23 -90z" />
    <glyph glyph-name="increment" unicode="&#x2206;" horiz-adv-x="532" 
d="M513 0h-494l185 713h123zM257 641l-146 -568h308l-145 568h-17z" />
    <glyph glyph-name="product" unicode="&#x220f;" horiz-adv-x="554" 
d="M483 0h-76v629h-260v-629h-76v703h412v-703z" />
    <glyph glyph-name="summation" unicode="&#x2211;" horiz-adv-x="553" 
d="M488 646h-320l262 -254v-61l-263 -263h321v-68h-423v62l300 300l-300 290v62h423v-68z" />
    <glyph glyph-name="minus" unicode="&#x2212;" horiz-adv-x="555" 
d="M465 247h-375v71h375v-71z" />
    <glyph glyph-name="radical" unicode="&#x221a;" horiz-adv-x="605" 
d="M275 -144h6l234 848h79l-257 -920h-118l-148 526h79z" />
    <glyph glyph-name="infinity" unicode="&#x221e;" horiz-adv-x="844" 
d="M442 181l-20 34l-20 -34q-25 -41 -65.5 -67t-88.5 -27q-78 0 -127.5 54t-49.5 140q0 85 50 139t127 54q48 -1 88.5 -27t65.5 -67l20 -32l20 32q25 42 65 67.5t89 26.5q77 0 127 -54t50 -139q0 -86 -49.5 -140t-127.5 -54q-48 1 -88.5 27t-65.5 67zM501 335l-37 -54
l37 -55q41 -65 92 -65q50 1 78.5 34t28.5 86q0 52 -28.5 85t-78.5 34q-51 0 -92 -65zM251 400q-50 -1 -78.5 -34t-28.5 -85t28.5 -85.5t78.5 -34.5q51 0 92 65l37 55q-20 32 -37 54q-41 65 -92 65z" />
    <glyph glyph-name="integral" unicode="&#x222b;" horiz-adv-x="289" 
d="M166 566v-645q0 -70 -35 -103.5t-91 -33.5h-29v75h24q24 -1 39 13t16 44v638q0 70 35.5 109.5t105.5 39.5h47v-74h-56q-23 1 -39 -14.5t-17 -48.5z" />
    <glyph glyph-name="approxequal" unicode="&#x2248;" horiz-adv-x="536" 
d="M410 419l51 -40q-40 -39 -66.5 -53t-54.5 -13q-40 3 -73 22q-36 20 -75 23q-26 6 -69 -40l-48 40q38 40 64.5 54t54.5 13q37 -3 73 -23t75 -23q25 -6 68 40zM410 282l51 -40q-40 -39 -66.5 -53t-54.5 -13q-40 3 -73 22q-36 20 -75 23q-26 6 -69 -40l-48 40q38 40 64.5 54
t54.5 13q37 -3 73 -23t75 -23q25 -6 68 40z" />
    <glyph glyph-name="notequal" unicode="&#x2260;" horiz-adv-x="558" 
d="M472 186h-201l-116 -251h-80l118 251h-103v71h135l34 70h-169v71h202l113 240h78l-113 -240h102v-71h-134l-34 -70h168v-71z" />
    <glyph glyph-name="lessequal" unicode="&#x2264;" horiz-adv-x="479" 
d="M404 115h-103l-263 265l261 261h103l-260 -261zM431 0h-376v71h376v-71z" />
    <glyph glyph-name="greaterequal" unicode="&#x2265;" horiz-adv-x="480" 
d="M442 380l-265 -265h-103l263 265l-260 261h103zM424 0h-376v71h376v-71z" />
    <glyph glyph-name="lozenge" unicode="&#x25ca;" horiz-adv-x="531" 
d="M65 356l157 358h85l159 -358l-159 -356h-85zM141 356l125 -286l123 286l-124 287z" />
    <glyph glyph-name="fi" unicode="&#xfb01;" horiz-adv-x="575" 
d="M417 452h-237v-452h-75v452h-91v73h91v39q0 70 35.5 109.5t105.5 39.5h47v-73h-56q-23 1 -39.5 -15t-17.5 -49v-51h312v-525h-75v452zM500 612h-91v108h91v-108z" />
    <glyph glyph-name="fl" unicode="&#xfb02;" horiz-adv-x="574" 
d="M408 525v188h75v-581q1 -59 56 -59h24v-73h-29q-56 0 -91 33.5t-35 102.5v316h-227v-452h-75v452h-91v73h91v39q0 70 35.5 109.5t105.5 39.5h47v-73h-56q-23 1 -39.5 -15t-17.5 -49v-51h227z" />
    <glyph glyph-name="NULL" horiz-adv-x="0" 
 />
    <glyph glyph-name="CR.001" horiz-adv-x="333" 
 />
    <glyph glyph-name="CR" horiz-adv-x="250" 
 />
    <glyph glyph-name="circumflexacute" horiz-adv-x="441" 
d="M359 574h-78l-59 58l-58 -58h-78l106 111h59zM358 805l-89 -83h-70l76 83h83z" />
    <glyph glyph-name="circumflexgrave" horiz-adv-x="441" 
d="M358 574h-78l-59 58l-58 -58h-78l106 111h59zM180 722l-89 83h82l77 -83h-70z" />
    <glyph glyph-name="circumflexhookabove" horiz-adv-x="441" 
d="M200 805l-40 31q28 27 60 27q36 -1 58.5 -23t23.5 -56q-1 -32 -23 -54.5t-56 -26.5v53q25 4 27 28q0 25 -31 28q-12 0 -19 -7zM359 574h-78l-59 58l-58 -58h-78l106 111h59z" />
    <glyph glyph-name="circumflextilde" horiz-adv-x="441" 
d="M308 802l37 -33q-42 -48 -80 -46q-27 1 -51 14q-20 11 -40 13q-17 5 -46 -24l-35 32q40 47 79 45q27 -1 53 -15q23 -11 38 -12q17 -5 45 26zM357 574h-78l-58 58l-59 -58h-78l107 111h59z" />
    <glyph glyph-name="breveacute" horiz-adv-x="426" 
d="M213 575q-49 1 -81.5 34t-33.5 84h60q0 -28 15 -44t40 -16q26 0 41 16t15 44h60q-1 -51 -33.5 -84t-82.5 -34zM328 801l-89 -82h-70l77 82h82z" />
    <glyph glyph-name="brevegrave" horiz-adv-x="426" 
d="M189 719l-89 82h83l76 -82h-70zM212 575q-49 1 -81.5 34t-33.5 84h60q0 -28 15 -44t40 -16q26 0 41 16t15 44h60q-1 -51 -33.5 -84t-82.5 -34z" />
    <glyph glyph-name="brevehookabove" horiz-adv-x="426" 
d="M213 575q-49 1 -81.5 34t-33.5 84h60q0 -28 15 -44t40 -16q26 0 41 16t15 44h60q-1 -51 -33.5 -84t-82.5 -34zM189 802l-40 32q29 27 60 27q36 -1 58.5 -23t23.5 -56q-1 -32 -23 -55t-56 -26v52q25 6 27 29q0 25 -31 28q-11 -1 -19 -8z" />
    <glyph glyph-name="brevetilde" horiz-adv-x="427" 
d="M213 575q-49 1 -81.5 34t-33.5 84h60q0 -28 15 -44t40 -16q26 0 41 16t15 44h60q-1 -51 -33.5 -84t-82.5 -34zM303 816l37 -33q-42 -48 -80 -46q-27 1 -51 14q-20 11 -40 13q-17 5 -46 -24l-35 32q40 47 79 45q27 -1 53 -15q23 -11 38 -12q17 -5 45 26z" />
    <glyph glyph-name="dieresismacron" horiz-adv-x="447" 
d="M361 801h-275v48h275v-48zM372 616h-88v103h88v-103zM163 616h-88v103h88v-103z" />
    <glyph glyph-name="dieresisacute" horiz-adv-x="443" 
d="M331 840l-89 -83h-70l76 83h83zM372 616h-88v103h88v-103zM163 616h-88v103h88v-103z" />
    <glyph glyph-name="dieresiscaron" horiz-adv-x="443" 
d="M86 868h78l59 -58l58 58h78l-106 -111h-59zM372 616h-88v103h88v-103zM163 616h-88v103h88v-103z" />
    <glyph glyph-name="dieresisgrave" horiz-adv-x="443" 
d="M187 757l-89 83h82l77 -83h-70zM372 616h-88v103h88v-103zM163 616h-88v103h88v-103z" />
    </font>
</defs>
</svg>
